<svg width="24" height="24" viewBox="0 0 24 24" fill="none" xmlns="http://www.w3.org/2000/svg">
<path d="M21.7674 11.9999C21.7674 17.3949 17.3949 21.7674 11.9999 21.7674C6.60497 21.7674 2.23242 17.3949 2.23242 11.9999C2.23242 6.60777 6.60497 2.23242 11.9999 2.23242C17.3921 2.23242 21.7674 6.60777 21.7674 11.9999Z" fill="#FFDA24"/>
<path d="M3.95798 3.07003L3.07003 3.95798C2.61064 4.41737 2.61064 5.16807 3.07003 5.62745L3.93557 6.493C4.62185 5.4902 5.4902 4.62185 6.4958 3.93557L5.63025 3.07283C5.17087 2.61064 4.41737 2.61064 3.95798 3.07003ZM20.042 3.07003C19.5826 2.61064 18.8291 2.61064 18.3697 3.07003L17.5042 3.93557C18.507 4.62185 19.3754 5.4902 20.0616 6.4958L20.9272 5.63025C21.3866 5.17087 21.3866 4.41737 20.9272 3.95798L20.042 3.07003ZM12.6275 0H11.3725C10.7227 0 10.1905 0.532213 10.1905 1.18207V2.40896C10.7787 2.29972 11.381 2.23529 12 2.23529C12.619 2.23529 13.2213 2.29972 13.8095 2.40896V1.18207C13.8095 0.532213 13.2773 0 12.6275 0ZM1.18207 10.1905C0.532213 10.1905 0 10.7227 0 11.3725V12.6275C0 13.2773 0.532213 13.8095 1.18207 13.8095H2.40896C2.29972 13.2213 2.23529 12.619 2.23529 12C2.23529 11.381 2.29972 10.7759 2.40896 10.1905H1.18207V10.1905ZM20.0644 17.5042C19.3782 18.507 18.5098 19.3754 17.507 20.0616L18.3725 20.9244C18.8319 21.3838 19.5854 21.3838 20.0448 20.9244L20.9328 20.0364C21.3922 19.577 21.3922 18.8235 20.9328 18.3641L20.0644 17.5042ZM22.8179 10.1905H21.5938C21.7031 10.7787 21.7675 11.381 21.7675 12C21.7675 12.619 21.7031 13.2213 21.5938 13.8095H22.8179C23.4678 13.8095 24 13.2773 24 12.6275V11.3725C24 10.7227 23.4678 10.1905 22.8179 10.1905ZM3.93557 17.5042L3.07003 18.3697C2.61064 18.8291 2.61064 19.5798 3.07003 20.042L3.95798 20.93C4.41737 21.3894 5.17087 21.3894 5.63025 20.93L6.4958 20.0672C5.4902 19.3782 4.62185 18.5098 3.93557 17.5042ZM10.1905 21.591V22.8179C10.1905 23.4678 10.7227 24 11.3725 24H12.6275C13.2773 24 13.8095 23.4678 13.8095 22.8179V21.591C13.2213 21.7003 12.619 21.7647 12 21.7647C11.381 21.7675 10.7759 21.7031 10.1905 21.591Z" fill="#FFDA24"/>
<path d="M10.1903 1.8996V2.4094C10.7786 2.30016 11.3808 2.23573 11.9999 2.23573C12.6189 2.23573 13.2212 2.30016 13.8094 2.4094V1.8996C13.2212 1.79596 12.6189 1.73153 11.9999 1.73153C11.3808 1.72873 10.7786 1.79316 10.1903 1.8996ZM20.0643 6.49624L20.4256 6.13489C19.731 5.1377 18.8626 4.27215 17.8682 3.57747L17.5069 3.93602C18.5097 4.62229 19.378 5.49064 20.0643 6.49624ZM1.89902 10.1909C1.79258 10.7792 1.73096 11.3814 1.73096 12.0004C1.73096 12.6195 1.79538 13.2217 1.89902 13.81H2.40883C2.29958 13.2217 2.23516 12.6195 2.23516 12.0004C2.23516 11.3814 2.29958 10.7764 2.40883 10.1909H1.89902ZM17.5041 20.0649L17.8654 20.4234C18.8626 19.7287 19.7282 18.8632 20.4228 17.866L20.0615 17.5046C19.378 18.5102 18.5097 19.3786 17.5041 20.0649ZM22.1007 10.1909H21.5909C21.7001 10.7792 21.7646 11.3814 21.7646 12.0004C21.7646 12.6195 21.7001 13.2217 21.5909 13.81H22.1007C22.2043 13.2217 22.2688 12.6195 22.2688 12.0004C22.2688 11.3814 22.2071 10.7792 22.1007 10.1909ZM10.1903 21.5915V22.1013C10.7786 22.2049 11.3808 22.2693 11.9999 22.2693C12.6189 22.2693 13.2212 22.2049 13.8094 22.1013V21.5915C13.2212 21.7007 12.6189 21.7651 11.9999 21.7651C11.3808 21.7679 10.7758 21.7035 10.1903 21.5915ZM3.93544 17.5046L3.5769 17.866C4.27157 18.8632 5.13992 19.7315 6.13432 20.4262L6.49566 20.0677C5.49006 19.3786 4.62171 18.5102 3.93544 17.5046ZM3.57409 6.13489L3.93544 6.49344C4.62171 5.49064 5.49006 4.62229 6.49566 3.93602L6.13432 3.57747C5.13712 4.27215 4.27157 5.1377 3.57409 6.13489Z" fill="#FFA300"/>
<path opacity="0.15" d="M18.3697 3.07003L17.5042 3.93557C16.4118 3.18767 15.1569 2.66106 13.8067 2.40896V1.18207C13.8095 0.532213 13.2773 0 12.6275 0H11.3725C10.7227 0 10.1905 0.532213 10.1905 1.18207V2.40896C8.84034 2.66106 7.58824 3.19048 6.4958 3.93557L5.63025 3.07283C5.17087 2.61345 4.42017 2.61345 3.96078 3.07283L3.07283 3.96078C2.61345 4.42017 2.61345 5.17087 3.07283 5.63025L3.93838 6.4958C3.19048 7.58824 2.66387 8.84314 2.41176 10.1933H1.18207C0.532213 10.1905 0 10.7227 0 11.3725V12.6275C0 13.2773 0.532213 13.8095 1.18207 13.8095H2.40896C2.66106 15.1597 3.19048 16.4118 3.93557 17.5042L3.07003 18.3697C2.61064 18.8291 2.61064 19.5798 3.07003 20.042L3.58263 20.5546L20.5518 3.58263L20.0392 3.07003C19.5826 2.61064 18.8291 2.61064 18.3697 3.07003Z" fill="white"/>
</svg>
