<?xml version="1.0" ?>
<svg xmlns="http://www.w3.org/2000/svg" width="28" height="28" viewBox="0 0 28 28">
  <g transform="translate(0,2)">
    <path d="M4.237,14.005C4.355,13.939 4.495,13.925 4.624,13.967L7.475,14.885L9.213,13.912L7.245,13.239C7.138,13.203 7.048,13.13 6.991,13.035L6.973,13.004C6.842,12.783 6.919,12.502 7.146,12.375C7.263,12.31 7.404,12.296 7.532,12.337L10.384,13.255L11.939,12.385V11.615L10.384,10.744L7.533,11.663C7.404,11.704 7.263,11.69 7.146,11.625C6.92,11.498 6.842,11.216 6.973,10.996L6.991,10.964C7.048,10.869 7.138,10.797 7.245,10.76L9.213,10.088L7.475,9.114L4.624,10.033C4.495,10.074 4.355,10.06 4.237,9.994C4.011,9.867 3.933,9.586 4.064,9.366L4.083,9.334C4.14,9.239 4.229,9.167 4.336,9.13L6.304,8.458L5.327,7.91C4.998,7.726 4.886,7.318 5.075,6.999C5.265,6.68 5.685,6.571 6.014,6.755L6.991,7.303L6.607,5.313C6.586,5.205 6.606,5.093 6.663,4.998L6.682,4.966C6.812,4.746 7.102,4.671 7.329,4.798C7.446,4.864 7.529,4.975 7.556,5.104L8.163,7.959L9.9,8.932L9.516,6.942C9.495,6.834 9.515,6.723 9.572,6.628L9.59,6.596C9.721,6.376 10.011,6.301 10.238,6.428C10.355,6.493 10.438,6.605 10.465,6.733L11.071,9.589L12.186,10.213L13.313,9.667V8.333L11.067,6.397C10.966,6.309 10.908,6.184 10.908,6.053C10.908,5.799 11.12,5.593 11.382,5.593H11.42C11.533,5.593 11.642,5.632 11.728,5.703L13.313,7.021V5.074L11.067,3.138C10.966,3.05 10.908,2.925 10.908,2.793C10.908,2.539 11.12,2.333 11.382,2.333H11.42C11.533,2.333 11.642,2.373 11.728,2.444L13.313,3.762V2.667C13.313,2.298 13.62,2 14,2C14.38,2 14.687,2.298 14.687,2.667V3.762L16.271,2.444C16.357,2.373 16.467,2.334 16.58,2.334H16.618C16.879,2.334 17.092,2.54 17.092,2.794C17.092,2.925 17.034,3.05 16.933,3.138L14.687,5.074V7.021L16.271,5.704C16.357,5.632 16.467,5.593 16.58,5.593H16.618C16.879,5.593 17.092,5.799 17.092,6.053C17.092,6.184 17.034,6.31 16.933,6.397L14.687,8.333V9.667L15.814,10.214L16.929,9.589L17.535,6.734C17.562,6.605 17.645,6.494 17.762,6.428C17.989,6.301 18.279,6.377 18.41,6.597L18.429,6.628C18.485,6.723 18.505,6.835 18.484,6.943L18.1,8.933L19.838,7.96L20.444,5.104C20.471,4.976 20.554,4.864 20.671,4.799C20.898,4.672 21.188,4.747 21.319,4.967L21.338,4.999C21.394,5.094 21.414,5.205 21.393,5.313L21.009,7.304L21.986,6.756C22.315,6.572 22.736,6.681 22.925,7C23.115,7.319 23.002,7.727 22.674,7.911L21.696,8.458L23.664,9.131C23.771,9.167 23.861,9.24 23.917,9.335L23.936,9.367C24.067,9.586 23.99,9.868 23.763,9.995C23.646,10.061 23.505,10.075 23.376,10.033L20.525,9.115L18.787,10.088L20.756,10.761C20.862,10.797 20.952,10.87 21.009,10.965L21.028,10.997C21.159,11.217 21.081,11.498 20.854,11.625C20.737,11.69 20.596,11.704 20.468,11.663L17.617,10.745L16.061,11.615V12.385L17.616,13.256L20.467,12.337C20.596,12.296 20.736,12.31 20.854,12.375C21.08,12.502 21.158,12.784 21.027,13.004L21.008,13.035C20.952,13.13 20.862,13.203 20.755,13.24L18.787,13.912L20.524,14.886L23.376,13.967C23.504,13.926 23.645,13.939 23.762,14.005C23.989,14.132 24.067,14.414 23.936,14.634L23.917,14.665C23.86,14.76 23.771,14.833 23.664,14.869L21.695,15.542L22.673,16.09C23.002,16.274 23.114,16.681 22.924,17C22.735,17.319 22.315,17.428 21.986,17.244L21.008,16.697L21.392,18.687C21.413,18.795 21.393,18.907 21.337,19.002L21.318,19.033C21.187,19.253 20.897,19.329 20.671,19.202C20.553,19.136 20.471,19.025 20.443,18.896L19.837,16.041L18.099,15.067L18.483,17.057C18.504,17.165 18.484,17.277 18.428,17.372L18.409,17.404C18.278,17.624 17.988,17.699 17.762,17.572C17.645,17.506 17.562,17.395 17.534,17.266L16.928,14.411L15.814,13.787L14.687,14.333V15.666L16.933,17.603C17.034,17.691 17.092,17.816 17.092,17.947C17.092,18.201 16.879,18.407 16.618,18.407H16.58C16.467,18.407 16.358,18.368 16.272,18.296L14.687,16.979V18.926L16.933,20.862C17.034,20.95 17.092,21.075 17.092,21.206C17.092,21.46 16.879,21.666 16.618,21.666H16.58C16.467,21.666 16.358,21.627 16.272,21.556L14.687,20.238V21.333C14.687,21.702 14.38,22 14,22C13.62,22 13.313,21.702 13.313,21.333V20.238L11.729,21.556C11.643,21.627 11.533,21.666 11.42,21.666H11.383C11.121,21.666 10.909,21.46 10.909,21.206C10.909,21.075 10.967,20.95 11.068,20.862L13.313,18.926V16.979L11.729,18.296C11.643,18.368 11.533,18.407 11.42,18.407H11.383C11.121,18.407 10.909,18.201 10.909,17.947C10.909,17.816 10.967,17.69 11.068,17.603L13.313,15.666V14.333L12.186,13.786L11.071,14.41L10.465,17.266C10.438,17.394 10.355,17.506 10.238,17.571C10.011,17.698 9.721,17.623 9.59,17.403L9.571,17.372C9.515,17.276 9.495,17.165 9.516,17.057L9.9,15.066L8.162,16.04L7.556,18.895C7.529,19.024 7.446,19.135 7.329,19.201C7.102,19.328 6.812,19.253 6.681,19.033L6.662,19.001C6.606,18.906 6.586,18.794 6.607,18.686L6.991,16.696L6.013,17.244C5.685,17.428 5.265,17.318 5.075,17C4.885,16.681 4.998,16.273 5.326,16.089L6.304,15.541L4.336,14.869C4.229,14.833 4.139,14.76 4.082,14.665L4.064,14.633C3.933,14.413 4.01,14.132 4.237,14.005ZM13.313,12.667L14,13L14.687,12.667V11.333L14,11L13.313,11.333V12.667Z" fill="#ffffff"/>
  </g>
</svg>
