<?xml version="1.0" ?>
<svg xmlns="http://www.w3.org/2000/svg" width="23" height="23" viewBox="0 0 23 23">
  <g transform="translate(1,1)">
    <path d="M10.5,0C4.711,0 0,4.711 0,10.5C0,16.289 4.711,21 10.5,21C16.289,21 21,16.289 21,10.5C21,4.711 16.289,0 10.5,0ZM10.5,20.125C6.103,20.125 2.387,17.16 1.242,13.125H7.469C8.197,14.226 9.314,14.875 10.5,14.875C11.686,14.875 12.803,14.226 13.531,13.125H19.758C18.613,17.16 14.897,20.125 10.5,20.125ZM13.289,12.25C13.133,12.25 12.99,12.332 12.911,12.466C12.349,13.426 11.447,14 10.5,14C9.553,14 8.652,13.426 8.089,12.466C8.01,12.332 7.867,12.25 7.711,12.25H1.037C0.93,11.673 0.876,11.087 0.875,10.5C0.875,5.193 5.193,0.875 10.5,0.875C15.807,0.875 20.125,5.193 20.125,10.5C20.124,11.087 20.07,11.673 19.963,12.25H13.289Z" fill="#ffffff"/>
    <path d="M13.691,6.253L11.086,8.858C10.898,8.788 10.7,8.752 10.5,8.75C9.534,8.75 8.75,9.533 8.75,10.5C8.75,11.467 9.533,12.25 10.5,12.25C11.461,12.255 12.245,11.479 12.25,10.518C12.252,10.093 12.099,9.682 11.819,9.363L14.309,6.872C14.477,6.698 14.472,6.421 14.299,6.253C14.129,6.089 13.86,6.089 13.691,6.253ZM10.5,11.375C10.017,11.375 9.625,10.983 9.625,10.5C9.625,10.017 10.017,9.625 10.5,9.625C10.983,9.625 11.375,10.017 11.375,10.5C11.375,10.983 10.983,11.375 10.5,11.375Z" fill="#ffffff"/>
    <path d="M10.5,3.938C10.742,3.938 10.938,3.742 10.938,3.5V1.75C10.938,1.508 10.742,1.313 10.5,1.313C10.258,1.313 10.063,1.508 10.063,1.75V3.5C10.063,3.742 10.258,3.938 10.5,3.938Z" fill="#ffffff"/>
    <path d="M19.25,10.063H17.5C17.258,10.063 17.063,10.258 17.063,10.5C17.063,10.742 17.258,10.938 17.5,10.938H19.25C19.492,10.938 19.688,10.742 19.688,10.5C19.688,10.258 19.492,10.063 19.25,10.063Z" fill="#ffffff"/>
    <path d="M3.5,10.063H1.75C1.508,10.063 1.313,10.258 1.313,10.5C1.313,10.742 1.508,10.938 1.75,10.938H3.5C3.742,10.938 3.938,10.742 3.938,10.5C3.938,10.258 3.742,10.063 3.5,10.063Z" fill="#ffffff"/>
    <path d="M7.338,4.149L6.594,2.858C6.472,2.649 6.204,2.579 5.996,2.702C5.789,2.823 5.718,3.087 5.837,3.295L6.58,4.586C6.7,4.796 6.967,4.87 7.177,4.75C7.387,4.631 7.46,4.364 7.341,4.154C7.34,4.152 7.339,4.15 7.338,4.149Z" fill="#ffffff"/>
    <path d="M18.307,5.998C18.187,5.788 17.92,5.714 17.71,5.834C17.708,5.835 17.707,5.836 17.705,5.837L16.414,6.58C16.205,6.701 16.133,6.969 16.254,7.178C16.332,7.313 16.476,7.397 16.633,7.397C16.71,7.397 16.785,7.377 16.852,7.338L18.143,6.595C18.353,6.475 18.426,6.208 18.307,5.998Z" fill="#ffffff"/>
    <path d="M4.591,6.582C4.589,6.581 4.588,6.58 4.586,6.579L3.295,5.835C3.087,5.713 2.819,5.783 2.696,5.992C2.574,6.2 2.644,6.468 2.853,6.59C2.854,6.591 2.856,6.592 2.858,6.593L4.149,7.337C4.357,7.459 4.625,7.389 4.747,7.181C4.869,6.972 4.8,6.704 4.591,6.582Z" fill="#ffffff"/>
    <path d="M14.999,2.699C14.791,2.581 14.526,2.652 14.405,2.858L13.662,4.149C13.541,4.358 13.613,4.626 13.822,4.747C14.031,4.868 14.299,4.796 14.42,4.587L15.163,3.296C15.283,3.086 15.209,2.819 14.999,2.699Z" fill="#ffffff"/>
  </g>
</svg>
