<svg width="25" height="25" viewBox="0 0 25 25" fill="none" xmlns="http://www.w3.org/2000/svg">
<path d="M24.2772 12.2017C24.2772 18.8301 18.9042 24.2003 12.2786 24.2003C5.65308 24.2003 0.280029 18.8273 0.280029 12.2017C0.280029 5.57617 5.65308 0.203126 12.2786 0.203126C18.9042 0.200312 24.2772 5.57336 24.2772 12.2017Z" fill="#C6C5A3"/>
<path d="M12.2787 0.200195C9.90597 0.200195 7.69651 0.892586 5.83607 2.08034C4.64831 3.94079 3.95874 6.15024 3.95874 8.52294C3.95874 15.1513 9.33179 20.5215 15.9573 20.5215C18.33 20.5215 20.5395 19.832 22.3999 18.6442C23.5877 16.7809 24.2773 14.5743 24.2773 12.2016C24.2773 5.57324 18.9042 0.200195 12.2787 0.200195Z" fill="#D1D1B0"/>
<path d="M6.7875 10.7205C6.7875 11.9618 5.77988 12.9694 4.53865 12.9694C3.2946 12.9694 2.28979 11.9618 2.28979 10.7205C2.28979 9.4793 3.29741 8.47168 4.53865 8.47168C5.77988 8.47168 6.7875 9.4793 6.7875 10.7205Z" fill="#B7B284"/>
<path d="M4.53853 8.47168C4.09383 8.47168 3.68008 8.60115 3.33107 8.8235C3.10872 9.17251 2.97925 9.58626 2.97925 10.031C2.97925 11.275 3.98687 12.2798 5.2281 12.2798C5.67281 12.2798 6.08655 12.1503 6.43556 11.928C6.65791 11.579 6.78739 11.1652 6.78739 10.7205C6.78739 9.4793 5.77977 8.47168 4.53853 8.47168Z" fill="#C1BE99"/>
<path d="M15.977 11.6894C15.977 13.4289 14.5641 14.8418 12.8247 14.8418C11.0825 14.8418 9.67236 13.4317 9.67236 11.6894C9.67236 9.94721 11.0825 8.53711 12.8247 8.53711C14.5641 8.53711 15.977 9.94721 15.977 11.6894Z" fill="#B7B284"/>
<path d="M12.8245 8.53711C12.2025 8.53711 11.6199 8.72006 11.1329 9.02966C10.8205 9.5194 10.6404 10.0992 10.6404 10.7212C10.6404 12.4635 12.0533 13.8736 13.7927 13.8736C14.4147 13.8736 14.9945 13.6934 15.4843 13.381C15.7967 12.8913 15.9768 12.3115 15.9768 11.6894C15.9768 9.94721 14.5639 8.53711 12.8245 8.53711Z" fill="#C1BE99"/>
<path d="M8.5971 18.4247C8.5971 19.1508 8.00604 19.7419 7.27987 19.7419C6.55089 19.7419 5.96265 19.1508 5.96265 18.4247C5.96265 17.6985 6.55089 17.1074 7.27987 17.1074C8.00604 17.1074 8.5971 17.6985 8.5971 18.4247Z" fill="#B7B284"/>
<path d="M7.27984 17.1074C7.01809 17.1074 6.77604 17.1834 6.57339 17.3129C6.44392 17.5184 6.36792 17.7604 6.36792 18.0194C6.36792 18.7483 6.95617 19.3366 7.68515 19.3366C7.94409 19.3366 8.18614 19.2606 8.39161 19.1311C8.52108 18.9256 8.59707 18.6836 8.59707 18.4218C8.59707 17.6985 8.00601 17.1074 7.27984 17.1074Z" fill="#C1BE99"/>
<path d="M19.5234 5.27768C19.5234 6.16991 18.8 6.89326 17.9078 6.89326C17.0156 6.89326 16.2922 6.16991 16.2922 5.27768C16.2922 4.38546 17.0156 3.66211 17.9078 3.66211C18.8 3.66211 19.5234 4.38546 19.5234 5.27768Z" fill="#B7B284"/>
<path d="M17.9078 3.66211C17.5869 3.66211 17.2914 3.75499 17.0409 3.91542C16.8805 4.16592 16.7876 4.46427 16.7876 4.78231C16.7876 5.67454 17.511 6.39789 18.4032 6.39789C18.724 6.39789 19.0196 6.30501 19.2701 6.14458C19.4305 5.89408 19.5234 5.59573 19.5234 5.27768C19.5234 4.38546 18.8 3.66211 17.9078 3.66211Z" fill="#C1BE99"/>
<path d="M9.85808 3.4194C9.85808 3.92884 9.44715 4.33977 8.93771 4.33977C8.42827 4.33977 8.01733 3.92884 8.01733 3.4194C8.01733 2.90995 8.42827 2.49902 8.93771 2.49902C9.44434 2.50184 9.85808 2.91277 9.85808 3.4194Z" fill="#B7B284"/>
<path d="M8.93761 2.50195C8.75467 2.50195 8.58579 2.55543 8.44506 2.6455C8.35499 2.78904 8.30151 2.95791 8.30151 3.14086C8.30151 3.64749 8.71244 4.06123 9.22188 4.06123C9.40483 4.06123 9.57371 4.00776 9.71725 3.91769C9.80732 3.77415 9.8608 3.60527 9.8608 3.42232C9.85798 2.91288 9.44424 2.50195 8.93761 2.50195Z" fill="#C1BE99"/>
<path d="M22.6953 13.4343C22.6953 14.3603 21.9438 15.1146 21.0178 15.1146C20.089 15.1146 19.3403 14.3631 19.3403 13.4343C19.3403 12.5083 20.0918 11.7568 21.0178 11.7568C21.9438 11.7568 22.6953 12.5083 22.6953 13.4343Z" fill="#B7B284"/>
<path d="M21.0179 11.7568C20.6858 11.7568 20.3762 11.8525 20.1172 12.0214C19.9512 12.2804 19.8555 12.5899 19.8555 12.9221C19.8555 13.8481 20.607 14.5996 21.533 14.5996C21.8651 14.5996 22.1747 14.5039 22.4336 14.3378C22.6025 14.0761 22.6954 13.7693 22.6954 13.4343C22.6954 12.5083 21.9439 11.7568 21.0179 11.7568Z" fill="#C1BE99"/>
<path d="M17.3224 20.3188C17.3224 21.1181 16.675 21.7655 15.8757 21.7655C15.0763 21.7655 14.429 21.1181 14.429 20.3188C14.429 19.5194 15.0763 18.8721 15.8757 18.8721C16.6778 18.8721 17.3224 19.5194 17.3224 20.3188Z" fill="#B7B284"/>
<path d="M15.8786 18.8721C15.5943 18.8721 15.3269 18.9565 15.1018 19.1001C14.9582 19.3252 14.8738 19.5898 14.8738 19.8769C14.8738 20.6762 15.5211 21.3236 16.3205 21.3236C16.6076 21.3236 16.8721 21.242 17.0973 21.0984C17.2408 20.8732 17.3253 20.6059 17.3253 20.3216C17.3225 19.5194 16.6779 18.8721 15.8786 18.8721Z" fill="#C1BE99"/>
</svg>
