<svg width="31" height="20" viewBox="0 0 31 20" fill="none" xmlns="http://www.w3.org/2000/svg">
<path d="M17.3362 0.799805C13.8802 0.799805 10.9561 3.05163 9.94113 6.16828C7.99935 6.59906 6.41655 7.973 5.68879 9.78425C3.06167 9.87236 0.959961 12.023 0.959961 14.673C0.959961 17.3164 3.05514 19.4638 5.67573 19.5617V19.5715H17.4276V0.806338C17.3982 0.803075 17.3689 0.799805 17.3362 0.799805Z" fill="white"/>
<path d="M25.0545 7.62347C24.5878 3.80843 21.3602 0.848423 17.4309 0.802734V19.5679H24.8391V19.5548C28.021 19.4178 30.56 16.8004 30.56 13.5826C30.5567 10.4399 28.1319 7.86823 25.0545 7.62347Z" fill="#F2F4F9"/>
</svg>
