<?xml version="1.0" ?>
<svg xmlns="http://www.w3.org/2000/svg" width="24" height="24" viewBox="0 0 24 24">
  <path d="M15.029,13.931V4.125C15.029,2.455 13.67,1.097 12,1.097C10.33,1.097 8.971,2.455 8.971,4.125V13.931C7.731,14.876 7,16.336 7,17.903C7,20.66 9.243,22.903 12,22.903C14.757,22.903 17,20.66 17,17.903C17,16.336 16.269,14.876 15.029,13.931ZM12,21.596C9.964,21.596 8.307,19.939 8.307,17.903C8.307,16.657 8.934,15.503 9.983,14.816C10.168,14.695 10.279,14.489 10.279,14.269V4.125C10.279,3.176 11.051,2.404 12,2.404C12.949,2.404 13.722,3.176 13.722,4.125V14.269C13.722,14.489 13.833,14.695 14.017,14.816C15.066,15.503 15.693,16.658 15.693,17.903C15.693,19.939 14.036,21.596 12,21.596Z" fill="#ffffff"/>
  <path d="M12.653,15.83V7.191C12.653,6.83 12.361,6.538 12,6.538C11.639,6.538 11.346,6.83 11.346,7.191V15.83C10.465,16.108 9.827,16.931 9.827,17.903C9.827,19.103 10.8,20.076 12,20.076C13.2,20.076 14.173,19.103 14.173,17.903C14.173,16.931 13.534,16.108 12.653,15.83Z" fill="#ffffff"/>
</svg>
