<svg width="31" height="24" viewBox="0 0 31 24" fill="none" xmlns="http://www.w3.org/2000/svg">
<path d="M17.2264 0.169922C13.7703 0.169922 10.8462 2.42501 9.83128 5.5384C7.88949 5.96918 6.30344 7.34312 5.57894 9.15437C2.95181 9.24248 0.850098 11.3964 0.850098 14.0431C0.850098 16.6865 2.94527 18.8339 5.56587 18.9318V18.9416H17.3178V0.176455C17.2884 0.173192 17.2558 0.169922 17.2264 0.169922Z" fill="white"/>
<path d="M24.9412 6.99359C24.4712 3.17855 21.2469 0.218541 17.3176 0.172852V18.938H24.7258V18.925C27.911 18.7879 30.45 16.1706 30.45 12.9528C30.4467 9.81 28.0219 7.23835 24.9412 6.99359Z" fill="#F2F4F9"/>
<path d="M15.0237 15.3295C15.0237 15.5156 14.8736 15.6657 14.6876 15.6657H3.8364C3.65038 15.6657 3.50024 15.5156 3.50024 15.3295V14.6018C3.50024 14.4158 3.65038 14.2656 3.8364 14.2656H14.6908C14.8768 14.2656 15.027 14.4158 15.027 14.6018V15.3295H15.0237Z" fill="#00E1FF"/>
<path d="M4.96533 22.8195C4.96533 22.6335 5.11871 22.4834 5.30146 22.4834H16.1559C16.3419 22.4834 16.492 22.6368 16.492 22.8195V23.5473C16.492 23.7333 16.3419 23.8867 16.1559 23.8867H5.30146C5.11544 23.8867 4.96533 23.7333 4.96533 23.5473V22.8195Z" fill="#00E1FF"/>
<path d="M23.326 19.3549C23.326 19.5409 23.1759 19.6911 22.9899 19.6911H15.8657C15.6797 19.6911 15.5295 19.5409 15.5295 19.3549V18.6271C15.5295 18.4411 15.6797 18.291 15.8657 18.291H22.9899C23.1759 18.291 23.326 18.4411 23.326 18.6271V19.3549Z" fill="#00E1FF"/>
<path d="M19.1848 22.8195C19.1848 22.6335 19.3349 22.4834 19.5209 22.4834H26.6452C26.8312 22.4834 26.9813 22.6335 26.9813 22.8195V23.5506C26.9813 23.7366 26.8312 23.8867 26.6452 23.8867H19.5209C19.3349 23.8867 19.1848 23.7366 19.1848 23.5506V22.8195Z" fill="#00E1FF"/>
<path d="M7.14893 19.3647C7.14893 19.5442 7.29578 19.6878 7.47201 19.6878H11.7668C11.943 19.6878 12.0899 19.5409 12.0899 19.3647V18.6141C12.0899 18.4346 11.943 18.291 11.7668 18.291H7.47201C7.29252 18.291 7.14893 18.4379 7.14893 18.6141V19.3647Z" fill="#00E1FF"/>
<path d="M23.3586 15.3426C23.3586 15.5221 23.5055 15.6657 23.6817 15.6657H27.9765C28.156 15.6657 28.2996 15.5188 28.2996 15.3426V14.5887C28.2996 14.4092 28.1527 14.2656 27.9765 14.2656H23.6817C23.5022 14.2656 23.3586 14.4125 23.3586 14.5887V15.3426Z" fill="#00E1FF"/>
<path d="M17.9282 15.3426C17.9282 15.5221 18.0751 15.6657 18.2513 15.6657H19.4653C19.6448 15.6657 19.7884 15.5188 19.7884 15.3426V14.5887C19.7884 14.4092 19.6416 14.2656 19.4653 14.2656H18.2513C18.0718 14.2656 17.9282 14.4125 17.9282 14.5887V15.3426Z" fill="#00E1FF"/>
<path opacity="0.2" d="M19.7915 14.5874V15.3412C19.7915 15.5207 19.6446 15.6643 19.4684 15.6643H18.2544C18.1663 15.6643 18.0847 15.6284 18.0259 15.5697L20.7444 18.2882H22.993C23.179 18.2882 23.3291 18.4383 23.3291 18.6243V18.9376H24.2625L19.736 14.4111C19.7654 14.4633 19.7915 14.5221 19.7915 14.5874ZM15.0235 14.6004V15.3282C15.0235 15.5142 14.8734 15.6643 14.6874 15.6643H3.83621C3.74809 15.6643 3.6665 15.6284 3.60776 15.5697L3.60449 15.5729L6.96917 18.9376H7.15192V18.6113C7.15192 18.4318 7.2988 18.2882 7.47503 18.2882H11.7698C11.946 18.2882 12.0929 18.435 12.0929 18.6113V18.9376H15.5294V18.6243C15.5294 18.4383 15.6795 18.2882 15.8655 18.2882H18.8385L14.9615 14.4111C14.9974 14.4666 15.0235 14.5286 15.0235 14.6004ZM18.0096 15.5534L18.0194 15.5697C18.0162 15.5631 18.0161 15.5566 18.0096 15.5534ZM28.2505 14.4111H28.2407C28.2734 14.4633 28.2995 14.5188 28.2995 14.5874V15.3412C28.2995 15.5207 28.1526 15.6643 27.9764 15.6643H23.6816C23.6065 15.6643 23.538 15.6349 23.4825 15.5893L23.4793 15.5958L26.4686 18.5852C27.8491 18.0956 28.9913 17.1133 29.693 15.8536L28.2505 14.4111Z" fill="#122C3D"/>
</svg>
