<svg width="24" height="31" viewBox="0 0 24 31" fill="none" xmlns="http://www.w3.org/2000/svg">
<path d="M6.06445 16.2522C6.06445 16.2522 7.56417 13.7534 9.24232 16.071" stroke="black" stroke-miterlimit="10" stroke-linecap="round"/>
<path d="M13.6875 16.2522C13.6875 16.2522 15.1872 13.7534 16.8654 16.071" stroke="black" stroke-miterlimit="10" stroke-linecap="round"/>
<path d="M8.58789 24.8399C8.58789 24.8399 11.3622 21.6164 14.3573 24.8399C13.5926 26.833 11.2517 31.3249 8.58789 24.8399Z" stroke="black" stroke-miterlimit="10"/>
<path d="M9.75586 26.6854C9.75586 26.6854 11.4383 24.7302 13.1886 26.6854" stroke="black" stroke-miterlimit="10"/>
<path d="M18.6865 2.84375C18.6865 2.84375 17.8878 5.16553 11.0307 4.88321C4.17366 4.60089 -0.508175 8.11095 2.06216 17.061C4.6325 26.011 5.54592 29.2977 11.5448 29.9214C17.5437 30.545 20.1692 21.8183 20.8575 16.9472C21.5457 12.0761 21.7157 6.63614 17.3737 6.07149C17.9982 5.2793 18.8564 4.76944 18.6865 2.84375Z" stroke="black" stroke-miterlimit="10"/>
<path d="M20.7735 17.4824C20.064 15.1269 17.5404 13.3235 15.7136 12.0762C13.8867 10.8289 13.8867 9.41309 13.8867 9.41309" stroke="black" stroke-miterlimit="10" stroke-linecap="round"/>
<path d="M3.79669 22.7959C3.79669 22.7959 1.71918 23.1836 0.97569 20.9714C0.232205 18.7591 0.325672 16.8798 2.2205 17.6214C4.11957 18.363 4.39997 15.9275 4.51468 15.4724C4.62939 15.0173 4.11532 10.2052 7.94321 10.3737C11.7711 10.5423 13.8826 8.89893 13.8826 8.89893" stroke="black" stroke-miterlimit="10" stroke-linecap="round"/>
<path d="M19.3965 22.8213C19.3965 22.8213 20.858 23.5798 21.8861 21.4265C22.9142 19.2733 23.1691 16.724 20.6413 18.2536" stroke="black" stroke-miterlimit="10"/>
<path d="M8.00231 18.932C8.32611 18.932 8.5886 18.4622 8.5886 17.8827C8.5886 17.3033 8.32611 16.8335 8.00231 16.8335C7.67851 16.8335 7.41602 17.3033 7.41602 17.8827C7.41602 18.4622 7.67851 18.932 8.00231 18.932Z" fill="black"/>
<path d="M14.9437 18.932C15.2675 18.932 15.53 18.4622 15.53 17.8827C15.53 17.3033 15.2675 16.8335 14.9437 16.8335C14.6199 16.8335 14.3574 17.3033 14.3574 17.8827C14.3574 18.4622 14.6199 18.932 14.9437 18.932Z" fill="black"/>
<path d="M11.4747 18.2827C11.4747 18.2827 11.9123 21.2155 10.9648 21.2913" stroke="black" stroke-miterlimit="10" stroke-linecap="round"/>
</svg>
