<svg width="22" height="31" viewBox="0 0 22 31" fill="none" xmlns="http://www.w3.org/2000/svg">
<path d="M15.2708 26.3068C17.959 23.8901 19.2934 18.9286 19.7395 15.7516C20.3641 11.2673 20.5231 6.2593 16.5586 5.7395C17.1328 5.01022 17.9163 4.54084 17.7573 2.76807C17.7573 2.76807 17.028 4.90548 10.7671 4.64558C4.50611 4.38567 0.231284 7.61313 2.57817 15.8524C4.13371 21.3143 5.02592 24.4836 7.04308 26.1671" stroke="black" stroke-miterlimit="10"/>
<path d="M19.6612 16.2401C19.0133 14.0717 16.7091 12.4114 15.0411 11.2631C13.373 10.1149 13.373 8.81152 13.373 8.81152" stroke="black" stroke-miterlimit="10" stroke-linecap="round"/>
<path d="M4.16031 21.1318C4.16031 21.1318 2.26341 21.4887 1.58456 19.4522C0.905705 17.4156 0.991046 15.6855 2.72115 16.3682C4.45513 17.051 4.71115 14.8088 4.81589 14.3899C4.92063 13.9709 4.45125 9.54092 7.94637 9.69608C11.4415 9.85125 13.3694 8.33838 13.3694 8.33838" stroke="black" stroke-miterlimit="10" stroke-linecap="round"/>
<path d="M18.4043 21.155C18.4043 21.155 19.7387 21.8533 20.6775 19.871C21.6162 17.8888 21.849 15.5419 19.5409 16.95" stroke="black" stroke-miterlimit="10"/>
<path d="M8.27609 23.9134C8.27609 23.9134 0.812601 14.2543 8.27609 13.5134C15.7396 12.7725 16.8374 14.5685 17.2253 15.2435C17.6132 15.9185 18.711 18.6765 14.0405 23.9134" stroke="black" stroke-miterlimit="10"/>
<path d="M8.0978 18.6258C8.7041 18.6258 9.1956 17.9954 9.1956 17.2177C9.1956 16.44 8.7041 15.8096 8.0978 15.8096C7.4915 15.8096 7 16.44 7 17.2177C7 17.9954 7.4915 18.6258 8.0978 18.6258Z" stroke="black" stroke-miterlimit="10"/>
<path d="M14.3205 18.6258C14.9268 18.6258 15.4183 17.9954 15.4183 17.2177C15.4183 16.44 14.9268 15.8096 14.3205 15.8096C13.7142 15.8096 13.2227 16.44 13.2227 17.2177C13.2227 17.9954 13.7142 18.6258 14.3205 18.6258Z" stroke="black" stroke-miterlimit="10"/>
<path d="M7.00337 27.168C7.00337 27.168 7.12363 22.5673 11.2898 22.7108C15.456 22.8543 15.4173 27.5908 15.4173 27.5908C15.4173 27.5908 14.7656 30.1743 11.2898 29.9609C7.81412 29.7476 6.80942 28.3744 7.00337 27.168Z" stroke="black" stroke-miterlimit="10"/>
<path d="M11.2898 28.5063C12.7745 28.5063 13.9781 27.6431 13.9781 26.5783C13.9781 25.5136 12.7745 24.6504 11.2898 24.6504C9.80513 24.6504 8.60156 25.5136 8.60156 26.5783C8.60156 27.6431 9.80513 28.5063 11.2898 28.5063Z" stroke="black" stroke-miterlimit="10"/>
<path d="M10.166 26.5781H12.666" stroke="black" stroke-width="0.8" stroke-miterlimit="10" stroke-linecap="round"/>
<path d="M10.166 25.7207H11.8327" stroke="black" stroke-width="0.8" stroke-miterlimit="10" stroke-linecap="round"/>
<path d="M10.166 27.4048H11.8327" stroke="black" stroke-width="0.8" stroke-miterlimit="10" stroke-linecap="round"/>
</svg>
