<svg width="24" height="31" viewBox="0 0 24 31" fill="none" xmlns="http://www.w3.org/2000/svg">
<path d="M19.3709 2.84375C19.3709 2.84375 18.5788 5.16553 11.7777 4.88321C4.97673 4.60089 0.333166 8.11095 2.88249 17.061C5.43182 26.011 6.33778 29.2977 12.2876 29.9214C18.2374 30.545 20.8415 21.8183 21.5242 16.9472C22.2068 12.0761 22.3754 6.63614 18.0689 6.07149C18.6883 5.2793 19.5395 4.76944 19.3709 2.84375Z" stroke="black" stroke-miterlimit="10"/>
<path d="M21.4399 17.4824C20.7362 15.1269 18.2332 13.3235 16.4213 12.0762C14.6094 10.8289 14.6094 9.41309 14.6094 9.41309" stroke="black" stroke-miterlimit="10" stroke-linecap="round"/>
<path d="M4.60212 22.7959C4.60212 22.7959 2.54159 23.1836 1.80418 20.9714C1.06678 18.7591 1.15948 16.8798 3.03882 17.6214C4.92237 18.363 5.20048 15.9275 5.31425 15.4724C5.42802 15.0173 4.91815 10.2052 8.71475 10.3737C12.5114 10.5423 14.6056 8.89893 14.6056 8.89893" stroke="black" stroke-miterlimit="10" stroke-linecap="round"/>
<path d="M20.0742 22.8213C20.0742 22.8213 21.5238 23.5798 22.5435 21.4265C23.5632 19.2733 23.816 16.724 21.3089 18.2536" stroke="black" stroke-miterlimit="10"/>
<path d="M8.77486 18.932C9.09601 18.932 9.35636 18.4622 9.35636 17.8827C9.35636 17.3033 9.09601 16.8335 8.77486 16.8335C8.45371 16.8335 8.19336 17.3033 8.19336 17.8827C8.19336 18.4622 8.45371 18.932 8.77486 18.932Z" fill="black"/>
<path d="M15.6596 18.932C15.9808 18.932 16.2411 18.4622 16.2411 17.8827C16.2411 17.3033 15.9808 16.8335 15.6596 16.8335C15.3385 16.8335 15.0781 17.3033 15.0781 17.8827C15.0781 18.4622 15.3385 18.932 15.6596 18.932Z" fill="black"/>
<path d="M14.6094 15.6367H17.3862" stroke="black" stroke-miterlimit="10" stroke-linecap="round"/>
<path d="M10.148 15.6367H7.23633" stroke="black" stroke-miterlimit="10" stroke-linecap="round"/>
<path d="M3.91797 20.6344C3.91797 20.6344 5.59083 23.6767 8.19494 21.8775C10.799 20.0782 11.7977 16.9389 16.239 21.9533C16.6225 22.3368 18.5481 23.5714 20.6466 21.0558" stroke="black" stroke-miterlimit="10"/>
<path d="M8.69295 25.0968C8.69295 25.0968 9.30394 23.7568 7.6985 23.563C6.09306 23.3692 6.3206 25.7457 7.6985 25.5561" stroke="black" stroke-miterlimit="10" stroke-linecap="round"/>
<path d="M12.2832 20.6558V23.5548" stroke="black" stroke-miterlimit="10" stroke-linecap="round"/>
<path d="M10.3574 23.2808C10.3574 23.2808 11.8322 24.1488 14.4068 23.2808" stroke="black" stroke-miterlimit="10" stroke-linecap="round"/>
<path d="M10.3574 24.5615C10.3574 24.5615 12.1651 25.7962 14.4068 24.5615" stroke="black" stroke-miterlimit="10" stroke-linecap="round"/>
<path d="M10.3574 25.8682C10.3574 25.8682 12.0092 27.3346 14.6091 25.8682" stroke="black" stroke-miterlimit="10" stroke-linecap="round"/>
</svg>
