<svg width="24" height="31" viewBox="0 0 24 31" fill="none" xmlns="http://www.w3.org/2000/svg">
<path d="M19.4393 22.5926C20.2431 20.4929 20.7311 18.2702 20.973 16.5437C21.6333 11.803 21.8014 6.50871 17.6103 5.95918C18.2172 5.18821 19.0456 4.692 18.8774 2.81787C18.8774 2.81787 18.1065 5.07748 11.4876 4.80272C4.86867 4.52796 0.353544 7.94403 2.83461 16.6544C3.47845 18.9181 4.01568 20.8128 4.5611 22.3834" stroke="black" stroke-miterlimit="10"/>
<path d="M20.8957 17.0642C20.2108 14.7718 17.7748 13.0166 16.0114 11.8027C14.248 10.5889 14.248 9.21094 14.248 9.21094" stroke="black" stroke-miterlimit="10" stroke-linecap="round"/>
<path d="M4.5079 22.2358C4.5079 22.2358 2.50254 22.6131 1.78488 20.4601C1.06722 18.3071 1.15744 16.4781 2.98645 17.1999C4.81957 17.9216 5.09023 15.5513 5.20096 15.1084C5.31168 14.6655 4.81547 9.98223 8.51041 10.1463C12.2053 10.3103 14.2435 8.71094 14.2435 8.71094" stroke="black" stroke-miterlimit="10" stroke-linecap="round"/>
<path d="M20.768 17.8153C23.208 16.3267 22.962 18.8078 21.9696 20.9033C20.9771 22.9989 19.5664 22.2607 19.5664 22.2607" stroke="black" stroke-miterlimit="10"/>
<path d="M8.56788 18.4749C8.88043 18.4749 9.13381 18.0177 9.13381 17.4537C9.13381 16.8898 8.88043 16.4326 8.56788 16.4326C8.25533 16.4326 8.00195 16.8898 8.00195 17.4537C8.00195 18.0177 8.25533 18.4749 8.56788 18.4749Z" fill="black"/>
<path d="M15.2691 18.4749C15.5816 18.4749 15.835 18.0177 15.835 17.4537C15.835 16.8898 15.5816 16.4326 15.2691 16.4326C14.9565 16.4326 14.7031 16.8898 14.7031 17.4537C14.7031 18.0177 14.9565 18.4749 15.2691 18.4749Z" fill="black"/>
<path d="M14.248 15.2681H16.9506" stroke="black" stroke-miterlimit="10" stroke-linecap="round"/>
<path d="M9.90406 15.2681H7.07031" stroke="black" stroke-miterlimit="10" stroke-linecap="round"/>
<path d="M6.55095 29.8305L8.48658 28.6208C8.48658 28.6208 9.27806 28.1574 8.00267 25.7337C6.72729 23.3101 6.12035 21.8091 4.48408 22.5965C2.8437 23.3839 2.45411 23.634 3.02414 25.094C3.59417 26.5539 5.12792 29.2277 5.12792 29.2277C5.12792 29.2277 5.74306 30.3349 6.55095 29.8305Z" stroke="black" stroke-miterlimit="10"/>
<path d="M3.69922 23.3101L7.07018 29.3302" stroke="black" stroke-miterlimit="10"/>
<path d="M20.6947 23.4865C20.6947 23.4865 18.4843 21.3499 17.3812 23.3102C16.278 25.2704 15.2651 26.9067 15.2651 26.9067C15.2651 26.9067 14.4572 28.3666 16.3108 29.3303C18.1644 30.2941 18.2341 29.9701 18.9108 28.6537C19.5875 27.3373 20.8956 24.6635 20.8956 24.6635C20.8956 24.6635 21.2975 23.9581 20.6947 23.4865Z" stroke="black" stroke-miterlimit="10"/>
<path d="M20.0928 23.3101L16.6152 29.482" stroke="black" stroke-miterlimit="10"/>
<path d="M6.35156 22.9284C6.35156 22.9284 11.5392 15.0628 17.3831 22.9284" stroke="black" stroke-miterlimit="10"/>
<path d="M8.73242 28.4033C8.73242 28.4033 11.7712 29.6131 15.093 28.4033" stroke="black" stroke-miterlimit="10"/>
<path d="M11.9096 25.8484C13.3115 25.8484 14.448 24.7119 14.448 23.31C14.448 21.908 13.3115 20.7715 11.9096 20.7715C10.5076 20.7715 9.37109 21.908 9.37109 23.31C9.37109 24.7119 10.5076 25.8484 11.9096 25.8484Z" stroke="black" stroke-miterlimit="10"/>
<path d="M11.8661 24.3928C12.421 24.3928 12.8708 23.9429 12.8708 23.388C12.8708 22.8331 12.421 22.3833 11.8661 22.3833C11.3112 22.3833 10.8613 22.8331 10.8613 23.388C10.8613 23.9429 11.3112 24.3928 11.8661 24.3928Z" stroke="black" stroke-miterlimit="10"/>
</svg>
