<?xml version="1.0" ?>
<svg xmlns="http://www.w3.org/2000/svg" width="24" height="24" viewBox="0 0 18 17">
  <g transform="translate(2,2)">
    <path
      d="M1.097,7.61C1.245,7.598 1.387,7.529 1.485,7.409C1.536,7.348 2.759,5.903 5.876,5.651C6.177,5.626 6.402,5.373 6.379,5.085C6.356,4.797 6.093,4.583 5.792,4.608C2.157,4.902 0.682,6.698 0.621,6.774C0.546,6.868 0.509,6.979 0.508,7.088C0.507,7.245 0.58,7.4 0.719,7.503C0.831,7.586 0.966,7.62 1.097,7.61Z"
      fill="#ffffff" />
    <path
      d="M11.214,3.95C10.161,3.95 9.562,4.583 9.497,4.655C9.302,4.872 9.328,5.195 9.553,5.385C9.776,5.574 10.12,5.553 10.322,5.342C10.335,5.328 10.658,4.996 11.214,4.996C11.643,4.996 11.969,5.519 11.969,5.781C11.969,6.413 11.846,7.088 10.382,7.088C9.349,7.088 8.703,6.952 8.08,6.82C7.488,6.695 6.877,6.565 6.006,6.565C4.557,6.565 1.983,7.674 1.085,9.479C0.955,9.74 1.071,10.052 1.344,10.176C1.42,10.211 1.5,10.227 1.578,10.227C1.783,10.227 1.979,10.117 2.073,9.929C2.742,8.585 4.887,7.611 6.006,7.611C6.758,7.611 7.261,7.718 7.843,7.841C8.493,7.979 9.229,8.135 10.382,8.135C11.383,8.135 13.063,7.829 13.063,5.781C13.063,5.034 12.342,3.95 11.214,3.95Z"
      fill="#ffffff" />
    <path
      d="M6.543,8.396C3.846,8.396 3.263,10.267 3.24,10.347C3.158,10.622 3.325,10.906 3.612,10.987C3.9,11.067 4.202,10.91 4.291,10.637C4.307,10.588 4.699,9.442 6.543,9.442C8.393,9.442 9.235,9.985 9.235,10.488C9.235,11.012 8.989,11.012 8.856,11.012C8.751,11.012 8.504,10.847 8.348,10.674C8.153,10.453 7.809,10.425 7.577,10.612C7.347,10.799 7.318,11.129 7.513,11.349C7.618,11.468 8.175,12.058 8.856,12.058C9.535,12.058 10.328,11.647 10.328,10.488C10.328,9.477 9.334,8.396 6.543,8.396Z"
      fill="#ffffff" />
    <path
      d="M8.126,4.211C9.619,4.211 11.422,3.173 11.422,1.884C11.422,1.705 11.379,1.534 11.3,1.371C11.472,1.243 11.645,1.128 11.818,1.045C11.953,0.98 12.008,0.823 11.941,0.694C11.873,0.565 11.709,0.513 11.574,0.577C11.314,0.702 11.054,0.882 10.806,1.088C10.793,1.095 10.604,1.258 10.597,1.265C10.267,1.574 9.99,1.921 9.811,2.263V2.264C9.746,2.389 9.577,2.444 9.444,2.381C9.379,2.349 9.33,2.296 9.307,2.229C9.284,2.163 9.289,2.092 9.322,2.03C9.504,1.681 9.771,1.326 10.093,1.003C10.172,0.923 10.191,0.805 10.141,0.707C10.09,0.609 9.985,0.55 9.867,0.562C8.587,0.69 7.594,2.355 7.594,3.702C7.594,3.983 7.833,4.211 8.126,4.211Z"
      fill="#ffffff" />
  </g>
</svg>