<svg width="30" height="25" viewBox="0 0 30 25" fill="none" xmlns="http://www.w3.org/2000/svg">
<path d="M16.4982 0.0595703C13.0418 0.0595703 10.1173 2.31491 9.10228 5.42863C7.16028 5.85946 5.57403 7.23355 4.84946 9.04499C2.22204 9.13312 0.120117 11.284 0.120117 13.9343C0.120117 16.578 2.21552 18.7256 4.83641 18.8235V18.8333H16.5896V0.0660945C16.557 0.0628306 16.5276 0.0595703 16.4982 0.0595703Z" fill="white"/>
<path d="M24.2137 6.88398C23.747 3.06852 20.5191 0.108194 16.5894 0.0625V18.8297H23.9983V18.8167C27.1806 18.6796 29.7199 16.062 29.7199 12.8438C29.7166 9.7007 27.2916 7.12877 24.2137 6.88398Z" fill="#F2F4F9"/>
<path d="M25.2354 16.057L20.506 17.3266L20.1046 17.4343C19.6346 17.5877 19.1939 17.8489 18.8219 18.2209C17.549 19.4938 17.549 21.5599 18.8219 22.836L25.5487 16.1092C25.4802 16.0439 25.3725 16.0211 25.2354 16.057Z" fill="#00E1FF"/>
<path d="M24.2203 21.5558L24.328 21.1511L25.5977 16.4217C25.6336 16.2846 25.6107 16.1737 25.5454 16.1084L18.8186 22.8352C20.0915 24.1081 22.1575 24.1081 23.4337 22.8352C23.8058 22.4631 24.0669 22.0225 24.2203 21.5558Z" fill="#00C6F4"/>
<path opacity="0.2" d="M25.5979 16.4217L24.9875 18.6869C25.7839 18.5171 26.5248 18.1907 27.1711 17.7371L25.5457 16.1084C25.6142 16.1737 25.6371 16.2846 25.5979 16.4217Z" fill="#122C3D"/>
<path d="M11.0736 21.3471L9.93453 20.6911L10.9235 20.4267C10.9757 20.4136 11.0083 20.3581 10.9953 20.3027L10.8354 19.7054C10.8223 19.6532 10.7668 19.6205 10.7146 19.6336L8.93252 20.1101L7.4801 19.2713L8.93252 18.4325L10.7146 18.909C10.7668 18.9221 10.8223 18.8927 10.8354 18.8372L10.9953 18.2399C11.0083 18.1877 10.979 18.1322 10.9235 18.1159L9.93453 17.8515L11.0736 17.1955C11.1226 17.1694 11.1389 17.1073 11.1095 17.0584L10.7995 16.5231C10.7734 16.4742 10.7113 16.4578 10.6624 16.4872L9.52328 17.1432L9.78765 16.1543C9.80071 16.1021 9.77134 16.0466 9.71586 16.0303L9.11857 15.8703C9.06634 15.854 9.01086 15.8867 8.99454 15.9421L8.51801 17.7242L7.0656 18.563V16.9605L8.36788 15.6582C8.40705 15.619 8.40705 15.557 8.36788 15.5178L7.93378 15.0805C7.89461 15.0413 7.82934 15.0413 7.79344 15.0805L7.06885 15.8051V14.4147C7.06885 14.3592 7.02315 14.3135 6.96767 14.3135H6.35081C6.29533 14.3135 6.24963 14.3592 6.24963 14.4147V15.8051L5.52505 15.0805C5.48588 15.0413 5.42387 15.0413 5.3847 15.0805L4.94733 15.5178C4.90817 15.557 4.90817 15.619 4.94733 15.6582L6.24963 16.9605V18.563L4.86249 17.7634L4.38596 15.9846C4.3729 15.9324 4.31742 15.8997 4.26193 15.9128L3.66464 16.0727C3.61242 16.0858 3.57979 16.1412 3.59284 16.1935L3.86048 17.1824L2.65611 16.4872C2.60716 16.4611 2.54513 16.4774 2.51902 16.5231L2.20897 17.0584C2.18286 17.1073 2.19917 17.1661 2.24486 17.1955L3.44923 17.8907L2.46027 18.155C2.40805 18.1681 2.37542 18.2236 2.38848 18.2791L2.5484 18.8764C2.56472 18.9286 2.61694 18.9612 2.67243 18.9482L4.45451 18.4716L5.84165 19.2713L4.45451 20.0709L2.67243 19.5944C2.62021 19.5814 2.56472 19.6107 2.5484 19.6662L2.38848 20.2635C2.37542 20.3157 2.40478 20.3712 2.46027 20.3843L3.44923 20.6486L2.24486 21.3438C2.19591 21.3699 2.17959 21.432 2.20897 21.4809L2.51902 22.0162C2.54513 22.0651 2.60716 22.0815 2.65611 22.0521L3.86048 21.3569L3.59284 22.3458C3.57979 22.3981 3.60915 22.4536 3.66464 22.4699L4.26193 22.6298C4.31415 22.6429 4.36964 22.6135 4.38596 22.558L4.86249 20.7792L6.24963 19.9795V21.6572L4.94733 22.9595C4.90817 22.9986 4.90817 23.0606 4.94733 23.0998L5.3847 23.5372C5.42387 23.5763 5.48588 23.5763 5.52505 23.5372L6.24963 22.8126V24.1279C6.24963 24.1834 6.29533 24.2291 6.35081 24.2291H6.96767C7.02315 24.2291 7.06885 24.1834 7.06885 24.1279V22.8126L7.79344 23.5372C7.8326 23.5763 7.89461 23.5763 7.93378 23.5372L8.36788 23.0998C8.40705 23.0606 8.40705 22.9986 8.36788 22.9595L7.0656 21.6572V19.9795L8.51801 20.8184L8.99454 22.5972C9.00759 22.6494 9.06308 22.682 9.11857 22.669L9.71586 22.509C9.76808 22.496 9.80071 22.4405 9.78765 22.385L9.52328 21.3961L10.6624 22.0521C10.7081 22.0782 10.7701 22.0619 10.7995 22.0162L11.1095 21.4809C11.1356 21.4385 11.1193 21.3765 11.0736 21.3471Z" fill="#00E1FF"/>
<path opacity="0.2" d="M8.95554 16.1156L8.39741 15.5542L8.38763 15.5477C8.40395 15.5836 8.4072 15.6292 8.37456 15.6586L7.07228 16.9609V18.5635L8.52471 17.7246L8.95554 16.1156ZM3.71704 18.6744C4.04669 18.7593 4.3894 18.8115 4.7419 18.8246V18.8344H5.08133L4.46119 18.4753L3.71704 18.6744ZM4.86918 17.7671L6.25632 18.5667V17.8617L4.39918 16.0046L4.86918 17.7671ZM7.07228 15.8088L7.77402 15.107L7.0625 14.3955C7.06577 14.4053 7.07228 14.4118 7.07228 14.4183V15.8088ZM13.1039 18.8311L10.7996 16.5268L11.1097 17.0621C11.1391 17.111 11.1195 17.1698 11.0738 17.1992L9.9347 17.8552L10.9236 18.1196C10.9759 18.1359 11.0085 18.1881 10.9955 18.2436L10.8388 18.8311H13.1039ZM10.3655 16.6639L9.77477 16.0731H9.76824C9.78782 16.096 9.79762 16.1254 9.79109 16.158L9.52672 17.1469L10.3655 16.6639ZM8.24729 18.8311H10.4145L8.93596 18.4362L8.24729 18.8311Z" fill="#122C3D"/>
</svg>
