<svg width="31" height="26" viewBox="0 0 31 26" fill="none" xmlns="http://www.w3.org/2000/svg">
<path d="M17.1081 0.620117C13.6516 0.620117 10.7272 2.87218 9.71214 5.98918C7.77014 6.42001 6.18717 7.79409 5.45932 9.60554C2.83191 9.69366 0.72998 11.8446 0.72998 14.4948C0.72998 17.1385 2.82538 19.2862 5.44626 19.3841V19.3939H17.1994V0.626645C17.1668 0.623381 17.1374 0.620117 17.1081 0.620117Z" fill="white"/>
<path d="M24.8236 7.4455C24.3569 3.63004 21.1289 0.669718 17.1992 0.624023V19.3912H24.6082V19.3782C27.7905 19.2411 30.3298 16.6235 30.3298 13.4053C30.3298 10.2622 27.9047 7.69029 24.8236 7.4455Z" fill="#F2F4F9"/>
<path d="M10.7926 15.6351L6.06325 16.9048L5.66179 17.0125C5.19179 17.1659 4.75117 17.427 4.37583 17.7991C3.10292 19.072 3.09966 21.138 4.37583 22.4142L11.1027 15.6873C11.0374 15.6221 10.9297 15.5992 10.7926 15.6351Z" fill="#00E1FF"/>
<path d="M9.77743 21.1307L9.88514 20.7259L11.1548 15.9966C11.1907 15.8595 11.1678 15.7518 11.1026 15.6865L4.37573 22.4134C5.64864 23.6863 7.71467 23.6863 8.98758 22.4134C9.36292 22.0413 9.62403 21.6006 9.77743 21.1307Z" fill="#00C6F4"/>
<path d="M25.8452 16.6156L21.1159 17.8852L20.7144 17.9929C20.2444 18.1463 19.8038 18.4074 19.4317 18.7795C18.1588 20.0524 18.1588 22.1185 19.4317 23.3946L26.1586 16.6678C26.0933 16.6025 25.9823 16.5797 25.8452 16.6156Z" fill="#00E1FF"/>
<path d="M24.8302 22.1124L24.9379 21.7077L26.2075 16.9784C26.2434 16.8413 26.2206 16.7303 26.1553 16.665L19.4285 23.3951C20.7014 24.668 22.7674 24.668 24.0436 23.3951C24.4157 23.023 24.6768 22.5824 24.8302 22.1124Z" fill="#00C6F4"/>
<path d="M15.6885 20.933L12.8196 21.7033L12.5748 21.7685C12.2909 21.8632 12.0232 22.0199 11.7948 22.2483C11.0212 23.0219 11.0212 24.2752 11.7948 25.0487L15.8778 20.9656C15.8354 20.9232 15.7701 20.9102 15.6885 20.933Z" fill="#00E1FF"/>
<path d="M15.0717 24.2679L15.137 24.0231L15.9072 21.1541C15.9301 21.0726 15.917 21.004 15.8746 20.9648L11.7915 25.0479C12.565 25.8215 13.8184 25.8215 14.5919 25.0479C14.8204 24.8195 14.977 24.5518 15.0717 24.2679Z" fill="#00C6F4"/>
<path opacity="0.2" d="M11.1579 15.9995L10.2473 19.3907H14.8069L11.1057 15.6895C11.171 15.7547 11.1938 15.8657 11.1579 15.9995Z" fill="#122C3D"/>
<path opacity="0.2" d="M26.2112 16.9823L25.6008 19.2474C26.4005 19.0777 27.1381 18.748 27.7844 18.2976L26.159 16.6689C26.2242 16.7342 26.2471 16.8419 26.2112 16.9823Z" fill="#122C3D"/>
</svg>
