<svg width="17" height="17" viewBox="0 0 17 17" fill="none" xmlns="http://www.w3.org/2000/svg">
<path d="M8.08325 7.82006C8.08325 7.64325 8.15349 7.47368 8.27851 7.34865C8.40354 7.22363 8.57311 7.15339 8.74992 7.15339C8.92673 7.15339 9.0963 7.22363 9.22132 7.34865C9.34635 7.47368 9.41659 7.64325 9.41659 7.82006V11.8201C9.41659 11.9969 9.34635 12.1664 9.22132 12.2915C9.0963 12.4165 8.92673 12.4867 8.74992 12.4867C8.57311 12.4867 8.40354 12.4165 8.27851 12.2915C8.15349 12.1664 8.08325 11.9969 8.08325 11.8201V7.82006ZM8.74992 4.53406C8.57311 4.53406 8.40354 4.6043 8.27851 4.72932C8.15349 4.85434 8.08325 5.02391 8.08325 5.20072C8.08325 5.37754 8.15349 5.5471 8.27851 5.67213C8.40354 5.79715 8.57311 5.86739 8.74992 5.86739C8.92673 5.86739 9.0963 5.79715 9.22132 5.67213C9.34635 5.5471 9.41659 5.37754 9.41659 5.20072C9.41659 5.02391 9.34635 4.85434 9.22132 4.72932C9.0963 4.6043 8.92673 4.53406 8.74992 4.53406Z" fill="#428FDB" fill-opacity="0.5"/>
<path fill-rule="evenodd" clip-rule="evenodd" d="M8.74992 1.83339C5.06792 1.83339 2.08325 4.81806 2.08325 8.50006C2.08325 12.1821 5.06792 15.1667 8.74992 15.1667C12.4319 15.1667 15.4166 12.1821 15.4166 8.50006C15.4166 4.81806 12.4319 1.83339 8.74992 1.83339ZM3.41659 8.50006C3.41659 9.91454 3.97849 11.2711 4.97868 12.2713C5.97888 13.2715 7.33543 13.8334 8.74992 13.8334C10.1644 13.8334 11.521 13.2715 12.5212 12.2713C13.5213 11.2711 14.0833 9.91454 14.0833 8.50006C14.0833 7.08557 13.5213 5.72901 12.5212 4.72882C11.521 3.72863 10.1644 3.16672 8.74992 3.16672C7.33543 3.16672 5.97888 3.72863 4.97868 4.72882C3.97849 5.72901 3.41659 7.08557 3.41659 8.50006Z" fill="#428FDB" fill-opacity="0.5"/>
</svg>
