<svg width="25" height="24" viewBox="0 0 25 24" fill="none" xmlns="http://www.w3.org/2000/svg">
<g clip-path="url(#clip0_0_478)">
<path d="M5.25016 7.38949C5.25016 7.20539 5.10092 7.05616 4.91683 7.05616C4.73273 7.05616 4.5835 7.20539 4.5835 7.38949C4.5835 7.84196 4.67257 8.30199 4.94429 8.65522C5.22829 9.02442 5.6692 9.22282 6.25017 9.22282C6.43427 9.22282 6.5835 9.07359 6.5835 8.88949C6.5835 8.70539 6.43427 8.55616 6.25017 8.55616C5.83113 8.55616 5.60537 8.42122 5.4727 8.24876C5.32775 8.06032 5.25016 7.77036 5.25016 7.38949Z" fill="#428FDB" stroke="#00CFFF" stroke-width="0.1"/>
<path fill-rule="evenodd" clip-rule="evenodd" d="M6.72445 3.23705C6.46728 2.96015 6.03285 2.96016 5.77572 3.23707C5.46114 3.57581 4.88057 4.23299 4.37657 4.98243C3.87366 5.73023 3.40669 6.58192 3.4149 7.50702C3.41562 7.58886 3.41998 7.70369 3.43424 7.84069C3.46257 8.11282 3.531 8.48216 3.69472 8.85642C3.85916 9.23232 4.12308 9.62026 4.54409 9.91312C4.96702 10.2074 5.52535 10.3895 6.25008 10.3895C6.97481 10.3895 7.53315 10.2074 7.95611 9.91312C8.37711 9.62026 8.64108 9.23236 8.80555 8.85646C8.96928 8.48219 9.03775 8.11282 9.06608 7.84069C9.08035 7.70372 9.08472 7.58889 9.08545 7.50706C9.09372 6.58196 8.62662 5.73018 8.12371 4.98241C7.61965 4.23297 7.03905 3.57579 6.72445 3.23705ZM4.92977 5.35446C5.39877 4.65707 5.94341 4.03716 6.25008 3.70596C6.55678 4.03716 7.10148 4.65707 7.57052 5.35446C7.99521 5.98593 8.42581 6.71632 8.41881 7.50109C8.41825 7.56509 8.41478 7.65862 8.40302 7.77162C8.37928 7.99949 8.32271 8.29682 8.19478 8.58922C8.06755 8.87999 7.87315 9.15876 7.57538 9.36586C7.27958 9.57166 6.85871 9.72282 6.25008 9.72282C5.64145 9.72282 5.22061 9.57166 4.92481 9.36586C4.62709 9.15876 4.43269 8.87999 4.3055 8.58922C4.17758 8.29682 4.12104 7.99952 4.09732 7.77166C4.08556 7.65862 4.08211 7.56512 4.08154 7.50112C4.07458 6.71636 4.50508 5.98597 4.92977 5.35446Z" fill="#428FDB" stroke="#00CFFF" stroke-width="0.1"/>
</g>
<path d="M13.7624 4.16477V2.9985C13.7624 2.78557 13.5898 2.61296 13.3768 2.61296C13.1639 2.61296 12.9913 2.78557 12.9913 2.9985V4.17132C12.1501 4.20458 11.1164 4.41473 10.2612 4.68149C10.0578 4.74491 9.95279 4.96577 10.0238 5.16658C10.0948 5.36735 10.315 5.47233 10.5183 5.40887C11.0467 5.24391 11.6893 5.08207 12.1643 5.01682C10.1225 6.81691 8.79891 9.32062 8.45578 12.0125C7.96112 11.4523 7.24132 11.0949 6.43708 11.0949C5.07935 11.0949 3.95268 12.1025 3.76557 13.4093C3.73539 13.6201 3.91089 13.7937 4.12382 13.7937C4.33675 13.7937 4.50535 13.6193 4.54759 13.4106C4.72573 12.5306 5.50525 11.866 6.43708 11.866C7.3689 11.866 8.14843 12.5306 8.32656 13.4106C8.36881 13.6193 8.5374 13.7937 8.75033 13.7937C8.96326 13.7937 9.13185 13.6193 9.1741 13.4106C9.35223 12.5306 10.1318 11.866 11.0636 11.866C12.1265 11.866 12.9913 12.7307 12.9913 13.7937V17.613C12.9913 19.2076 14.2883 20.6009 15.8829 20.6009C17.3426 20.6009 18.553 19.5508 18.7472 18.1902C18.7773 17.9794 18.6018 17.8057 18.3889 17.8057C18.176 17.8057 18.0074 17.9801 17.9673 18.1892C17.7836 19.1489 16.9189 19.8298 15.8829 19.8298C14.7135 19.8298 13.7624 18.7819 13.7624 17.613V13.7937C13.7624 12.7307 14.6271 11.866 15.6901 11.866C16.6219 11.866 17.4014 12.5306 17.5796 13.4106C17.6218 13.6193 17.7904 13.7937 18.0033 13.7937C18.2163 13.7937 18.3849 13.6193 18.4271 13.4106C18.6052 12.5306 19.3848 11.866 20.3166 11.866C21.2484 11.866 22.0279 12.5306 22.2061 13.4106C22.2483 13.6193 22.4169 13.7937 22.6298 13.7937C22.8428 13.7937 23.0162 13.6205 23.0078 13.4078C22.8096 8.39932 18.7709 4.36326 13.7624 4.16477ZM15.6901 11.0949C14.7097 11.0949 13.8495 11.6204 13.3768 12.4046C12.9042 11.6204 12.044 11.0949 11.0636 11.0949C10.3735 11.0949 9.74618 11.359 9.2685 11.7869C9.69105 9.13826 11.1295 6.7078 13.2997 5.08043L13.3768 5.0226L13.4539 5.08043C15.6242 6.7078 17.0626 9.13865 17.4852 11.7869C17.0075 11.359 16.3802 11.0949 15.6901 11.0949ZM20.3166 11.0949C19.5124 11.0949 18.7925 11.4523 18.2979 12.0125C17.9548 9.32062 16.6316 6.81691 14.5898 5.01682C18.2034 5.51417 21.1316 8.18983 21.9891 11.6771C21.5291 11.3127 20.9477 11.0949 20.3166 11.0949Z" fill="#428FDB" stroke="#00CFFF" stroke-width="0.2"/>
<defs>
<clipPath id="clip0_0_478">
<rect width="8" height="8" fill="white" transform="translate(2.25024 2.72282)"/>
</clipPath>
</defs>
</svg>
