<svg width="17" height="17" viewBox="0 0 17 17" fill="none" xmlns="http://www.w3.org/2000/svg">
<g clip-path="url(#clip0_134_97)">
<path d="M3.44835 5.42635C3.44835 5.30362 3.34886 5.20413 3.22613 5.20413C3.1034 5.20413 3.00391 5.30362 3.00391 5.42635C3.00391 5.728 3.06329 6.03469 3.24443 6.27018C3.43377 6.51631 3.72771 6.64858 4.11502 6.64858C4.23775 6.64858 4.33724 6.54909 4.33724 6.42635C4.33724 6.30362 4.23775 6.20413 4.11502 6.20413C3.83566 6.20413 3.68515 6.11418 3.59671 5.9992C3.50008 5.87358 3.44835 5.68027 3.44835 5.42635Z" fill="#00E1FF" stroke="#00E1FF" stroke-width="0.1"/>
<path fill-rule="evenodd" clip-rule="evenodd" d="M4.43105 2.65807C4.2596 2.47347 3.96998 2.47348 3.79856 2.65808C3.58884 2.88391 3.20179 3.32203 2.86579 3.82165C2.53052 4.32019 2.21921 4.88798 2.22468 5.50472C2.22516 5.55927 2.22806 5.63583 2.23757 5.72716C2.25646 5.90858 2.30208 6.15481 2.41122 6.40432C2.52085 6.65492 2.6968 6.91354 2.97747 7.10878C3.25943 7.30494 3.63165 7.42636 4.1148 7.42636C4.59796 7.42636 4.97018 7.30494 5.25216 7.10878C5.53282 6.91354 5.7088 6.65494 5.81845 6.40434C5.9276 6.15483 5.97325 5.90858 5.99213 5.72716C6.00165 5.63585 6.00456 5.55929 6.00505 5.50474C6.01056 4.88801 5.69916 4.32016 5.36389 3.82164C5.02785 3.32201 4.64078 2.88389 4.43105 2.65807ZM3.23459 4.06967C3.54726 3.60475 3.91036 3.19148 4.1148 2.97068C4.31927 3.19147 4.6824 3.60475 4.99509 4.06967C5.27822 4.49065 5.56529 4.97758 5.56062 5.50076C5.56025 5.54343 5.55793 5.60578 5.55009 5.68112C5.53427 5.83303 5.49656 6.03125 5.41127 6.22618C5.32644 6.42003 5.19685 6.60587 4.99833 6.74394C4.80113 6.88114 4.52056 6.98192 4.1148 6.98192C3.70904 6.98192 3.42849 6.88114 3.23128 6.74394C3.0328 6.60587 2.90321 6.42003 2.81841 6.22618C2.73314 6.03125 2.69544 5.83305 2.67963 5.68114C2.67178 5.60578 2.66948 5.54345 2.66911 5.50078C2.66447 4.97761 2.95146 4.49068 3.23459 4.06967Z" fill="#00E1FF" stroke="#00E1FF" stroke-width="0.1"/>
</g>
<path d="M9.12292 3.27654V2.49903C9.12292 2.35708 9.00784 2.242 8.86589 2.242C8.72394 2.242 8.60886 2.35708 8.60886 2.49903V3.28091C8.04806 3.30308 7.35896 3.44319 6.78879 3.62102C6.65323 3.6633 6.58319 3.81054 6.63054 3.94442C6.67787 4.07826 6.82465 4.14825 6.96017 4.10595C7.31244 3.99597 7.74084 3.88808 8.05753 3.84457C6.69631 5.04464 5.81394 6.71378 5.58518 8.50835C5.25541 8.13489 4.77554 7.89662 4.23938 7.89662C3.33423 7.89662 2.58312 8.56838 2.45838 9.43956C2.43826 9.58008 2.55526 9.69582 2.69721 9.69582C2.83917 9.69582 2.95156 9.57958 2.97972 9.44045C3.09848 8.85373 3.61817 8.41068 4.23938 8.41068C4.8606 8.41068 5.38028 8.85373 5.49904 9.44045C5.5272 9.57958 5.6396 9.69582 5.78155 9.69582C5.9235 9.69582 6.0359 9.57958 6.06406 9.44045C6.18282 8.85373 6.70251 8.41068 7.32372 8.41068C8.03235 8.41068 8.60886 8.98719 8.60886 9.69582V12.242C8.60886 13.3051 9.4735 14.234 10.5366 14.234C11.5097 14.234 12.3166 13.5339 12.4461 12.6268C12.4662 12.4863 12.3492 12.3705 12.2073 12.3705C12.0653 12.3705 11.9529 12.4867 11.9262 12.6262C11.8038 13.2659 11.2273 13.7199 10.5366 13.7199C9.75701 13.7199 9.12292 13.0213 9.12292 12.242V9.69582C9.12292 8.98719 9.69943 8.41068 10.4081 8.41068C11.0293 8.41068 11.549 8.85373 11.6677 9.44045C11.6959 9.57958 11.8083 9.69582 11.9502 9.69582C12.0922 9.69582 12.2046 9.57958 12.2327 9.44045C12.3515 8.85373 12.8712 8.41068 13.4924 8.41068C14.1136 8.41068 14.6333 8.85373 14.7521 9.44045C14.7802 9.57958 14.8926 9.69582 15.0346 9.69582C15.1765 9.69582 15.2921 9.5804 15.2865 9.43855C15.1544 6.09957 12.462 3.40887 9.12292 3.27654ZM10.4081 7.89662C9.75443 7.89662 9.18101 8.24695 8.86589 8.76975C8.55077 8.24695 7.97734 7.89662 7.32372 7.89662C6.86364 7.89662 6.44545 8.07269 6.127 8.35799C6.4087 6.59221 7.36767 4.9719 8.81448 3.88698L8.86589 3.84843L8.91729 3.88698C10.3641 4.9719 11.3231 6.59246 11.6048 8.35799C11.2863 8.07269 10.8681 7.89662 10.4081 7.89662ZM13.4924 7.89662C12.9562 7.89662 12.4764 8.13489 12.1466 8.50835C11.9178 6.71378 11.0357 5.04464 9.6745 3.84457C12.0836 4.17614 14.0358 5.95992 14.6074 8.28474C14.3007 8.04184 13.9132 7.89662 13.4924 7.89662Z" fill="#00E1FF" stroke="#00E1FF" stroke-width="0.2"/>
<defs>
<clipPath id="clip0_134_97">
<rect width="5.33333" height="5.33333" fill="white" transform="translate(1.44824 2.31525)"/>
</clipPath>
</defs>
</svg>
