<svg width="25" height="24" viewBox="0 0 25 24" fill="none" xmlns="http://www.w3.org/2000/svg">
<g clip-path="url(#clip0_0_121)">
<path d="M5.00016 7.38942C5.00016 7.20532 4.85092 7.05609 4.66683 7.05609C4.48273 7.05609 4.3335 7.20532 4.3335 7.38942C4.3335 7.84189 4.42257 8.30192 4.69429 8.65516C4.97829 9.02436 5.4192 9.22276 6.00017 9.22276C6.18427 9.22276 6.3335 9.07352 6.3335 8.88942C6.3335 8.70532 6.18427 8.55609 6.00017 8.55609C5.58113 8.55609 5.35537 8.42116 5.2227 8.24869C5.07775 8.06026 5.00016 7.77029 5.00016 7.38942Z" fill="#00CFFF" stroke="#00CFFF" stroke-width="0.1"/>
<path fill-rule="evenodd" clip-rule="evenodd" d="M6.47445 3.23702C6.21728 2.96013 5.78285 2.96014 5.52572 3.23704C5.21114 3.57579 4.63057 4.23297 4.12657 4.9824C3.62366 5.73021 3.15669 6.5819 3.1649 7.507C3.16562 7.58883 3.16998 7.70366 3.18424 7.84066C3.21257 8.1128 3.281 8.48213 3.44472 8.8564C3.60916 9.2323 3.87308 9.62023 4.29409 9.9131C4.71702 10.2073 5.27535 10.3895 6.00008 10.3895C6.72481 10.3895 7.28315 10.2073 7.70611 9.9131C8.12711 9.62023 8.39108 9.23233 8.55555 8.85643C8.71928 8.48217 8.78775 8.1128 8.81608 7.84066C8.83035 7.7037 8.83472 7.58887 8.83545 7.50703C8.84372 6.58193 8.37662 5.73016 7.87371 4.98238C7.36965 4.23294 6.78905 3.57576 6.47445 3.23702ZM4.67977 5.35444C5.14877 4.65705 5.69341 4.03714 6.00008 3.70594C6.30678 4.03714 6.85148 4.65704 7.32052 5.35444C7.74521 5.98591 8.17581 6.7163 8.16881 7.50107C8.16825 7.56506 8.16478 7.6586 8.15302 7.7716C8.12928 7.99947 8.07271 8.2968 7.94478 8.5892C7.81755 8.87997 7.62315 9.15873 7.32538 9.36583C7.02958 9.57163 6.60871 9.7228 6.00008 9.7228C5.39145 9.7228 4.97061 9.57163 4.67481 9.36583C4.37709 9.15873 4.18269 8.87997 4.0555 8.5892C3.92758 8.2968 3.87104 7.9995 3.84732 7.77163C3.83556 7.6586 3.83211 7.5651 3.83154 7.5011C3.82458 6.71633 4.25508 5.98595 4.67977 5.35444Z" fill="#00CFFF" stroke="#00CFFF" stroke-width="0.1"/>
</g>
<path d="M13.5124 4.16472V2.99846C13.5124 2.78553 13.3398 2.61292 13.1268 2.61292C12.9139 2.61292 12.7413 2.78553 12.7413 2.99846V4.17128C11.9001 4.20453 10.8664 4.41469 10.0112 4.68144C9.80785 4.74486 9.70279 4.96572 9.77381 5.16653C9.84481 5.36731 10.065 5.47229 10.2683 5.40883C10.7967 5.24386 11.4393 5.08203 11.9143 5.01677C9.87247 6.81687 8.54891 9.32058 8.20578 12.0124C7.71112 11.4522 6.99132 11.0948 6.18708 11.0948C4.82935 11.0948 3.70268 12.1025 3.51557 13.4093C3.48539 13.62 3.66089 13.7936 3.87382 13.7936C4.08675 13.7936 4.25535 13.6193 4.29759 13.4106C4.47573 12.5305 5.25525 11.8659 6.18708 11.8659C7.1189 11.8659 7.89843 12.5305 8.07656 13.4106C8.11881 13.6193 8.2874 13.7936 8.50033 13.7936C8.71326 13.7936 8.88185 13.6193 8.9241 13.4106C9.10223 12.5305 9.88176 11.8659 10.8136 11.8659C11.8765 11.8659 12.7413 12.7307 12.7413 13.7936V17.6129C12.7413 19.2075 14.0383 20.6009 15.6329 20.6009C17.0926 20.6009 18.303 19.5508 18.4972 18.1901C18.5273 17.9793 18.3518 17.8057 18.1389 17.8057C17.926 17.8057 17.7574 17.98 17.7173 18.1891C17.5336 19.1488 16.6689 19.8298 15.6329 19.8298C14.4635 19.8298 13.5124 18.7819 13.5124 17.6129V13.7936C13.5124 12.7307 14.3771 11.8659 15.4401 11.8659C16.3719 11.8659 17.1514 12.5305 17.3296 13.4106C17.3718 13.6193 17.5404 13.7936 17.7533 13.7936C17.9663 13.7936 18.1349 13.6193 18.1771 13.4106C18.3552 12.5305 19.1348 11.8659 20.0666 11.8659C20.9984 11.8659 21.7779 12.5305 21.9561 13.4106C21.9983 13.6193 22.1669 13.7936 22.3798 13.7936C22.5928 13.7936 22.7662 13.6205 22.7578 13.4077C22.5596 8.39927 18.5209 4.36322 13.5124 4.16472ZM15.4401 11.0948C14.4597 11.0948 13.5995 11.6203 13.1268 12.4045C12.6542 11.6203 11.794 11.0948 10.8136 11.0948C10.1235 11.0948 9.49618 11.3589 9.0185 11.7869C9.44105 9.13822 10.8795 6.70776 13.0497 5.08038L13.1268 5.02255L13.2039 5.08038C15.3742 6.70776 16.8126 9.1386 17.2352 11.7869C16.7575 11.3589 16.1302 11.0948 15.4401 11.0948ZM20.0666 11.0948C19.2624 11.0948 18.5425 11.4522 18.0479 12.0124C17.7048 9.32058 16.3816 6.81687 14.3398 5.01677C17.9534 5.51412 20.8816 8.18978 21.7391 11.677C21.2791 11.3127 20.6977 11.0948 20.0666 11.0948Z" fill="#00CFFF" stroke="#00CFFF" stroke-width="0.2"/>
<defs>
<clipPath id="clip0_0_121">
<rect width="8" height="8" fill="white" transform="translate(2.00024 2.72278)"/>
</clipPath>
</defs>
</svg>
