<svg width="16" height="17" viewBox="0 0 16 17" fill="none" xmlns="http://www.w3.org/2000/svg">
<mask id="path-1-outside-1_22_648" maskUnits="userSpaceOnUse" x="0" y="1.50006" width="7" height="7" fill="black">
<rect fill="white" y="1.50006" width="7" height="7"/>
<path d="M1.06252 5.66938C1.09367 5.65196 1.13064 5.64826 1.16469 5.65935L1.91737 5.9017L2.37621 5.64483L1.85665 5.46716C1.8284 5.45765 1.80464 5.43838 1.78959 5.4133L1.78484 5.40512C1.75025 5.34677 1.77058 5.27259 1.83051 5.23906C1.8614 5.2219 1.89862 5.21821 1.93242 5.22903L2.68536 5.47138L3.09589 5.2417V5.03842L2.68536 4.80848L1.93268 5.05109C1.89862 5.06192 1.8614 5.05822 1.83051 5.04106C1.77085 5.00753 1.75025 4.93308 1.78484 4.87501L1.78959 4.86656C1.80464 4.84148 1.8284 4.82247 1.85665 4.8127L2.37621 4.63529L1.91737 4.37816L1.16469 4.62077C1.13064 4.6316 1.09367 4.6279 1.06252 4.61048C1.00286 4.57695 0.982264 4.50277 1.01685 4.44469L1.02187 4.43624C1.03691 4.41116 1.06041 4.39215 1.08866 4.38238L1.60822 4.20497L1.35029 4.0603C1.26343 4.01172 1.23386 3.90401 1.28376 3.8198C1.33392 3.73558 1.4448 3.70681 1.53166 3.75538L1.78959 3.90005L1.68821 3.37469C1.68267 3.34618 1.68795 3.31661 1.703 3.29153L1.70801 3.28309C1.74233 3.22501 1.8189 3.20521 1.87882 3.23873C1.90971 3.25616 1.93163 3.28546 1.93875 3.31952L2.099 4.07324L2.55758 4.33011L2.4562 3.80475C2.45066 3.77624 2.45594 3.74693 2.47099 3.72185L2.47574 3.71341C2.51032 3.65533 2.58689 3.63552 2.64681 3.66905C2.6777 3.68621 2.69962 3.71578 2.70674 3.74957L2.86673 4.50356L3.1611 4.66829L3.45863 4.52415V4.17197L2.86567 3.66087C2.83901 3.63764 2.8237 3.60464 2.8237 3.57005C2.8237 3.503 2.87967 3.44861 2.94884 3.44861H2.95887C2.9887 3.44861 3.01748 3.45891 3.04018 3.47765L3.45863 3.82561V3.3116L2.86567 2.80049C2.83901 2.77726 2.8237 2.74426 2.8237 2.70941C2.8237 2.64236 2.87967 2.58797 2.94884 2.58797H2.95887C2.9887 2.58797 3.01748 2.59853 3.04018 2.61728L3.45863 2.96523V2.67615C3.45863 2.57873 3.53968 2.50006 3.64 2.50006C3.74032 2.50006 3.82137 2.57873 3.82137 2.67615V2.96523L4.23955 2.61728C4.26226 2.59853 4.2913 2.58824 4.32113 2.58824H4.33116C4.40007 2.58824 4.4563 2.64262 4.4563 2.70968C4.4563 2.74426 4.44099 2.77726 4.41433 2.80049L3.82137 3.3116V3.82561L4.23955 3.47792C4.26226 3.45891 4.2913 3.44861 4.32113 3.44861H4.33116C4.40007 3.44861 4.4563 3.503 4.4563 3.57005C4.4563 3.60464 4.44099 3.6379 4.41433 3.66087L3.82137 4.17197V4.52415L4.1189 4.66856L4.41327 4.50356L4.57326 3.74984C4.58038 3.71578 4.6023 3.68648 4.63319 3.66905C4.69311 3.63552 4.76968 3.65559 4.80426 3.71367L4.80928 3.72185C4.82406 3.74693 4.82934 3.7765 4.8238 3.80501L4.72242 4.33037L5.18126 4.0735L5.34125 3.31952C5.34837 3.28573 5.37029 3.25616 5.40118 3.239C5.4611 3.20547 5.53767 3.22527 5.57225 3.28335L5.57727 3.2918C5.59205 3.31688 5.59733 3.34618 5.59179 3.37469L5.49041 3.90032L5.74834 3.75565C5.8352 3.70707 5.94634 3.73585 5.99624 3.82006C6.0464 3.90428 6.01657 4.01199 5.92998 4.06056L5.67178 4.20497L6.19134 4.38265C6.21959 4.39215 6.24335 4.41142 6.25813 4.4365L6.26315 4.44495C6.29774 4.50276 6.27741 4.57721 6.21748 4.61074C6.18659 4.62817 6.14936 4.63186 6.11531 4.62077L5.36263 4.37842L4.90379 4.63529L5.42362 4.81296C5.4516 4.82247 5.47536 4.84174 5.49041 4.86682L5.49543 4.87527C5.53001 4.93335 5.50942 5.00753 5.44949 5.04106C5.4186 5.05822 5.38137 5.06192 5.34758 5.05109L4.59491 4.80874L4.18411 5.03842V5.2417L4.59464 5.47164L5.34732 5.22903C5.38137 5.21821 5.41834 5.2219 5.44949 5.23906C5.50915 5.27259 5.52975 5.34704 5.49516 5.40512L5.49014 5.4133C5.47536 5.43838 5.4516 5.45765 5.42335 5.46742L4.90379 5.64483L5.36237 5.90196L6.11531 5.65935C6.1491 5.64853 6.18633 5.65196 6.21721 5.66938C6.27714 5.70291 6.29774 5.77736 6.26315 5.83544L6.25813 5.84362C6.24309 5.8687 6.21959 5.88797 6.19134 5.89748L5.67152 6.07515L5.92971 6.21982C6.01657 6.2684 6.04614 6.37585 5.99598 6.46006C5.94608 6.54428 5.8352 6.57305 5.74834 6.52448L5.49014 6.38007L5.59152 6.90543C5.59707 6.93394 5.59179 6.96351 5.577 6.98859L5.57199 6.99677C5.5374 7.05485 5.46084 7.07492 5.40118 7.04139C5.37002 7.02396 5.34837 6.99466 5.34098 6.96061L5.18099 6.20689L4.72216 5.94975L4.82353 6.47511C4.82908 6.50362 4.8238 6.53319 4.80901 6.55827L4.804 6.56672C4.76941 6.6248 4.69285 6.6446 4.63319 6.61107C4.6023 6.59365 4.58038 6.56434 4.57299 6.53029L4.41301 5.77657L4.1189 5.61183L3.82137 5.75597V6.10789L4.41433 6.61925C4.44099 6.64249 4.4563 6.67549 4.4563 6.71007C4.4563 6.77713 4.40007 6.83151 4.33116 6.83151H4.32113C4.2913 6.83151 4.26252 6.82121 4.23982 6.80221L3.82137 6.45452V6.96852L4.41433 7.47963C4.44099 7.50286 4.4563 7.53586 4.4563 7.57045C4.4563 7.6375 4.40007 7.69188 4.33116 7.69188H4.32113C4.2913 7.69188 4.26252 7.68159 4.23982 7.66285L3.82137 7.31489V7.60397C3.82137 7.70139 3.74032 7.78006 3.64 7.78006C3.53968 7.78006 3.45863 7.70139 3.45863 7.60397V7.31489L3.04045 7.66285C3.01774 7.68159 2.9887 7.69188 2.95887 7.69188H2.9491C2.87993 7.69188 2.82396 7.6375 2.82396 7.57045C2.82396 7.53586 2.83927 7.50286 2.86594 7.47963L3.45863 6.96852V6.45452L3.04045 6.80221C3.01774 6.82121 2.9887 6.83151 2.95887 6.83151H2.9491C2.87993 6.83151 2.82396 6.77713 2.82396 6.71007C2.82396 6.67549 2.83927 6.64222 2.86594 6.61925L3.45863 6.10789V5.75597L3.1611 5.61157L2.86673 5.7763L2.70674 6.53029C2.69962 6.56408 2.6777 6.59365 2.64681 6.61081C2.58689 6.64433 2.51032 6.62453 2.47574 6.56645L2.47072 6.55827C2.45594 6.53292 2.45066 6.50362 2.4562 6.47511L2.55758 5.94949L2.09874 6.20662L1.93875 6.96034C1.93163 6.9944 1.90971 7.0237 1.87882 7.04113C1.8189 7.07465 1.74233 7.05485 1.70775 6.99677L1.70273 6.98833C1.68795 6.96324 1.68267 6.93368 1.68821 6.90517L1.78959 6.3798L1.53139 6.52448C1.4448 6.57305 1.33392 6.54401 1.28376 6.46006C1.2336 6.37585 1.26343 6.26813 1.35002 6.21956L1.60822 6.07489L1.08866 5.89748C1.06041 5.88797 1.03665 5.8687 1.0216 5.84362L1.01685 5.83517C0.982264 5.77709 1.00259 5.70291 1.06252 5.66938Z"/>
</mask>
<path d="M1.06252 5.66938C1.09367 5.65196 1.13064 5.64826 1.16469 5.65935L1.91737 5.9017L2.37621 5.64483L1.85665 5.46716C1.8284 5.45765 1.80464 5.43838 1.78959 5.4133L1.78484 5.40512C1.75025 5.34677 1.77058 5.27259 1.83051 5.23906C1.8614 5.2219 1.89862 5.21821 1.93242 5.22903L2.68536 5.47138L3.09589 5.2417V5.03842L2.68536 4.80848L1.93268 5.05109C1.89862 5.06192 1.8614 5.05822 1.83051 5.04106C1.77085 5.00753 1.75025 4.93308 1.78484 4.87501L1.78959 4.86656C1.80464 4.84148 1.8284 4.82247 1.85665 4.8127L2.37621 4.63529L1.91737 4.37816L1.16469 4.62077C1.13064 4.6316 1.09367 4.6279 1.06252 4.61048C1.00286 4.57695 0.982264 4.50277 1.01685 4.44469L1.02187 4.43624C1.03691 4.41116 1.06041 4.39215 1.08866 4.38238L1.60822 4.20497L1.35029 4.0603C1.26343 4.01172 1.23386 3.90401 1.28376 3.8198C1.33392 3.73558 1.4448 3.70681 1.53166 3.75538L1.78959 3.90005L1.68821 3.37469C1.68267 3.34618 1.68795 3.31661 1.703 3.29153L1.70801 3.28309C1.74233 3.22501 1.8189 3.20521 1.87882 3.23873C1.90971 3.25616 1.93163 3.28546 1.93875 3.31952L2.099 4.07324L2.55758 4.33011L2.4562 3.80475C2.45066 3.77624 2.45594 3.74693 2.47099 3.72185L2.47574 3.71341C2.51032 3.65533 2.58689 3.63552 2.64681 3.66905C2.6777 3.68621 2.69962 3.71578 2.70674 3.74957L2.86673 4.50356L3.1611 4.66829L3.45863 4.52415V4.17197L2.86567 3.66087C2.83901 3.63764 2.8237 3.60464 2.8237 3.57005C2.8237 3.503 2.87967 3.44861 2.94884 3.44861H2.95887C2.9887 3.44861 3.01748 3.45891 3.04018 3.47765L3.45863 3.82561V3.3116L2.86567 2.80049C2.83901 2.77726 2.8237 2.74426 2.8237 2.70941C2.8237 2.64236 2.87967 2.58797 2.94884 2.58797H2.95887C2.9887 2.58797 3.01748 2.59853 3.04018 2.61728L3.45863 2.96523V2.67615C3.45863 2.57873 3.53968 2.50006 3.64 2.50006C3.74032 2.50006 3.82137 2.57873 3.82137 2.67615V2.96523L4.23955 2.61728C4.26226 2.59853 4.2913 2.58824 4.32113 2.58824H4.33116C4.40007 2.58824 4.4563 2.64262 4.4563 2.70968C4.4563 2.74426 4.44099 2.77726 4.41433 2.80049L3.82137 3.3116V3.82561L4.23955 3.47792C4.26226 3.45891 4.2913 3.44861 4.32113 3.44861H4.33116C4.40007 3.44861 4.4563 3.503 4.4563 3.57005C4.4563 3.60464 4.44099 3.6379 4.41433 3.66087L3.82137 4.17197V4.52415L4.1189 4.66856L4.41327 4.50356L4.57326 3.74984C4.58038 3.71578 4.6023 3.68648 4.63319 3.66905C4.69311 3.63552 4.76968 3.65559 4.80426 3.71367L4.80928 3.72185C4.82406 3.74693 4.82934 3.7765 4.8238 3.80501L4.72242 4.33037L5.18126 4.0735L5.34125 3.31952C5.34837 3.28573 5.37029 3.25616 5.40118 3.239C5.4611 3.20547 5.53767 3.22527 5.57225 3.28335L5.57727 3.2918C5.59205 3.31688 5.59733 3.34618 5.59179 3.37469L5.49041 3.90032L5.74834 3.75565C5.8352 3.70707 5.94634 3.73585 5.99624 3.82006C6.0464 3.90428 6.01657 4.01199 5.92998 4.06056L5.67178 4.20497L6.19134 4.38265C6.21959 4.39215 6.24335 4.41142 6.25813 4.4365L6.26315 4.44495C6.29774 4.50276 6.27741 4.57721 6.21748 4.61074C6.18659 4.62817 6.14936 4.63186 6.11531 4.62077L5.36263 4.37842L4.90379 4.63529L5.42362 4.81296C5.4516 4.82247 5.47536 4.84174 5.49041 4.86682L5.49543 4.87527C5.53001 4.93335 5.50942 5.00753 5.44949 5.04106C5.4186 5.05822 5.38137 5.06192 5.34758 5.05109L4.59491 4.80874L4.18411 5.03842V5.2417L4.59464 5.47164L5.34732 5.22903C5.38137 5.21821 5.41834 5.2219 5.44949 5.23906C5.50915 5.27259 5.52975 5.34704 5.49516 5.40512L5.49014 5.4133C5.47536 5.43838 5.4516 5.45765 5.42335 5.46742L4.90379 5.64483L5.36237 5.90196L6.11531 5.65935C6.1491 5.64853 6.18633 5.65196 6.21721 5.66938C6.27714 5.70291 6.29774 5.77736 6.26315 5.83544L6.25813 5.84362C6.24309 5.8687 6.21959 5.88797 6.19134 5.89748L5.67152 6.07515L5.92971 6.21982C6.01657 6.2684 6.04614 6.37585 5.99598 6.46006C5.94608 6.54428 5.8352 6.57305 5.74834 6.52448L5.49014 6.38007L5.59152 6.90543C5.59707 6.93394 5.59179 6.96351 5.577 6.98859L5.57199 6.99677C5.5374 7.05485 5.46084 7.07492 5.40118 7.04139C5.37002 7.02396 5.34837 6.99466 5.34098 6.96061L5.18099 6.20689L4.72216 5.94975L4.82353 6.47511C4.82908 6.50362 4.8238 6.53319 4.80901 6.55827L4.804 6.56672C4.76941 6.6248 4.69285 6.6446 4.63319 6.61107C4.6023 6.59365 4.58038 6.56434 4.57299 6.53029L4.41301 5.77657L4.1189 5.61183L3.82137 5.75597V6.10789L4.41433 6.61925C4.44099 6.64249 4.4563 6.67549 4.4563 6.71007C4.4563 6.77713 4.40007 6.83151 4.33116 6.83151H4.32113C4.2913 6.83151 4.26252 6.82121 4.23982 6.80221L3.82137 6.45452V6.96852L4.41433 7.47963C4.44099 7.50286 4.4563 7.53586 4.4563 7.57045C4.4563 7.6375 4.40007 7.69188 4.33116 7.69188H4.32113C4.2913 7.69188 4.26252 7.68159 4.23982 7.66285L3.82137 7.31489V7.60397C3.82137 7.70139 3.74032 7.78006 3.64 7.78006C3.53968 7.78006 3.45863 7.70139 3.45863 7.60397V7.31489L3.04045 7.66285C3.01774 7.68159 2.9887 7.69188 2.95887 7.69188H2.9491C2.87993 7.69188 2.82396 7.6375 2.82396 7.57045C2.82396 7.53586 2.83927 7.50286 2.86594 7.47963L3.45863 6.96852V6.45452L3.04045 6.80221C3.01774 6.82121 2.9887 6.83151 2.95887 6.83151H2.9491C2.87993 6.83151 2.82396 6.77713 2.82396 6.71007C2.82396 6.67549 2.83927 6.64222 2.86594 6.61925L3.45863 6.10789V5.75597L3.1611 5.61157L2.86673 5.7763L2.70674 6.53029C2.69962 6.56408 2.6777 6.59365 2.64681 6.61081C2.58689 6.64433 2.51032 6.62453 2.47574 6.56645L2.47072 6.55827C2.45594 6.53292 2.45066 6.50362 2.4562 6.47511L2.55758 5.94949L2.09874 6.20662L1.93875 6.96034C1.93163 6.9944 1.90971 7.0237 1.87882 7.04113C1.8189 7.07465 1.74233 7.05485 1.70775 6.99677L1.70273 6.98833C1.68795 6.96324 1.68267 6.93368 1.68821 6.90517L1.78959 6.3798L1.53139 6.52448C1.4448 6.57305 1.33392 6.54401 1.28376 6.46006C1.2336 6.37585 1.26343 6.26813 1.35002 6.21956L1.60822 6.07489L1.08866 5.89748C1.06041 5.88797 1.03665 5.8687 1.0216 5.84362L1.01685 5.83517C0.982264 5.77709 1.00259 5.70291 1.06252 5.66938Z" fill="#FF6B00"/>
<path d="M1.06252 5.66938C1.09367 5.65196 1.13064 5.64826 1.16469 5.65935L1.91737 5.9017L2.37621 5.64483L1.85665 5.46716C1.8284 5.45765 1.80464 5.43838 1.78959 5.4133L1.78484 5.40512C1.75025 5.34677 1.77058 5.27259 1.83051 5.23906C1.8614 5.2219 1.89862 5.21821 1.93242 5.22903L2.68536 5.47138L3.09589 5.2417V5.03842L2.68536 4.80848L1.93268 5.05109C1.89862 5.06192 1.8614 5.05822 1.83051 5.04106C1.77085 5.00753 1.75025 4.93308 1.78484 4.87501L1.78959 4.86656C1.80464 4.84148 1.8284 4.82247 1.85665 4.8127L2.37621 4.63529L1.91737 4.37816L1.16469 4.62077C1.13064 4.6316 1.09367 4.6279 1.06252 4.61048C1.00286 4.57695 0.982264 4.50277 1.01685 4.44469L1.02187 4.43624C1.03691 4.41116 1.06041 4.39215 1.08866 4.38238L1.60822 4.20497L1.35029 4.0603C1.26343 4.01172 1.23386 3.90401 1.28376 3.8198C1.33392 3.73558 1.4448 3.70681 1.53166 3.75538L1.78959 3.90005L1.68821 3.37469C1.68267 3.34618 1.68795 3.31661 1.703 3.29153L1.70801 3.28309C1.74233 3.22501 1.8189 3.20521 1.87882 3.23873C1.90971 3.25616 1.93163 3.28546 1.93875 3.31952L2.099 4.07324L2.55758 4.33011L2.4562 3.80475C2.45066 3.77624 2.45594 3.74693 2.47099 3.72185L2.47574 3.71341C2.51032 3.65533 2.58689 3.63552 2.64681 3.66905C2.6777 3.68621 2.69962 3.71578 2.70674 3.74957L2.86673 4.50356L3.1611 4.66829L3.45863 4.52415V4.17197L2.86567 3.66087C2.83901 3.63764 2.8237 3.60464 2.8237 3.57005C2.8237 3.503 2.87967 3.44861 2.94884 3.44861H2.95887C2.9887 3.44861 3.01748 3.45891 3.04018 3.47765L3.45863 3.82561V3.3116L2.86567 2.80049C2.83901 2.77726 2.8237 2.74426 2.8237 2.70941C2.8237 2.64236 2.87967 2.58797 2.94884 2.58797H2.95887C2.9887 2.58797 3.01748 2.59853 3.04018 2.61728L3.45863 2.96523V2.67615C3.45863 2.57873 3.53968 2.50006 3.64 2.50006C3.74032 2.50006 3.82137 2.57873 3.82137 2.67615V2.96523L4.23955 2.61728C4.26226 2.59853 4.2913 2.58824 4.32113 2.58824H4.33116C4.40007 2.58824 4.4563 2.64262 4.4563 2.70968C4.4563 2.74426 4.44099 2.77726 4.41433 2.80049L3.82137 3.3116V3.82561L4.23955 3.47792C4.26226 3.45891 4.2913 3.44861 4.32113 3.44861H4.33116C4.40007 3.44861 4.4563 3.503 4.4563 3.57005C4.4563 3.60464 4.44099 3.6379 4.41433 3.66087L3.82137 4.17197V4.52415L4.1189 4.66856L4.41327 4.50356L4.57326 3.74984C4.58038 3.71578 4.6023 3.68648 4.63319 3.66905C4.69311 3.63552 4.76968 3.65559 4.80426 3.71367L4.80928 3.72185C4.82406 3.74693 4.82934 3.7765 4.8238 3.80501L4.72242 4.33037L5.18126 4.0735L5.34125 3.31952C5.34837 3.28573 5.37029 3.25616 5.40118 3.239C5.4611 3.20547 5.53767 3.22527 5.57225 3.28335L5.57727 3.2918C5.59205 3.31688 5.59733 3.34618 5.59179 3.37469L5.49041 3.90032L5.74834 3.75565C5.8352 3.70707 5.94634 3.73585 5.99624 3.82006C6.0464 3.90428 6.01657 4.01199 5.92998 4.06056L5.67178 4.20497L6.19134 4.38265C6.21959 4.39215 6.24335 4.41142 6.25813 4.4365L6.26315 4.44495C6.29774 4.50276 6.27741 4.57721 6.21748 4.61074C6.18659 4.62817 6.14936 4.63186 6.11531 4.62077L5.36263 4.37842L4.90379 4.63529L5.42362 4.81296C5.4516 4.82247 5.47536 4.84174 5.49041 4.86682L5.49543 4.87527C5.53001 4.93335 5.50942 5.00753 5.44949 5.04106C5.4186 5.05822 5.38137 5.06192 5.34758 5.05109L4.59491 4.80874L4.18411 5.03842V5.2417L4.59464 5.47164L5.34732 5.22903C5.38137 5.21821 5.41834 5.2219 5.44949 5.23906C5.50915 5.27259 5.52975 5.34704 5.49516 5.40512L5.49014 5.4133C5.47536 5.43838 5.4516 5.45765 5.42335 5.46742L4.90379 5.64483L5.36237 5.90196L6.11531 5.65935C6.1491 5.64853 6.18633 5.65196 6.21721 5.66938C6.27714 5.70291 6.29774 5.77736 6.26315 5.83544L6.25813 5.84362C6.24309 5.8687 6.21959 5.88797 6.19134 5.89748L5.67152 6.07515L5.92971 6.21982C6.01657 6.2684 6.04614 6.37585 5.99598 6.46006C5.94608 6.54428 5.8352 6.57305 5.74834 6.52448L5.49014 6.38007L5.59152 6.90543C5.59707 6.93394 5.59179 6.96351 5.577 6.98859L5.57199 6.99677C5.5374 7.05485 5.46084 7.07492 5.40118 7.04139C5.37002 7.02396 5.34837 6.99466 5.34098 6.96061L5.18099 6.20689L4.72216 5.94975L4.82353 6.47511C4.82908 6.50362 4.8238 6.53319 4.80901 6.55827L4.804 6.56672C4.76941 6.6248 4.69285 6.6446 4.63319 6.61107C4.6023 6.59365 4.58038 6.56434 4.57299 6.53029L4.41301 5.77657L4.1189 5.61183L3.82137 5.75597V6.10789L4.41433 6.61925C4.44099 6.64249 4.4563 6.67549 4.4563 6.71007C4.4563 6.77713 4.40007 6.83151 4.33116 6.83151H4.32113C4.2913 6.83151 4.26252 6.82121 4.23982 6.80221L3.82137 6.45452V6.96852L4.41433 7.47963C4.44099 7.50286 4.4563 7.53586 4.4563 7.57045C4.4563 7.6375 4.40007 7.69188 4.33116 7.69188H4.32113C4.2913 7.69188 4.26252 7.68159 4.23982 7.66285L3.82137 7.31489V7.60397C3.82137 7.70139 3.74032 7.78006 3.64 7.78006C3.53968 7.78006 3.45863 7.70139 3.45863 7.60397V7.31489L3.04045 7.66285C3.01774 7.68159 2.9887 7.69188 2.95887 7.69188H2.9491C2.87993 7.69188 2.82396 7.6375 2.82396 7.57045C2.82396 7.53586 2.83927 7.50286 2.86594 7.47963L3.45863 6.96852V6.45452L3.04045 6.80221C3.01774 6.82121 2.9887 6.83151 2.95887 6.83151H2.9491C2.87993 6.83151 2.82396 6.77713 2.82396 6.71007C2.82396 6.67549 2.83927 6.64222 2.86594 6.61925L3.45863 6.10789V5.75597L3.1611 5.61157L2.86673 5.7763L2.70674 6.53029C2.69962 6.56408 2.6777 6.59365 2.64681 6.61081C2.58689 6.64433 2.51032 6.62453 2.47574 6.56645L2.47072 6.55827C2.45594 6.53292 2.45066 6.50362 2.4562 6.47511L2.55758 5.94949L2.09874 6.20662L1.93875 6.96034C1.93163 6.9944 1.90971 7.0237 1.87882 7.04113C1.8189 7.07465 1.74233 7.05485 1.70775 6.99677L1.70273 6.98833C1.68795 6.96324 1.68267 6.93368 1.68821 6.90517L1.78959 6.3798L1.53139 6.52448C1.4448 6.57305 1.33392 6.54401 1.28376 6.46006C1.2336 6.37585 1.26343 6.26813 1.35002 6.21956L1.60822 6.07489L1.08866 5.89748C1.06041 5.88797 1.03665 5.8687 1.0216 5.84362L1.01685 5.83517C0.982264 5.77709 1.00259 5.70291 1.06252 5.66938Z" stroke="#FF6B00" stroke-width="0.2" mask="url(#path-1-outside-1_22_648)"/>
<path d="M9.67467 3.5346V2.75709C9.67467 2.61514 9.5596 2.50006 9.41765 2.50006C9.27569 2.50006 9.16062 2.61514 9.16062 2.75709V3.53897C8.59982 3.56114 7.91072 3.70124 7.34055 3.87908C7.20499 3.92136 7.13495 4.0686 7.18229 4.20247C7.22963 4.33632 7.37641 4.40631 7.51193 4.364C7.8642 4.25403 8.2926 4.14614 8.60929 4.10263C7.24807 5.3027 6.36569 6.97184 6.13694 8.76641C5.80717 8.39294 5.3273 8.15468 4.79114 8.15468C3.88599 8.15468 3.13488 8.82644 3.01013 9.69762C2.99001 9.83814 3.10702 9.95388 3.24897 9.95388C3.39092 9.95388 3.50332 9.83764 3.53148 9.6985C3.65024 9.11179 4.16993 8.66874 4.79114 8.66874C5.41235 8.66874 5.93204 9.11179 6.0508 9.6985C6.07896 9.83764 6.19136 9.95388 6.33331 9.95388C6.47526 9.95388 6.58766 9.83764 6.61582 9.6985C6.73458 9.11179 7.25426 8.66874 7.87548 8.66874C8.5841 8.66874 9.16062 9.24525 9.16062 9.95388V12.5001C9.16062 13.5631 10.0253 14.492 11.0883 14.492C12.0615 14.492 12.8684 13.792 12.9979 12.8849C13.018 12.7443 12.901 12.6286 12.759 12.6286C12.6171 12.6286 12.5047 12.7448 12.478 12.8842C12.3555 13.524 11.779 13.978 11.0883 13.978C10.3088 13.978 9.67467 13.2794 9.67467 12.5001V9.95388C9.67467 9.24525 10.2512 8.66874 10.9598 8.66874C11.581 8.66874 12.1007 9.11179 12.2195 9.6985C12.2476 9.83764 12.36 9.95388 12.502 9.95388C12.6439 9.95388 12.7563 9.83764 12.7845 9.6985C12.9033 9.11179 13.4229 8.66874 14.0442 8.66874C14.6654 8.66874 15.1851 9.11179 15.3038 9.6985C15.332 9.83764 15.4444 9.95388 15.5863 9.95388C15.7283 9.95388 15.8439 9.83845 15.8383 9.69661C15.7061 6.35763 13.0137 3.66693 9.67467 3.5346ZM10.9598 8.15468C10.3062 8.15468 9.73276 8.50501 9.41765 9.0278C9.10253 8.50501 8.5291 8.15468 7.87548 8.15468C7.4154 8.15468 6.99721 8.33074 6.67875 8.61604C6.96046 6.85026 7.91943 5.22996 9.36624 4.14504L9.41765 4.10649L9.46905 4.14504C10.9159 5.22996 11.8748 6.85052 12.1565 8.61604C11.8381 8.33074 11.4199 8.15468 10.9598 8.15468ZM14.0442 8.15468C13.508 8.15468 13.0281 8.39294 12.6984 8.76641C12.4696 6.97184 11.5875 5.3027 10.2263 4.10263C12.6354 4.4342 14.5875 6.21797 15.1591 8.54279C14.8525 8.2999 14.4649 8.15468 14.0442 8.15468Z" fill="#FF6B00" stroke="#FF6B00" stroke-width="0.2"/>
</svg>
