<svg width="24" height="25" viewBox="0 0 24 25" fill="none" xmlns="http://www.w3.org/2000/svg">
<rect y="0.987961" width="24" height="24" rx="4" fill="#29E0AB"/>
<path d="M11.3965 10.339C11.6984 8.8087 13.0478 7.65463 14.6667 7.65463C16.5076 7.65463 18 9.14701 18 10.988C18 12.3443 17.1899 13.5114 16.0272 14.0319M11.3965 10.339C10.1613 10.4664 9.12631 11.2675 8.66667 12.3213C7.06667 12.5713 6 13.8642 6 15.2638C6 16.9524 7.43269 18.3213 9.2 18.3213H14C15.4727 18.3213 16.6667 17.1692 16.6667 15.7481C16.6667 15.1099 16.4259 14.5012 16.0272 14.0319M11.3965 10.339C11.51 10.3273 11.6252 10.3213 11.7418 10.3213C13.5165 10.3213 14.9669 11.6484 15.0667 13.3213C15.4389 13.4782 15.7667 13.7253 16.0272 14.0319" stroke="white" stroke-width="1.2" stroke-linecap="round" stroke-linejoin="round"/>
</svg>
