<svg width="24" height="25" viewBox="0 0 24 25" fill="none" xmlns="http://www.w3.org/2000/svg">
<rect y="0.552483" width="24" height="24" rx="4" fill="#29E0AB"/>
<path d="M12.6667 6.58648V5.88581C12.6667 5.709 12.5965 5.53943 12.4715 5.41441C12.3465 5.28938 12.1769 5.21915 12.0001 5.21915C11.8233 5.21915 11.6537 5.28938 11.5287 5.41441C11.4037 5.53943 11.3334 5.709 11.3334 5.88581V6.58648C9.51268 6.75421 7.82009 7.59547 6.58702 8.94556C5.35394 10.2957 4.66917 12.0574 4.66675 13.8858C4.66675 14.0257 4.71077 14.1621 4.79259 14.2756C4.8744 14.3891 4.98985 14.474 5.1226 14.5183C5.25534 14.5625 5.39864 14.5639 5.53219 14.5222C5.66575 14.4804 5.7828 14.3978 5.86675 14.2858C6.05031 14.0387 6.28094 13.8304 6.54536 13.6729C6.80978 13.5153 7.10276 13.4116 7.40741 13.3678C7.69484 13.4024 7.97028 13.5033 8.21199 13.6626C8.45369 13.8219 8.65503 14.0353 8.80008 14.2858C8.86798 14.3748 8.95718 14.4453 9.05948 14.4907C9.16178 14.5361 9.27387 14.5551 9.38542 14.5458C9.49776 14.5367 9.60603 14.4995 9.70035 14.4378C9.79467 14.3761 9.87204 14.2918 9.92541 14.1925C10.0861 13.9542 10.2939 13.7514 10.5361 13.5967C10.7783 13.442 11.0497 13.3387 11.3334 13.2931V17.8858C11.3334 18.4162 11.5441 18.925 11.9192 19.3C12.2943 19.6751 12.803 19.8858 13.3334 19.8858C13.8638 19.8858 14.3726 19.6751 14.7476 19.3C15.1227 18.925 15.3334 18.4162 15.3334 17.8858C15.3334 17.709 15.2632 17.5394 15.1382 17.4144C15.0131 17.2894 14.8436 17.2191 14.6667 17.2191C14.4899 17.2191 14.3204 17.2894 14.1953 17.4144C14.0703 17.5394 14.0001 17.709 14.0001 17.8858C14.0001 18.0626 13.9298 18.2322 13.8048 18.3572C13.6798 18.4822 13.5102 18.5525 13.3334 18.5525C13.1566 18.5525 12.987 18.4822 12.862 18.3572C12.737 18.2322 12.6667 18.0626 12.6667 17.8858V13.2925C12.949 13.3379 13.2189 13.4404 13.4602 13.5936C13.7015 13.7469 13.909 13.9477 14.0701 14.1838C14.1206 14.2851 14.1961 14.3718 14.2894 14.4358C14.3827 14.4999 14.4908 14.5391 14.6034 14.5498C14.7169 14.5604 14.8312 14.5414 14.9352 14.4947C15.0392 14.4479 15.1293 14.3751 15.1967 14.2831C15.3413 14.0332 15.5419 13.8202 15.7828 13.6609C16.0236 13.5016 16.2982 13.4004 16.5847 13.3651H16.5894C16.8949 13.4089 17.1886 13.5128 17.4536 13.6708C17.7187 13.8289 17.9497 14.0379 18.1334 14.2858C18.1955 14.3686 18.276 14.4358 18.3686 14.4821C18.4612 14.5284 18.5633 14.5525 18.6667 14.5525C18.8436 14.5525 19.0131 14.4822 19.1382 14.3572C19.2632 14.2322 19.3334 14.0626 19.3334 13.8858C19.331 12.0574 18.6462 10.2957 17.4131 8.94556C16.1801 7.59547 14.4875 6.75421 12.6667 6.58648ZM16.5927 12.0345C15.8731 12.0488 15.1879 12.3458 14.6854 12.8611C13.9506 12.2002 12.9878 11.8505 12.0001 11.8858C11.0124 11.8505 10.0496 12.2002 9.31475 12.8611C8.81224 12.3458 8.1271 12.0488 7.40741 12.0345C6.99011 12.0393 6.57951 12.1402 6.20741 12.3291C6.54941 11.0535 7.30271 9.9264 8.35052 9.12251C9.39833 8.31862 10.6821 7.88289 12.0027 7.88289C13.3234 7.88289 14.6072 8.31862 15.655 9.12251C16.7028 9.9264 17.4561 11.0535 17.7981 12.3291C17.4244 12.1394 17.0119 12.0385 16.5927 12.0345Z" fill="white"/>
</svg>
