<svg width="16" height="17" viewBox="0 0 16 17" fill="none" xmlns="http://www.w3.org/2000/svg">
<g clip-path="url(#clip0_22_645)">
<path d="M3.00011 5.42634C3.00011 5.30361 2.90062 5.20412 2.77789 5.20412C2.65516 5.20412 2.55566 5.30361 2.55566 5.42634C2.55566 5.72798 2.61505 6.03467 2.79619 6.27016C2.98553 6.51629 3.27947 6.64856 3.66678 6.64856C3.78951 6.64856 3.889 6.54907 3.889 6.42634C3.889 6.30361 3.78951 6.20412 3.66678 6.20412C3.38742 6.20412 3.23691 6.11416 3.14847 5.99918C3.05184 5.87356 3.00011 5.68025 3.00011 5.42634Z" fill="#428fdb" stroke="#00E1FF" stroke-width="0.1"/>
<path fill-rule="evenodd" clip-rule="evenodd" d="M3.9828 2.65805C3.81136 2.47345 3.52174 2.47346 3.35031 2.65806C3.1406 2.88389 2.75355 3.32201 2.41755 3.82164C2.08228 4.32017 1.77096 4.88797 1.77644 5.5047C1.77692 5.55926 1.77982 5.63581 1.78933 5.72715C1.80822 5.90857 1.85384 6.15479 1.96298 6.4043C2.07261 6.6549 2.24855 6.91352 2.52923 7.10877C2.81119 7.30492 3.18341 7.42635 3.66656 7.42635C4.14971 7.42635 4.52194 7.30492 4.80391 7.10877C5.08458 6.91352 5.26056 6.65492 5.3702 6.40432C5.47936 6.15481 5.525 5.90857 5.54389 5.72715C5.5534 5.63583 5.55631 5.55928 5.5568 5.50472C5.56231 4.88799 5.25091 4.32014 4.91565 3.82162C4.5796 3.322 4.19254 2.88388 3.9828 2.65805ZM2.78635 4.06966C3.09902 3.60473 3.46211 3.19146 3.66656 2.97066C3.87103 3.19146 4.23416 3.60473 4.54685 4.06966C4.82998 4.49064 5.11705 4.97757 5.11238 5.50075C5.112 5.54341 5.10969 5.60577 5.10185 5.6811C5.08603 5.83301 5.04831 6.03123 4.96303 6.22617C4.8782 6.42001 4.7486 6.60586 4.55009 6.74392C4.35289 6.88112 4.07231 6.9819 3.66656 6.9819C3.2608 6.9819 2.98025 6.88112 2.78304 6.74392C2.58456 6.60586 2.45497 6.42001 2.37017 6.22617C2.28489 6.03123 2.2472 5.83303 2.23138 5.68112C2.22354 5.60577 2.22124 5.54343 2.22087 5.50077C2.21623 4.97759 2.50322 4.49067 2.78635 4.06966Z" fill="#428fdb" stroke="#00E1FF" stroke-width="0.1"/>
</g>
<path d="M8.67467 3.27653V2.49902C8.67467 2.35706 8.5596 2.24199 8.41765 2.24199C8.27569 2.24199 8.16062 2.35706 8.16062 2.49902V3.2809C7.59982 3.30307 6.91072 3.44317 6.34055 3.62101C6.20499 3.66329 6.13495 3.81053 6.18229 3.9444C6.22963 4.07825 6.37641 4.14824 6.51193 4.10593C6.8642 3.99596 7.2926 3.88806 7.60929 3.84456C6.24807 5.04462 5.36569 6.71376 5.13694 8.50833C4.80717 8.13487 4.3273 7.89661 3.79114 7.89661C2.88599 7.89661 2.13488 8.56837 2.01013 9.43955C1.99001 9.58007 2.10702 9.6958 2.24897 9.6958C2.39092 9.6958 2.50332 9.57956 2.53148 9.44043C2.65024 8.85372 3.16993 8.41066 3.79114 8.41066C4.41235 8.41066 4.93204 8.85372 5.0508 9.44043C5.07896 9.57956 5.19136 9.6958 5.33331 9.6958C5.47526 9.6958 5.58766 9.57956 5.61582 9.44043C5.73458 8.85372 6.25426 8.41066 6.87548 8.41066C7.5841 8.41066 8.16062 8.98718 8.16062 9.6958V12.242C8.16062 13.3051 9.02526 14.234 10.0883 14.234C11.0615 14.234 11.8684 13.5339 11.9979 12.6268C12.018 12.4863 11.901 12.3705 11.759 12.3705C11.6171 12.3705 11.5047 12.4867 11.478 12.6261C11.3555 13.2659 10.779 13.7199 10.0883 13.7199C9.30876 13.7199 8.67467 13.0213 8.67467 12.242V9.6958C8.67467 8.98718 9.25119 8.41066 9.95982 8.41066C10.581 8.41066 11.1007 8.85372 11.2195 9.44043C11.2476 9.57956 11.36 9.6958 11.502 9.6958C11.6439 9.6958 11.7563 9.57956 11.7845 9.44043C11.9033 8.85372 12.4229 8.41066 13.0442 8.41066C13.6654 8.41066 14.1851 8.85372 14.3038 9.44043C14.332 9.57956 14.4444 9.6958 14.5863 9.6958C14.7283 9.6958 14.8439 9.58038 14.8383 9.43854C14.7061 6.09956 12.0137 3.40886 8.67467 3.27653ZM9.95982 7.89661C9.30619 7.89661 8.73276 8.24694 8.41765 8.76973C8.10253 8.24694 7.5291 7.89661 6.87548 7.89661C6.4154 7.89661 5.99721 8.07267 5.67875 8.35797C5.96046 6.59219 6.91943 4.97188 8.36624 3.88697L8.41765 3.84841L8.46905 3.88697C9.91586 4.97188 10.8748 6.59245 11.1565 8.35797C10.8381 8.07267 10.4199 7.89661 9.95982 7.89661ZM13.0442 7.89661C12.508 7.89661 12.0281 8.13487 11.6984 8.50833C11.4696 6.71376 10.5875 5.04462 9.22626 3.84456C11.6354 4.17613 13.5875 5.9599 14.1591 8.28472C13.8525 8.04183 13.4649 7.89661 13.0442 7.89661Z" fill="#428fdb" stroke="#00E1FF" stroke-width="0.2"/>
<defs>
<clipPath id="clip0_22_645">
<rect width="5.33333" height="5.33333" fill="428fdb" transform="translate(1 2.31523)"/>
</clipPath>
</defs>
</svg>
