<svg width="20" height="20" viewBox="0 0 20 20" fill="none" xmlns="http://www.w3.org/2000/svg">
<path fill-rule="evenodd" clip-rule="evenodd" d="M1.33301 12.6663C1.33301 13.1968 1.54372 13.7055 1.91879 14.0806C2.29387 14.4556 2.80257 14.6663 3.33301 14.6663H5.33301V13.333H3.33301C3.1562 13.333 2.98663 13.2628 2.8616 13.1377C2.73658 13.0127 2.66634 12.8432 2.66634 12.6663V3.33301C2.66634 3.1562 2.73658 2.98663 2.8616 2.8616C2.98663 2.73658 3.1562 2.66634 3.33301 2.66634H12.6663C12.8432 2.66634 13.0127 2.73658 13.1377 2.8616C13.2628 2.98663 13.333 3.1562 13.333 3.33301V5.33301H7.33301C6.80257 5.33301 6.29387 5.54372 5.91879 5.91879C5.54372 6.29387 5.33301 6.80257 5.33301 7.33301V16.6663C5.33301 17.1968 5.54372 17.7055 5.91879 18.0806C6.29387 18.4556 6.80257 18.6663 7.33301 18.6663H16.6663C17.1968 18.6663 17.7055 18.4556 18.0806 18.0806C18.4556 17.7055 18.6663 17.1968 18.6663 16.6663V7.33301C18.6663 6.80257 18.4556 6.29387 18.0806 5.91879C17.7055 5.54372 17.1968 5.33301 16.6663 5.33301H14.6663V3.33301C14.6663 2.80257 14.4556 2.29387 14.0806 1.91879C13.7055 1.54372 13.1968 1.33301 12.6663 1.33301H3.33301C2.80257 1.33301 2.29387 1.54372 1.91879 1.91879C1.54372 2.29387 1.33301 2.80257 1.33301 3.33301V12.6663ZM6.66634 7.33301C6.66634 7.1562 6.73658 6.98663 6.8616 6.8616C6.98663 6.73658 7.1562 6.66634 7.33301 6.66634H16.6663C16.8432 6.66634 17.0127 6.73658 17.1377 6.8616C17.2628 6.98663 17.333 7.1562 17.333 7.33301V16.6663C17.333 16.8432 17.2628 17.0127 17.1377 17.1377C17.0127 17.2628 16.8432 17.333 16.6663 17.333H7.33301C7.1562 17.333 6.98663 17.2628 6.8616 17.1377C6.73658 17.0127 6.66634 16.8432 6.66634 16.6663V7.33301Z" fill="white"/>
</svg>
