<svg width="20" height="20" viewBox="0 0 20 20" fill="none" xmlns="http://www.w3.org/2000/svg">
<g filter="url(#filter0_d_0_180)">
<path d="M16.0399 9.74006C16.0399 13.2198 13.2199 16.0401 9.73995 16.0401C6.25995 16.0401 3.43994 13.2198 3.43994 9.74006C3.43994 6.26216 6.25995 3.44006 9.73995 3.44006C13.2184 3.44006 16.0399 6.26216 16.0399 9.74006Z" fill="#192D45"/>
<path d="M4.55301 3.98021L3.98 4.55291C3.6845 4.84931 3.6845 5.33351 3.98 5.62976L4.538 6.18806C4.9805 5.54126 5.5415 4.98116 6.1895 4.53851L5.6315 3.98201C5.3345 3.68396 4.84851 3.68396 4.55301 3.98021ZM14.927 3.98021C14.6315 3.68396 14.1455 3.68396 13.8485 3.98021L13.2905 4.53851C13.937 4.98116 14.4965 5.54126 14.939 6.18986L15.4985 5.63156C15.794 5.33531 15.794 4.84931 15.4985 4.55291L14.927 3.98021ZM10.145 2.00006H9.335C8.9165 2.00006 8.57301 2.34341 8.57301 2.76251V3.55391C8.95251 3.48341 9.34101 3.44186 9.74001 3.44186C10.139 3.44186 10.5275 3.48341 10.907 3.55391V2.76251C10.907 2.34341 10.5635 2.00006 10.145 2.00006ZM2.762 8.57291C2.3435 8.57291 2 8.91626 2 9.33536V10.1448C2 10.5639 2.3435 10.9072 2.762 10.9072H3.554C3.4835 10.5279 3.4415 10.1394 3.4415 9.74006C3.4415 9.34076 3.4835 8.95046 3.554 8.57291H2.762ZM14.942 13.2903C14.4995 13.9371 13.9385 14.4972 13.292 14.9398L13.85 15.4963C14.147 15.7926 14.633 15.7926 14.9285 15.4963L15.5015 14.9236C15.7985 14.6272 15.7985 14.1412 15.5015 13.845L14.942 13.2903ZM16.718 8.57291H15.9275C15.998 8.95226 16.04 9.34076 16.04 9.74006C16.04 10.1394 15.998 10.5279 15.9275 10.9072H16.718C17.1365 10.9072 17.48 10.5639 17.48 10.1448V9.33536C17.48 8.91626 17.1365 8.57291 16.718 8.57291ZM4.538 13.2903L3.98 13.8486C3.6845 14.1448 3.6845 14.629 3.98 14.9272L4.55301 15.4999C4.84851 15.7962 5.3345 15.7962 5.6315 15.4999L6.1895 14.9434C5.5415 14.499 4.9805 13.9389 4.538 13.2903ZM8.57301 15.9262V16.7176C8.57301 17.1367 8.9165 17.4801 9.335 17.4801H10.145C10.5635 17.4801 10.907 17.1367 10.907 16.7176V15.9262C10.5275 15.9967 10.139 16.0383 9.74001 16.0383C9.34101 16.0401 8.95101 15.9985 8.57301 15.9262Z" fill="#192D45"/>
<path d="M8.57297 3.22508V3.55388C8.95247 3.48338 9.34097 3.44183 9.73997 3.44183C10.139 3.44183 10.5275 3.48338 10.907 3.55388V3.22508C10.5275 3.15818 10.139 3.11663 9.73997 3.11663C9.34097 3.11483 8.95247 3.15638 8.57297 3.22508ZM14.9405 6.18983L15.1745 5.95688C14.726 5.31368 14.1665 4.75538 13.5245 4.30733L13.292 4.53848C13.9385 4.98113 14.498 5.54123 14.9405 6.18983ZM3.22396 8.57303C3.15646 8.95238 3.11597 9.34089 3.11597 9.74018C3.11597 10.1393 3.15796 10.5278 3.22396 10.9072H3.55397C3.48347 10.5278 3.44146 10.1393 3.44146 9.74018C3.44146 9.34089 3.48347 8.95058 3.55397 8.57303H3.22396ZM13.2905 14.9417L13.523 15.1729C14.1665 14.7248 14.7245 14.1665 15.173 13.5233L14.939 13.2904C14.498 13.939 13.9385 14.4991 13.2905 14.9417ZM16.2545 8.57303H15.926C15.9965 8.95238 16.0385 9.34089 16.0385 9.74018C16.0385 10.1393 15.9965 10.5278 15.926 10.9072H16.2545C16.322 10.5278 16.3625 10.1393 16.3625 9.74018C16.3625 9.34089 16.3235 8.95238 16.2545 8.57303ZM8.57297 15.9263V16.2551C8.95247 16.322 9.34097 16.3636 9.73997 16.3636C10.139 16.3636 10.5275 16.322 10.907 16.2551V15.9263C10.5275 15.9968 10.139 16.0384 9.73997 16.0384C9.34097 16.0402 8.94947 15.9986 8.57297 15.9263ZM4.53796 13.2904L4.30696 13.5233C4.75546 14.1665 5.31496 14.7266 5.95696 15.1747L6.18946 14.9435C5.54146 14.4991 4.98046 13.939 4.53796 13.2904ZM4.30547 5.95688L4.53796 6.18803C4.98046 5.54123 5.54146 4.98113 6.18946 4.53848L5.95696 4.30733C5.31346 4.75538 4.75547 5.31368 4.30547 5.95688Z" fill="#192D45"/>
<path opacity="0.15" d="M13.8485 3.98021L13.2905 4.53851C12.5855 4.05611 11.7755 3.71651 10.9055 3.55391V2.76251C10.907 2.34341 10.5635 2.00006 10.145 2.00006H9.335C8.9165 2.00006 8.57301 2.34341 8.57301 2.76251V3.55391C7.70151 3.71651 6.8945 4.05791 6.1895 4.53851L5.6315 3.98201C5.3345 3.68576 4.8515 3.68576 4.5545 3.98201L3.9815 4.55471C3.686 4.85111 3.686 5.33531 3.9815 5.63156L4.541 6.18986C4.058 6.89441 3.7175 7.70381 3.5555 8.57471H2.762C2.3435 8.57291 2 8.91626 2 9.33536V10.1448C2 10.5639 2.3435 10.9072 2.762 10.9072H3.554C3.716 11.7781 4.058 12.5857 4.538 13.2903L3.98 13.8486C3.6845 14.1448 3.6845 14.629 3.98 14.9272L4.3115 15.2578L15.2555 4.31081L14.9255 3.98021C14.6315 3.68396 14.1455 3.68396 13.8485 3.98021Z" fill="white"/>
</g>
<defs>
<filter id="filter0_d_0_180" x="0" y="6.10352e-05" width="19.48" height="19.48" filterUnits="userSpaceOnUse" color-interpolation-filters="sRGB">
<feFlood flood-opacity="0" result="BackgroundImageFix"/>
<feColorMatrix in="SourceAlpha" type="matrix" values="0 0 0 0 0 0 0 0 0 0 0 0 0 0 0 0 0 0 127 0" result="hardAlpha"/>
<feOffset/>
<feGaussianBlur stdDeviation="1"/>
<feComposite in2="hardAlpha" operator="out"/>
<feColorMatrix type="matrix" values="0 0 0 0 0 0 0 0 0 0 0 0 0 0 0 0 0 0 0.25 0"/>
<feBlend mode="normal" in2="BackgroundImageFix" result="effect1_dropShadow_0_180"/>
<feBlend mode="normal" in="SourceGraphic" in2="effect1_dropShadow_0_180" result="shape"/>
</filter>
</defs>
</svg>
