<svg width="24" height="24" viewBox="0 0 24 24" fill="none" xmlns="http://www.w3.org/2000/svg">
<path d="M17.6 4C16.9635 4 16.353 4.25286 15.9029 4.70294C15.4529 5.15303 15.2 5.76348 15.2 6.4C15.2 8.488 17.6 11.2 17.6 11.2C17.6 11.2 20 8.488 20 6.4C20 5.76348 19.7471 5.15303 19.2971 4.70294C18.847 4.25286 18.2365 4 17.6 4ZM17.6 7.6C17.3627 7.6 17.1307 7.52962 16.9333 7.39776C16.736 7.26591 16.5822 7.07849 16.4913 6.85922C16.4005 6.63995 16.3768 6.39867 16.4231 6.16589C16.4694 5.93311 16.5836 5.71929 16.7515 5.55147C16.9193 5.38365 17.1331 5.26936 17.3659 5.22306C17.5987 5.17676 17.8399 5.20052 18.0592 5.29134C18.2785 5.38217 18.4659 5.53598 18.5978 5.73332C18.7296 5.93065 18.8 6.16266 18.8 6.4C18.8 6.71826 18.6736 7.02348 18.4485 7.24853C18.2235 7.47357 17.9183 7.6 17.6 7.6ZM8 8C6.93913 8 5.92172 8.42143 5.17157 9.17157C4.42143 9.92172 4 10.9391 4 12C4 15.48 8 20 8 20C8 20 12 15.48 12 12C12 10.9391 11.5786 9.92172 10.8284 9.17157C10.0783 8.42143 9.06087 8 8 8ZM8 14C7.60444 14 7.21776 13.8827 6.88886 13.6629C6.55996 13.4432 6.30362 13.1308 6.15224 12.7654C6.00087 12.3999 5.96126 11.9978 6.03843 11.6098C6.1156 11.2219 6.30608 10.8655 6.58579 10.5858C6.86549 10.3061 7.22186 10.1156 7.60982 10.0384C7.99778 9.96126 8.39991 10.0009 8.76537 10.1522C9.13082 10.3036 9.44318 10.56 9.66294 10.8889C9.8827 11.2178 10 11.6044 10 12C10 12.5304 9.78929 13.0391 9.41421 13.4142C9.03914 13.7893 8.53043 14 8 14ZM14.456 12.416C14.3011 12.8215 14.2303 13.2543 14.248 13.688V13.92H15.048V13.712C15.0325 13.3856 15.0814 13.0594 15.192 12.752C15.2182 12.6892 15.2476 12.6278 15.28 12.568L14.576 12.184C14.5333 12.2533 14.4933 12.3307 14.456 12.416ZM15.152 11.432L15.688 12.024C16.0421 11.718 16.4692 11.5086 16.928 11.416L16.752 10.616C16.157 10.7447 15.6056 11.0259 15.152 11.432ZM8.992 19.2L9.064 20C9.64 19.952 10.184 19.88 10.664 19.8L10.528 19C10.072 19.088 9.544 19.152 8.992 19.2ZM13.48 17.952L13.376 18.032L13.856 18.672L14 18.56C14.4291 18.2061 14.7528 17.7412 14.936 17.216L14.176 16.952C14.042 17.3438 13.8009 17.6902 13.48 17.952ZM11.312 18.856L11.488 19.656C12.0376 19.5373 12.5737 19.3631 13.088 19.136L12.76 18.4C12.2937 18.5998 11.8086 18.7526 11.312 18.856ZM14.296 14.736C14.296 15.056 14.344 15.384 14.344 15.712V16.264L15.144 16.344C15.1546 16.1335 15.1546 15.9225 15.144 15.712C15.144 15.368 15.144 15.016 15.096 14.68L14.296 14.736Z" fill="#29E0AB"/>
<path d="M17.6 4C16.9635 4 16.353 4.25286 15.9029 4.70294C15.4529 5.15303 15.2 5.76348 15.2 6.4C15.2 8.488 17.6 11.2 17.6 11.2C17.6 11.2 20 8.488 20 6.4C20 5.76348 19.7471 5.15303 19.2971 4.70294C18.847 4.25286 18.2365 4 17.6 4ZM17.6 7.6C17.3627 7.6 17.1307 7.52962 16.9333 7.39776C16.736 7.26591 16.5822 7.07849 16.4913 6.85922C16.4005 6.63995 16.3768 6.39867 16.4231 6.16589C16.4694 5.93311 16.5836 5.71929 16.7515 5.55147C16.9193 5.38365 17.1331 5.26936 17.3659 5.22306C17.5987 5.17676 17.8399 5.20052 18.0592 5.29134C18.2785 5.38217 18.4659 5.53598 18.5978 5.73332C18.7296 5.93065 18.8 6.16266 18.8 6.4C18.8 6.71826 18.6736 7.02348 18.4485 7.24853C18.2235 7.47357 17.9183 7.6 17.6 7.6ZM8 8C6.93913 8 5.92172 8.42143 5.17157 9.17157C4.42143 9.92172 4 10.9391 4 12C4 15.48 8 20 8 20C8 20 12 15.48 12 12C12 10.9391 11.5786 9.92172 10.8284 9.17157C10.0783 8.42143 9.06087 8 8 8ZM8 14C7.60444 14 7.21776 13.8827 6.88886 13.6629C6.55996 13.4432 6.30362 13.1308 6.15224 12.7654C6.00087 12.3999 5.96126 11.9978 6.03843 11.6098C6.1156 11.2219 6.30608 10.8655 6.58579 10.5858C6.86549 10.3061 7.22186 10.1156 7.60982 10.0384C7.99778 9.96126 8.39991 10.0009 8.76537 10.1522C9.13082 10.3036 9.44318 10.56 9.66294 10.8889C9.8827 11.2178 10 11.6044 10 12C10 12.5304 9.78929 13.0391 9.41421 13.4142C9.03914 13.7893 8.53043 14 8 14ZM14.456 12.416C14.3011 12.8215 14.2303 13.2543 14.248 13.688V13.92H15.048V13.712C15.0325 13.3856 15.0814 13.0594 15.192 12.752C15.2182 12.6892 15.2476 12.6278 15.28 12.568L14.576 12.184C14.5333 12.2533 14.4933 12.3307 14.456 12.416ZM15.152 11.432L15.688 12.024C16.0421 11.718 16.4692 11.5086 16.928 11.416L16.752 10.616C16.157 10.7447 15.6056 11.0259 15.152 11.432ZM8.992 19.2L9.064 20C9.64 19.952 10.184 19.88 10.664 19.8L10.528 19C10.072 19.088 9.544 19.152 8.992 19.2ZM13.48 17.952L13.376 18.032L13.856 18.672L14 18.56C14.4291 18.2061 14.7528 17.7412 14.936 17.216L14.176 16.952C14.042 17.3438 13.8009 17.6902 13.48 17.952ZM11.312 18.856L11.488 19.656C12.0376 19.5373 12.5737 19.3631 13.088 19.136L12.76 18.4C12.2937 18.5998 11.8086 18.7526 11.312 18.856ZM14.296 14.736C14.296 15.056 14.344 15.384 14.344 15.712V16.264L15.144 16.344C15.1546 16.1335 15.1546 15.9225 15.144 15.712C15.144 15.368 15.144 15.016 15.096 14.68L14.296 14.736Z" fill="white"/>
<path d="M17.5992 4C16.9627 4 16.3523 4.25286 15.9022 4.70294C15.4521 5.15303 15.1992 5.76348 15.1992 6.4C15.1992 8.488 17.5992 11.2 17.5992 11.2C17.5992 11.2 19.9992 8.488 19.9992 6.4C19.9992 5.76348 19.7464 5.15303 19.2963 4.70294C18.8462 4.25286 18.2357 4 17.5992 4ZM17.5992 7.6C17.3619 7.6 17.1299 7.52962 16.9325 7.39776C16.7352 7.26591 16.5814 7.07849 16.4906 6.85922C16.3997 6.63995 16.376 6.39867 16.4223 6.16589C16.4686 5.93311 16.5829 5.71929 16.7507 5.55147C16.9185 5.38365 17.1323 5.26936 17.3651 5.22306C17.5979 5.17676 17.8392 5.20052 18.0584 5.29134C18.2777 5.38217 18.4651 5.53598 18.597 5.73332C18.7288 5.93065 18.7992 6.16266 18.7992 6.4C18.7992 6.71826 18.6728 7.02348 18.4477 7.24853C18.2227 7.47357 17.9175 7.6 17.5992 7.6Z" fill="#FD5353"/>
<path d="M8 8C6.93913 8 5.92172 8.42143 5.17157 9.17157C4.42143 9.92172 4 10.9391 4 12C4 15.48 8 20 8 20C8 20 12 15.48 12 12C12 10.9391 11.5786 9.92172 10.8284 9.17157C10.0783 8.42143 9.06087 8 8 8ZM8 14C7.60444 14 7.21776 13.8827 6.88886 13.6629C6.55996 13.4432 6.30362 13.1308 6.15224 12.7654C6.00087 12.3999 5.96126 11.9978 6.03843 11.6098C6.1156 11.2219 6.30608 10.8655 6.58579 10.5858C6.86549 10.3061 7.22186 10.1156 7.60982 10.0384C7.99778 9.96126 8.39991 10.0009 8.76537 10.1522C9.13082 10.3036 9.44318 10.56 9.66294 10.8889C9.8827 11.2178 10 11.6044 10 12C10 12.5304 9.78929 13.0391 9.41421 13.4142C9.03914 13.7893 8.53043 14 8 14Z" fill="#21A5FF"/>
</svg>
