<svg width="24" height="23" viewBox="0 0 24 23" fill="none" xmlns="http://www.w3.org/2000/svg">
<path d="M11.9999 9.48979e-09C10.3136 -8.77524e-05 8.68397 0.608546 7.41059 1.714C6.13721 2.81946 5.30568 4.34743 5.06888 6.017C3.65211 6.12865 2.33356 6.78437 1.38958 7.84673C0.445601 8.90909 -0.0505163 10.2956 0.00521065 11.7157C0.0609376 13.1357 0.664183 14.4791 1.68851 15.4642C2.71284 16.4493 4.07872 16.9997 5.49988 17H10.0159C9.90329 15.3264 10.355 13.6634 11.2987 12.2767C12.2425 10.8901 13.6238 9.85978 15.222 9.35054C16.8202 8.8413 18.543 8.88251 20.115 9.46758C21.687 10.0526 23.0175 11.1478 23.8939 12.578C23.9645 12.2293 23.9999 11.87 23.9999 11.5C23.9999 10.1159 23.478 8.78276 22.5384 7.76646C21.5989 6.75016 20.3107 6.12546 18.9309 6.017C18.6941 4.34743 17.8626 2.81946 16.5892 1.714C15.3158 0.608546 13.6862 -8.77524e-05 11.9999 9.48979e-09ZM23.9999 16.5C23.9999 18.2239 23.3151 19.8772 22.0961 21.0962C20.8771 22.3152 19.2238 23 17.4999 23C15.776 23 14.1227 22.3152 12.9037 21.0962C11.6847 19.8772 10.9999 18.2239 10.9999 16.5C10.9999 14.7761 11.6847 13.1228 12.9037 11.9038C14.1227 10.6848 15.776 10 17.4999 10C19.2238 10 20.8771 10.6848 22.0961 11.9038C23.3151 13.1228 23.9999 14.7761 23.9999 16.5ZM17.4999 13C17.3673 13 17.2401 13.0527 17.1463 13.1464C17.0526 13.2402 16.9999 13.3674 16.9999 13.5V17.5C16.9999 17.6326 17.0526 17.7598 17.1463 17.8536C17.2401 17.9473 17.3673 18 17.4999 18C17.6325 18 17.7597 17.9473 17.8534 17.8536C17.9472 17.7598 17.9999 17.6326 17.9999 17.5V13.5C17.9999 13.3674 17.9472 13.2402 17.8534 13.1464C17.7597 13.0527 17.6325 13 17.4999 13ZM17.4999 20.125C17.6656 20.125 17.8246 20.0592 17.9418 19.9419C18.059 19.8247 18.1249 19.6658 18.1249 19.5C18.1249 19.3342 18.059 19.1753 17.9418 19.0581C17.8246 18.9408 17.6656 18.875 17.4999 18.875C17.3341 18.875 17.1751 18.9408 17.0579 19.0581C16.9407 19.1753 16.8749 19.3342 16.8749 19.5C16.8749 19.6658 16.9407 19.8247 17.0579 19.9419C17.1751 20.0592 17.3341 20.125 17.4999 20.125Z" fill="url(#paint0_linear_321_607)"/>
<defs>
<linearGradient id="paint0_linear_321_607" x1="12.0004" y1="0" x2="12.0004" y2="23" gradientUnits="userSpaceOnUse">
<stop stop-color="white"/>
<stop offset="1" stop-color="#A9A1DB"/>
</linearGradient>
</defs>
</svg>
