<svg width="20" height="21" viewBox="0 0 20 21" fill="none" xmlns="http://www.w3.org/2000/svg">
<path d="M8.35839 3.54923C9.07173 2.25923 10.9259 2.25923 11.6392 3.54923L18.0942 15.2167C18.7859 16.4667 17.8817 18.0001 16.4534 18.0001H3.54506C2.11589 18.0001 1.21173 16.4667 1.90339 15.2167L8.35839 3.55006V3.54923ZM10.8309 14.6667C10.8344 14.5552 10.8155 14.4442 10.7753 14.3401C10.7351 14.2361 10.6743 14.1412 10.5967 14.0611C10.5191 13.981 10.4262 13.9173 10.3235 13.8738C10.2208 13.8303 10.1104 13.8079 9.99881 13.8079C9.88727 13.8079 9.77686 13.8303 9.67415 13.8738C9.57144 13.9173 9.47852 13.981 9.40091 14.0611C9.32329 14.1412 9.26257 14.2361 9.22234 14.3401C9.18211 14.4442 9.1632 14.5552 9.16673 14.6667C9.17357 14.8828 9.26423 15.0878 9.41953 15.2383C9.57483 15.3888 9.78258 15.4729 9.99881 15.4729C10.215 15.4729 10.4228 15.3888 10.5781 15.2383C10.7334 15.0878 10.8241 14.8828 10.8309 14.6667ZM10.6151 8.12256C10.5935 7.96561 10.5131 7.82272 10.3901 7.72279C10.2672 7.62285 10.1109 7.57333 9.95288 7.58423C9.79483 7.59513 9.64682 7.66565 9.53878 7.78152C9.43074 7.89739 9.37073 8.04997 9.37089 8.20839L9.37423 11.9592L9.38006 12.0442C9.40165 12.2012 9.48204 12.3441 9.60497 12.444C9.7279 12.5439 9.88419 12.5935 10.0422 12.5826C10.2003 12.5717 10.3483 12.5011 10.4563 12.3853C10.5644 12.2694 10.6244 12.1168 10.6242 11.9584L10.6209 8.20673L10.6151 8.12256Z" fill="#FFD400"/>
<path d="M19.1666 3.83341C19.1666 4.75389 18.4204 5.50008 17.4999 5.50008C16.5794 5.50008 15.8333 4.75389 15.8333 3.83341C15.8333 2.91294 16.5794 2.16675 17.4999 2.16675C18.4204 2.16675 19.1666 2.91294 19.1666 3.83341Z" fill="#FF0000"/>
</svg>
