<svg width="24" height="25" viewBox="0 0 24 25" fill="none" xmlns="http://www.w3.org/2000/svg">
<rect y="0.270218" width="24" height="24" rx="4" fill="#29E0AB"/>
<path d="M9.6 13.4702C9.6 13.4702 10.5 14.6702 12 14.6702C13.5 14.6702 14.4 13.4702 14.4 13.4702M13.8 10.4702H13.806M10.2 10.4702H10.206M18 12.2702C18 15.584 15.3137 18.2702 12 18.2702C8.68629 18.2702 6 15.584 6 12.2702C6 8.95651 8.68629 6.27022 12 6.27022C15.3137 6.27022 18 8.95651 18 12.2702ZM14.1 10.4702C14.1 10.6359 13.9657 10.7702 13.8 10.7702C13.6343 10.7702 13.5 10.6359 13.5 10.4702C13.5 10.3045 13.6343 10.1702 13.8 10.1702C13.9657 10.1702 14.1 10.3045 14.1 10.4702ZM10.5 10.4702C10.5 10.6359 10.3657 10.7702 10.2 10.7702C10.0343 10.7702 9.9 10.6359 9.9 10.4702C9.9 10.3045 10.0343 10.1702 10.2 10.1702C10.3657 10.1702 10.5 10.3045 10.5 10.4702Z" stroke="white" stroke-width="1.2" stroke-linecap="round" stroke-linejoin="round"/>
</svg>
