<?xml version="1.0" encoding="utf-8"?>
<!-- Generator: Adobe Illustrator 25.0.0, SVG Export Plug-In . SVG Version: 6.00 Build 0)  -->
<svg version="1.1" id="Layer_1" xmlns="http://www.w3.org/2000/svg" xmlns:xlink="http://www.w3.org/1999/xlink" x="0px" y="0px"
	 viewBox="0 0 12 16" style="enable-background:new 0 0 12 16;" xml:space="preserve">
<style type="text/css">
	.st0{fill:#003870;}
</style>
<path class="st0" d="M10.3,6.9L6.4,0.8c0-0.1-0.1-0.1-0.2-0.2C6.2,0.6,6.1,0.6,6,0.6c-0.1,0-0.2,0-0.2,0.1c-0.1,0-0.1,0.1-0.2,0.2
	L1.7,6.9c-0.7,0.9-1,2-1,3.2c0,3,2.4,5.4,5.4,5.4c3,0,5.4-2.4,5.4-5.4C11.4,8.9,11,7.8,10.3,6.9L10.3,6.9z M6,14.4
	c-2.4,0-4.4-2-4.4-4.4c0-0.9,0.3-1.8,0.9-2.6c0,0,0,0,0,0L6,2l3.5,5.5c0,0,0,0,0,0c0.6,0.8,0.9,1.7,0.9,2.6
	C10.4,12.5,8.4,14.4,6,14.4L6,14.4z"/>
</svg>
