<svg width="25" height="25" viewBox="0 0 25 25" fill="none" xmlns="http://www.w3.org/2000/svg">
<mask id="mask0_0_376" style="mask-type:luminance" maskUnits="userSpaceOnUse" x="1" y="1" width="23" height="23">
<path d="M1.89282 1.64291H23.6071V23.3572H1.89282V1.64291Z" fill="white"/>
</mask>
<g mask="url(#mask0_0_376)">
<path d="M5.85287 17.7218C5.59687 17.9229 5.4563 18.0349 5.10773 18.0349C4.75801 18.0349 4.61744 17.9229 4.36144 17.7218C4.04715 17.4738 3.61744 17.1343 2.82544 17.1343V18.4109C3.17515 18.4109 3.31573 18.5218 3.57173 18.7241C3.88601 18.9721 4.31573 19.3115 5.10773 19.3115C5.89858 19.3115 6.32944 18.9721 6.64373 18.7241C6.89858 18.5218 7.0403 18.4109 7.38887 18.4109C7.41173 18.4109 7.43344 18.4109 7.45515 18.4121C7.29058 18.0086 7.15915 17.5892 7.06315 17.1549C6.47344 17.2326 6.12144 17.5103 5.85287 17.7218Z" fill="#428fdb"/>
</g>
<mask id="mask1_0_376" style="mask-type:luminance" maskUnits="userSpaceOnUse" x="1" y="1" width="23" height="23">
<path d="M1.89282 1.64291H23.6071V23.3572H1.89282V1.64291Z" fill="white"/>
</mask>
<g mask="url(#mask1_0_376)">
<path d="M6.98544 14.4486C6.44144 14.5389 6.10887 14.8018 5.85287 15.0041C5.59687 15.2052 5.4563 15.3161 5.10773 15.3161C4.75801 15.3161 4.61744 15.2052 4.36144 15.0041C4.04715 14.7561 3.61744 14.4166 2.82544 14.4166V15.6921C3.17515 15.6921 3.31573 15.8041 3.57173 16.0052C3.88601 16.2532 4.31573 16.5926 5.10773 16.5926C5.89858 16.5926 6.32944 16.2532 6.64373 16.0052C6.73401 15.9343 6.81058 15.8738 6.88601 15.8269C6.8803 15.7001 6.87687 15.5721 6.87687 15.4429C6.87687 15.1401 6.91344 14.8086 6.98544 14.4486Z" fill="#428fdb"/>
</g>
<mask id="mask2_0_376" style="mask-type:luminance" maskUnits="userSpaceOnUse" x="1" y="1" width="23" height="23">
<path d="M1.89282 1.64291H23.6071V23.3572H1.89282V1.64291Z" fill="white"/>
</mask>
<g mask="url(#mask2_0_376)">
<path d="M7.38887 11.6989C6.59687 11.6989 6.16715 12.0383 5.85287 12.2863C5.59687 12.4875 5.4563 12.5983 5.10773 12.5983C4.75801 12.5983 4.61744 12.4875 4.36144 12.2863C4.04715 12.0383 3.61744 11.6989 2.82544 11.6989V12.9743C3.17515 12.9743 3.31573 13.0863 3.57173 13.2875C3.88601 13.5355 4.31573 13.8749 5.10773 13.8749C5.89858 13.8749 6.32944 13.5355 6.64373 13.2875C6.89858 13.0863 7.0403 12.9743 7.38887 12.9743C7.39915 12.9743 7.41058 12.9743 7.42087 12.9755C7.56487 12.5915 7.73744 12.1869 7.93858 11.7606C7.7763 11.7218 7.59573 11.6989 7.38887 11.6989Z" fill="#428fdb"/>
</g>
<mask id="mask3_0_376" style="mask-type:luminance" maskUnits="userSpaceOnUse" x="1" y="1" width="23" height="23">
<path d="M1.89282 1.64291H23.6071V23.3572H1.89282V1.64291Z" fill="white"/>
</mask>
<g mask="url(#mask3_0_376)">
<path d="M18.958 7.18006C17.142 4.48634 15.3008 2.25777 15.2826 2.23606L14.7911 1.64291L14.2997 2.23606C14.2814 2.25777 12.4391 4.48634 10.6243 7.18006C9.45856 8.90806 8.56141 10.4372 7.93856 11.7606C8.39684 11.8692 8.69284 12.1023 8.92484 12.2863C9.18084 12.4875 9.32141 12.5983 9.66999 12.5983C10.0186 12.5983 10.1603 12.4875 10.4163 12.2863C10.7294 12.0383 11.1603 11.6989 11.9523 11.6989C12.7431 11.6989 13.174 12.0383 13.4871 12.2863C13.7431 12.4875 13.8837 12.5983 14.2334 12.5983C14.582 12.5983 14.7226 12.4875 14.9786 12.2863C15.2928 12.0383 15.7226 11.6989 16.5146 11.6989V12.9743C16.166 12.9743 16.0254 13.0863 15.7694 13.2875C15.4551 13.5355 15.0254 13.8749 14.2334 13.8749C13.4414 13.8749 13.0117 13.5355 12.6974 13.2875C12.4414 13.0863 12.3008 12.9743 11.9523 12.9743C11.6026 12.9743 11.462 13.0863 11.206 13.2875C10.8917 13.5355 10.462 13.8749 9.66999 13.8749C8.87799 13.8749 8.44827 13.5355 8.13399 13.2875C7.88713 13.0921 7.74656 12.9823 7.42084 12.9755C7.2197 13.5092 7.07456 14.0006 6.98541 14.4486C7.1077 14.4281 7.24256 14.4166 7.38884 14.4166C8.18084 14.4166 8.61056 14.7561 8.92484 15.0041C9.1797 15.2052 9.32141 15.3161 9.66999 15.3161C10.0186 15.3161 10.1603 15.2052 10.4163 15.0041C10.7294 14.7561 11.1591 14.4166 11.9523 14.4166C12.7431 14.4166 13.174 14.7561 13.4871 15.0041C13.7431 15.2052 13.8837 15.3161 14.2334 15.3161C14.582 15.3161 14.7226 15.2052 14.9786 15.0041C15.2928 14.7561 15.7226 14.4166 16.5146 14.4166V15.6921C16.166 15.6921 16.0254 15.8041 15.7694 16.0052C15.4551 16.2532 15.0254 16.5926 14.2334 16.5926C13.4414 16.5926 13.0117 16.2532 12.6974 16.0052C12.4414 15.8041 12.3008 15.6921 11.9523 15.6921C11.6026 15.6921 11.462 15.8041 11.206 16.0052C10.8917 16.2532 10.462 16.5926 9.66999 16.5926C8.87799 16.5926 8.44827 16.2532 8.13399 16.0052C7.87799 15.8041 7.73742 15.6921 7.38884 15.6921C7.1637 15.6921 7.02427 15.7389 6.88599 15.8269C6.9077 16.2806 6.96827 16.7241 7.06313 17.1549C7.16484 17.1423 7.27227 17.1355 7.38884 17.1355C8.18084 17.1355 8.61056 17.4738 8.92484 17.7218C9.1797 17.9229 9.32027 18.0349 9.66999 18.0349C10.0186 18.0349 10.1603 17.9229 10.4151 17.7218C10.7294 17.4738 11.1591 17.1355 11.9511 17.1355C12.7431 17.1355 13.174 17.4738 13.4871 17.7218C13.7431 17.9229 13.8837 18.0349 14.2334 18.0349C14.582 18.0349 14.7226 17.9229 14.9786 17.7218C15.2928 17.4738 15.7226 17.1355 16.5146 17.1355V18.4109C16.166 18.4109 16.0243 18.5218 15.7694 18.7241C15.4551 18.9721 15.0243 19.3115 14.2334 19.3115C13.4414 19.3115 13.0106 18.9721 12.6974 18.7241C12.4414 18.5218 12.3008 18.4109 11.9511 18.4109C11.6026 18.4109 11.462 18.5218 11.206 18.7241C10.8917 18.9721 10.462 19.3115 9.66999 19.3115C8.87799 19.3115 8.44827 18.9721 8.13399 18.7241C7.89513 18.5355 7.75684 18.4258 7.45513 18.4121C8.63113 21.3092 11.4768 23.3572 14.7911 23.3572C19.1546 23.3572 22.7054 19.8063 22.7054 15.4429C22.7054 13.6475 21.4437 10.8669 18.958 7.18006Z" fill="#428fdb"/>
</g>
</svg>
