<svg width="18" height="24" viewBox="0 0 18 24" fill="none" xmlns="http://www.w3.org/2000/svg">
<path d="M8.82812 13.6265C6.16591 13.6265 4 11.4673 4 8.81327C4 6.1592 6.16591 4 8.82812 4C11.4903 4 13.6562 6.1592 13.6562 8.81327C13.6562 11.4673 11.4903 13.6265 8.82812 13.6265Z" fill="#0C0000"/>
<path d="M17.8712 23.3284L14.8727 17.0808C14.7947 16.9182 14.6304 16.8149 14.4501 16.8149H12.3469C12.6689 16.4073 12.9888 16.0028 13.2904 15.622C13.8615 14.9008 14.4521 14.155 14.9812 13.3909C15.9145 12.0428 16.9859 10.2119 16.9859 8.00147C16.9859 3.58941 13.3849 0 8.95868 0C4.53246 0 0.931479 3.58941 0.931479 8.00142C0.931479 10.2119 2.00281 12.0427 2.93618 13.3909C3.4647 14.1543 4.05556 14.9004 4.62692 15.6219C4.92856 16.0028 5.24839 16.4073 5.57042 16.8148H3.46728C3.287 16.8148 3.1227 16.9182 3.04465 17.0807L0.0461511 23.3284C-0.0235521 23.4737 -0.013802 23.6445 0.0720261 23.7809C0.157854 23.9173 0.307667 24 0.468776 24H6.8397C7.09859 24 7.30845 23.7901 7.30845 23.5312C7.30845 23.2724 7.09859 23.0625 6.8397 23.0625H1.21367L3.76221 17.7523H6.31081C6.98332 18.6043 7.60971 19.3989 8.03501 19.9387H6.81804C6.55915 19.9387 6.34929 20.1485 6.34929 20.4074C6.34929 20.6663 6.55915 20.8762 6.81804 20.8762H11.0993C11.3582 20.8762 11.5681 20.6663 11.5681 20.4074C11.5681 20.1485 11.3582 19.9387 11.0993 19.9387H9.88235C10.3077 19.3988 10.934 18.6043 11.6066 17.7523H14.1552L16.7037 23.0625H11.0777C10.8188 23.0625 10.609 23.2724 10.609 23.5312C10.609 23.7901 10.8189 24 11.0777 24H17.4486C17.6097 24 17.7595 23.9173 17.8453 23.7809C17.9311 23.6445 17.9409 23.4737 17.8712 23.3284ZM3.70695 12.8572C2.85125 11.6212 1.86898 9.95231 1.86898 8.00142C1.86898 4.10639 5.0494 0.9375 8.95868 0.9375C12.868 0.9375 16.0484 4.10639 16.0484 8.00142C16.0484 9.95227 15.0662 11.6212 14.2105 12.8572C13.6985 13.5965 13.1174 14.3303 12.5554 15.0399C11.2767 16.6549 9.67039 18.6928 8.95868 19.5961C8.24698 18.6928 6.64067 16.6548 5.36187 15.0399C4.79965 14.33 4.21835 13.5959 3.70695 12.8572Z" fill="#080101"/>
</svg>
