<svg width="26" height="32" viewBox="0 0 26 32" fill="none" xmlns="http://www.w3.org/2000/svg">
<g clip-path="url(#clip0_170_27755)" filter="url(#filter0_d_170_27755)">
<path d="M13.008 24.0004C12.8038 24.0004 12.6192 23.8627 12.5599 23.6676C12.5054 23.4887 12.5655 23.2881 12.7106 23.1694C12.8691 23.04 13.0979 23.0295 13.2681 23.1422C13.4255 23.2464 13.5053 23.4422 13.4668 23.6268C13.4221 23.8414 13.2276 24.0004 13.008 24.0004Z" fill="#00E1FF"/>
<path d="M21.9122 23.3284L18.9137 17.0808C18.8357 16.9182 18.6714 16.8149 18.4911 16.8149H16.3879C16.7099 16.4073 17.0298 16.0028 17.3314 15.622C17.9025 14.9008 18.4931 14.155 19.0222 13.3909C19.9555 12.0428 21.0269 10.2119 21.0269 8.00147C21.0269 3.58941 17.426 0 12.9997 0C8.57348 0 4.97249 3.58941 4.97249 8.00142C4.97249 10.2119 6.04382 12.0427 6.9772 13.3909C7.50571 14.1543 8.09657 14.9004 8.66793 15.6219C8.96957 16.0028 9.2894 16.4073 9.61143 16.8148H7.50829C7.32801 16.8148 7.16371 16.9182 7.08567 17.0807L4.08717 23.3284C4.01746 23.4737 4.02721 23.6445 4.11304 23.7809C4.19887 23.9173 4.34868 24 4.50979 24H10.8807C11.1396 24 11.3495 23.7901 11.3495 23.5312C11.3495 23.2724 11.1396 23.0625 10.8807 23.0625H5.25468L7.80323 17.7523H10.3518C11.0243 18.6043 11.6507 19.3989 12.076 19.9387H10.8591C10.6002 19.9387 10.3903 20.1485 10.3903 20.4074C10.3903 20.6663 10.6002 20.8762 10.8591 20.8762H15.1403C15.3992 20.8762 15.6091 20.6663 15.6091 20.4074C15.6091 20.1485 15.3992 19.9387 15.1403 19.9387H13.9234C14.3487 19.3988 14.9751 18.6043 15.6476 17.7523H18.1962L20.7447 23.0625H15.1187C14.8598 23.0625 14.65 23.2724 14.65 23.5312C14.65 23.7901 14.8599 24 15.1187 24H21.4896C21.6507 24 21.8005 23.9173 21.8864 23.7809C21.9721 23.6445 21.9819 23.4737 21.9122 23.3284V23.3284ZM7.74796 12.8572C6.89226 11.6212 5.90999 9.95231 5.90999 8.00142C5.90999 4.10639 9.09042 0.9375 12.9997 0.9375C16.909 0.9375 20.0894 4.10639 20.0894 8.00142C20.0894 9.95227 19.1072 11.6212 18.2515 12.8572C17.7395 13.5965 17.1584 14.3303 16.5965 15.0399C15.3177 16.6549 13.7114 18.6928 12.9997 19.5961C12.288 18.6928 10.6817 16.6548 9.40289 15.0399C8.84067 14.33 8.25937 13.5959 7.74796 12.8572V12.8572Z" fill="white"/>
<path d="M13 12.8062C10.3378 12.8062 8.17188 10.647 8.17188 7.99295C8.17188 5.33889 10.3378 3.17969 13 3.17969C15.6622 3.17969 17.8281 5.33889 17.8281 7.99295C17.8281 10.647 15.6622 12.8062 13 12.8062ZM13 4.11723C10.8547 4.11723 9.10938 5.85588 9.10938 7.993C9.10938 10.1301 10.8547 11.8687 13 11.8687C15.1453 11.8687 16.8906 10.1301 16.8906 7.993C16.8906 5.85588 15.1453 4.11723 13 4.11723V4.11723Z" fill="#00E1FF"/>
<path d="M13 12.8062C10.3378 12.8062 8.17188 10.647 8.17188 7.99295C8.17188 5.33889 10.3378 3.17969 13 3.17969C15.6622 3.17969 17.8281 5.33889 17.8281 7.99295C17.8281 10.647 15.6622 12.8062 13 12.8062Z" fill="white"/>
</g>
<defs>
<filter id="filter0_d_170_27755" x="-3" y="0" width="32" height="32" filterUnits="userSpaceOnUse" color-interpolation-filters="sRGB">
<feFlood flood-opacity="0" result="BackgroundImageFix"/>
<feColorMatrix in="SourceAlpha" type="matrix" values="0 0 0 0 0 0 0 0 0 0 0 0 0 0 0 0 0 0 127 0" result="hardAlpha"/>
<feOffset dy="4"/>
<feGaussianBlur stdDeviation="2"/>
<feComposite in2="hardAlpha" operator="out"/>
<feColorMatrix type="matrix" values="0 0 0 0 0 0 0 0 0 0 0 0 0 0 0 0 0 0 0.25 0"/>
<feBlend mode="normal" in2="BackgroundImageFix" result="effect1_dropShadow_170_27755"/>
<feBlend mode="normal" in="SourceGraphic" in2="effect1_dropShadow_170_27755" result="shape"/>
</filter>
<clipPath id="clip0_170_27755">
<rect width="24" height="24" fill="white" transform="translate(1)"/>
</clipPath>
</defs>
</svg>
