<svg width="33" height="33" viewBox="0 0 33 33" fill="none" xmlns="http://www.w3.org/2000/svg">
<g clip-path="url(#clip0_0_821)">
<path d="M5.79514 7.61695C5.7796 7.62412 5.76437 7.63219 5.75122 7.64384L5.75152 7.64414C5.76437 7.63219 5.7796 7.62442 5.79514 7.61695Z" fill="white"/>
<path d="M16.25 0.500061C7.42753 0.500061 0.25 7.67759 0.25 16.5004C0.25 25.3228 7.42753 32.5004 16.25 32.5004C25.0725 32.5004 32.25 25.3231 32.25 16.5004C32.25 7.67759 25.0725 0.500061 16.25 0.500061ZM5.12983 5.32163C4.84601 5.60664 4.57893 5.89852 4.3211 6.19399C4.58072 5.89404 4.8487 5.60126 5.12983 5.32163ZM0.733979 13.6667C0.578329 14.5803 0.496471 15.5234 0.496471 16.5001C0.496471 17.4459 0.573549 18.3601 0.718444 19.2459C0.561002 18.3532 0.474363 17.4364 0.474363 16.5001C0.474065 15.5324 0.566379 14.5865 0.733979 13.6667ZM3.86819 24.4328C3.97754 24.4433 4.01996 24.5296 4.04237 24.6208C4.03968 24.6862 4.02862 24.7609 3.96021 24.751C3.85415 24.7352 3.83085 24.6267 3.80038 24.5422C3.78395 24.4965 3.80247 24.4266 3.86819 24.4328ZM5.17643 25.3046C5.07575 25.3891 4.97507 25.3315 4.88754 25.2649C4.54128 25.0023 4.40655 24.6563 4.48661 24.2375C4.88007 24.3435 5.07097 24.6512 5.22334 24.9948C5.27293 25.1074 5.27472 25.2221 5.17643 25.3046ZM16.25 32.276C15.7158 32.276 15.1879 32.2482 14.6672 32.1962C12.3319 31.723 10.2884 30.2286 8.5371 27.7131C7.99696 26.9373 7.52433 26.122 7.11952 25.2661C7.10279 25.2649 7.08696 25.2613 7.07023 25.2613C6.92772 25.2177 6.79 25.1412 6.63255 25.1994C6.61642 25.2057 6.58625 25.2075 6.57848 25.1982C6.43388 25.0226 6.20325 25.0067 6.01742 24.9141C5.7835 24.7973 5.6392 24.581 5.41155 24.4678C5.34822 24.4367 5.30639 24.4116 5.22662 24.4355C5.12564 24.4663 5.00525 24.42 4.98374 24.3101C4.92817 24.0241 4.67034 23.9985 4.47765 23.9103C4.25717 23.8084 4.17143 23.6898 4.24223 23.449C4.1553 23.2838 4.08449 23.1118 4.02295 22.9349C3.98799 22.8351 3.93213 22.7422 3.82816 22.6938C3.66026 22.6547 3.5551 22.5438 3.49655 22.3891C3.42933 22.2128 3.26023 22.1767 3.11803 22.1062C3.06335 22.0787 3.01764 22.1062 3.03079 22.1791C3.03736 22.2164 3.052 22.2519 3.05708 22.2887C3.06485 22.3449 3.07291 22.4136 3.00062 22.4282C2.92772 22.4423 2.89635 22.3744 2.89964 22.3204C2.91099 22.1274 2.81419 21.9756 2.73443 21.8128C2.68603 21.7142 2.63315 21.6804 2.53008 21.7082C2.358 21.7548 2.2379 21.6807 2.15634 21.5331C2.08613 21.4059 2.01145 21.2846 1.87641 21.2129C1.7578 21.1498 1.84265 21.0444 1.82921 20.9583C1.82861 20.9338 1.82771 20.9097 1.82682 20.8852C1.66669 20.7949 1.64308 20.6285 1.59797 20.4747C1.57198 20.3853 1.55107 20.2942 1.52806 20.2043C1.46772 19.9274 1.25112 19.7143 1.21198 19.4284C1.2075 19.3962 1.18091 19.3669 1.14596 19.3776C1.07695 19.3998 1.10742 19.4547 1.10921 19.5034C1.11698 19.7287 1.15612 19.9515 1.17464 20.1759C1.1361 20.1165 1.09696 20.0576 1.05723 19.9991C0.827788 18.8022 0.689764 17.5962 0.748917 16.3737C0.804186 15.2301 0.973579 14.1041 1.2562 12.9897C1.43306 12.2918 1.65444 11.6166 1.93855 10.9588C1.97171 10.8235 2.0225 10.6947 2.08852 10.5719C2.19906 10.4437 2.23193 10.2776 2.30183 10.1298C2.53576 9.63652 2.80105 9.16269 3.08935 8.70291C3.19391 8.67155 3.29549 8.62643 3.38899 8.55742C3.22856 8.80539 3.06694 9.05186 2.91308 9.30371C2.80822 9.47519 2.75086 9.6646 2.66542 9.84355C2.57818 9.86267 2.55607 9.92003 2.55368 10.0046C2.55159 10.084 2.51664 10.1226 2.45778 10.116C2.52411 10.1901 2.53994 10.3006 2.60537 10.3897C2.6938 10.2851 2.80195 10.2092 2.8611 10.0906C2.98956 9.8325 3.18495 9.62277 3.36838 9.40648C3.54614 9.19735 3.70717 8.97538 3.87835 8.76446C4.07463 8.52217 4.28734 8.27809 4.54606 8.08868C4.63599 8.11377 4.71396 8.08748 4.78238 8.02982C4.82988 7.99009 4.88186 7.95812 4.93713 7.93034C5.19734 7.79769 5.26695 7.821 5.36972 8.07494C5.32491 8.26524 5.21049 8.4185 5.0871 8.5628C4.88604 8.79822 4.64047 8.99629 4.57206 9.3279C4.538 9.49282 4.38504 9.52538 4.12094 9.46055C4.26494 9.75751 4.23715 10.0336 4.04057 10.295C3.99964 10.3496 3.97096 10.4001 3.89329 10.3664C3.89239 10.3655 3.8915 10.3643 3.8906 10.3631C3.84997 10.5017 3.81502 10.6379 3.66893 10.7267C3.57303 10.7849 3.57034 10.9836 3.38511 10.9188C3.38033 10.9427 3.36958 10.9672 3.37197 10.9905C3.37675 11.0445 3.40304 11.1497 3.42694 11.1285C3.54883 11.0227 3.63248 11.3137 3.74122 11.1488C3.79231 11.0714 3.87387 11.0619 3.95274 11.0427C4.16306 10.9911 4.18338 10.9409 4.06925 10.753C4.04147 10.7075 4.01488 10.6293 4.07642 10.6335C4.25597 10.6448 4.30258 10.514 4.37876 10.3455C4.42447 10.5603 4.57952 10.6678 4.58371 10.8483C4.5858 10.9313 4.63181 10.9603 4.70978 10.928C4.76774 10.9041 4.8242 10.8775 4.88126 10.8518C4.87021 10.8512 4.85916 10.8506 4.8484 10.8498C4.74503 10.7595 4.63509 10.6756 4.73368 10.5107C4.7525 10.4796 4.71396 10.4166 4.70829 10.3676C4.68349 10.1602 4.67393 9.95529 4.84512 9.79456C4.87111 9.78231 4.8971 9.77006 4.92309 9.75781C5.11369 9.61471 5.25291 9.42141 5.41543 9.25142C5.50357 9.15941 5.57855 9.08741 5.73151 9.11848C5.86804 9.14596 6.01443 9.10653 6.12736 9.00256C6.08524 8.64824 6.29526 8.38982 6.47093 8.12244C6.59431 7.93512 6.73831 7.76184 6.87335 7.58259C6.89575 7.55272 6.92473 7.55152 6.9564 7.56646C6.96327 7.37436 7.08815 7.34658 7.24888 7.33224C7.27666 7.32985 7.30385 7.32477 7.33134 7.32118C7.57631 6.8381 7.84131 6.36667 8.1308 5.90958C8.11138 5.91824 8.09196 5.9272 8.07224 5.93557C7.76542 6.06851 7.55211 6.3117 7.38362 6.5973C7.26292 6.80195 7.08486 6.94774 6.87365 7.05201C6.79418 7.09114 6.71501 7.05828 6.63524 7.04036C6.5734 7.02691 6.51933 7.03199 6.5504 7.12729C6.65018 7.43501 6.58983 7.5814 6.29108 7.7717C6.25344 7.68387 6.31139 7.61575 6.33589 7.54106C6.35053 7.49685 6.34874 7.45174 6.30303 7.42545C6.26479 7.40334 6.23013 7.42515 6.19876 7.44666C6.11183 7.50551 6.0691 7.59753 6.02101 7.68536C5.98396 7.75288 5.94213 7.82279 5.85102 7.80636C5.76557 7.79082 5.76019 7.71374 5.75063 7.64473C5.66041 7.62681 5.56989 7.60918 5.48952 7.59365C5.43963 7.38063 5.52836 7.17718 5.52538 6.96656C5.53075 6.9588 5.53583 6.95073 5.54091 6.94326C5.69029 6.9567 5.85908 6.85005 5.87014 6.70605C5.8782 6.5991 5.92481 6.54771 6.00965 6.51067C6.15216 6.5017 6.28391 6.4781 6.29227 6.29288C6.29466 6.24239 6.32992 6.2149 6.36995 6.1925C6.45659 6.17905 6.55966 6.24358 6.62867 6.13902C6.63793 6.13812 6.64749 6.13723 6.65645 6.13633C6.76072 6.09988 6.83063 6.03595 6.89396 5.93826C6.98418 5.79934 7.14282 5.73182 7.30236 5.70314C7.58946 5.65145 7.87985 5.61321 8.07971 5.36764C8.22192 5.19317 8.43075 5.10713 8.59596 4.96373C8.61388 4.94819 8.64585 4.92997 8.66317 4.93594C8.7038 4.95028 8.74324 4.95596 8.78208 4.95895C10.4823 2.63943 12.4496 1.25322 14.6839 0.802996C15.199 0.75191 15.7212 0.724723 16.2494 0.724723C24.9485 0.724723 32.0253 7.80158 32.0253 16.5007C32.0253 25.1997 24.9491 32.276 16.25 32.276Z" fill="white"/>
</g>
<defs>
<clipPath id="clip0_0_821">
<rect width="32" height="32" fill="white" transform="translate(0.25 0.500061)"/>
</clipPath>
</defs>
</svg>
