<svg width="33" height="33" viewBox="0 0 33 33" fill="none" xmlns="http://www.w3.org/2000/svg">
<path d="M8.16075 19.4664C8.15149 19.4404 8.14761 19.4129 8.14044 19.3866C8.13327 19.3779 8.1243 19.3717 8.12132 19.3567C8.04304 19.0096 7.94296 18.6669 7.90382 18.3126C7.89606 18.2436 7.87873 18.1776 7.84019 18.1181C7.7428 17.9693 7.66602 17.9669 7.57759 18.1223C7.51156 18.2385 7.44434 18.2606 7.34545 18.1632C7.30333 18.1217 7.23044 18.0852 7.19279 18.1205C7.09659 18.2122 6.98307 18.1952 6.87402 18.2009C6.90778 18.3201 6.91764 18.4437 6.89912 18.5641C6.87074 18.744 6.93796 18.8984 6.9983 19.0559C7.0485 19.1864 7.15814 19.2226 7.29078 19.2062C7.34964 19.1993 7.42612 19.1461 7.45091 19.2516C7.53128 19.1144 7.64421 19.1584 7.73533 19.2205C7.84885 19.2988 7.95551 19.3833 8.08248 19.4425C8.14611 19.4721 8.20078 19.5261 8.20646 19.6098C8.20825 19.6367 8.21423 19.6555 8.22259 19.6707C8.22349 19.668 8.22409 19.6656 8.22498 19.6636C8.21692 19.645 8.21094 19.6232 8.20795 19.5942C8.20347 19.5503 8.18166 19.5064 8.16075 19.4664Z" fill="white"/>
<path d="M7.45199 19.2549C7.45176 19.2531 7.45064 19.2531 7.45042 19.2513H7.4502C7.45154 19.2519 7.45221 19.2553 7.45199 19.2549Z" fill="white"/>
<path d="M16.78 5.00615C16.6625 5.1367 16.6912 5.24216 16.8558 5.31625C16.8579 5.31715 16.8585 5.31894 16.8606 5.32013V4.95117C16.8546 4.93833 16.8493 4.92518 16.8409 4.91383C16.8018 4.86304 16.7456 4.85856 16.6867 4.87828C16.6554 4.88903 16.6279 4.91144 16.6336 4.94639C16.6503 5.0414 16.7354 4.94759 16.78 5.00615Z" fill="white"/>
<path d="M14.4948 22.5701C14.4796 22.5638 14.4637 22.56 14.4491 22.5549C14.4359 22.5567 14.4237 22.5612 14.4102 22.5621C14.3669 22.5692 14.3263 22.5836 14.2896 22.6075C14.2907 22.6197 14.2937 22.6314 14.2943 22.6442C14.2961 22.7049 14.3269 22.7539 14.3831 22.7766C14.4655 22.8091 14.568 22.8868 14.6283 22.7691C14.6857 22.6571 14.5877 22.6042 14.4948 22.5701Z" fill="white"/>
<path d="M10.5037 17.3605C10.5679 17.3476 10.625 17.3796 10.6629 17.4322C10.6817 17.4585 10.702 17.4758 10.7235 17.4898C10.7062 17.4722 10.6898 17.4507 10.6751 17.4175C10.6435 17.3452 10.5676 17.3246 10.5037 17.3605Z" fill="white"/>
<path d="M12.1819 17.7542C12.1843 17.7554 12.1861 17.7572 12.1879 17.7584C12.1953 17.7623 12.1989 17.7629 12.2001 17.7578C12.2007 17.7566 12.2007 17.7572 12.2013 17.756C12.198 17.756 12.195 17.756 12.1888 17.7521C12.1867 17.753 12.1843 17.753 12.1819 17.7542Z" fill="white"/>
<path d="M11.635 17.5804C11.6198 17.5875 11.6052 17.592 11.5908 17.5956C11.5968 17.5962 11.6016 17.5956 11.6078 17.5968C11.7055 17.6102 11.8161 17.6323 11.8881 17.6936C11.9858 17.7763 12.0787 17.7901 12.1818 17.7542C12.1549 17.7387 12.1274 17.7223 12.1071 17.6996C11.9765 17.5529 11.8364 17.4818 11.635 17.5804Z" fill="white"/>
<path d="M10.9248 17.4665C10.8952 17.4928 10.8645 17.5081 10.834 17.517C10.8438 17.5164 10.8528 17.5173 10.8636 17.5158C10.9795 17.5003 11.0503 17.5642 11.0894 17.6715C11.1259 17.7707 11.1417 17.8797 11.2194 17.9604C11.1901 17.7545 11.2994 17.6135 11.4912 17.595C11.4073 17.575 11.3305 17.5125 11.2594 17.4683C11.1369 17.3918 11.0461 17.3611 10.9248 17.4665Z" fill="white"/>
<path d="M10.1982 17.431C10.1433 17.4247 10.1194 17.3954 10.1089 17.3527C10.1083 17.4611 10.1274 17.5753 10.2792 17.6153C10.3228 17.6264 10.3195 17.6963 10.3234 17.7031C10.3124 17.6601 10.3425 17.5514 10.3882 17.4683C10.3243 17.4976 10.261 17.439 10.1982 17.431Z" fill="white"/>
<path d="M10.3882 17.4683C10.4073 17.4597 10.427 17.4432 10.4464 17.4139C10.4629 17.3897 10.4826 17.3718 10.5035 17.3602C10.496 17.362 10.4889 17.3614 10.4817 17.3641C10.4491 17.3766 10.4157 17.4175 10.3882 17.4683Z" fill="white"/>
<path d="M16.0962 10.9083C16.1772 10.8847 16.3086 10.876 16.3092 10.7897C16.3104 10.7016 16.2271 10.6081 16.1195 10.5809C16.0466 10.5627 15.986 10.5325 15.9391 10.4739C16.0174 10.5337 16.0075 10.5872 15.9328 10.649C15.8752 10.6971 15.8172 10.7619 15.8629 10.8435C15.914 10.9358 16.0093 10.934 16.0962 10.9083Z" fill="white"/>
<path d="M16.6319 13.2765C16.5635 13.2607 16.4948 13.2664 16.426 13.2756C16.1838 13.3085 16.098 13.514 16.2453 13.7121C16.3113 13.8008 16.4027 13.8498 16.5049 13.8902C16.6979 13.9663 16.7143 14.0297 16.6017 14.203C16.5387 14.3003 16.5742 14.3783 16.6946 14.4309C16.7523 14.456 16.8165 14.4724 16.8533 14.5414C16.8556 14.5456 16.8586 14.5495 16.8607 14.554V13.2278C16.7917 13.272 16.7128 13.2953 16.6319 13.2765Z" fill="white"/>
<path d="M14.7859 20.3555C14.7886 20.348 14.7922 20.3414 14.7949 20.334C14.7913 20.3414 14.7874 20.348 14.7832 20.3552C14.7844 20.3552 14.785 20.3555 14.7859 20.3555Z" fill="white"/>
<path d="M13.9588 10.7837C13.9698 10.7682 13.9791 10.7542 13.9764 10.7509C13.813 10.5567 14.0573 10.2525 13.7944 10.0846C13.7075 10.0294 13.7478 9.99741 13.8222 9.95828C13.8883 9.92362 14.0457 9.95618 14.0104 9.86566C13.9632 9.74497 13.9794 9.57408 13.8372 9.50507C13.723 9.4501 13.5997 9.31566 13.4834 9.53584C13.4491 9.60067 13.2776 9.56601 13.2226 9.68133C13.205 9.85311 13.0966 9.97232 12.9935 10.0942C12.9971 10.1002 13.0013 10.1038 13.0045 10.1103C13.0317 10.2006 12.9917 10.2842 12.9726 10.3673C12.9502 10.4656 12.8755 10.508 12.7727 10.4951C12.571 10.4703 12.4892 10.563 12.5397 10.7628C12.5528 10.8163 12.5884 10.8659 12.5394 10.9176C12.6332 10.9534 12.7198 10.9582 12.7694 10.813C12.825 10.7709 12.8868 10.7503 12.9561 10.7553C13.1291 10.8369 12.972 10.9113 12.9511 10.9887C12.9409 10.9929 12.9304 10.9967 12.92 11.0009C12.8468 11.0212 12.8029 11.0577 12.7733 11.1022C12.7954 11.1861 12.7909 11.2764 12.7888 11.3654C12.7891 11.3648 12.7891 11.3645 12.7894 11.3639C12.8223 11.2041 12.9484 11.121 13.1067 11.1422C13.2292 11.1587 13.3033 11.291 13.2872 11.4583C13.277 11.5617 13.2866 11.6695 13.1769 11.7532C13.3182 11.766 13.2866 11.663 13.286 11.6223C13.2842 11.4876 13.3096 11.3657 13.392 11.2602C13.4341 11.2071 13.4306 11.1631 13.4007 11.1064C13.3314 10.9746 13.3571 10.8512 13.4897 10.81C13.64 10.7634 13.8016 10.6828 13.9588 10.7837Z" fill="white"/>
<path d="M14.5101 19.3529C14.3553 19.3475 14.2242 19.2997 14.1244 19.1858C14.0076 19.2674 13.9466 19.2181 13.9239 19.095C13.909 19.0153 13.8928 18.9367 13.8618 18.8468C13.819 19.0194 13.5391 19.0813 13.6201 19.254C13.6825 19.3881 13.6389 19.5838 13.8005 19.6707C13.8319 19.5727 13.9347 19.5291 14.0037 19.4864C14.0721 19.4434 14.1653 19.582 14.2755 19.591C14.3362 19.5957 14.3075 19.6707 14.3 19.7188C14.2905 19.7798 14.2851 19.8419 14.2779 19.9035C14.3556 20.0089 14.4772 20.0185 14.5883 20.0501C14.6397 20.0256 14.6854 19.9904 14.7458 20.0238C14.8486 20.1024 14.827 20.2052 14.804 20.3092C14.801 20.3172 14.7978 20.3253 14.7948 20.3337C14.7975 20.3274 14.801 20.3226 14.8034 20.3157C14.859 20.2655 14.899 20.3118 14.9436 20.3346C15.0042 20.1798 15.0386 20.0161 15.1076 19.8649C14.9985 19.7762 14.9301 19.6528 14.8572 19.5381C14.7709 19.4036 14.6532 19.3585 14.5101 19.3529Z" fill="white"/>
<path d="M10.0984 17.1869C10.0993 17.2189 10.1008 17.2517 10.1011 17.2837C10.1014 17.3106 10.1044 17.3327 10.1088 17.3524C10.1091 17.3303 10.11 17.3082 10.1106 17.287C10.113 17.2404 10.1077 17.2087 10.0984 17.1869Z" fill="white"/>
<path d="M14.8089 17.9123C14.8074 17.906 14.8071 17.8991 14.8065 17.8931C14.8059 17.8943 14.8053 17.8943 14.8053 17.8961C14.8044 17.9066 14.8038 17.9108 14.8089 17.9123Z" fill="white"/>
<path d="M14.8127 17.9135C14.81 17.9138 14.81 17.9123 14.8088 17.912C14.8097 17.917 14.8088 17.9227 14.8106 17.9275C14.807 17.9409 14.8378 17.912 14.8127 17.9135Z" fill="white"/>
<path d="M10.1606 16.9255C10.1884 16.8911 10.1794 16.8654 10.1681 16.8406C10.1603 16.9333 10.1068 17.0064 10.0067 17.0647C9.97058 17.0859 9.94878 17.1298 9.93384 17.1803C10.013 17.1487 10.0734 17.1313 10.0985 17.1869C10.0952 17.0949 10.0979 17.0041 10.1606 16.9255Z" fill="white"/>
<path d="M6.21189 7.61695C6.19635 7.62412 6.18111 7.63219 6.16797 7.64384L6.16857 7.64414C6.18111 7.63219 6.19635 7.62442 6.21189 7.61695Z" fill="white"/>
<path d="M16.6686 15.4407C16.6372 15.4909 16.5455 15.5082 16.57 15.5847C16.5927 15.6552 16.6796 15.5536 16.7268 15.6549C16.5873 15.6791 16.4618 15.7418 16.322 15.7514C16.2969 15.7783 16.2688 15.8043 16.2419 15.8264C16.1236 15.8362 15.999 15.9306 15.8861 15.8087C15.8849 15.7878 15.8867 15.7681 15.8873 15.7481C15.769 15.7263 15.6498 15.752 15.5309 15.755C15.5193 15.7783 15.5076 15.8016 15.493 15.8297C15.3896 15.8583 15.2898 15.8921 15.2292 15.9907C15.2193 16.0071 15.2053 16.0298 15.1912 16.0304C14.9585 16.0451 14.7395 16.2142 14.4969 16.1123C14.4963 16.1132 14.496 16.1141 14.4957 16.115C14.4993 16.1236 14.5032 16.1329 14.5062 16.1404C14.5626 16.2832 14.6675 16.3247 14.804 16.3029C14.9985 16.2721 15.1228 16.3408 15.1691 16.5371C15.2059 16.6581 15.1802 16.7537 15.0699 16.8302C14.9376 16.9228 14.8381 17.0722 14.6445 17.0414C14.5785 17.0309 14.5752 17.0838 14.5716 17.131C14.5716 17.2093 14.5026 17.2314 14.4572 17.2729C14.3765 17.3034 14.3428 17.3772 14.3042 17.4438C14.2242 17.5833 14.2349 17.604 14.3936 17.6201C14.5125 17.6317 14.6155 17.6948 14.7341 17.7136C14.8288 17.7288 14.7999 17.8179 14.8067 17.8925C14.8184 17.8044 14.8901 17.8191 14.9468 17.8116C15.1288 17.7898 15.3086 17.8385 15.4906 17.8256C15.5461 17.8217 15.5972 17.8528 15.5945 17.9108C15.5817 18.1656 15.7836 18.2511 15.9509 18.3446C16.2637 18.5211 16.2688 18.5119 16.3354 18.8444C16.42 18.7419 16.4224 18.6042 16.5284 18.5214C16.6638 18.4157 16.7092 18.4169 16.7677 18.5749C16.7881 18.6311 16.8532 18.6729 16.8281 18.7452C16.8269 18.7721 16.8275 18.799 16.8212 18.8256C16.8182 18.8273 16.8164 18.8303 16.8137 18.8318C16.8314 18.839 16.8451 18.8492 16.8609 18.8572V15.3134C16.8547 15.3221 16.8511 15.3295 16.8433 15.3388C16.7842 15.3714 16.7077 15.3779 16.6686 15.4407Z" fill="white"/>
<path d="M16.637 14.8351C16.5921 14.8823 16.5267 14.8477 16.4679 14.8259C16.4679 14.827 16.4679 14.8282 16.4679 14.8294C16.4696 14.8524 16.4661 14.8745 16.4661 14.8973C16.5046 14.9967 16.5542 14.9839 16.7666 14.925C16.7848 14.9701 16.8252 14.9932 16.8604 15.0206V14.6442C16.783 14.7046 16.7066 14.7628 16.637 14.8351Z" fill="white"/>
<path d="M14.0183 3.64324C14.0479 3.61307 14.0813 3.58498 14.1211 3.56019C14.0685 3.5823 14.0371 3.61068 14.0183 3.64324Z" fill="white"/>
<path d="M11.1467 15.5548C11.1859 15.5449 11.2214 15.5333 11.2483 15.5234C11.2232 15.5333 11.1835 15.5399 11.1467 15.5548Z" fill="white"/>
<path d="M10.4768 16.3525C10.5889 16.3462 10.6262 16.316 10.6268 16.2156C10.6788 16.0938 10.7544 15.9814 10.7714 15.8461C10.8894 15.7905 11.0059 15.7394 11.0749 15.6122C11.0908 15.5826 11.1182 15.5665 11.1466 15.5548C11.1159 15.5626 11.0836 15.5694 11.0492 15.5712C10.9495 15.5763 10.9067 15.4885 10.8491 15.4326C10.7989 15.3845 10.7394 15.3648 10.6806 15.3594C10.6059 15.3528 10.5626 15.3173 10.5464 15.254C10.5282 15.1861 10.5617 15.1366 10.6229 15.0989C10.697 15.0538 10.7851 15.0003 10.7577 14.8996C10.7448 14.8518 10.6848 14.8169 10.7215 14.7541C10.7033 14.8414 10.645 14.8584 10.5656 14.85C10.5094 14.8441 10.4795 14.8028 10.4386 14.7754C10.3009 14.6821 10.1007 14.712 9.99643 14.839C9.78103 15.101 9.59849 15.1599 9.28032 15.0595C9.17636 15.0269 9.07179 15.0147 8.96484 15.0185C8.97022 15.0287 8.97649 15.038 8.97709 15.0514C8.98008 15.0669 8.97769 15.0774 8.97828 15.0908C9.13841 15.153 9.08793 15.3427 9.16142 15.4753C9.29227 15.3502 9.41625 15.3639 9.54263 15.4897C9.58834 15.5348 9.66661 15.547 9.72965 15.5748C9.78611 15.5999 9.8599 15.6166 9.85751 15.694C9.85512 15.758 9.7897 15.7831 9.73891 15.8025C9.66751 15.8294 9.61134 15.7893 9.58625 15.7272C9.54711 15.6304 9.49692 15.5757 9.38877 15.6286C9.36756 15.6391 9.3344 15.6549 9.3326 15.6713C9.32633 15.7281 9.36786 15.8087 9.26419 15.8105C9.1665 15.8123 9.05686 15.8497 8.9744 15.7705C8.8794 15.6791 8.74854 15.6779 8.6156 15.5895C8.64129 15.6531 8.65354 15.6806 8.6634 15.7087C8.6879 15.7759 8.83996 15.8216 8.70881 15.9145C8.60215 15.9901 8.44322 15.9405 8.38347 15.8264C8.37779 15.8153 8.37271 15.8034 8.36972 15.7914C8.34523 15.6839 8.35688 15.5246 8.22662 15.5133C8.17852 15.5091 8.13879 15.5276 8.10234 15.5533C8.09637 15.582 8.09517 15.6158 8.09756 15.6546C8.10055 15.6925 8.0647 15.7206 8.05155 15.7556C8.01959 15.8422 8.0405 15.9011 8.1355 15.9271C8.21407 15.9486 8.29026 15.9781 8.36584 16.0065C8.4961 16.0546 8.51163 16.152 8.40677 16.2461C8.36136 16.2873 8.30699 16.3196 8.27562 16.3794C8.51372 16.3803 8.51522 16.3803 8.52896 16.6321C8.53434 16.7367 8.59618 16.7896 8.68431 16.8218C8.76946 16.8529 8.85012 16.892 8.92809 16.9362C8.92062 16.7546 8.99053 16.7283 9.22774 16.7477C9.47899 16.7686 9.74429 16.8182 9.95401 16.6013C9.99165 16.5622 10.0463 16.5261 10.1064 16.55C10.1796 16.5786 10.1309 16.6497 10.1488 16.6975C10.1503 16.7017 10.1497 16.7044 10.1509 16.7086C10.153 16.5147 10.2704 16.3638 10.4768 16.3525Z" fill="white"/>
<path d="M10.1507 16.7955C10.1537 16.8114 10.1612 16.826 10.168 16.8403C10.1713 16.8 10.1671 16.757 10.1507 16.7086C10.1507 16.7379 10.1456 16.7651 10.1507 16.7955Z" fill="white"/>
<path d="M10.8341 17.517C10.7914 17.5191 10.7552 17.5104 10.7239 17.4898C10.7576 17.5236 10.7953 17.5284 10.8341 17.517Z" fill="white"/>
<path d="M16.8604 15.0209V15.3134C16.9563 15.1873 16.9592 15.0989 16.8648 15.0239C16.863 15.023 16.8618 15.0218 16.8604 15.0209Z" fill="white"/>
<path d="M16.8604 14.554V14.6445C16.866 14.6406 16.8702 14.6364 16.8759 14.6326C16.9016 14.6125 16.8789 14.5833 16.8604 14.554Z" fill="white"/>
<path d="M16.6667 0.500061C7.84458 0.500061 0.666748 7.67759 0.666748 16.5004C0.666748 25.3228 7.84458 32.5004 16.6667 32.5004C25.4889 32.5004 32.6667 25.3231 32.6667 16.5004C32.6667 7.67759 25.4889 0.500061 16.6667 0.500061ZM0.890813 16.5004C0.890813 10.9878 3.73464 6.13035 8.02981 3.30834C7.19898 3.87985 6.40459 4.54129 5.64755 5.29624C2.53664 8.40177 0.981633 12.1359 0.981633 16.5004C0.981633 20.8762 2.53664 24.6139 5.64785 27.7134C6.38159 28.4439 7.15147 29.0853 7.95512 29.6437C3.70148 26.8148 0.890813 21.9804 0.890813 16.5004ZM4.28494 24.4328C4.39429 24.4433 4.43671 24.5296 4.45941 24.6208C4.45643 24.6862 4.44537 24.7609 4.37726 24.751C4.2712 24.7352 4.2476 24.6267 4.21742 24.5422C4.20069 24.4965 4.21922 24.4266 4.28494 24.4328ZM4.90306 24.2372C5.29652 24.3429 5.48742 24.6512 5.63979 24.9945C5.68998 25.1071 5.69147 25.2221 5.59318 25.3043C5.4925 25.3886 5.39182 25.3312 5.30429 25.2643C4.95773 25.0026 4.823 24.6563 4.90306 24.2372ZM11.6925 28.7949C11.6253 28.7884 11.5372 28.7761 11.5461 28.6934C11.5542 28.6142 11.6528 28.6249 11.7152 28.6115C11.7777 28.5986 11.8326 28.6303 11.8308 28.699C11.8284 28.7794 11.7576 28.7866 11.6925 28.7949ZM13.9762 29.7871C13.9382 29.762 13.9003 29.7369 13.8624 29.7112C13.8283 29.6628 13.7769 29.6401 13.7258 29.6156C13.6374 29.5723 13.6201 29.4955 13.6419 29.4098C13.6646 29.3222 13.7464 29.3333 13.8113 29.3255C13.8537 29.3192 13.8985 29.3345 13.9415 29.3303C14.1976 29.3034 14.2579 29.3366 14.2722 29.5191C14.2863 29.6912 14.2008 29.7698 13.9762 29.7871ZM14.6119 27.7063C14.5734 27.7308 14.5534 27.7448 14.5779 27.7872C14.5779 27.7872 14.5782 27.7884 14.5779 27.7884C14.3439 27.9315 14.1017 28.0295 13.825 27.9127C13.7674 27.8882 13.7061 27.8374 13.6482 27.8685C13.471 27.9614 13.4059 27.8488 13.3593 27.7167C13.3144 27.5907 13.1994 27.5109 13.1436 27.383C13.2798 27.3403 13.3897 27.464 13.4659 27.4529C13.6377 27.4278 13.8397 27.4583 13.9828 27.3221C14.0822 27.2274 14.1253 27.2029 14.1599 27.3723C14.1996 27.5674 14.3971 27.6447 14.5791 27.5608C14.5913 27.5614 14.6039 27.5614 14.6161 27.5614C14.6839 27.6122 14.672 27.6683 14.6119 27.7063ZM15.9497 25.7031C15.8715 25.7013 15.8156 25.6676 15.8168 25.5812C15.818 25.5176 15.8559 25.4704 15.9208 25.4728C16.0071 25.4752 16.0397 25.5481 16.0737 25.6105C16.06 25.6858 16.0098 25.7043 15.9497 25.7031ZM16.8603 32.2712V24.011C16.8424 24.0062 16.8251 24.0014 16.8072 23.9976C16.7137 23.976 16.6216 23.9823 16.5801 24.0776C16.5159 24.2258 16.3976 24.2195 16.2808 24.1903C16.1284 24.1517 15.9772 24.1114 15.8192 24.1353C15.7275 24.1493 15.688 24.0367 15.5981 24.0525C15.5264 24.0451 15.4592 24.0125 15.3905 23.9892C15.3979 23.9925 15.4063 23.9949 15.4132 23.9982C15.4726 24.0286 15.5387 24.0507 15.5936 24.0914C15.6369 24.1607 15.6635 24.2384 15.6874 24.3166C15.6904 24.3692 15.7107 24.4071 15.7681 24.4188C15.8189 24.4287 15.8365 24.463 15.8317 24.5132C15.8264 24.5688 15.7881 24.5843 15.7436 24.5942C15.683 24.6082 15.6247 24.6309 15.5644 24.6456C15.472 24.6677 15.4081 24.6993 15.4063 24.8126C15.4051 24.8813 15.3481 24.9327 15.2979 24.9811C15.2536 25.0232 15.1912 25.0716 15.2306 25.1379C15.2668 25.1979 15.3316 25.1585 15.3848 25.1478C15.5312 25.117 15.6847 25.1035 15.7564 24.9389C15.7663 24.915 15.8001 24.921 15.8252 24.921C15.9886 24.8935 16.0884 24.9718 16.1386 25.12C16.2004 25.301 16.1227 25.4002 15.9267 25.4142C15.7436 25.4277 15.5814 25.5179 15.4126 25.5815C15.3367 25.6105 15.3188 25.707 15.3624 25.7587C15.5533 25.9834 15.4559 26.1841 15.3319 26.3873C15.3068 26.4118 15.2817 26.4369 15.2572 26.4614C15.1697 26.3756 15.0693 26.3168 14.9432 26.3126C14.7216 26.306 14.6555 26.0993 14.5262 25.9777C14.4817 25.9353 14.5561 25.9102 14.5937 25.8967C14.701 25.8594 14.7039 25.7922 14.6535 25.7064C14.5797 25.5804 14.531 25.4468 14.5393 25.2974C14.4228 25.2699 14.3478 25.2344 14.4703 25.1107C14.539 25.0414 14.6224 24.9631 14.5124 24.8487C14.4599 24.7937 14.4766 24.7128 14.5441 24.6718C14.5889 24.6447 14.6293 24.6097 14.6726 24.5795C14.5668 24.5795 14.4703 24.5643 14.418 24.4155C14.3861 24.3235 14.2564 24.3328 14.1641 24.3671C14.096 24.3928 14.0055 24.4203 14.0123 24.5114C14.0198 24.6145 14.0906 24.6817 14.1943 24.699C14.2537 24.7086 14.2985 24.7388 14.3442 24.7722C14.4422 24.8439 14.4345 24.915 14.3212 24.9416C14.2131 24.9682 14.1363 25.0073 14.116 25.123C14.116 25.1236 14.1043 25.1236 14.0996 25.1212C14.0942 25.1188 14.0909 25.1125 14.0864 25.1083C13.8411 25.1194 13.8313 25.1304 13.8244 25.4083C13.8247 25.4205 13.8253 25.4328 13.8259 25.445C13.9054 25.4286 13.9765 25.4641 14.05 25.4836C14.1674 25.7512 14.1498 25.7748 13.8247 25.7859C13.8253 25.8226 13.8259 25.86 13.8265 25.8967C13.9687 25.9218 14.0816 25.9341 14.0377 26.1528C14.0076 26.3015 14.0628 26.4924 14.2471 26.5782C14.3003 26.6027 14.3568 26.6382 14.3272 26.7043C14.297 26.7709 14.2525 26.6878 14.2155 26.6989C14.0081 26.7625 13.7921 26.6469 13.5815 26.7449C13.4435 26.8094 13.2111 26.7571 13.0925 26.6702C13.0904 26.6684 13.088 26.6678 13.0862 26.666C13.0644 26.649 13.0453 26.6323 13.0333 26.6131C13.0327 26.6015 13.0321 26.5898 13.0312 26.5779C13.0187 26.606 12.9963 26.6329 12.9948 26.6609C12.9792 26.9887 12.9147 27.0421 12.578 27.0036C12.5535 27.0006 12.5293 26.9958 12.5051 26.9908C12.4597 26.842 12.3548 26.773 12.2034 26.7655C12.0821 26.7568 11.9686 26.7305 11.8993 26.6155C11.7573 26.5531 11.6151 26.4924 11.4747 26.427C11.4484 26.4148 11.4105 26.3828 11.412 26.3628C11.4257 26.1814 11.2979 26.1731 11.1703 26.1441C10.9976 26.1044 10.9089 25.9398 10.773 25.843C10.7216 25.8068 10.7547 25.7333 10.7846 25.6876C10.8503 25.5866 10.816 25.52 10.7365 25.4453C10.626 25.3416 10.5734 24.9984 10.6328 24.863C10.6741 24.7695 10.7637 24.7821 10.8405 24.7639C10.7144 24.7008 10.6409 24.6052 10.617 24.4609C10.5961 24.3334 10.464 24.2838 10.367 24.3653C10.3165 24.4074 10.2743 24.4337 10.2197 24.4015C10.1333 24.3501 10.0999 24.4074 10.0843 24.4693C10.0688 24.5329 10.0978 24.5801 10.1772 24.5715C10.2767 24.5604 10.2752 24.6088 10.2519 24.6865C10.1695 24.9619 10.1719 24.9619 9.88387 24.8902C9.75361 24.8586 9.6852 24.9082 9.7088 25.0459C9.7327 25.1851 9.7805 25.3234 9.7321 25.4632C9.69505 25.5717 9.66219 25.6912 9.49758 25.5908C9.38107 25.5194 9.33356 25.5914 9.3482 25.704C9.35985 25.7943 9.34223 25.8382 9.24304 25.8253C9.18568 25.8188 9.15491 25.8627 9.11816 25.8967C8.96341 26.0377 8.94369 26.0297 8.89888 25.8202C8.8935 25.7952 8.88812 25.7707 8.88245 25.7462C8.82807 25.5792 8.69692 25.4585 8.61715 25.3043C8.53291 25.1415 8.34917 25.1 8.16634 25.1059C8.13437 25.1743 8.09523 25.2368 8.17291 25.3085C8.224 25.3551 8.23983 25.4268 8.22519 25.5314C8.00292 25.35 7.75824 25.2601 7.48518 25.2577C7.34268 25.2141 7.20495 25.1376 7.04751 25.1959C7.03138 25.2021 7.0015 25.2039 6.99373 25.1947C6.84914 25.019 6.6182 25.0032 6.43238 24.9105C6.19875 24.7937 6.05416 24.5774 5.8268 24.4642C5.76317 24.4331 5.72134 24.408 5.64188 24.4319C5.5406 24.4627 5.4205 24.4164 5.39899 24.3065C5.34312 24.0206 5.0853 23.9946 4.8926 23.9064C4.67213 23.8049 4.58638 23.6863 4.65749 23.4455C4.57055 23.2803 4.50004 23.1082 4.4382 22.9313C4.40325 22.8315 4.34738 22.7386 4.24342 22.6902C4.07552 22.6511 3.97036 22.5402 3.9118 22.3855C3.84428 22.2092 3.67549 22.1731 3.53328 22.1026C3.47831 22.0751 3.4329 22.1026 3.44575 22.1755C3.45232 22.2128 3.46666 22.2484 3.47204 22.2851C3.4795 22.3413 3.48787 22.41 3.41557 22.4246C3.34268 22.4387 3.31131 22.3708 3.31459 22.3168C3.32565 22.1238 3.22945 21.972 3.14938 21.8092C3.10099 21.7106 3.04781 21.6768 2.94504 21.7046C2.77295 21.7512 2.65256 21.6771 2.571 21.5296C2.50109 21.4023 2.4264 21.281 2.29107 21.2093C2.17246 21.1463 2.25731 21.0408 2.24386 20.9548C2.24297 20.9303 2.24237 20.9058 2.24147 20.8813C2.08134 20.7913 2.05774 20.6249 2.01233 20.4711C1.98634 20.3818 1.96572 20.2906 1.94242 20.2007C1.88237 19.9238 1.66578 19.7108 1.62634 19.4248C1.62186 19.3926 1.59527 19.363 1.56002 19.3741C1.49131 19.3962 1.52148 19.4511 1.52327 19.4995C1.53134 19.7251 1.57047 19.9477 1.5887 20.1723C1.55016 20.1129 1.51102 20.054 1.47129 19.9955C1.24185 18.7987 1.10382 17.5926 1.16298 16.3701C1.21825 15.2265 1.38794 14.1005 1.67026 12.9861C1.84712 12.2882 2.0682 11.6131 2.35231 10.9552C2.38517 10.8199 2.43626 10.6911 2.50288 10.5683C2.61312 10.4402 2.64598 10.2741 2.71589 10.1262C2.94982 9.63293 3.21541 9.15911 3.5037 8.69933C3.60827 8.66796 3.70954 8.62285 3.80365 8.55384C3.64322 8.8012 3.4816 9.04767 3.32744 9.29952C3.22228 9.47101 3.16522 9.66042 3.08007 9.83937C2.99254 9.85849 2.97073 9.91585 2.96834 10.0004C2.96625 10.0799 2.93129 10.1184 2.87244 10.1118C2.93876 10.1859 2.9546 10.2965 3.02002 10.3855C3.10875 10.2809 3.2166 10.205 3.27546 10.0864C3.40422 9.82832 3.5993 9.61859 3.78304 9.40229C3.9605 9.19317 4.12182 8.97119 4.29301 8.76027C4.48899 8.51799 4.7017 8.2739 4.96042 8.0845C5.05064 8.10959 5.12862 8.0833 5.19674 8.02564C5.24454 7.98591 5.29652 7.95394 5.35179 7.92616C5.612 7.79351 5.68161 7.81681 5.78438 8.07075C5.73957 8.26106 5.62515 8.41432 5.50176 8.55862C5.3007 8.79403 5.05513 8.99211 4.98671 9.32402C4.95265 9.48893 4.79939 9.5215 4.5356 9.45667C4.6793 9.75363 4.65181 10.0297 4.45493 10.2911C4.414 10.3458 4.38532 10.3962 4.30795 10.3625C4.30675 10.3616 4.30615 10.3604 4.30496 10.3592C4.26463 10.4978 4.22937 10.6341 4.08358 10.7228C3.98768 10.781 3.98499 10.9797 3.79977 10.9149C3.79499 10.9388 3.78423 10.9633 3.78632 10.9866C3.7911 11.0407 3.81739 11.1458 3.84129 11.1246C3.96319 11.0188 4.04713 11.3098 4.15588 11.1449C4.20697 11.0675 4.28823 11.058 4.3674 11.0389C4.57772 10.9872 4.59803 10.937 4.48391 10.7491C4.45643 10.7037 4.42954 10.6254 4.49138 10.6296C4.67063 10.6409 4.71724 10.5101 4.79372 10.3416C4.83913 10.5564 4.99448 10.6639 4.99866 10.8444C5.00075 10.9274 5.04646 10.9564 5.12474 10.9241C5.18269 10.9002 5.23946 10.8737 5.29622 10.848C5.28546 10.8474 5.27441 10.8468 5.26366 10.8459C5.16029 10.7556 5.05005 10.6717 5.14864 10.5068C5.16746 10.4757 5.12892 10.4127 5.12324 10.3637C5.09845 10.1563 5.08889 9.9514 5.26007 9.79067C5.28636 9.77842 5.31235 9.76617 5.33834 9.75393C5.52925 9.61082 5.66817 9.41753 5.83069 9.24754C5.91882 9.15552 5.99381 9.08352 6.14677 9.11459C6.283 9.14208 6.42969 9.10264 6.54262 8.99868C6.50049 8.64436 6.71052 8.38594 6.88618 8.11855C7.00927 7.93124 7.15357 7.75796 7.2889 7.57871C7.31101 7.54883 7.34029 7.54764 7.37165 7.56257C7.37853 7.37048 7.50341 7.34269 7.66413 7.32835C7.96408 7.30147 8.25357 7.23156 8.52126 7.04245C8.43611 6.97762 8.32766 7.00749 8.27688 6.92504C8.27329 6.91966 8.26911 6.91488 8.26702 6.9089C8.18994 6.70157 8.39249 6.64959 8.48063 6.53666C8.54008 6.46018 8.62881 6.41387 8.72949 6.48109C8.82539 6.54562 8.8227 6.71143 8.71634 6.813C8.66794 6.85961 8.60132 6.88769 8.54306 6.92414C8.73516 7.01616 8.89619 6.89337 9.06289 6.84049C9.28935 6.76849 9.50624 6.66751 9.74943 6.66034C9.84533 6.66213 9.92778 6.61642 10.0135 6.58446C10.1653 6.51664 10.2794 6.62569 10.3117 6.72188C10.3529 6.84557 10.4168 6.83392 10.4996 6.82854C10.5722 6.82406 10.6367 6.8384 10.6926 6.8853C10.7341 6.89337 10.7658 6.91189 10.7697 6.95969C10.8572 6.96029 10.9447 6.96119 11.0329 6.96208C11.0427 6.95521 11.052 6.94625 11.0636 6.94236C11.1613 6.90771 11.1589 6.73563 11.2758 6.75684C11.3726 6.77447 11.4502 6.86379 11.5354 6.92324C11.5557 6.93699 11.5781 6.94774 11.5984 6.96119C11.6358 6.96148 11.6731 6.96178 11.7104 6.96178C11.7989 7.02631 11.8867 7.02392 11.9745 6.96089L11.9748 6.96059C12.0558 6.91219 12.1182 6.82585 12.2362 6.85961C12.3384 6.88889 12.4134 6.92952 12.4361 7.04454C12.46 7.16583 12.3447 7.15239 12.276 7.20825C12.4397 7.2925 12.6405 7.18854 12.765 7.3418C12.7686 7.40035 12.7934 7.4362 12.8585 7.42694C12.9509 7.4135 13.0255 7.46488 13.1071 7.49087C13.1824 7.50253 13.2439 7.59872 13.3324 7.52702C13.3336 7.45233 13.3348 7.37795 13.336 7.30356C13.3521 7.29131 13.3622 7.29101 13.3703 7.294C13.3685 7.25337 13.3398 7.21572 13.3521 7.173C13.3264 7.14731 13.3246 7.09772 13.2953 7.07591C13.1731 7.01406 13.1433 6.93579 13.2466 6.82764C13.2717 6.80135 13.298 6.76491 13.301 6.73085C13.3348 6.29078 13.6425 6.13962 14.0123 6.08076C14.2074 6.04939 14.3741 5.91615 14.5713 5.90091C14.5468 5.84325 14.5602 5.77215 14.5665 5.70732C14.5776 5.58453 14.5552 5.53195 14.4136 5.55884C14.2555 5.58872 14.1641 5.47997 14.1871 5.31655C14.1802 5.32462 14.1731 5.33 14.1635 5.33657C14.0064 5.34792 13.9962 5.22782 13.9705 5.12027C14.0294 5.01929 14.0978 4.93385 14.2337 4.93684C14.3027 4.93833 14.343 4.89322 14.3445 4.82032C14.3583 4.78866 14.3807 4.76356 14.4001 4.73906C14.2256 4.70949 14.0386 4.74713 13.8904 4.62046C13.8692 4.60462 13.854 4.58222 13.8334 4.56609C13.696 4.45853 13.7199 4.32649 13.7751 4.18816C13.7981 4.1305 13.8319 4.09495 13.8991 4.09465C14.0604 4.09346 14.0673 3.99756 14.027 3.87746C13.9974 3.79022 13.9792 3.70657 14.0171 3.64055C13.9523 3.70717 13.9191 3.78873 13.9627 3.90465C14.0013 4.00712 13.9511 4.05163 13.8591 4.06956C13.7781 4.08539 13.6965 4.06597 13.615 4.07105C13.4094 4.0839 13.3912 4.10123 13.3631 4.31513C13.3467 4.37966 13.3186 4.43673 13.2648 4.47795C13.065 4.51291 12.9374 4.36831 12.8376 4.2506C12.7277 4.12064 12.682 4.11407 12.6082 4.25658C12.5667 4.33664 12.5018 4.37309 12.4128 4.38056C12.0651 4.41044 11.9333 4.67722 11.8039 4.94401C11.778 4.99719 11.8025 5.05395 11.8153 5.10892C11.8762 5.36585 11.8153 5.46055 11.5608 5.54151C11.4084 5.58991 11.2351 5.63233 11.101 5.59081C10.9205 5.53434 10.7183 5.50447 10.5641 5.37331C10.5175 5.33328 10.4718 5.26337 10.4321 5.37809C10.3849 5.46414 10.4862 5.59977 10.3398 5.65235C10.1725 5.7127 10.0126 5.81726 9.82471 5.70881C9.69864 5.63652 9.5633 5.62994 9.42797 5.68462C9.36015 5.7118 9.29622 5.7351 9.25977 5.64249C8.98671 5.69627 8.73934 5.82294 8.48809 5.93168C8.18157 6.06463 7.96797 6.30781 7.79917 6.59342C7.67877 6.79807 7.50072 6.94386 7.2892 7.04812C7.20973 7.08726 7.13086 7.0544 7.05109 7.03647C6.98925 7.02303 6.93488 7.02811 6.96595 7.12341C7.06603 7.43112 7.00568 7.57751 6.70693 7.76782C6.66899 7.67998 6.72725 7.61187 6.75174 7.53718C6.76638 7.49297 6.76459 7.44785 6.71888 7.42156C6.68064 7.39946 6.64598 7.42126 6.61462 7.44278C6.52768 7.50163 6.48496 7.59365 6.43656 7.68148C6.39981 7.749 6.35769 7.8189 6.26657 7.80247C6.18113 7.78694 6.17575 7.70986 6.16589 7.64085C6.07567 7.62292 5.98514 7.6053 5.90508 7.58976C5.85489 7.37675 5.94392 7.1733 5.94063 6.96268C5.94601 6.95491 5.95109 6.94685 5.95646 6.93938C6.10584 6.95282 6.27434 6.84587 6.28569 6.70217C6.29376 6.59521 6.34036 6.54383 6.42521 6.50678C6.56771 6.49782 6.69946 6.47422 6.70753 6.28899C6.70992 6.2385 6.74547 6.21102 6.7855 6.18861C6.87214 6.17517 6.97521 6.2397 7.04422 6.13513C7.05348 6.13424 7.06304 6.13334 7.07201 6.13245C7.17627 6.096 7.24618 6.03206 7.30951 5.93437C7.39974 5.79545 7.55837 5.72793 7.71791 5.69925C8.00531 5.64757 8.2954 5.60933 8.49556 5.36376C8.63747 5.18928 8.8463 5.10324 9.01181 4.95984C9.02973 4.94431 9.0617 4.92608 9.07903 4.93206C9.301 5.01003 9.49579 4.88993 9.70222 4.85408C9.81217 4.83526 9.90956 4.80837 9.97648 4.71188C9.98694 4.69664 10.0123 4.67304 10.0165 4.67543C10.2026 4.79523 10.3404 4.61418 10.5038 4.59775C10.5498 4.59327 10.5806 4.61717 10.5815 4.65989C10.5847 4.87141 10.6866 4.75221 10.755 4.70919C10.8067 4.67692 10.8476 4.62793 10.9077 4.57296C10.8124 4.51858 10.7272 4.46959 10.6415 4.42149C10.608 4.40237 10.5749 4.38146 10.5749 4.33784C10.5749 4.28406 10.6146 4.25837 10.6591 4.2518C10.8273 4.2261 10.9621 4.083 11.1688 4.16456C11.3029 4.21744 11.4699 4.15022 11.5264 3.96977C11.5754 3.81353 11.7248 3.78963 11.8452 3.72958C11.9766 3.66385 12.1293 3.63637 12.1935 3.47146C12.2288 3.38063 12.3381 3.38063 12.4191 3.35136C12.7531 3.22887 13.0877 3.10757 13.4238 2.99016C13.5382 2.95013 13.6601 2.96656 13.779 2.96208C13.8534 2.95939 13.9344 2.96955 13.9872 2.90024C14.0288 2.84617 14.0819 2.7909 14.1414 2.84288C14.2167 2.90861 14.3496 2.92324 14.355 3.05738C14.3574 3.11355 14.3535 3.17031 14.3526 3.22678C14.6304 3.44576 14.6917 3.82339 14.9564 4.05253C15.0248 4.11198 15.014 4.18786 14.9689 4.25628C14.9382 4.30229 14.8969 4.34112 14.859 4.38205C14.8058 4.43822 14.7117 4.47556 14.7431 4.57594C14.7556 4.61538 14.7789 4.63898 14.8064 4.65661C14.8309 4.63988 14.8563 4.62434 14.8802 4.60672C14.9722 4.56071 15.063 4.59805 15.1542 4.61C15.2038 4.61628 15.2722 4.65302 15.2988 4.61807C15.3869 4.50096 15.5357 4.47795 15.6325 4.39191C15.7299 4.30468 15.7893 4.30259 15.8724 4.38116C15.9354 4.44121 15.9972 4.49916 16.0292 4.58789C16.0642 4.68469 16.189 4.69246 16.2398 4.60582C16.2754 4.54428 16.3489 4.54697 16.3985 4.49199C16.3764 4.40864 16.2485 4.37488 16.2724 4.26255C16.287 4.18996 16.3441 4.14694 16.3796 4.08868C16.4292 4.00592 16.5114 4.00174 16.5944 4.00114C16.6892 4.00055 16.7785 3.98471 16.8582 3.94229V0.729204C25.4701 0.833768 32.4427 7.86611 32.4427 16.5004C32.4427 25.134 25.4701 32.1664 16.8603 32.2712Z" fill="white"/>
</svg>
