<svg width="33" height="33" viewBox="0 0 33 33" fill="none" xmlns="http://www.w3.org/2000/svg">
<g clip-path="url(#clip0_0_835)">
<path d="M22.6128 16.3543C22.611 15.8353 22.6015 15.3242 22.5821 14.8232C22.6033 14.8082 22.623 14.7906 22.6448 14.7757C22.7822 14.6824 22.9827 14.7123 23.087 14.8393C23.3024 15.1013 23.4849 15.1602 23.8031 15.0598C23.907 15.0272 24.0116 15.015 24.1183 15.0188C24.1132 15.029 24.1066 15.0383 24.106 15.0517C24.103 15.0672 24.1057 15.0777 24.1048 15.0911C23.9447 15.1533 23.9952 15.343 23.922 15.4756C23.7908 15.3505 23.6671 15.3642 23.5405 15.49C23.4948 15.5351 23.4165 15.5473 23.3534 15.5751C23.297 15.6002 23.2232 15.6169 23.2259 15.6943C23.2283 15.7583 23.2934 15.7834 23.3445 15.8028C23.4159 15.8297 23.472 15.7896 23.4968 15.7275C23.536 15.6307 23.5865 15.576 23.6946 15.6289C23.7161 15.6394 23.749 15.6552 23.7508 15.6716C23.7571 15.7284 23.7155 15.809 23.8192 15.8108C23.9172 15.8126 24.0265 15.85 24.109 15.7708C24.2043 15.6794 24.3348 15.6782 24.4678 15.5898C24.4421 15.6534 24.4301 15.6809 24.42 15.709C24.3955 15.7762 24.2434 15.8219 24.3746 15.9148C24.4812 15.9904 24.6402 15.9408 24.6999 15.8267C24.7056 15.8156 24.711 15.8037 24.7137 15.7917C24.7382 15.6842 24.7265 15.5249 24.8565 15.5136C24.9049 15.5094 24.9443 15.5279 24.981 15.5536C24.987 15.5823 24.9882 15.616 24.9855 15.6549C24.9828 15.6928 25.0187 15.7209 25.0318 15.7559C25.0635 15.8425 25.0429 15.9014 24.9476 15.9273C24.869 15.9489 24.7928 15.9784 24.717 16.0068C24.587 16.0549 24.5715 16.1523 24.6763 16.2464C24.722 16.2876 24.7758 16.3199 24.8078 16.3797C24.5694 16.3806 24.5682 16.3806 24.5544 16.6324C24.5488 16.7373 24.4872 16.7895 24.3988 16.8224C24.3139 16.8535 24.2333 16.8923 24.155 16.9362C24.1628 16.7549 24.0929 16.7286 23.8556 16.7483C23.6044 16.7689 23.3388 16.8185 23.1297 16.6019C23.092 16.5628 23.0374 16.5266 22.9773 16.5499C22.9041 16.5789 22.9528 16.6497 22.9349 16.6981C22.9334 16.7023 22.934 16.7047 22.9328 16.7086C22.9304 16.5171 22.8151 16.3686 22.6128 16.3543Z" fill="white"/>
<path d="M22.6368 17.4142C22.626 17.3981 22.6123 17.3894 22.5994 17.3793C22.5994 17.3742 22.5994 17.3691 22.5997 17.3641C22.6003 17.3641 22.6009 17.3641 22.6015 17.3644C22.6347 17.3766 22.6678 17.4181 22.6953 17.4683C22.6759 17.4597 22.6565 17.4432 22.6368 17.4142Z" fill="white"/>
<path d="M22.8043 17.6153C22.7607 17.6264 22.764 17.6963 22.7601 17.7031C22.7711 17.6601 22.741 17.5514 22.6953 17.4683C22.7595 17.4976 22.8225 17.4387 22.8853 17.431C22.9405 17.4247 22.9641 17.3954 22.9746 17.3527C22.9752 17.4611 22.9564 17.5756 22.8043 17.6153Z" fill="white"/>
<path d="M22.9746 17.3527C22.9746 17.3306 22.9737 17.3085 22.9728 17.2873C22.9707 17.2401 22.9758 17.2084 22.9854 17.1869C22.9845 17.2189 22.9827 17.2514 22.9827 17.2837C22.9824 17.3109 22.9794 17.333 22.9746 17.3527Z" fill="white"/>
<path d="M24.9229 19.4664C24.9322 19.4404 24.9361 19.4129 24.9432 19.3866C24.9504 19.3779 24.9591 19.3717 24.9624 19.3567C25.0406 19.0096 25.1407 18.6669 25.1799 18.3126C25.1876 18.2436 25.205 18.1776 25.2435 18.1181C25.3409 17.9693 25.4177 17.9669 25.5058 18.1223C25.5721 18.2385 25.6393 18.2606 25.7382 18.1632C25.7801 18.1217 25.8532 18.0852 25.8909 18.1205C25.9871 18.2122 26.1006 18.1952 26.21 18.2009C26.1762 18.3201 26.166 18.4437 26.1849 18.5641C26.2132 18.744 26.146 18.8984 26.0857 19.0559C26.0355 19.1864 25.9258 19.2226 25.7932 19.2062C25.734 19.1993 25.6576 19.1461 25.6331 19.2516C25.5527 19.1144 25.4398 19.1584 25.3487 19.2205C25.2351 19.2988 25.1285 19.3833 25.0015 19.4425C24.9379 19.4721 24.8829 19.5261 24.8772 19.6098C24.8754 19.6367 24.8695 19.6555 24.8611 19.6707C24.8605 19.668 24.8599 19.6656 24.859 19.6636C24.8671 19.645 24.873 19.6232 24.876 19.5942C24.8802 19.5503 24.902 19.5064 24.9229 19.4664Z" fill="white"/>
<path d="M23.0768 17.0647C23.1129 17.0859 23.1347 17.1298 23.1497 17.1803C23.0708 17.1487 23.0104 17.1313 22.9853 17.1869C22.9883 17.0946 22.9859 17.0041 22.9232 16.9255C22.8957 16.8911 22.9041 16.8654 22.9157 16.8406C22.9232 16.9327 22.9767 17.0061 23.0768 17.0647Z" fill="white"/>
<path d="M22.9156 16.8406C22.9123 16.8 22.9162 16.7573 22.9326 16.7092C22.9329 16.7379 22.938 16.7654 22.9326 16.7961C22.9299 16.8114 22.9224 16.8257 22.9156 16.8406Z" fill="white"/>
<path d="M25.6313 19.2549C25.6315 19.2531 25.6326 19.2531 25.6328 19.2513C25.6315 19.2519 25.6313 19.2553 25.6313 19.2549Z" fill="white"/>
<path d="M26.8716 7.61695C26.8871 7.62412 26.9024 7.63219 26.9155 7.64384L26.9152 7.64414C26.9024 7.63219 26.8871 7.62442 26.8716 7.61695Z" fill="white"/>
<path d="M16.4167 0.500061C25.2392 0.500061 32.4167 7.67759 32.4167 16.5004C32.4167 25.3228 25.2392 32.5004 16.4167 32.5004C7.59428 32.5004 0.41675 25.3231 0.41675 16.5004C0.41675 7.67759 7.59428 0.500061 16.4167 0.500061ZM26.3129 4.2264C26.7127 4.56011 27.1034 4.91593 27.484 5.29624C28.449 6.25942 29.2637 7.28324 29.9293 8.36741C28.973 6.78432 27.7452 5.38377 26.3129 4.2264ZM32.1927 16.5004C32.1927 14.8943 31.9498 13.3437 31.5017 11.8822C31.934 13.3342 32.1506 14.8734 32.1506 16.5004C32.1506 18.0503 31.9516 19.5181 31.5614 20.9076C31.9695 19.5076 32.1927 18.0303 32.1927 16.5004ZM29.5054 25.2977C28.9264 26.1417 28.2533 26.9471 27.484 27.7134C27.1315 28.0642 26.77 28.3925 26.4014 28.7038C27.5937 27.7269 28.6411 26.5791 29.5054 25.2977ZM28.7986 24.4328C28.6892 24.4433 28.6468 24.5296 28.6244 24.6208C28.6271 24.6862 28.6381 24.7609 28.7065 24.751C28.8126 24.7352 28.8359 24.6267 28.8664 24.5422C28.8828 24.4965 28.8643 24.4266 28.7986 24.4328ZM28.1804 24.2372C27.787 24.3429 27.5961 24.6512 27.4437 24.9945C27.3938 25.1071 27.3923 25.2221 27.4906 25.3043C27.5913 25.3886 27.692 25.3312 27.7795 25.2643C28.1258 25.0026 28.2605 24.6563 28.1804 24.2372ZM21.391 28.7949C21.4582 28.7884 21.5463 28.7761 21.5377 28.6934C21.5296 28.6142 21.431 28.6249 21.3683 28.6115C21.3061 28.5986 21.2512 28.6303 21.253 28.699C21.255 28.7794 21.3259 28.7866 21.391 28.7949ZM16.4167 32.276C16.6077 32.276 16.7968 32.2682 16.9862 32.2617C18.4127 31.8801 19.6633 30.3664 20.7364 27.7131C20.87 27.383 20.9927 27.0415 21.1122 26.6968C21.1385 26.6768 21.1627 26.6526 21.1828 26.6191C21.3247 26.5567 21.4672 26.496 21.6073 26.4306C21.6336 26.4184 21.6715 26.3864 21.6697 26.3664C21.6563 26.185 21.7838 26.1767 21.9114 26.1477C22.0844 26.1079 22.1728 25.9433 22.309 25.8465C22.3601 25.8104 22.327 25.7369 22.2971 25.6912C22.2314 25.5902 22.2654 25.5236 22.3452 25.4489C22.4557 25.3452 22.508 25.002 22.4489 24.8666C22.4076 24.7731 22.318 24.7857 22.2412 24.7674C22.3673 24.7044 22.4408 24.6088 22.465 24.4645C22.4859 24.3369 22.618 24.2873 22.7148 24.3689C22.7649 24.411 22.8071 24.4373 22.8623 24.4051C22.9487 24.3537 22.9821 24.411 22.9974 24.4729C23.0129 24.5365 22.9842 24.5837 22.9048 24.575C22.8053 24.564 22.8065 24.6124 22.8298 24.6901C22.9125 24.9655 22.9101 24.9655 23.1981 24.8941C23.3284 24.8624 23.3968 24.912 23.3732 25.0498C23.3493 25.1887 23.3015 25.327 23.3496 25.4671C23.3869 25.5753 23.4195 25.6948 23.5841 25.5944C23.7006 25.523 23.7484 25.595 23.7335 25.7076C23.7218 25.7978 23.7398 25.8418 23.8387 25.8289C23.8963 25.8223 23.9268 25.8663 23.9638 25.9003C24.1183 26.0413 24.1383 26.0333 24.1831 25.8238C24.1882 25.7987 24.1939 25.7742 24.1993 25.7497C24.2536 25.5827 24.3848 25.462 24.4645 25.3079C24.5491 25.1451 24.7325 25.1035 24.9154 25.1095C24.9473 25.1779 24.9865 25.2404 24.9088 25.3121C24.8577 25.3587 24.8419 25.4304 24.8565 25.5349C25.0788 25.3536 25.3232 25.2637 25.5962 25.2613C25.7387 25.2177 25.8765 25.1412 26.0339 25.1994C26.05 25.2057 26.0802 25.2075 26.088 25.1982C26.2326 25.0226 26.4632 25.0067 26.649 24.9141C26.883 24.7973 27.0272 24.581 27.2549 24.4678C27.3182 24.4367 27.3601 24.4116 27.4398 24.4355C27.5408 24.4663 27.6612 24.42 27.6827 24.3101C27.7383 24.0241 27.9961 23.9985 28.1888 23.9103C28.4093 23.8084 28.495 23.6898 28.4242 23.4493C28.5112 23.2838 28.582 23.1118 28.6435 22.9349C28.6785 22.8351 28.7343 22.7422 28.8383 22.6938C29.0062 22.6547 29.1113 22.5438 29.1699 22.3891C29.2371 22.2128 29.4062 22.1767 29.5484 22.1062C29.6031 22.0787 29.6488 22.1062 29.6357 22.1791C29.6291 22.2164 29.6144 22.2519 29.6094 22.2887C29.6016 22.3449 29.5935 22.4136 29.6658 22.4282C29.7387 22.4423 29.7701 22.3744 29.7668 22.3204C29.7555 22.1274 29.8523 21.9756 29.932 21.8128C29.9804 21.7142 30.0333 21.6804 30.1364 21.7082C30.3085 21.7548 30.4285 21.6807 30.5101 21.5331C30.5803 21.4059 30.655 21.2846 30.79 21.2129C30.9086 21.1498 30.8238 21.0444 30.8372 20.9583C30.8378 20.9338 30.8387 20.9097 30.8396 20.8852C30.9998 20.7949 31.0234 20.6288 31.0685 20.4747C31.0945 20.3853 31.1154 20.2942 31.1384 20.2043C31.1987 19.9274 31.4153 19.7143 31.4545 19.4284C31.4589 19.3968 31.4855 19.3672 31.5205 19.3779C31.5895 19.4001 31.559 19.455 31.5572 19.5037C31.5495 19.729 31.5103 19.9518 31.4918 20.1762C31.5303 20.1168 31.5695 20.0579 31.6092 19.9993C31.8387 18.8025 31.9767 17.5965 31.9175 16.374C31.8623 15.2304 31.6929 14.1044 31.4103 12.99C31.2334 12.2921 31.012 11.6169 30.7279 10.9591C30.6947 10.8238 30.6439 10.695 30.5779 10.5722C30.4674 10.444 30.4345 10.2779 30.3646 10.1301C30.1307 9.63682 29.8654 9.16299 29.5771 8.70321C29.4725 8.67184 29.371 8.62673 29.2775 8.55772C29.4379 8.80539 29.5995 9.05186 29.7534 9.30371C29.8582 9.47519 29.9156 9.6646 30.001 9.84355C30.0883 9.86267 30.1104 9.92003 30.1128 10.0046C30.1149 10.084 30.1498 10.1226 30.2087 10.116C30.1423 10.1901 30.1265 10.3006 30.0611 10.3897C29.9727 10.2851 29.8645 10.2092 29.8054 10.0906C29.6769 9.8325 29.4815 9.62277 29.2981 9.40648C29.1203 9.19735 28.9593 8.97538 28.7881 8.76446C28.5918 8.52217 28.3791 8.27809 28.1204 8.08868C28.0305 8.11377 27.9525 8.08748 27.8841 8.02982C27.8366 7.99009 27.7846 7.95812 27.7293 7.93034C27.4691 7.79769 27.3995 7.821 27.2967 8.07494C27.3415 8.26524 27.456 8.4185 27.5793 8.5628C27.7804 8.79822 28.026 8.99629 28.0944 9.3279C28.1285 9.49282 28.2814 9.52538 28.5455 9.46055C28.4015 9.75751 28.4293 10.0336 28.6259 10.295C28.6668 10.3496 28.6955 10.4001 28.7732 10.3664C28.7741 10.3655 28.775 10.3643 28.7758 10.3631C28.8165 10.5017 28.8514 10.6379 28.9975 10.7267C29.0934 10.7849 29.0961 10.9836 29.2813 10.9188C29.2861 10.9427 29.2969 10.9672 29.2945 10.9905C29.2897 11.0445 29.2634 11.1497 29.2395 11.1285C29.1176 11.0227 29.034 11.3137 28.9252 11.1488C28.8741 11.0714 28.7926 11.0619 28.7137 11.0427C28.5034 10.9911 28.4831 10.9409 28.5972 10.753C28.625 10.7075 28.6516 10.6293 28.59 10.6335C28.4105 10.6448 28.3639 10.514 28.2877 10.3455C28.242 10.5603 28.0869 10.6678 28.0827 10.8483C28.0807 10.9313 28.0346 10.9603 27.9567 10.928C27.8987 10.9041 27.8422 10.8775 27.7852 10.8518C27.7962 10.8512 27.8073 10.8506 27.818 10.8498C27.9214 10.7595 28.0314 10.6756 27.9328 10.5107C27.9139 10.4796 27.9525 10.4166 27.9582 10.3676C27.983 10.1602 27.9925 9.95529 27.8213 9.79456C27.7953 9.78231 27.7694 9.77006 27.7434 9.75781C27.5528 9.61471 27.4135 9.42141 27.251 9.25142C27.1629 9.15941 27.0879 9.08741 26.9349 9.11848C26.7984 9.14596 26.652 9.10653 26.5391 9.00256C26.5812 8.64794 26.3712 8.38982 26.1955 8.12244C26.0721 7.93512 25.9281 7.76184 25.7931 7.58259C25.7707 7.55272 25.7417 7.55152 25.71 7.56646C25.7032 7.37436 25.5783 7.34658 25.4176 7.33224C25.1179 7.30535 24.8281 7.23544 24.5607 7.04633C24.6459 6.9815 24.7543 7.01138 24.8048 6.92892C24.8084 6.92354 24.8129 6.91876 24.815 6.91279C24.8921 6.70545 24.6892 6.65347 24.6014 6.54054C24.5416 6.46406 24.4529 6.41775 24.3525 6.48497C24.2563 6.5495 24.2593 6.71531 24.3654 6.81689C24.4141 6.86349 24.4804 6.89158 24.5389 6.92802C24.3468 7.02004 24.1858 6.89725 24.0188 6.84437C23.7927 6.77237 23.5755 6.6714 23.3326 6.66423C23.2367 6.66602 23.1545 6.62031 23.0685 6.58834C22.9167 6.52053 22.8029 6.62957 22.7706 6.72577C22.7294 6.84945 22.6655 6.8378 22.5824 6.83242C22.5098 6.82794 22.4456 6.84228 22.3894 6.88919C22.3479 6.89725 22.3162 6.91578 22.3126 6.96358C22.2248 6.96417 22.1373 6.96507 22.0494 6.96597C22.0393 6.95909 22.03 6.95013 22.0187 6.94625C21.9207 6.91159 21.9234 6.73951 21.8068 6.76072C21.7098 6.77835 21.6321 6.86768 21.5469 6.92713C21.5269 6.94087 21.5045 6.95163 21.4842 6.96507C21.4468 6.96537 21.4095 6.96567 21.3722 6.96567C21.3581 6.97612 21.3438 6.9818 21.3297 6.98867C21.1493 6.4079 20.9563 5.83907 20.7376 5.29654C20.5846 4.91772 20.4281 4.5631 20.2683 4.23059C20.3609 4.12871 20.4072 4.12871 20.4753 4.25986C20.5168 4.33993 20.5817 4.37638 20.6704 4.38385C21.0184 4.41372 21.1502 4.68051 21.2795 4.94729C21.3052 5.00047 21.281 5.05723 21.2679 5.11221C21.2069 5.36913 21.2679 5.46384 21.5224 5.5448C21.6745 5.5932 21.8481 5.63562 21.9822 5.59409C22.1627 5.53763 22.3652 5.50775 22.5194 5.3766C22.566 5.33657 22.6114 5.26666 22.6514 5.38138C22.6986 5.46742 22.5976 5.60306 22.7437 5.65564C22.911 5.71598 23.0709 5.82055 23.2588 5.7121C23.3846 5.6398 23.5199 5.63323 23.6555 5.6879C23.7233 5.71509 23.7873 5.73839 23.8237 5.64578C24.0968 5.69955 24.3439 5.82622 24.5954 5.93497C24.9022 6.06791 25.1155 6.3111 25.284 6.59671C25.4047 6.80135 25.5828 6.94714 25.794 7.05141C25.8735 7.09055 25.9526 7.05768 26.0324 7.03976C26.0942 7.02631 26.1483 7.03139 26.1172 7.12669C26.0175 7.43441 26.0778 7.5808 26.3766 7.7711C26.4142 7.68327 26.3563 7.61516 26.3318 7.54047C26.3171 7.49655 26.3189 7.45114 26.3646 7.42485C26.4029 7.40274 26.4375 7.42455 26.4689 7.44606C26.5558 7.50492 26.5985 7.59693 26.6466 7.68476C26.6837 7.75228 26.7255 7.82219 26.8166 7.80576C26.9021 7.79022 26.9074 7.71315 26.917 7.64413C27.0072 7.62621 27.0978 7.60858 27.1781 7.59305C27.228 7.38004 27.1393 7.17659 27.1423 6.96597C27.1369 6.9582 27.1318 6.95013 27.1267 6.94266C26.9774 6.95611 26.8086 6.84945 26.7975 6.70545C26.7894 6.5985 26.7428 6.54711 26.658 6.51007C26.5155 6.50111 26.3837 6.47751 26.3754 6.29228C26.373 6.24179 26.3377 6.2143 26.2977 6.1919C26.2111 6.17845 26.108 6.24298 26.039 6.13842C26.0297 6.13752 26.0202 6.13663 26.0112 6.13573C25.9069 6.09928 25.837 6.03535 25.7737 5.93766C25.6835 5.79874 25.5248 5.73122 25.3653 5.70254C25.0782 5.65086 24.7878 5.61262 24.5879 5.36704C24.4457 5.19257 24.2369 5.10653 24.0717 4.96313C24.0538 4.94759 24.0218 4.92937 24.0045 4.93534C23.7825 5.01332 23.5877 4.89322 23.3813 4.85737C23.2713 4.83855 23.1736 4.81166 23.107 4.71516C23.0966 4.69993 23.0712 4.67633 23.067 4.67872C22.8806 4.79851 22.7431 4.61747 22.5797 4.60104C22.5337 4.59656 22.5032 4.62046 22.5023 4.66318C22.4991 4.8747 22.3972 4.75549 22.3285 4.71247C22.2771 4.68021 22.2362 4.63121 22.1761 4.57624C22.2714 4.52187 22.3565 4.47287 22.442 4.42478C22.4758 4.40566 22.5086 4.38474 22.5086 4.34112C22.5086 4.28735 22.4689 4.26166 22.4244 4.25508C22.2562 4.22939 22.1214 4.08629 21.9147 4.16785C21.7806 4.22073 21.6136 4.15351 21.5571 3.97306C21.5078 3.81681 21.3584 3.79291 21.238 3.73286C21.1066 3.66714 20.9539 3.63965 20.8897 3.47474C20.8544 3.38392 20.7451 3.38392 20.6644 3.35464C20.3301 3.23215 19.9955 3.11086 19.6597 2.99345C19.6319 2.98359 19.6035 2.97762 19.5749 2.97343C18.7906 1.73839 17.9302 0.993302 16.9933 0.739063C16.8021 0.732192 16.6109 0.724424 16.4179 0.724424C7.71916 0.724424 0.642307 7.80128 0.642307 16.5004C0.642307 25.1997 7.71767 32.276 16.4167 32.276Z" fill="white"/>
</g>
<defs>
<clipPath id="clip0_0_835">
<rect width="32" height="32" fill="white" transform="matrix(-1 0 0 1 32.4167 0.500061)"/>
</clipPath>
</defs>
</svg>
