<svg width="33" height="33" viewBox="0 0 33 33" fill="none" xmlns="http://www.w3.org/2000/svg">
<path d="M9.61473 17.431C9.55946 17.4247 9.53586 17.3954 9.5254 17.3527C9.52481 17.4611 9.54363 17.5753 9.69569 17.6153C9.73931 17.6264 9.73603 17.6963 9.73991 17.7031C9.72886 17.6601 9.75903 17.5514 9.80474 17.4683C9.74051 17.4976 9.67747 17.439 9.61473 17.431Z" fill="white"/>
<path d="M14.2254 17.9123C14.2242 17.906 14.2236 17.8991 14.223 17.8931C14.2227 17.8943 14.2221 17.8943 14.2218 17.8961C14.2209 17.9066 14.2203 17.9108 14.2254 17.9123Z" fill="white"/>
<path d="M9.51465 17.1869C9.51554 17.2189 9.51734 17.2517 9.51734 17.2837C9.51734 17.3106 9.52032 17.3327 9.5254 17.3524C9.5254 17.3303 9.5263 17.3082 9.5272 17.287C9.52929 17.2404 9.52421 17.2087 9.51465 17.1869Z" fill="white"/>
<path d="M9.80469 17.4683C9.82411 17.4597 9.84353 17.4432 9.86324 17.4139C9.87967 17.3897 9.89939 17.3718 9.9203 17.3602C9.91284 17.362 9.90596 17.3614 9.8985 17.3641C9.86533 17.3766 9.83217 17.4175 9.80469 17.4683Z" fill="white"/>
<path d="M9.89368 16.3525C10.0057 16.3462 10.0431 16.316 10.0437 16.2156C10.0953 16.0938 10.1709 15.9814 10.188 15.8461C10.306 15.7905 10.4228 15.7394 10.4915 15.6122C10.5073 15.5826 10.5348 15.5665 10.5635 15.5548C10.5327 15.5626 10.5001 15.5694 10.4658 15.5712C10.366 15.5763 10.3236 15.4885 10.2659 15.4326C10.216 15.3845 10.1563 15.3648 10.0974 15.3594C10.0227 15.3528 9.97942 15.3173 9.96299 15.254C9.94477 15.1861 9.97823 15.1366 10.0398 15.0989C10.1139 15.0538 10.2017 15.0003 10.1745 14.8996C10.1617 14.8518 10.1016 14.8169 10.1384 14.7541C10.1201 14.8414 10.0622 14.8584 9.98241 14.85C9.92625 14.8441 9.89637 14.8028 9.85544 14.7754C9.71802 14.6821 9.51755 14.712 9.41329 14.839C9.19789 15.101 9.01535 15.1599 8.69718 15.0595C8.59321 15.0269 8.48865 15.0147 8.38199 15.0185C8.38707 15.0287 8.39364 15.038 8.39424 15.0514C8.39723 15.0669 8.39454 15.0774 8.39544 15.0908C8.55557 15.153 8.50508 15.3427 8.57827 15.4753C8.70943 15.3502 8.83311 15.3639 8.95978 15.4897C9.00549 15.5348 9.08376 15.547 9.1468 15.5748C9.20326 15.5999 9.27706 15.6166 9.27437 15.694C9.27198 15.758 9.20685 15.7831 9.15576 15.8025C9.08436 15.8294 9.0282 15.7893 9.0034 15.7272C8.96426 15.6304 8.91377 15.5757 8.80562 15.6286C8.78411 15.6391 8.75125 15.6549 8.74946 15.6713C8.74319 15.7281 8.78471 15.8087 8.68104 15.8105C8.58305 15.8123 8.47371 15.8497 8.39125 15.7705C8.29595 15.6791 8.1654 15.6779 8.03245 15.5895C8.05815 15.6531 8.0701 15.6806 8.08025 15.7087C8.10475 15.7759 8.25682 15.8216 8.12566 15.9145C8.01901 15.9901 7.86007 15.9405 7.80032 15.8264C7.79465 15.8153 7.78927 15.8034 7.78658 15.7914C7.76208 15.6839 7.77373 15.5246 7.64378 15.5133C7.59538 15.5091 7.55594 15.5276 7.5192 15.5533C7.51322 15.582 7.51203 15.6158 7.51471 15.6546C7.5174 15.6925 7.48155 15.7206 7.46841 15.7556C7.43674 15.8422 7.45735 15.9011 7.55266 15.9271C7.63123 15.9486 7.70741 15.9781 7.78329 16.0065C7.91325 16.0546 7.92879 16.152 7.82392 16.2461C7.77821 16.2873 7.72444 16.3196 7.69247 16.3794C7.93088 16.3803 7.93207 16.3803 7.94581 16.6321C7.95149 16.7367 8.01303 16.7896 8.10146 16.8218C8.18631 16.8529 8.26697 16.892 8.34525 16.9362C8.33748 16.7546 8.40739 16.7283 8.6446 16.7477C8.89585 16.7686 9.16144 16.8182 9.37057 16.6013C9.40821 16.5622 9.46288 16.5261 9.52293 16.55C9.59612 16.5786 9.54743 16.6497 9.56535 16.6975C9.56685 16.7017 9.56625 16.7044 9.56744 16.7086C9.56954 16.5147 9.68695 16.3638 9.89368 16.3525Z" fill="white"/>
<path d="M10.3413 17.4665C10.3117 17.4928 10.281 17.5081 10.2505 17.517C10.2603 17.5164 10.2693 17.5173 10.2801 17.5158C10.3957 17.5003 10.4668 17.5642 10.5059 17.6715C10.5424 17.7707 10.5582 17.8797 10.6356 17.9604C10.6066 17.7545 10.7159 17.6135 10.9077 17.595C10.8238 17.575 10.747 17.5125 10.6759 17.4683C10.5534 17.3918 10.4623 17.3611 10.3413 17.4665Z" fill="white"/>
<path d="M9.92017 17.3605C9.9844 17.3476 10.0418 17.3796 10.0794 17.4322C10.0982 17.4585 10.1185 17.4758 10.14 17.4898C10.1227 17.4722 10.1063 17.4507 10.0917 17.4175C10.06 17.3452 9.9841 17.3246 9.92017 17.3605Z" fill="white"/>
<path d="M9.5771 16.9255C9.60458 16.8911 9.59622 16.8654 9.58456 16.8406C9.5768 16.9333 9.52332 17.0064 9.42324 17.0647C9.38709 17.0859 9.36528 17.1298 9.35034 17.1803C9.42921 17.1487 9.48956 17.1313 9.51466 17.1869C9.51167 17.0949 9.51406 17.0041 9.5771 16.9255Z" fill="white"/>
<path d="M14.2292 17.9135C14.2265 17.9138 14.2268 17.9123 14.2253 17.912C14.2262 17.917 14.2256 17.9227 14.2271 17.9275C14.2235 17.9409 14.2543 17.912 14.2292 17.9135Z" fill="white"/>
<path d="M11.0516 17.5804C11.0367 17.5875 11.0217 17.592 11.0071 17.5956C11.0131 17.5962 11.0181 17.5956 11.0241 17.5968C11.1221 17.6102 11.2323 17.6323 11.3046 17.6936C11.4023 17.7763 11.4952 17.7901 11.5986 17.7542C11.5714 17.7387 11.5439 17.7223 11.5239 17.6996C11.3931 17.5529 11.2533 17.4818 11.0516 17.5804Z" fill="white"/>
<path d="M9.56719 16.7955C9.56988 16.8114 9.57764 16.826 9.58452 16.8403C9.5878 16.8 9.58392 16.757 9.56749 16.7086C9.56719 16.7379 9.56211 16.7651 9.56719 16.7955Z" fill="white"/>
<path d="M13.4348 3.64324C13.4641 3.61307 13.4979 3.58498 13.5373 3.56019C13.485 3.5823 13.4536 3.61068 13.4348 3.64324Z" fill="white"/>
<path d="M10.2506 17.517C10.2079 17.5191 10.1717 17.5104 10.1404 17.4898C10.1738 17.5236 10.2118 17.5284 10.2506 17.517Z" fill="white"/>
<path d="M6.86874 19.2549C6.86851 19.2531 6.86739 19.2531 6.86717 19.2513C6.86851 19.2519 6.86874 19.2553 6.86874 19.2549Z" fill="white"/>
<path d="M7.57707 19.4664C7.5678 19.4404 7.56392 19.4129 7.55675 19.3866C7.54958 19.3779 7.54092 19.3717 7.53763 19.3567C7.45936 19.0096 7.35928 18.6669 7.32014 18.3126C7.31237 18.2436 7.29504 18.1776 7.2565 18.1181C7.15911 17.9693 7.08233 17.9669 6.9942 18.1223C6.92788 18.2385 6.86066 18.2606 6.76177 18.1632C6.71994 18.1217 6.64675 18.0852 6.60911 18.1205C6.51291 18.2122 6.39938 18.1952 6.29004 18.2009C6.3238 18.3201 6.33396 18.4437 6.31513 18.5641C6.28675 18.744 6.35397 18.8984 6.41432 19.0559C6.46451 19.1864 6.57415 19.2226 6.7068 19.2062C6.76595 19.1993 6.84243 19.1461 6.86693 19.2516C6.9473 19.1144 7.06022 19.1584 7.15134 19.2205C7.26487 19.2988 7.37152 19.3833 7.49849 19.4425C7.56213 19.4721 7.6171 19.5261 7.62277 19.6098C7.62457 19.6367 7.63054 19.6555 7.63891 19.6707C7.63951 19.668 7.6401 19.6656 7.641 19.6636C7.63293 19.645 7.62696 19.6232 7.62397 19.5942C7.61979 19.5503 7.59798 19.5064 7.57707 19.4664Z" fill="white"/>
<path d="M10.5635 15.5548C10.6026 15.5449 10.6382 15.5333 10.6648 15.5234C10.6397 15.5333 10.6002 15.5399 10.5635 15.5548Z" fill="white"/>
<path d="M16.5729 9.58394C16.5415 9.60067 16.4889 9.63562 16.4456 9.60843C16.445 9.60903 16.4438 9.60963 16.4432 9.61053C16.4316 9.6162 16.4193 9.6177 16.4077 9.61979C16.4002 9.72286 16.4014 9.81995 16.546 9.85909C16.5887 9.87044 16.6568 9.92153 16.6727 9.89882C16.7486 9.78948 16.8926 9.83698 16.9738 9.75363C17.0013 9.72525 16.992 9.6897 16.9574 9.67834C16.8325 9.63682 16.7339 9.50088 16.5729 9.58394Z" fill="white"/>
<path d="M15.536 10.5809C15.4631 10.5627 15.4022 10.5325 15.3556 10.4739C15.4339 10.5337 15.424 10.5872 15.3493 10.649C15.2917 10.6971 15.2334 10.7619 15.2791 10.8435C15.3308 10.9358 15.4258 10.9337 15.5127 10.908C15.5937 10.8844 15.7249 10.8757 15.7258 10.7894C15.7267 10.7013 15.6436 10.6078 15.536 10.5809Z" fill="white"/>
<path d="M5.62839 7.61695C5.61285 7.62412 5.59762 7.63219 5.58447 7.64384L5.58477 7.64414C5.59762 7.63219 5.61285 7.62442 5.62839 7.61695Z" fill="white"/>
<path d="M11.5986 17.7542C11.6007 17.7554 11.6025 17.7572 11.6046 17.7584C11.6121 17.7623 11.6157 17.7629 11.6169 17.7578C11.6172 17.7566 11.6175 17.7572 11.6178 17.756C11.6148 17.756 11.6115 17.756 11.6052 17.7521C11.6028 17.753 11.6007 17.753 11.5986 17.7542Z" fill="white"/>
<path d="M13.9116 22.5701C13.8964 22.5638 13.8805 22.56 13.8656 22.5549C13.8524 22.5567 13.8402 22.5612 13.8271 22.5621C13.7834 22.5692 13.7431 22.5836 13.7061 22.6075C13.7072 22.6197 13.7102 22.6314 13.7108 22.6442C13.7129 22.7049 13.7437 22.7539 13.7999 22.7766C13.8823 22.8091 13.9848 22.8868 14.0451 22.7691C14.1025 22.6571 14.0042 22.6042 13.9116 22.5701Z" fill="white"/>
<path d="M13.3754 10.7837C13.3861 10.7682 13.3954 10.7542 13.3927 10.7509C13.2293 10.5567 13.4737 10.2525 13.2108 10.0846C13.1238 10.0294 13.1638 9.99741 13.2385 9.95828C13.3046 9.92362 13.462 9.95618 13.4268 9.86566C13.3795 9.74497 13.3957 9.57408 13.2535 9.50507C13.1394 9.4501 13.016 9.31566 12.8998 9.53584C12.8654 9.60067 12.6939 9.56601 12.6392 9.68133C12.6213 9.85311 12.5132 9.97232 12.4101 10.0942C12.4137 10.1002 12.4182 10.1038 12.4211 10.1103C12.4483 10.2006 12.4083 10.2842 12.3892 10.3673C12.3665 10.4656 12.2921 10.508 12.1893 10.4951C11.988 10.4703 11.9061 10.563 11.9563 10.7628C11.9694 10.8163 12.005 10.8659 11.956 10.9176C12.0501 10.9534 12.1367 10.9582 12.1863 10.813C12.2416 10.7709 12.3034 10.7503 12.373 10.7553C12.546 10.8369 12.3889 10.9113 12.368 10.9887C12.3575 10.9929 12.3474 10.9967 12.3369 11.0009C12.2637 11.0212 12.2198 11.0577 12.1902 11.1022C12.2123 11.1861 12.2075 11.2764 12.2054 11.3654C12.2054 11.3648 12.2057 11.3645 12.206 11.3639C12.2389 11.2041 12.365 11.121 12.5233 11.1422C12.6458 11.1587 12.7199 11.291 12.7035 11.4583C12.6933 11.5617 12.7032 11.6695 12.5932 11.7532C12.7342 11.766 12.7026 11.663 12.7023 11.6223C12.7005 11.4876 12.7259 11.3657 12.8086 11.2602C12.8505 11.2071 12.8469 11.1631 12.817 11.1064C12.748 10.9746 12.7734 10.8512 12.906 10.81C13.0566 10.7634 13.2185 10.6828 13.3754 10.7837Z" fill="white"/>
<path d="M14.2024 20.3555C14.2051 20.348 14.2087 20.3414 14.2114 20.334C14.2081 20.3414 14.2036 20.348 14.1997 20.3552C14.2009 20.3552 14.2015 20.3555 14.2024 20.3555Z" fill="white"/>
<path d="M13.3404 19.0956C13.3255 19.0156 13.3093 18.9376 13.2783 18.8474C13.2356 19.02 12.9556 19.0819 13.0366 19.2549C13.0993 19.3884 13.0554 19.5847 13.217 19.6716C13.2484 19.5736 13.3509 19.5297 13.4199 19.4873C13.4883 19.444 13.5818 19.5826 13.692 19.5916C13.7527 19.5963 13.724 19.6713 13.7165 19.7194C13.7067 19.7804 13.7016 19.8425 13.6944 19.9041C13.7721 20.0098 13.8937 20.0191 14.0048 20.0504C14.0562 20.0259 14.1019 19.991 14.1623 20.0248C14.2648 20.103 14.2435 20.2058 14.2208 20.3095C14.2176 20.3178 14.2146 20.3259 14.2113 20.334C14.214 20.3277 14.2176 20.3229 14.2199 20.3163C14.2755 20.2661 14.3155 20.3127 14.3601 20.3349C14.4207 20.1804 14.4551 20.0167 14.5244 19.8655C14.415 19.7765 14.3466 19.6534 14.2737 19.5384C14.1877 19.4036 14.0697 19.3582 13.9266 19.3529C13.7718 19.3475 13.641 19.2997 13.5409 19.1859C13.4244 19.268 13.3634 19.2187 13.3404 19.0956Z" fill="white"/>
<path d="M16.0833 0.500061C7.26079 0.500061 0.083252 7.67759 0.083252 16.5004C0.083252 25.3228 7.26079 32.5004 16.0833 32.5004C24.9057 32.5004 32.0833 25.3231 32.0833 16.5004C32.0833 7.67759 24.9057 0.500061 16.0833 0.500061ZM0.307316 16.5004C0.307316 11.2474 2.89033 6.58894 6.8503 3.72032C6.22531 4.19175 5.62243 4.71696 5.04165 5.29654C1.93044 8.40177 0.374835 12.1359 0.374835 16.5004C0.374835 20.8762 1.93044 24.6139 5.04195 27.7134C5.59733 28.2667 6.17422 28.7683 6.77023 29.223C2.85508 26.349 0.307316 21.7175 0.307316 16.5004ZM3.70145 24.4328C3.81079 24.4433 3.85321 24.5296 3.87562 24.6208C3.87293 24.6862 3.86188 24.7609 3.79346 24.751C3.6874 24.7352 3.6641 24.6267 3.63363 24.5422C3.6172 24.4965 3.63572 24.4266 3.70145 24.4328ZM4.31957 24.2372C4.71302 24.3429 4.90393 24.6512 5.05629 24.9945C5.10618 25.1071 5.10768 25.2221 5.00939 25.3043C4.90871 25.3886 4.80803 25.3312 4.72049 25.2643C4.37424 25.0026 4.2395 24.6563 4.31957 24.2372ZM11.109 28.7949C11.0418 28.7884 10.9537 28.7761 10.9623 28.6934C10.9704 28.6142 11.069 28.6249 11.1317 28.6115C11.1939 28.5986 11.2488 28.6303 11.247 28.699C11.245 28.7794 11.1741 28.7866 11.109 28.7949ZM13.3927 29.7871C13.3547 29.762 13.3171 29.7369 13.2792 29.7112C13.2451 29.6628 13.1937 29.6401 13.1426 29.6156C13.0542 29.5723 13.0366 29.4955 13.0587 29.4098C13.0811 29.3222 13.1632 29.3333 13.2281 29.3255C13.2705 29.3192 13.3153 29.3345 13.3583 29.3303C13.6144 29.3034 13.6747 29.3366 13.689 29.5191C13.7028 29.6912 13.6176 29.7698 13.3927 29.7871ZM14.0284 27.7063C13.9899 27.7308 13.9699 27.7448 13.9941 27.7872L13.9944 27.7884C13.7601 27.9315 13.5182 28.0295 13.2415 27.9127C13.1839 27.8882 13.1226 27.8374 13.065 27.8685C12.8878 27.9614 12.8224 27.8488 12.7758 27.7167C12.7309 27.5907 12.6162 27.5109 12.5604 27.383C12.6966 27.3403 12.8065 27.464 12.8827 27.4529C13.0548 27.4278 13.2565 27.4583 13.3999 27.3221C13.4993 27.2274 13.5424 27.2029 13.577 27.3723C13.6167 27.5674 13.8139 27.6447 13.9965 27.5608C14.0087 27.5614 14.0213 27.5614 14.0335 27.5614C14.1004 27.6122 14.0885 27.6683 14.0284 27.7063ZM15.3659 25.7031C15.288 25.7013 15.2318 25.6676 15.2333 25.5812C15.2345 25.5176 15.2724 25.4704 15.337 25.4728C15.4236 25.4752 15.4562 25.5481 15.4899 25.6105C15.4765 25.6858 15.426 25.7043 15.3659 25.7031ZM18.2385 32.1245C20.4424 31.5871 22.3863 30.119 24.0665 27.7131C26.2301 24.6136 27.3119 20.8759 27.3119 16.5001C27.3119 15.7469 27.2769 15.0138 27.2127 14.2983C27.0415 14.1832 27.0418 14.1074 27.1281 13.8403C27.1374 13.8119 27.1467 13.7838 27.1568 13.7554C27.1108 13.3512 27.0564 12.9515 26.9889 12.5595C26.9883 12.5592 26.9877 12.5589 26.9877 12.5589C26.9716 12.5592 26.9558 12.5607 26.9399 12.5646C26.9253 12.5736 26.9098 12.5792 26.8945 12.5849C26.8712 12.5816 26.8542 12.5885 26.8375 12.596C26.8228 12.6656 26.8192 12.7373 26.8216 12.8102C26.7604 12.7976 26.7248 12.7597 26.6985 12.7119C26.6881 12.7176 26.68 12.7256 26.6672 12.7271C26.5055 12.7023 26.3911 12.7271 26.3759 12.9306C26.3678 13.0408 26.2785 13.0808 26.1886 12.9939C26.0189 12.8296 25.8238 12.734 25.5857 12.7331C25.5349 12.7331 25.5128 12.6895 25.4853 12.6557C25.4043 12.564 25.3464 12.4687 25.4288 12.3477C25.4411 12.3295 25.4557 12.313 25.4698 12.2963C25.4557 12.2673 25.4417 12.2387 25.4241 12.213C25.3556 12.1159 25.2666 12.1093 25.1919 12.1968C25.1334 12.2664 25.1205 12.4191 25.0016 12.3755C24.8869 12.3331 24.8985 12.1903 24.9012 12.077C24.9018 12.0582 24.903 12.0397 24.9036 12.0212C24.9224 11.9665 24.9732 11.9641 25.0201 11.9524C25.0169 11.9504 25.0133 11.951 25.0109 11.9486C25.0079 11.9384 25.0085 11.9282 25.0058 11.9178C24.8848 11.9668 24.7232 11.9333 24.6368 11.8285C24.6392 11.7702 24.6171 11.7185 24.589 11.6695C24.5523 11.6053 24.4952 11.5417 24.5651 11.4682C24.635 11.3941 24.7232 11.3445 24.826 11.3361C24.9147 11.3289 24.9036 11.4147 24.9275 11.4688C24.9508 11.4162 24.9625 11.3738 24.9667 11.3364C24.9153 11.1784 24.8295 11.1437 24.6097 11.1829C24.4701 11.1022 24.3441 11.0015 24.1672 10.9991C24.0483 10.9976 24.0635 10.8835 24.0507 10.7984C24.022 10.6027 23.9957 10.4061 23.9485 10.2134C23.9467 10.2752 23.9431 10.3368 23.9327 10.3977C23.9222 10.4551 23.9267 10.5166 23.8428 10.5408C23.7627 10.5638 23.7289 10.5253 23.6892 10.4769C23.6799 10.45 23.6719 10.4222 23.6608 10.3974C23.5906 10.3974 23.5186 10.3968 23.4478 10.3989C23.4111 10.4001 23.3504 10.4022 23.342 10.4213C23.2865 10.5528 23.2252 10.577 23.1162 10.4688C23.0702 10.4231 23.0433 10.4918 23.0227 10.525C22.9576 10.6275 22.8951 10.6816 22.8028 10.5486C22.766 10.496 22.6988 10.4811 22.6358 10.4703C22.6235 10.4694 22.6113 10.4688 22.599 10.4688C22.4918 10.5704 22.3684 10.6143 22.2205 10.5812C22.0251 10.5546 22.0449 10.6938 22.1136 10.7712C22.2462 10.9235 22.1225 11.1339 22.2573 11.2746C22.2603 11.2779 22.2591 11.2886 22.2561 11.2928C22.029 11.599 22.3484 11.8234 22.375 12.0914C22.4111 12.1045 22.4473 12.118 22.4834 12.1314C22.599 12.1986 22.6707 12.2936 22.6806 12.4322C22.683 12.4684 22.6935 12.5162 22.718 12.5362C22.9462 12.7205 22.9065 13.0253 23.0436 13.2499C23.0741 13.2995 23.0693 13.3927 23.1616 13.3533C23.2315 13.3234 23.2082 13.2613 23.1738 13.2102C23.1511 13.1755 23.1389 13.14 23.1792 13.1116C23.2234 13.0805 23.2521 13.1224 23.273 13.1472C23.4609 13.367 23.6674 13.35 23.9183 13.2484C24.039 13.1994 24.1878 13.071 24.345 13.206C24.3695 13.2269 24.3999 13.1917 24.4214 13.1678C24.4552 13.1304 24.4367 13.0283 24.5152 13.0557C24.5819 13.0787 24.5526 13.1657 24.5586 13.2254C24.5586 13.229 24.5586 13.2326 24.5586 13.2362C24.5702 13.2362 24.5819 13.2362 24.5935 13.2359C24.6885 13.2685 24.7967 13.261 24.8812 13.3252C24.8887 13.3357 24.8905 13.3479 24.8929 13.3602C24.9039 13.3539 24.915 13.3485 24.9266 13.3431C24.967 13.3034 25.0282 13.2947 25.076 13.2667C25.131 13.261 25.1961 13.2523 25.1979 13.3315C25.1997 13.4154 25.234 13.4809 25.2848 13.54C25.3326 13.5956 25.3135 13.6518 25.2756 13.6891C25.188 13.7754 25.24 13.82 25.3135 13.8657C25.471 14.0237 25.4617 14.2711 25.6159 14.4309C25.6188 14.516 25.6526 14.5925 25.7097 14.6499C25.8381 14.7801 25.8399 14.9737 25.9564 15.1127C26.0084 15.1739 25.9337 15.2393 25.8638 15.2629C25.7861 15.2892 25.7061 15.2895 25.6257 15.2614C25.5821 15.2459 25.5325 15.1841 25.4937 15.2313C25.4488 15.2844 25.5125 15.3307 25.5421 15.3759H25.54C25.4623 15.4347 25.5465 15.547 25.4647 15.6044L25.4641 15.6047C25.4121 15.6504 25.3485 15.6737 25.2923 15.6295C25.1833 15.5443 25.0527 15.5452 24.9347 15.5563C24.7528 15.573 24.6097 15.4499 24.437 15.4499C24.4167 15.4499 24.399 15.435 24.391 15.4216C24.2703 15.225 24.0653 15.1261 23.8992 14.983C23.7988 14.8967 23.7445 14.7437 23.7884 14.5662C23.8448 14.3395 23.8906 14.1059 23.9067 13.8707C23.89 13.8522 23.8756 13.8322 23.8526 13.8205C23.7994 13.7796 23.737 13.7763 23.674 13.7736C23.6324 13.7719 23.6005 13.7578 23.5718 13.7399C23.5326 13.727 23.4935 13.7106 23.4538 13.6903C23.2641 13.5929 23.2106 13.6341 23.1995 13.8462C23.1972 13.8899 23.1972 13.9344 23.1912 13.9777C23.1801 14.0587 23.1392 14.1274 23.0582 14.142C22.9725 14.1572 22.942 14.0775 22.9169 14.0156C22.844 13.8376 22.7221 13.7291 22.5256 13.7061C22.4843 13.701 22.4398 13.6795 22.4072 13.6523C22.2952 13.5579 22.2005 13.6347 22.1912 13.7193C22.1721 13.9042 21.9433 13.8474 21.9059 14.0022C21.9 14.0282 21.8381 13.9813 21.8459 13.9427C21.8674 13.8301 21.8277 13.7482 21.7401 13.6804C21.7231 13.6673 21.707 13.6326 21.7126 13.6156C21.782 13.4041 21.5818 13.4426 21.4946 13.3894C21.3912 13.3267 21.2881 13.3488 21.2263 13.4815C21.1848 13.4011 21.2087 13.3318 21.2006 13.2652C21.1241 13.1911 21.1761 13.1098 21.2069 13.0459C21.2308 12.9945 21.2442 12.9643 21.2012 12.9249C21.2 12.9123 21.1994 12.9001 21.1982 12.8881C21.3183 12.8266 21.4524 12.8866 21.5746 12.8478C21.5752 12.8365 21.5761 12.8254 21.5761 12.8143C21.4701 12.76 21.4046 12.6581 21.3126 12.5867C21.301 12.5858 21.2893 12.5849 21.278 12.5843C21.1928 12.5033 21.1223 12.4101 21.0596 12.3118C21.0596 12.3767 20.9855 12.4095 20.9162 12.4349C20.8059 12.4747 20.6981 12.4986 20.6088 12.5918C20.5421 12.6617 20.4441 12.6145 20.3677 12.5679C20.1839 12.4547 20.0794 12.4699 19.9177 12.6217C19.8652 12.6712 19.8186 12.7409 19.7298 12.737C19.4696 12.7495 19.4696 12.7495 19.4708 12.5004C19.4708 12.449 19.4397 12.3647 19.4042 12.4042C19.2778 12.5422 19.2264 12.397 19.1488 12.3579C19.1045 12.3354 19.063 12.3074 19.0203 12.2817C18.9259 12.2879 18.8213 12.2596 18.7526 12.357C18.6388 12.5485 18.6394 12.5479 18.4975 12.3588C18.476 12.3301 18.4479 12.299 18.4159 12.2865C18.2904 12.2375 18.2758 12.1714 18.3723 12.0791C18.4171 12.0361 18.458 11.9647 18.3881 11.9411C18.1587 11.8634 18.1557 11.5527 17.8961 11.4971C17.7846 11.4732 17.8838 11.349 17.9033 11.2722C17.689 11.268 17.4958 11.1823 17.2887 11.213C17.2299 11.2217 17.2078 11.1727 17.2024 11.1135C17.1889 10.9627 17.3186 10.8999 17.3948 10.8082C17.4223 10.7745 17.4895 10.8196 17.5011 10.8769C17.514 10.9397 17.5465 10.9471 17.5949 10.9218C17.6224 10.9077 17.661 10.8922 17.6678 10.8695C17.6855 10.8121 17.6263 10.8049 17.5926 10.7795C17.4964 10.7063 17.3515 10.6762 17.3201 10.5429C17.3141 10.5405 17.3084 10.5385 17.3031 10.5364C17.2857 10.534 17.2693 10.5322 17.2517 10.5304C17.2221 10.5074 17.2009 10.4835 17.1836 10.4587C17.1647 10.4506 17.148 10.4378 17.1399 10.41C17.1211 10.3428 17.1656 10.2944 17.2134 10.2531C17.2263 10.2421 17.2397 10.2313 17.2526 10.2203C17.2612 10.1916 17.2684 10.1623 17.2753 10.133C17.1113 10.2065 16.9962 10.3314 16.9239 10.5032C16.9081 10.5405 16.8678 10.5615 16.826 10.5402C16.8836 10.5868 16.9404 10.6424 17.001 10.6929C17.0297 10.7168 17.0593 10.7434 17.0751 10.7775C17.099 10.8276 17.1662 10.9107 17.1107 10.931C16.9245 10.9991 17.0664 11.2949 16.8394 11.3065C16.7109 11.3131 16.6778 11.3582 16.725 11.4682C16.7599 11.5497 16.7408 11.6334 16.7441 11.7158C16.7626 11.7158 16.782 11.7197 16.7997 11.7305C16.9036 11.795 17.0115 11.8673 17.0189 12.0092C17.0258 12.1374 16.9753 12.2201 16.8463 12.2733C16.6374 12.3599 16.526 12.5377 16.4698 12.7522C16.4657 12.7534 16.4624 12.7525 16.4582 12.7528C16.5598 12.9936 16.3076 13.3387 16.0474 13.278C15.979 13.2622 15.9103 13.2679 15.8416 13.2771C15.5996 13.31 15.5138 13.5155 15.6608 13.7136C15.7265 13.8023 15.8183 13.8513 15.9204 13.8917C16.1134 13.9678 16.1299 14.0312 16.0172 14.2044C15.9542 14.3018 15.9897 14.3798 16.1101 14.4324C16.1678 14.4575 16.232 14.4739 16.2688 14.5429C16.2873 14.5761 16.3214 14.611 16.2915 14.6341C16.2087 14.6983 16.1269 14.7595 16.0528 14.8366C16.008 14.8838 15.9425 14.8492 15.8837 14.8273C15.8837 14.8285 15.8837 14.8297 15.8837 14.8309C15.8855 14.8539 15.8819 14.876 15.8819 14.8987C15.9204 14.9982 15.97 14.9854 16.1824 14.9265C16.2013 14.9734 16.2443 14.9964 16.2804 15.0254C16.382 15.1058 16.376 15.1996 16.2589 15.3403C16.2004 15.3726 16.1239 15.3791 16.0847 15.4419C16.0534 15.4921 15.9617 15.5094 15.9862 15.5859C16.0089 15.6564 16.0958 15.5548 16.143 15.6561C16.0035 15.6803 15.878 15.743 15.7379 15.7526C15.7128 15.7795 15.6847 15.8055 15.6578 15.8276C15.5395 15.8374 15.4149 15.9318 15.3023 15.8099C15.3008 15.789 15.3026 15.7693 15.3032 15.7493C15.1849 15.7275 15.0657 15.7532 14.9471 15.7559C14.9354 15.7792 14.9235 15.8025 14.9092 15.8306C14.8058 15.8592 14.7057 15.893 14.6451 15.9916C14.6352 16.008 14.6215 16.0307 14.6074 16.0313C14.3747 16.046 14.1557 16.2151 13.9128 16.1132C13.9125 16.1141 13.9119 16.115 13.9116 16.1159C13.9152 16.1245 13.9194 16.1338 13.9224 16.1413C13.9791 16.2841 14.0837 16.3256 14.2202 16.3038C14.415 16.273 14.539 16.342 14.585 16.538C14.6218 16.6587 14.5961 16.7543 14.4858 16.8308C14.3538 16.9231 14.254 17.0725 14.0607 17.042C13.995 17.0315 13.9911 17.0847 13.9878 17.1319C13.9878 17.2096 13.9188 17.2317 13.8737 17.2732C13.793 17.304 13.759 17.3778 13.7207 17.4441C13.6406 17.5842 13.6511 17.6045 13.8097 17.6204C13.9286 17.6326 14.032 17.6957 14.1503 17.7142C14.245 17.7294 14.216 17.8182 14.2229 17.8928C14.2346 17.8053 14.3063 17.8194 14.363 17.8122C14.545 17.7907 14.7248 17.8391 14.9071 17.8262C14.9623 17.8223 15.0134 17.8537 15.0107 17.9114C14.9982 18.1665 15.1998 18.2516 15.3671 18.3455C15.6802 18.5217 15.685 18.5125 15.7519 18.845C15.8365 18.7422 15.8389 18.6045 15.9449 18.522C16.0803 18.4166 16.1257 18.4178 16.1842 18.5755C16.2045 18.6317 16.2697 18.6735 16.2446 18.7458C16.2434 18.7727 16.244 18.7996 16.2377 18.8258C16.2347 18.8276 16.2329 18.8309 16.2302 18.8321C16.385 18.8967 16.4794 19.0054 16.5523 19.1799C16.6706 19.4616 16.6581 19.7158 16.5541 19.9832C16.5203 20.0696 16.4979 20.1705 16.3907 20.1705C16.3907 20.1711 16.3913 20.1717 16.3913 20.1723C16.3883 20.201 16.3895 20.2282 16.3883 20.2557C16.431 20.3662 16.4268 20.501 16.5475 20.5727C16.6064 20.607 16.6578 20.6536 16.7127 20.6945C16.9198 20.7011 17.0921 20.7645 17.1877 20.9682C17.2311 21.059 17.3096 21.0991 17.4124 21.114C17.5349 21.1322 17.6616 21.149 17.7682 21.2236C17.7383 21.4704 17.7467 21.5439 17.8558 21.8131C17.9 21.9227 17.923 22.0261 17.8447 22.1289C17.8447 22.1363 17.8441 22.145 17.8441 22.1528C17.8563 22.1516 17.868 22.1486 17.8802 22.1534C17.9732 22.3156 17.9549 22.4461 17.7787 22.588C17.6574 22.686 17.56 22.8127 17.4175 22.8862C17.3288 22.9316 17.3159 22.9848 17.3745 23.081C17.4241 23.1625 17.5645 23.2677 17.3912 23.3735C17.3544 23.4066 17.3108 23.4359 17.2815 23.4747C17.1737 23.6125 17.0434 23.6639 16.869 23.6169C16.7044 23.5733 16.5481 23.5948 16.4134 23.714C16.3375 23.7816 16.2885 23.8395 16.4325 23.8745C16.4845 23.8867 16.5383 23.8933 16.523 23.9638C16.5096 24.0206 16.4582 24.043 16.4062 24.0379C16.345 24.0316 16.2849 24.0116 16.2243 23.9976C16.1308 23.976 16.0387 23.982 15.9972 24.0779C15.933 24.2258 15.8147 24.2198 15.6982 24.1906C15.5455 24.152 15.3946 24.1114 15.2363 24.1353C15.1446 24.1493 15.1051 24.0367 15.0155 24.0528C14.9438 24.0454 14.8766 24.0125 14.8079 23.9892C14.815 23.9922 14.8234 23.9946 14.8303 23.9982C14.89 24.0289 14.9558 24.0507 15.0107 24.0917C15.054 24.1607 15.0803 24.2387 15.1045 24.3169C15.1072 24.3695 15.1275 24.4074 15.1852 24.4191C15.2357 24.429 15.2533 24.4633 15.2488 24.5135C15.2435 24.5691 15.2049 24.5843 15.1607 24.5945C15.1001 24.6085 15.0415 24.6312 14.9812 24.6459C14.8888 24.6677 14.8249 24.6999 14.8231 24.8132C14.8219 24.8816 14.7652 24.933 14.7147 24.9813C14.6707 25.0238 14.6083 25.0719 14.6477 25.1379C14.6836 25.1979 14.7484 25.1588 14.8019 25.1478C14.948 25.1173 15.1015 25.1035 15.1733 24.9389C15.1834 24.915 15.2172 24.9213 15.242 24.9213C15.4057 24.8938 15.5052 24.9721 15.5554 25.1203C15.6172 25.3016 15.5398 25.4005 15.3438 25.4148C15.1607 25.4283 14.9982 25.5182 14.8294 25.5818C14.7538 25.6105 14.7359 25.7073 14.7795 25.7587C14.9704 25.9834 14.873 26.1841 14.749 26.3876C14.7239 26.4121 14.6988 26.4372 14.674 26.4617C14.5865 26.3759 14.4864 26.3171 14.36 26.3129C14.1387 26.306 14.0726 26.0999 13.9433 25.978C13.8985 25.9359 13.9732 25.9108 14.0108 25.8973C14.1181 25.86 14.1207 25.7925 14.0706 25.707C13.9965 25.5806 13.9481 25.4474 13.9564 25.298C13.8399 25.2702 13.7649 25.235 13.8874 25.1113C13.9561 25.042 14.0395 24.9637 13.9295 24.8493C13.877 24.794 13.8937 24.7134 13.9615 24.6721C14.0063 24.645 14.0467 24.61 14.09 24.5801C13.9842 24.5801 13.8877 24.5643 13.8351 24.4155C13.8032 24.3238 13.6735 24.3331 13.5812 24.3671C13.5134 24.3928 13.4226 24.4206 13.4297 24.5117C13.4372 24.6145 13.508 24.682 13.612 24.699C13.6711 24.7089 13.7159 24.7388 13.7616 24.7725C13.8596 24.8442 13.8519 24.915 13.7386 24.9422C13.6302 24.9685 13.5537 25.0076 13.5334 25.1236C13.5334 25.1242 13.5217 25.1242 13.517 25.1218C13.5116 25.1191 13.5083 25.1131 13.5038 25.1089C13.2582 25.1197 13.2487 25.1307 13.2418 25.4089C13.2421 25.4211 13.2424 25.4334 13.243 25.4456C13.3228 25.4289 13.3936 25.4644 13.4671 25.4842C13.5842 25.7518 13.5669 25.7754 13.2421 25.7865C13.2424 25.8232 13.243 25.8606 13.2436 25.8973C13.3858 25.9224 13.499 25.9347 13.4551 26.1531C13.4249 26.3018 13.4802 26.493 13.6645 26.5788C13.7177 26.6033 13.7745 26.6385 13.7446 26.7049C13.7147 26.7715 13.6699 26.6881 13.6329 26.6992C13.4255 26.7628 13.2095 26.6472 12.9989 26.7449C12.8609 26.8097 12.6285 26.7571 12.5099 26.6702C12.5081 26.669 12.5057 26.6678 12.5039 26.666C12.4821 26.6493 12.463 26.6323 12.4513 26.6134C12.4507 26.6018 12.4501 26.5901 12.4492 26.5779C12.4367 26.606 12.4143 26.6329 12.4128 26.6612C12.3972 26.9887 12.3327 27.0427 11.9957 27.0042C11.9712 27.0012 11.947 26.9961 11.9228 26.9914C11.8774 26.8426 11.7728 26.7733 11.6211 26.7661C11.4998 26.7574 11.3863 26.7311 11.3172 26.6161C11.1753 26.5537 11.0328 26.493 10.8927 26.4276C10.8664 26.4154 10.8285 26.3834 10.8303 26.3631C10.8437 26.182 10.7162 26.1734 10.5886 26.1447C10.4156 26.105 10.3272 25.94 10.191 25.8436C10.1399 25.8074 10.173 25.7339 10.2029 25.6879C10.2686 25.5866 10.2346 25.52 10.1548 25.4453C10.0443 25.3419 9.99198 24.9984 10.0511 24.863C10.0924 24.7698 10.182 24.7821 10.2588 24.7639C10.1327 24.7008 10.0592 24.6055 10.035 24.4609C10.0141 24.3337 9.88204 24.2841 9.78524 24.3653C9.73505 24.4077 9.69293 24.434 9.63766 24.4015C9.55132 24.3501 9.51786 24.4077 9.50263 24.4696C9.48709 24.5332 9.51577 24.5804 9.59524 24.5718C9.69472 24.561 9.69353 24.6091 9.67023 24.6871C9.58747 24.9625 9.58986 24.9625 9.30186 24.8908C9.17161 24.8589 9.10319 24.9085 9.12679 25.0462C9.15069 25.1851 9.1985 25.3234 9.1504 25.4638C9.11305 25.5723 9.08049 25.6915 8.91588 25.5911C8.79936 25.5194 8.75156 25.5917 8.7665 25.7043C8.77815 25.7943 8.76023 25.8385 8.66134 25.8256C8.60368 25.8188 8.57321 25.863 8.53616 25.8973C8.38171 26.038 8.36169 26.0303 8.31688 25.8208C8.3118 25.7957 8.30612 25.7713 8.30074 25.7468C8.24637 25.5795 8.11522 25.4591 8.03545 25.3049C7.9509 25.1421 7.76747 25.1003 7.58463 25.1065C7.55267 25.1749 7.51353 25.2374 7.59121 25.3094C7.64229 25.3557 7.65813 25.4277 7.64349 25.5323C7.42122 25.3509 7.17684 25.261 6.90378 25.2586C6.76127 25.215 6.62355 25.1385 6.4661 25.1968C6.44997 25.203 6.4198 25.2045 6.41203 25.1956C6.26743 25.0196 6.0368 25.0038 5.85097 24.9114C5.61705 24.7943 5.47275 24.5783 5.2451 24.4651C5.18177 24.4337 5.13994 24.4089 5.06017 24.4325C4.95919 24.463 4.8388 24.4173 4.81729 24.3071C4.76172 24.0212 4.5039 23.9955 4.3112 23.9073C4.09072 23.8058 4.00498 23.6869 4.07578 23.4464C3.98885 23.2811 3.91804 23.1091 3.8565 22.9322C3.82154 22.8324 3.76568 22.7392 3.66171 22.6908C3.49381 22.6517 3.38865 22.5408 3.3301 22.3858C3.26288 22.2095 3.09378 22.1734 2.95158 22.1032C2.8969 22.0754 2.8512 22.1032 2.86434 22.1758C2.87091 22.2131 2.88555 22.2487 2.89063 22.2854C2.8984 22.3419 2.90647 22.4103 2.83417 22.4249C2.76127 22.4393 2.7299 22.3711 2.73319 22.3174C2.74454 22.1244 2.64775 21.9729 2.56798 21.8101C2.51958 21.7115 2.4667 21.6777 2.36363 21.7052C2.19155 21.7515 2.07145 21.6774 1.98989 21.5302C1.91968 21.4026 1.845 21.2816 1.70996 21.2099C1.59136 21.1469 1.6762 21.0417 1.66276 20.9551C1.66216 20.9306 1.66126 20.9067 1.66037 20.8822C1.50024 20.7922 1.47663 20.6255 1.43152 20.4717C1.40553 20.3821 1.38462 20.2912 1.36161 20.2013C1.30127 19.9244 1.08467 19.7111 1.04553 19.4251C1.04105 19.3932 1.01446 19.3639 0.97951 19.375C0.910498 19.3971 0.940971 19.4517 0.942764 19.5004C0.950531 19.7257 0.989668 19.9486 1.00819 20.1729C0.969651 20.1135 0.930515 20.0546 0.890781 19.9964C0.661338 18.7996 0.523315 17.5929 0.582468 16.371C0.637737 15.2271 0.80713 14.1011 1.08975 12.9867C1.26661 12.2888 1.48799 11.6137 1.7721 10.9558C1.80526 10.8205 1.85605 10.6917 1.92207 10.5689C2.03261 10.4408 2.06548 10.2747 2.13538 10.1268C2.36931 9.63353 2.6346 9.15971 2.9229 8.69993C3.02746 8.66856 3.12904 8.62345 3.22255 8.55443C3.06212 8.8018 2.90049 9.04827 2.74663 9.30012C2.64177 9.4716 2.58441 9.66101 2.49897 9.83997C2.41173 9.85909 2.38962 9.91645 2.38723 10.001C2.38514 10.0805 2.35019 10.119 2.29133 10.1124C2.35766 10.1865 2.37349 10.2971 2.43892 10.3861C2.52735 10.2815 2.6355 10.2056 2.69465 10.087C2.82311 9.82891 3.0185 9.61919 3.20193 9.40289C3.37969 9.19376 3.54072 8.97179 3.7119 8.76087C3.90818 8.51858 4.12089 8.2745 4.37961 8.08509C4.46954 8.11019 4.54751 8.0839 4.61593 8.02624C4.66343 7.9865 4.71541 7.95454 4.77068 7.92675C5.0309 7.79411 5.1005 7.81741 5.20328 8.07135C5.15846 8.26166 5.04404 8.41492 4.92066 8.55921C4.71959 8.79463 4.47402 8.9927 4.40561 9.32432C4.37155 9.48923 4.21859 9.5218 3.95449 9.45697C4.09849 9.75393 4.0707 10.03 3.87413 10.2914C3.8332 10.3461 3.80452 10.3965 3.72684 10.3628C3.72594 10.3619 3.72505 10.3607 3.72415 10.3595C3.68352 10.4981 3.64857 10.6344 3.50248 10.7231C3.40658 10.7813 3.40389 10.98 3.21866 10.9152C3.21388 10.9391 3.20313 10.9636 3.20552 10.9869C3.2103 11.041 3.23659 11.1461 3.26049 11.1249C3.38238 11.0191 3.46603 11.3101 3.57477 11.1452C3.62586 11.0678 3.70742 11.0583 3.78629 11.0392C3.99661 10.9875 4.01693 10.9373 3.90281 10.7494C3.87502 10.704 3.84843 10.6257 3.90998 10.6299C4.08953 10.6412 4.13613 10.5104 4.21231 10.3419C4.25802 10.5567 4.41307 10.6642 4.41726 10.8447C4.41935 10.9277 4.46536 10.9567 4.54333 10.9244C4.60129 10.9005 4.65775 10.874 4.71482 10.8483C4.70376 10.8477 4.69271 10.8471 4.68195 10.8462C4.57858 10.7559 4.46864 10.672 4.56723 10.5071C4.58605 10.476 4.54751 10.413 4.54184 10.364C4.51704 10.1566 4.50748 9.9517 4.67867 9.79097C4.70466 9.77872 4.73065 9.76647 4.75664 9.75422C4.94724 9.61112 5.08646 9.41783 5.24898 9.24784C5.33712 9.15582 5.4121 9.08382 5.56507 9.11489C5.7016 9.14238 5.84798 9.10294 5.96091 8.99898C5.91879 8.64466 6.12881 8.38624 6.30448 8.11885C6.42786 7.93153 6.57186 7.75826 6.7069 7.57901C6.7293 7.54913 6.75828 7.54794 6.78995 7.56287C6.79682 7.37078 6.9217 7.34299 7.08243 7.32865C7.38208 7.30176 7.67187 7.23186 7.93925 7.04275C7.85411 6.97792 7.74566 7.00779 7.69517 6.92534C7.69159 6.91996 7.68711 6.91518 7.68501 6.9092C7.60794 6.70187 7.81079 6.64989 7.89862 6.53696C7.95837 6.46048 8.0471 6.41417 8.14748 6.48139C8.24368 6.54592 8.24069 6.71173 8.13464 6.8133C8.08594 6.85991 8.01962 6.88799 7.96106 6.92444C8.15316 7.01645 8.31419 6.89367 8.48119 6.84079C8.70735 6.76879 8.92454 6.66781 9.16743 6.66064C9.26332 6.66243 9.34548 6.61672 9.43152 6.58476C9.58329 6.51664 9.69711 6.62599 9.72938 6.72218C9.77061 6.84587 9.83454 6.83422 9.91759 6.82884C9.99019 6.82436 10.0544 6.8387 10.1106 6.8856C10.1521 6.89367 10.1838 6.91219 10.1874 6.95999C10.2752 6.96059 10.3627 6.96148 10.4506 6.96238C10.4607 6.95551 10.47 6.94655 10.4813 6.94266C10.5793 6.90801 10.5766 6.73593 10.6932 6.75714C10.7902 6.77476 10.8679 6.86409 10.9531 6.92354C10.9731 6.93729 10.9955 6.94804 11.0158 6.96148C11.0532 6.96178 11.0905 6.96208 11.1278 6.96208C11.216 7.02661 11.3041 7.02422 11.3916 6.96119L11.3919 6.96089C11.4729 6.91249 11.5353 6.82615 11.6533 6.85991C11.7552 6.88919 11.8305 6.92982 11.8532 7.04484C11.8771 7.16613 11.7621 7.15269 11.6931 7.20855C11.8565 7.2928 12.0573 7.18884 12.1818 7.3421C12.1854 7.40065 12.2102 7.4365 12.2753 7.42724C12.3674 7.4138 12.4424 7.46518 12.5239 7.49117C12.5992 7.50282 12.6607 7.59902 12.7495 7.52732C12.7507 7.45263 12.7519 7.37824 12.7531 7.30385C12.7689 7.29161 12.779 7.29131 12.7874 7.29429C12.7853 7.25366 12.7569 7.21602 12.7689 7.1733C12.7435 7.14761 12.7414 7.09801 12.7121 7.07621C12.5896 7.01436 12.5604 6.93609 12.6634 6.82794C12.6882 6.80165 12.7148 6.7652 12.7175 6.73115C12.7516 6.29108 13.059 6.13991 13.4291 6.08106C13.6242 6.04999 13.7909 5.91645 13.9878 5.90121C13.9633 5.84355 13.977 5.77245 13.983 5.70762C13.9944 5.58483 13.9717 5.53225 13.8304 5.55914C13.672 5.58901 13.5809 5.48027 13.6036 5.31685C13.5967 5.32492 13.5899 5.33029 13.58 5.33687C13.4226 5.34822 13.413 5.22812 13.387 5.12057C13.4462 5.01959 13.5143 4.93415 13.6502 4.93714C13.7192 4.93863 13.7596 4.89352 13.761 4.82062C13.7748 4.78895 13.7975 4.76386 13.8166 4.73936C13.6424 4.70978 13.4554 4.74743 13.3069 4.62076C13.2857 4.60492 13.2705 4.58252 13.2499 4.56638C13.1125 4.45883 13.1364 4.32678 13.1916 4.18846C13.2146 4.1308 13.2484 4.09525 13.3156 4.09495C13.4769 4.09376 13.4838 3.99786 13.4432 3.87776C13.4139 3.79052 13.3954 3.70687 13.4336 3.64085C13.3688 3.70747 13.3356 3.78903 13.3792 3.90495C13.4178 4.00742 13.3676 4.05193 13.2756 4.06986C13.1946 4.08569 13.1131 4.06627 13.0315 4.07135C12.8262 4.0842 12.8077 4.10152 12.7796 4.31543C12.7632 4.37996 12.7351 4.43702 12.6814 4.47825C12.4815 4.51321 12.3542 4.36861 12.2544 4.2509C12.1442 4.12094 12.0988 4.11437 12.0247 4.25717C11.9832 4.33724 11.9183 4.37369 11.8296 4.38116C11.4816 4.41103 11.3498 4.67782 11.2205 4.9446C11.1948 4.99778 11.219 5.05455 11.2321 5.10952C11.2931 5.36644 11.2321 5.46115 10.9776 5.54211C10.8255 5.59051 10.6519 5.63293 10.5178 5.5914C10.3373 5.53494 10.1348 5.50506 9.98063 5.37391C9.93402 5.33388 9.88861 5.26397 9.84858 5.37869C9.80138 5.46473 9.90236 5.60037 9.75627 5.65295C9.58896 5.7133 9.42913 5.81786 9.24122 5.70941C9.11544 5.63711 8.98011 5.63054 8.84447 5.68521C8.77666 5.7124 8.71272 5.7357 8.67628 5.64309C8.40322 5.69686 8.15615 5.82354 7.9046 5.93228C7.59778 6.06523 7.38447 6.30841 7.21597 6.59402C7.09528 6.79866 6.91722 6.94446 6.706 7.04872C6.62653 7.08786 6.54736 7.05499 6.4676 7.03707C6.40576 7.02362 6.35168 7.0287 6.38275 7.12401C6.48253 7.43172 6.42219 7.57811 6.12343 7.76842C6.08579 7.68058 6.14375 7.61247 6.16825 7.53778C6.18289 7.49386 6.18109 7.44845 6.13538 7.42216C6.09714 7.40005 6.06249 7.42186 6.03112 7.44337C5.94418 7.50223 5.90146 7.59424 5.85336 7.68208C5.81632 7.74959 5.77449 7.8195 5.68337 7.80307C5.59793 7.78754 5.59255 7.71046 5.58299 7.64145C5.49277 7.62352 5.40225 7.60589 5.32188 7.59036C5.27199 7.37735 5.36072 7.1739 5.35773 6.96328C5.36311 6.95551 5.36819 6.94744 5.37327 6.93997C5.52264 6.95342 5.69144 6.84676 5.70249 6.70276C5.71056 6.59581 5.75716 6.54443 5.84201 6.50738C5.98451 6.49842 6.11626 6.47482 6.12463 6.28959C6.12702 6.2391 6.16227 6.21161 6.2023 6.18921C6.28894 6.17576 6.39201 6.2403 6.46102 6.13573C6.47029 6.13484 6.47985 6.13394 6.48881 6.13304C6.59307 6.0966 6.66298 6.03266 6.72632 5.93497C6.81654 5.79605 6.97518 5.72853 7.13471 5.69985C7.42181 5.64817 7.7122 5.60993 7.91207 5.36435C8.05427 5.18988 8.2631 5.10384 8.42831 4.96044C8.44624 4.9449 8.4782 4.92668 8.49553 4.93265C8.7175 5.01063 8.91229 4.89053 9.11873 4.85468C9.22867 4.83586 9.32636 4.80897 9.39298 4.71247C9.40344 4.69724 9.42883 4.67364 9.43302 4.67603C9.61944 4.79583 9.75686 4.61478 9.92028 4.59835C9.96629 4.59387 9.99676 4.61777 9.99766 4.66049C10.0009 4.87201 10.1028 4.75281 10.1715 4.70978C10.2229 4.67752 10.2638 4.62852 10.3239 4.57355C10.2286 4.51918 10.1435 4.47019 10.058 4.42209C10.0242 4.40297 9.99139 4.38205 9.99139 4.33844C9.99139 4.28466 10.0311 4.25897 10.0756 4.25239C10.2438 4.2267 10.3786 4.0836 10.5853 4.16516C10.7194 4.21804 10.8864 4.15082 10.9429 3.97037C10.9922 3.81412 11.1416 3.79022 11.262 3.73018C11.3934 3.66445 11.5461 3.63696 11.6103 3.47205C11.6456 3.38123 11.7549 3.38123 11.8356 3.35195C12.1699 3.22947 12.5045 3.10817 12.8403 2.99076C12.9547 2.95073 13.0769 2.96716 13.1958 2.96268C13.2702 2.95999 13.3509 2.97015 13.404 2.90084C13.4456 2.84676 13.499 2.79149 13.5585 2.84348C13.6335 2.9092 13.7667 2.92384 13.7721 3.05798C13.7742 3.11415 13.7706 3.17091 13.7694 3.22737C14.0473 3.44636 14.1085 3.82398 14.3732 4.05313C14.4416 4.11258 14.4311 4.18846 14.3857 4.25688C14.355 4.30288 14.3137 4.34172 14.2758 4.38265C14.2226 4.43912 14.1285 4.47646 14.1599 4.57654C14.1724 4.61598 14.1957 4.63958 14.2232 4.6572C14.2477 4.64047 14.2731 4.62494 14.297 4.60731C14.3887 4.56131 14.4798 4.59865 14.571 4.6106C14.6203 4.61687 14.689 4.65362 14.7153 4.61867C14.8037 4.50155 14.9522 4.47855 15.049 4.39251C15.1464 4.30527 15.2061 4.30318 15.2892 4.38175C15.3522 4.4418 15.4137 4.49976 15.446 4.58849C15.481 4.68529 15.6058 4.69306 15.6563 4.60642C15.6919 4.54487 15.7654 4.54756 15.8153 4.49259C15.7932 4.40924 15.6656 4.37548 15.6892 4.26315C15.7041 4.19055 15.7612 4.14753 15.7967 4.08928C15.8463 4.00652 15.9285 4.00234 16.0116 4.00174C16.1475 4.00084 16.273 3.97216 16.3733 3.87208C16.569 3.82906 16.6778 3.97874 16.7889 4.08539C17.0034 4.28974 17.2185 4.40147 17.5173 4.26584C17.6287 4.21535 17.736 4.30318 17.8187 4.37966C17.8761 4.43284 17.8626 4.4905 17.7802 4.52247C17.6729 4.56429 17.5684 4.60044 17.4518 4.55145C17.4085 4.53292 17.3607 4.50126 17.3087 4.54487C17.3305 4.62584 17.4115 4.64914 17.4626 4.70052C17.4381 4.73787 17.4142 4.77521 17.3897 4.81256C17.2953 4.83705 17.1913 4.87679 17.2257 4.99121C17.255 5.0886 17.3688 5.0659 17.4533 5.065C17.5083 5.0644 17.5678 4.9927 17.6162 5.07695C17.4387 5.10414 17.2726 5.18271 17.0859 5.17255C17.0013 5.16807 16.9248 5.15911 16.8558 5.11071C16.7871 5.06261 16.725 5.05664 16.6488 5.10563C16.5281 5.18241 16.3745 5.13581 16.3058 5.01212C16.2873 4.97956 16.2783 4.94072 16.2562 4.91174C16.2171 4.86095 16.1606 4.85647 16.1021 4.87619C16.0707 4.88695 16.0432 4.90935 16.0489 4.94431C16.0659 5.03901 16.1511 4.9452 16.1953 5.00406C16.0779 5.13461 16.1066 5.24007 16.2712 5.31416C16.3378 5.34434 16.3692 5.39124 16.3692 5.47638C16.3692 5.68103 16.4462 5.75094 16.6551 5.75422C16.8618 5.75751 17.07 5.74646 17.2765 5.75572C17.3822 5.7605 17.5089 5.75602 17.4907 5.93975C17.4871 5.97142 17.6296 6.03027 17.7103 6.05596C17.8071 6.08644 17.9062 6.11034 18.0024 6.14649C18.0201 6.13095 18.041 6.11811 18.0703 6.11512C18.124 6.11452 18.1775 6.10825 18.2283 6.13125C18.3385 6.15814 18.4096 6.26001 18.5202 6.2869C18.5611 6.32335 18.6229 6.35322 18.6504 6.30094C18.7448 6.12109 18.8832 6.21042 19.0086 6.23044C19.1147 6.24776 19.2157 6.32096 19.2683 6.13573C19.2951 6.04013 19.4281 6.06314 19.5111 6.11631C19.5613 6.14858 19.5981 6.1916 19.6539 6.13215C19.8425 6.13215 20.0217 6.15097 20.1057 6.3595C20.1221 6.39356 20.1373 6.42791 20.1553 6.46137C20.1944 6.53606 20.212 6.66004 20.324 6.62569C20.4483 6.58774 20.6356 6.63973 20.6718 6.43478V6.43628C20.849 6.48169 21.0079 6.59073 21.1991 6.58894C21.18 6.62121 21.1671 6.65974 21.1408 6.68424C21.0742 6.74608 20.975 6.79 21.0312 6.90861C21.0883 7.03169 21.1859 7.1007 21.3225 7.11265C21.3972 7.11893 21.4748 7.11564 21.5459 7.13536C21.672 7.17061 21.8044 7.21094 21.8471 7.35883C21.9036 7.55272 22.0326 7.61097 22.2199 7.56974C22.3424 7.52971 22.4586 7.51567 22.5719 7.60799C22.6265 7.6525 22.7042 7.64174 22.7729 7.6277C22.9925 7.58199 23.175 7.64652 23.3014 7.82876C23.3863 7.95185 23.4693 7.95812 23.5781 7.87208C23.769 7.87716 23.9497 7.91391 24.1021 8.03968C24.1705 8.09585 24.2532 8.09286 24.3333 8.09615C24.405 8.18488 24.5099 8.18308 24.607 8.18936C24.7142 8.19623 24.8 8.23387 24.86 8.3241C25.108 8.42089 25.3544 8.51948 25.6039 8.61389C25.6362 8.62643 25.6693 8.63868 25.6992 8.65452C25.7138 8.61568 25.7273 8.57654 25.736 8.53531C25.7455 8.4905 25.7628 8.45047 25.79 8.42238C25.5603 7.87985 25.3022 7.35345 25.021 6.84079C24.9989 6.87514 24.9744 6.90711 24.9452 6.9337C24.8723 6.99913 24.8298 7.09981 24.7271 7.13237C24.7079 7.12879 24.6885 7.13118 24.6694 7.12998C24.5953 7.19033 24.4925 7.13625 24.408 7.15508C24.4032 7.15119 24.3987 7.1497 24.394 7.14611C24.301 7.15866 24.2084 7.16703 24.1149 7.1482C24.1197 7.16464 24.1191 7.18196 24.1021 7.20258C24.0764 7.23395 24.0316 7.2462 24.0005 7.22618C23.8296 7.11295 23.5897 7.12401 23.466 6.92773L23.4654 6.92743C23.2847 6.89068 23.1464 6.75953 22.9743 6.70217C22.9626 6.70127 22.951 6.70067 22.9393 6.69978C22.8634 6.66542 22.7986 6.61015 22.718 6.58296C22.6794 6.57042 22.637 6.51993 22.6633 6.48408C22.8159 6.28451 22.6188 6.25434 22.5205 6.17487C22.5082 6.17457 22.4966 6.17367 22.4843 6.17248C22.4643 6.12259 22.4452 6.0727 22.4852 6.0228C22.4843 6.01055 22.4831 5.99831 22.4831 5.98636C22.4831 5.98636 22.4831 5.98636 22.4825 5.98636C22.3302 6.0473 22.3108 5.8797 22.2199 5.83429C22.0484 5.68312 21.8814 5.53225 21.9042 5.26845C21.9101 5.20093 21.9083 5.14268 21.9758 5.11161C22.0419 5.08143 22.0341 5.02527 22.0401 4.9685C22.064 4.71277 22.2208 4.52097 22.4246 4.41551C22.5366 4.35726 22.697 4.48871 22.8004 4.59835C22.8389 4.63868 22.864 4.69126 22.8954 4.73817C22.9357 4.72203 22.9755 4.70321 23.0173 4.69067C23.092 4.66796 23.1356 4.6342 23.0657 4.5616C23.0343 4.52904 22.9946 4.49946 23.0221 4.45136C23.0529 4.40087 23.1096 4.40894 23.1586 4.41492C23.1948 4.4191 23.2327 4.43135 23.2641 4.44987C23.3561 4.50394 23.4373 4.57236 23.5446 4.59596C21.9917 2.60746 20.2299 1.36794 18.2582 0.879178C25.9319 1.94154 31.8592 8.53979 31.8592 16.5004C31.8592 24.4675 25.9209 31.0702 18.2385 32.1245ZM20.7202 5.72913C20.7375 5.78649 20.8 5.83907 20.7414 5.90002C20.6876 5.95618 20.6386 5.91346 20.5935 5.87851C20.5433 5.83997 20.4788 5.87582 20.4292 5.85132C20.3608 5.81726 20.1989 5.81368 20.3584 5.67983C20.4226 5.62546 20.3769 5.58603 20.3276 5.56721C20.1735 5.50596 20.2517 5.4017 20.2831 5.31536C20.3154 5.22573 20.4008 5.23021 20.4761 5.25053C20.5726 5.27652 20.6291 5.33597 20.6126 5.39154C20.5642 5.57169 20.6903 5.62935 20.7202 5.72913Z" fill="white"/>
</svg>
