<svg width="33" height="33" viewBox="0 0 33 33" fill="none" xmlns="http://www.w3.org/2000/svg">
<g clip-path="url(#clip0_0_722)">
<path d="M15.9528 10.5809C15.8799 10.5627 15.8192 10.5325 15.7723 10.4739C15.8506 10.5337 15.8408 10.5872 15.7661 10.649C15.7084 10.6971 15.6504 10.7619 15.6962 10.8435C15.7475 10.9358 15.8425 10.9337 15.9295 10.908C16.0104 10.8844 16.1419 10.8757 16.1425 10.7894C16.1437 10.7013 16.06 10.6078 15.9528 10.5809Z" fill="white"/>
<path d="M13.7572 19.0956C13.7422 19.0156 13.7261 18.9376 13.695 18.8474C13.6523 19.02 13.3724 19.0819 13.4533 19.2549C13.5158 19.3884 13.4722 19.5847 13.6338 19.6716C13.6651 19.5736 13.7679 19.5297 13.8369 19.4873C13.9053 19.444 13.9986 19.5826 14.1088 19.5916C14.1694 19.5963 14.1408 19.6713 14.1333 19.7194C14.1237 19.7804 14.1184 19.8425 14.1112 19.9041C14.1889 20.0098 14.3105 20.0191 14.4216 20.0504C14.473 20.0259 14.5187 19.991 14.579 20.0248C14.6818 20.103 14.6603 20.2058 14.6373 20.3095C14.6343 20.3178 14.631 20.3259 14.628 20.334C14.6307 20.3277 14.6343 20.3229 14.6367 20.3163C14.6923 20.2661 14.7323 20.3127 14.7768 20.3349C14.8375 20.1804 14.8718 20.0167 14.9408 19.8655C14.8318 19.7765 14.7634 19.6534 14.6905 19.5384C14.6041 19.4036 14.4861 19.3582 14.3433 19.3529C14.1886 19.3475 14.0574 19.2997 13.9576 19.1859C13.8411 19.268 13.7802 19.2187 13.7572 19.0956Z" fill="white"/>
<path d="M14.328 22.5701C14.3128 22.5638 14.297 22.56 14.2823 22.5549C14.2692 22.5567 14.2569 22.5612 14.2435 22.5621C14.2002 22.5692 14.1595 22.5836 14.1228 22.6075C14.124 22.6197 14.127 22.6314 14.1276 22.6442C14.1294 22.7049 14.1601 22.7539 14.2163 22.7766C14.2988 22.8091 14.4012 22.8868 14.4616 22.7691C14.5189 22.6571 14.421 22.6042 14.328 22.5701Z" fill="white"/>
<path d="M12.0151 17.7542C12.0175 17.7554 12.0193 17.7572 12.0211 17.7584C12.0286 17.7623 12.0322 17.7629 12.0334 17.7578C12.034 17.7566 12.034 17.7572 12.0346 17.756C12.0313 17.756 12.0283 17.756 12.022 17.7521C12.0199 17.753 12.0175 17.753 12.0151 17.7542Z" fill="white"/>
<path d="M11.4683 17.5804C11.4531 17.5875 11.4384 17.592 11.4241 17.5956C11.43 17.5962 11.4348 17.5956 11.4411 17.5968C11.5388 17.6102 11.6493 17.6323 11.7213 17.6936C11.819 17.7763 11.9119 17.7901 12.015 17.7542C11.9881 17.7387 11.9606 17.7223 11.9403 17.6996C11.8098 17.5529 11.6696 17.4818 11.4683 17.5804Z" fill="white"/>
<path d="M13.792 10.7837C13.8031 10.7682 13.8123 10.7542 13.8096 10.7509C13.6462 10.5567 13.8906 10.2525 13.6277 10.0846C13.5408 10.0294 13.5811 9.99741 13.6555 9.95828C13.7215 9.92362 13.8789 9.95618 13.8437 9.86566C13.7965 9.74497 13.8126 9.57408 13.6704 9.50507C13.5563 9.4501 13.4329 9.31566 13.3167 9.53584C13.2823 9.60067 13.1109 9.56601 13.0559 9.68133C13.0383 9.85311 12.9298 9.97232 12.8267 10.0942C12.8303 10.1002 12.8345 10.1038 12.8378 10.1103C12.865 10.2006 12.8249 10.2842 12.8058 10.3673C12.7834 10.4656 12.7087 10.508 12.606 10.4951C12.4043 10.4703 12.3224 10.563 12.3729 10.7628C12.3861 10.8163 12.4216 10.8659 12.3726 10.9176C12.4664 10.9534 12.5531 10.9582 12.6027 10.813C12.6582 10.7709 12.7201 10.7503 12.7894 10.7553C12.9624 10.8369 12.8052 10.9113 12.7843 10.9887C12.7742 10.9929 12.7637 10.9967 12.7532 11.0009C12.68 11.0212 12.6361 11.0577 12.6066 11.1022C12.6287 11.1861 12.6242 11.2764 12.6221 11.3654C12.6224 11.3648 12.6224 11.3645 12.6227 11.3639C12.6556 11.2041 12.7816 11.121 12.94 11.1422C13.0625 11.1587 13.1365 11.291 13.1204 11.4583C13.1103 11.5617 13.1198 11.6695 13.0102 11.7532C13.1515 11.766 13.1198 11.663 13.1192 11.6223C13.1174 11.4876 13.1428 11.3657 13.2253 11.2602C13.2674 11.2071 13.2638 11.1631 13.2339 11.1064C13.1646 10.9746 13.1903 10.8512 13.323 10.81C13.4732 10.7634 13.6349 10.6828 13.792 10.7837Z" fill="white"/>
<path d="M10.98 15.5548C11.0191 15.5449 11.0547 15.5333 11.0816 15.5234C11.0565 15.5333 11.0167 15.5399 10.98 15.5548Z" fill="white"/>
<path d="M14.6421 17.9123C14.6406 17.906 14.6403 17.8991 14.6397 17.8931C14.6391 17.8943 14.6385 17.8943 14.6385 17.8961C14.6376 17.9066 14.637 17.9108 14.6421 17.9123Z" fill="white"/>
<path d="M14.646 17.9135C14.6433 17.9138 14.6433 17.9123 14.6421 17.912C14.643 17.917 14.6421 17.9227 14.6439 17.9275C14.6403 17.9409 14.6711 17.912 14.646 17.9135Z" fill="white"/>
<path d="M6.04514 7.61695C6.0296 7.62412 6.01437 7.63219 6.00122 7.64384L6.00182 7.64414C6.01437 7.63219 6.0296 7.62442 6.04514 7.61695Z" fill="white"/>
<path d="M16.9896 9.58394C16.9583 9.60067 16.9057 9.63562 16.8624 9.60843C16.8618 9.60903 16.8606 9.60963 16.86 9.61053C16.8483 9.6162 16.8361 9.6177 16.8244 9.61979C16.817 9.72286 16.8182 9.81995 16.9627 9.85909C17.0055 9.87044 17.0736 9.92153 17.0894 9.89882C17.1653 9.78948 17.3093 9.83698 17.3906 9.75363C17.418 9.72525 17.4088 9.6897 17.3741 9.67834C17.2493 9.63682 17.1507 9.50088 16.9896 9.58394Z" fill="white"/>
<path d="M13.8516 3.64324C13.8811 3.61307 13.9146 3.58498 13.9543 3.56019C13.9018 3.5823 13.8704 3.61068 13.8516 3.64324Z" fill="white"/>
<path d="M14.6191 20.3555C14.6218 20.348 14.6254 20.3414 14.6281 20.334C14.6245 20.3414 14.6206 20.348 14.6165 20.3552C14.6177 20.3552 14.6182 20.3555 14.6191 20.3555Z" fill="white"/>
<path d="M9.98395 16.7955C9.98693 16.8114 9.9944 16.826 10.0013 16.8403C10.0046 16.8 10.0004 16.757 9.98395 16.7086C9.98395 16.7379 9.97887 16.7651 9.98395 16.7955Z" fill="white"/>
<path d="M10.3101 16.3525C10.4221 16.3462 10.4595 16.316 10.4601 16.2156C10.512 16.0938 10.5876 15.9814 10.6046 15.8461C10.7227 15.7905 10.8392 15.7394 10.9082 15.6122C10.924 15.5826 10.9515 15.5665 10.9799 15.5548C10.9491 15.5626 10.9168 15.5694 10.8825 15.5712C10.7827 15.5763 10.74 15.4885 10.6823 15.4326C10.6321 15.3845 10.5727 15.3648 10.5138 15.3594C10.4391 15.3528 10.3958 15.3173 10.3797 15.254C10.3615 15.1861 10.3949 15.1366 10.4562 15.0989C10.5303 15.0538 10.6184 15.0003 10.5909 14.8996C10.5781 14.8518 10.518 14.8169 10.5548 14.7541C10.5365 14.8414 10.4783 14.8584 10.3988 14.85C10.3426 14.8441 10.3128 14.8028 10.2718 14.7754C10.1341 14.6821 9.93395 14.712 9.82968 14.839C9.61428 15.101 9.43175 15.1599 9.11357 15.0595C9.00961 15.0269 8.90504 15.0147 8.79809 15.0185C8.80347 15.0287 8.80974 15.038 8.81034 15.0514C8.81333 15.0669 8.81094 15.0774 8.81154 15.0908C8.97167 15.153 8.92118 15.3427 8.99467 15.4753C9.12552 15.3502 9.24951 15.3639 9.37588 15.4897C9.42159 15.5348 9.49986 15.547 9.5629 15.5748C9.61936 15.5999 9.69315 15.6166 9.69076 15.694C9.68837 15.758 9.62295 15.7831 9.57216 15.8025C9.50076 15.8294 9.44459 15.7893 9.4195 15.7272C9.38036 15.6304 9.33017 15.5757 9.22202 15.6286C9.20081 15.6391 9.16765 15.6549 9.16586 15.6713C9.15958 15.7281 9.20111 15.8087 9.09744 15.8105C8.99975 15.8123 8.89011 15.8497 8.80765 15.7705C8.71265 15.6791 8.58179 15.6779 8.44885 15.5895C8.47454 15.6531 8.48679 15.6806 8.49665 15.7087C8.52115 15.7759 8.67321 15.8216 8.54206 15.9145C8.43541 15.9901 8.27647 15.9405 8.21672 15.8264C8.21104 15.8153 8.20596 15.8034 8.20298 15.7914C8.17848 15.6839 8.19013 15.5246 8.05987 15.5133C8.01177 15.5091 7.97204 15.5276 7.93559 15.5533C7.92962 15.582 7.92842 15.6158 7.93081 15.6546C7.9338 15.6925 7.89795 15.7206 7.8848 15.7556C7.85284 15.8422 7.87375 15.9011 7.96875 15.9271C8.04733 15.9486 8.12351 15.9781 8.19909 16.0065C8.32935 16.0546 8.34488 16.152 8.24002 16.2461C8.19461 16.2873 8.14024 16.3196 8.10887 16.3794C8.34698 16.3803 8.34847 16.3803 8.36221 16.6321C8.36759 16.7367 8.42943 16.7896 8.51756 16.8218C8.60271 16.8529 8.68337 16.892 8.76135 16.9362C8.75388 16.7546 8.82378 16.7283 9.06099 16.7477C9.31225 16.7686 9.57754 16.8182 9.78726 16.6013C9.8249 16.5622 9.87958 16.5261 9.93963 16.55C10.0128 16.5786 9.96412 16.6497 9.98205 16.6975C9.98354 16.7017 9.98294 16.7044 9.98414 16.7086C9.98623 16.5147 10.1036 16.3638 10.3101 16.3525Z" fill="white"/>
<path d="M7.994 19.4664C7.98474 19.4404 7.98086 19.4129 7.97369 19.3866C7.96652 19.3779 7.95756 19.3717 7.95457 19.3567C7.87629 19.0096 7.77621 18.6669 7.73708 18.3126C7.72931 18.2436 7.71198 18.1776 7.67344 18.1181C7.57605 17.9693 7.49927 17.9669 7.41084 18.1223C7.34481 18.2385 7.27759 18.2606 7.17871 18.1632C7.13658 18.1217 7.06369 18.0852 7.02604 18.1205C6.92985 18.2122 6.81632 18.1952 6.70728 18.2009C6.74103 18.3201 6.75089 18.4437 6.73237 18.5641C6.70399 18.744 6.77121 18.8984 6.83156 19.0559C6.88175 19.1864 6.99139 19.2226 7.12404 19.2062C7.18289 19.1993 7.25937 19.1461 7.28417 19.2516C7.36453 19.1144 7.47746 19.1584 7.56858 19.2205C7.68211 19.2988 7.78876 19.3833 7.91573 19.4425C7.97936 19.4721 8.03404 19.5261 8.03971 19.6098C8.0415 19.6367 8.04748 19.6555 8.05585 19.6707C8.05674 19.668 8.05734 19.6656 8.05824 19.6636C8.05017 19.645 8.04419 19.6232 8.04121 19.5942C8.03673 19.5503 8.01492 19.5064 7.994 19.4664Z" fill="white"/>
<path d="M7.28524 19.2549C7.28502 19.2531 7.2839 19.2531 7.28367 19.2513H7.28345C7.28479 19.2519 7.28546 19.2553 7.28524 19.2549Z" fill="white"/>
<path d="M10.7581 17.4665C10.7285 17.4928 10.6977 17.5081 10.6672 17.517C10.6771 17.5164 10.6861 17.5173 10.6968 17.5158C10.8127 17.5003 10.8835 17.5642 10.9227 17.6715C10.9591 17.7707 10.975 17.8797 11.0526 17.9604C11.0233 17.7545 11.1327 17.6135 11.3245 17.595C11.2405 17.575 11.1638 17.5125 11.0927 17.4683C10.9702 17.3918 10.8793 17.3611 10.7581 17.4665Z" fill="white"/>
<path d="M16.4999 0.815247C7.85135 0.815247 0.81543 7.85147 0.81543 16.5001C0.81543 25.1487 7.85135 32.1846 16.4999 32.1846C25.1488 32.1846 32.1851 25.1487 32.1851 16.5001C32.1854 7.85147 25.1488 0.815247 16.4999 0.815247ZM25.9767 7.15866C26.0588 7.18555 26.1458 7.19929 26.2184 7.25815C26.3358 7.35315 26.3495 7.41918 26.1816 7.45652C26.1553 7.43142 26.1296 7.40633 26.1033 7.38153C26.0618 7.33313 26.011 7.32328 25.9498 7.33313C25.8727 7.34568 25.8464 7.30087 25.8548 7.23245C25.8629 7.15836 25.9116 7.13745 25.9767 7.15866ZM22.3928 5.11012C22.4589 5.07994 22.4511 5.02378 22.4571 4.96701C22.481 4.71128 22.6378 4.51948 22.8416 4.41402C22.9536 4.35577 23.114 4.48722 23.2174 4.59686C23.2559 4.63719 23.281 4.68977 23.3124 4.73667C23.3527 4.72054 23.3925 4.70172 23.4343 4.68917C23.509 4.66647 23.5526 4.63271 23.4827 4.56011C23.4513 4.52755 23.4116 4.49797 23.4391 4.44987C23.4698 4.39938 23.5266 4.40745 23.5756 4.41342C23.6118 4.41761 23.6497 4.42986 23.6811 4.44838C23.7961 4.5162 23.8929 4.61 24.0476 4.60463C24.1041 4.60283 24.2087 4.64287 24.1922 4.77551C24.1782 4.88575 24.3697 4.87739 24.3772 4.99988L24.3778 5.00017C24.5092 4.98763 24.5896 5.07307 24.6714 5.15493C24.7127 5.1857 24.7608 5.21109 24.8053 5.21826C24.9113 5.23559 24.972 5.28847 25.0141 5.38557C25.0473 5.45996 25.1004 5.51851 25.1936 5.54719C25.3242 5.58692 25.3648 5.70971 25.3344 5.82742C25.3033 5.94722 25.3332 6.02938 25.4073 6.11661C25.5904 6.33172 25.5689 6.74489 25.361 6.93281C25.2881 6.99823 25.2456 7.09891 25.1429 7.13148C25.1237 7.12789 25.1043 7.13028 25.0852 7.12909C25.0111 7.18943 24.9083 7.13536 24.8238 7.15418C24.819 7.1503 24.8145 7.1488 24.8098 7.14522C24.7168 7.15777 24.6242 7.16613 24.5307 7.14731C24.5355 7.16374 24.5349 7.18107 24.5179 7.20168C24.4922 7.23305 24.4474 7.2453 24.4163 7.22529C24.2454 7.11206 24.0055 7.12311 23.8818 6.92683L23.8812 6.92653C23.7005 6.88979 23.5622 6.75863 23.3901 6.70127C23.3784 6.70038 23.3668 6.69978 23.3551 6.69888C23.2792 6.66453 23.2144 6.60926 23.1338 6.58207C23.0952 6.56952 23.0528 6.51903 23.0791 6.48318C23.2317 6.28362 23.0346 6.25344 22.9363 6.17397C22.924 6.17368 22.9124 6.17278 22.9001 6.17158C22.8801 6.12169 22.861 6.0718 22.901 6.02191C22.9001 6.00966 22.8989 5.99741 22.8989 5.98546C22.8989 5.98546 22.8989 5.98546 22.8983 5.98546C22.746 6.04641 22.7266 5.87881 22.6357 5.8334C22.4642 5.68223 22.2972 5.53136 22.3199 5.26756C22.3271 5.19944 22.3253 5.14119 22.3928 5.11012ZM20.7001 5.31536C20.7327 5.22573 20.8175 5.23021 20.8928 5.25053C20.9896 5.27652 21.0458 5.33597 21.0293 5.39154C20.9809 5.57199 21.107 5.62935 21.1372 5.72943C21.1542 5.78679 21.2167 5.83937 21.1587 5.90032C21.1049 5.95648 21.0559 5.91376 21.0105 5.87881C20.9603 5.84027 20.8961 5.87612 20.8465 5.85162C20.7778 5.81756 20.6162 5.81398 20.7754 5.68014C20.8396 5.62576 20.7936 5.58633 20.7449 5.56751C20.5908 5.50566 20.6693 5.4014 20.7001 5.31536ZM4.21016 24.751C4.1041 24.7349 4.0805 24.6267 4.05032 24.5422C4.03389 24.4968 4.05242 24.4266 4.11814 24.4331C4.22748 24.4436 4.26991 24.5299 4.29261 24.6211C4.28962 24.6859 4.27857 24.7606 4.21016 24.751ZM5.42638 25.3046C5.3257 25.3892 5.22502 25.3315 5.13749 25.2649C4.79093 25.0023 4.65649 24.6563 4.73626 24.2375C5.12972 24.3435 5.32062 24.6512 5.47298 24.9948C5.52317 25.1074 5.52467 25.2221 5.42638 25.3046ZM11.5257 28.7949C11.4585 28.7884 11.3704 28.7761 11.3793 28.6934C11.3874 28.6142 11.486 28.6249 11.5484 28.6115C11.6109 28.5987 11.6658 28.6303 11.664 28.699C11.6616 28.7794 11.5908 28.7866 11.5257 28.7949ZM13.8094 29.7871C13.7714 29.762 13.7335 29.7369 13.6956 29.7112C13.6615 29.6628 13.6101 29.6401 13.559 29.6156C13.4706 29.5723 13.4533 29.4955 13.4751 29.4098C13.4978 29.3222 13.5796 29.3333 13.6445 29.3255C13.6869 29.3192 13.7317 29.3345 13.7747 29.3303C14.0308 29.3034 14.0911 29.3366 14.1054 29.5191C14.1195 29.6912 14.034 29.7698 13.8094 29.7871ZM14.4451 27.7063C14.4066 27.7308 14.3866 27.7448 14.4111 27.7872V27.7884C14.1771 27.9315 13.9349 28.0295 13.6582 27.9127C13.6006 27.8882 13.5393 27.8374 13.4813 27.8685C13.3042 27.9614 13.2391 27.8488 13.1925 27.7167C13.1476 27.5907 13.0326 27.5109 12.9768 27.383C13.113 27.3403 13.2229 27.464 13.2991 27.4529C13.4709 27.4278 13.6728 27.4583 13.816 27.3221C13.9154 27.2274 13.9585 27.2029 13.9931 27.3723C14.0328 27.5674 14.2303 27.6447 14.4123 27.5608C14.4245 27.5614 14.4371 27.5614 14.4493 27.5614C14.5171 27.6122 14.5052 27.6683 14.4451 27.7063ZM15.7829 25.7031C15.7047 25.7013 15.6488 25.6676 15.65 25.5813C15.6512 25.5176 15.6891 25.4704 15.754 25.4728C15.8403 25.4752 15.8729 25.5481 15.9069 25.6105C15.8932 25.6858 15.843 25.7043 15.7829 25.7031ZM28.5958 13.6792C28.4808 13.6688 28.4871 13.5376 28.4085 13.4886C28.3804 13.5155 28.3745 13.5556 28.3939 13.5744C28.6368 13.8002 28.6123 14.0939 28.5531 14.3655C28.5008 14.6057 28.2917 14.741 28.0614 14.8235C27.9891 14.8148 27.9682 14.7625 27.9723 14.7037C27.9852 14.5298 27.8747 14.4443 27.7441 14.3697C27.4567 14.205 27.4409 14.1584 27.5436 13.8406C27.578 13.7339 27.6222 13.6293 27.6357 13.5164C27.6422 13.4597 27.6578 13.4032 27.7202 13.3832C27.7943 13.3593 27.8137 13.4316 27.8546 13.4656C27.854 13.4623 27.8579 13.4606 27.8528 13.457C27.7426 13.3748 27.8218 13.2688 27.8173 13.1735C27.8161 13.1478 27.8137 13.1224 27.8125 13.0967C27.8615 13.0062 27.8651 12.9147 27.7862 12.843C27.7298 12.7907 27.7552 12.7292 27.7426 12.6721C27.742 12.665 27.7396 12.6602 27.739 12.6536C27.6673 12.6462 27.5959 12.6396 27.5266 12.6237C27.477 12.6124 27.4343 12.5915 27.4029 12.5592C27.3871 12.5595 27.3713 12.561 27.3551 12.5649C27.3405 12.5739 27.3252 12.5795 27.31 12.5852C27.2867 12.5819 27.2694 12.5888 27.2533 12.5963C27.2383 12.6659 27.2347 12.7376 27.2371 12.8105C27.1759 12.7979 27.1406 12.76 27.114 12.7122C27.1039 12.7179 27.0952 12.7259 27.083 12.7274C26.9213 12.7026 26.8069 12.7274 26.7917 12.9309C26.7836 13.0411 26.6943 13.0811 26.6041 12.9942C26.4347 12.8299 26.2393 12.7343 26.0012 12.7334C25.9501 12.7334 25.9283 12.6898 25.9005 12.656C25.8195 12.5643 25.7616 12.469 25.8443 12.348C25.8566 12.3298 25.8715 12.3133 25.8856 12.2966C25.8715 12.2676 25.8572 12.239 25.8396 12.2133C25.7711 12.1162 25.6821 12.1096 25.6074 12.1971C25.5486 12.2667 25.5357 12.4194 25.4171 12.3758C25.3027 12.3334 25.3143 12.1906 25.3167 12.0773C25.3173 12.0585 25.3185 12.04 25.3191 12.0215C25.3376 11.9668 25.389 11.9644 25.4353 11.9527C25.4324 11.9507 25.4285 11.9513 25.4261 11.9489C25.4231 11.9387 25.4237 11.9285 25.4213 11.9181C25.3 11.9671 25.1384 11.9336 25.052 11.8288C25.0544 11.7705 25.0326 11.7188 25.0042 11.6698C24.9675 11.6056 24.9107 11.542 24.9803 11.4685C25.0502 11.3944 25.1384 11.3448 25.2412 11.3364C25.3302 11.3293 25.3191 11.415 25.343 11.4691C25.366 11.4165 25.3777 11.3741 25.3822 11.3367C25.3308 11.1787 25.245 11.144 25.0255 11.1832C24.8856 11.1025 24.7596 11.0018 24.5827 10.9994C24.4638 10.9979 24.4793 10.8838 24.4665 10.7987C24.4375 10.603 24.4112 10.4064 24.364 10.2137C24.3622 10.2755 24.3586 10.3371 24.3482 10.398C24.3377 10.4554 24.3419 10.5169 24.258 10.5411C24.1779 10.5641 24.1441 10.5256 24.1044 10.4772C24.0951 10.4503 24.0874 10.4225 24.0763 10.3977C24.0058 10.3977 23.9344 10.3971 23.8633 10.3992C23.8266 10.4004 23.7659 10.4025 23.7575 10.4216C23.7017 10.5531 23.6404 10.5773 23.5317 10.4691C23.4857 10.4234 23.4588 10.4921 23.4379 10.5253C23.3731 10.6278 23.3106 10.6819 23.218 10.5489C23.1813 10.4963 23.114 10.4814 23.051 10.4706C23.0387 10.4697 23.0265 10.4691 23.0142 10.4691C22.907 10.5707 22.7833 10.6146 22.636 10.5815C22.4406 10.5549 22.4604 10.6941 22.5288 10.7715C22.6617 10.9238 22.538 11.1342 22.6728 11.2749C22.6758 11.2782 22.6746 11.2889 22.6716 11.2931C22.4442 11.5993 22.7639 11.8237 22.7902 12.0917C22.826 12.1048 22.8622 12.1183 22.8983 12.1317C23.0142 12.1989 23.0857 12.2939 23.0955 12.4325C23.0979 12.4687 23.1084 12.5165 23.1329 12.5365C23.3611 12.7208 23.3214 13.0256 23.4585 13.2502C23.4893 13.2998 23.4842 13.393 23.5768 13.3536C23.6464 13.3237 23.6231 13.2616 23.5891 13.2105C23.5663 13.1758 23.5541 13.1403 23.5947 13.1119C23.6386 13.0808 23.6676 13.1227 23.6882 13.1475C23.8762 13.3673 24.0823 13.3503 24.3335 13.2487C24.4539 13.1997 24.6027 13.0713 24.7602 13.2063C24.7847 13.2272 24.8154 13.192 24.8366 13.1681C24.8704 13.1307 24.8522 13.0286 24.9304 13.056C24.9971 13.079 24.9678 13.166 24.9738 13.2257C24.9738 13.2293 24.9738 13.2329 24.9738 13.2365C24.9854 13.2365 24.9971 13.2365 25.0087 13.2362C25.1034 13.2688 25.2122 13.2613 25.2964 13.3255C25.3036 13.336 25.3057 13.3482 25.3081 13.3605C25.3191 13.3542 25.3302 13.3488 25.3418 13.3434C25.3822 13.3037 25.4434 13.295 25.4912 13.267C25.5462 13.2613 25.611 13.2526 25.6128 13.3318C25.6146 13.4157 25.6489 13.4812 25.6997 13.5403C25.7475 13.5959 25.7287 13.6521 25.6908 13.6894C25.6032 13.7757 25.6552 13.8203 25.7287 13.866C25.8859 14.024 25.8769 14.2714 26.0311 14.4312C26.0343 14.5163 26.0678 14.5928 26.1246 14.6502C26.2533 14.7804 26.2551 14.974 26.3713 15.113C26.4233 15.1742 26.3486 15.2396 26.279 15.2632C26.2013 15.2895 26.121 15.2898 26.0409 15.2617C25.9973 15.2462 25.948 15.1844 25.9086 15.2316C25.8638 15.2847 25.9277 15.331 25.957 15.3762H25.9558C25.8781 15.435 25.9626 15.5473 25.8805 15.6047L25.8802 15.605C25.8282 15.6507 25.7646 15.674 25.7084 15.6298C25.5994 15.5447 25.4688 15.5455 25.3508 15.5566C25.1689 15.5733 25.0258 15.4502 24.8531 15.4502C24.8328 15.4502 24.8151 15.4353 24.8071 15.4219C24.6864 15.2253 24.4814 15.1264 24.3153 14.9833C24.2149 14.897 24.1606 14.744 24.2045 14.5665C24.2609 14.3398 24.3067 14.1062 24.3228 13.871C24.3061 13.8525 24.2917 13.8325 24.2687 13.8208C24.2155 13.7799 24.1531 13.7766 24.0901 13.7739C24.0485 13.7722 24.0166 13.7581 23.9879 13.7402C23.9487 13.7273 23.9096 13.7109 23.8699 13.6906C23.6802 13.5932 23.6267 13.6344 23.6156 13.8465C23.6132 13.8902 23.6132 13.9347 23.6073 13.978C23.5962 14.059 23.5553 14.1277 23.4743 14.1423C23.3886 14.1575 23.3581 14.0778 23.333 14.0159C23.2601 13.8379 23.1382 13.7294 22.9417 13.7064C22.9004 13.7013 22.8559 13.6798 22.8233 13.6527C22.7113 13.5582 22.6166 13.635 22.6073 13.7196C22.5882 13.9045 22.3594 13.8477 22.322 14.0025C22.3161 14.0285 22.2542 13.9816 22.262 13.943C22.2835 13.8304 22.2438 13.7486 22.1562 13.6807C22.1392 13.6676 22.1231 13.6329 22.1287 13.6159C22.1981 13.4044 21.9979 13.4429 21.9107 13.3897C21.8073 13.327 21.7042 13.3491 21.6424 13.4818C21.6008 13.4014 21.6248 13.3321 21.6167 13.2655C21.5402 13.1914 21.5922 13.1101 21.623 13.0462C21.6469 12.9948 21.6603 12.9646 21.6173 12.9252C21.6161 12.9126 21.6155 12.9004 21.6143 12.8884C21.7344 12.8269 21.8685 12.8869 21.9907 12.8481C21.9913 12.8368 21.9922 12.8257 21.9922 12.8147C21.8862 12.7603 21.8207 12.6584 21.7287 12.587C21.7171 12.5861 21.7054 12.5852 21.6941 12.5846C21.6089 12.5036 21.5384 12.4104 21.4757 12.3121C21.4757 12.377 21.4016 12.4098 21.3323 12.4352C21.222 12.475 21.1142 12.4989 21.0249 12.5921C20.9582 12.662 20.8602 12.6148 20.7838 12.5682C20.6 12.455 20.4955 12.4702 20.3338 12.622C20.2813 12.6715 20.2347 12.7412 20.1459 12.7373C19.8857 12.7498 19.8857 12.7498 19.8869 12.5007C19.8869 12.4493 19.8558 12.365 19.8203 12.4045C19.6939 12.5425 19.6425 12.3973 19.5648 12.3582C19.5206 12.3357 19.4791 12.3077 19.4364 12.282C19.342 12.2882 19.2374 12.2599 19.1687 12.3573C19.0549 12.5488 19.0555 12.5482 18.9136 12.3591C18.8921 12.3304 18.864 12.2993 18.832 12.2868C18.7065 12.2378 18.6919 12.1717 18.7884 12.0794C18.8332 12.0364 18.8741 11.965 18.8042 11.9414C18.5748 11.8637 18.5718 11.553 18.3122 11.4974C18.2007 11.4735 18.2999 11.3493 18.3193 11.2725C18.1051 11.2683 17.9119 11.1826 17.7048 11.2133C17.646 11.222 17.6239 11.173 17.6185 11.1139C17.605 10.963 17.7347 10.9002 17.8109 10.8085C17.8384 10.7748 17.9056 10.8199 17.9172 10.8772C17.9301 10.94 17.9626 10.9474 18.011 10.9221C18.0385 10.908 18.0771 10.8925 18.0839 10.8698C18.1016 10.8124 18.0424 10.8052 18.0086 10.7798C17.9124 10.7067 17.7676 10.6765 17.7362 10.5432C17.7302 10.5408 17.7245 10.5388 17.7192 10.5367C17.7018 10.5343 17.6854 10.5325 17.6678 10.5307C17.6382 10.5077 17.617 10.4838 17.5997 10.459C17.5808 10.4509 17.5641 10.4381 17.556 10.4103C17.5372 10.3431 17.5817 10.2947 17.6295 10.2534C17.6424 10.2424 17.6558 10.2316 17.6687 10.2206C17.6773 10.1919 17.6845 10.1626 17.6914 10.1333C17.5274 10.2068 17.4123 10.3317 17.34 10.5035C17.3242 10.5408 17.2839 10.5618 17.242 10.5405C17.2997 10.5871 17.3565 10.6427 17.4171 10.6932C17.4458 10.7171 17.4754 10.7437 17.4912 10.7778C17.5151 10.8279 17.5823 10.911 17.5268 10.9313C17.3406 10.9994 17.4825 11.2952 17.2555 11.3068C17.127 11.3134 17.0939 11.3585 17.1411 11.4685C17.176 11.55 17.1569 11.6337 17.1602 11.7161C17.1787 11.7161 17.1981 11.72 17.2158 11.7308C17.3197 11.7953 17.4276 11.8676 17.435 12.0095C17.4419 12.1377 17.3914 12.2204 17.2624 12.2736C17.0535 12.3602 16.9421 12.538 16.8859 12.7525C16.8818 12.7537 16.8785 12.7528 16.8743 12.7531C16.9759 12.9939 16.7237 13.339 16.4635 13.2783C16.3951 13.2625 16.3264 13.2682 16.2577 13.2774C16.0154 13.3103 15.9296 13.5158 16.0769 13.7139C16.1429 13.8026 16.2344 13.8516 16.3365 13.892C16.5295 13.9681 16.546 14.0315 16.4333 14.2047C16.3703 14.3021 16.4058 14.3801 16.5262 14.4327C16.5839 14.4578 16.6481 14.4742 16.6849 14.5432C16.7034 14.5764 16.7375 14.6113 16.7076 14.6344C16.6248 14.6986 16.543 14.7598 16.4689 14.8369C16.4241 14.8841 16.3586 14.8495 16.2998 14.8276C16.2998 14.8288 16.2998 14.83 16.2998 14.8312C16.3016 14.8542 16.298 14.8763 16.298 14.899C16.3365 14.9985 16.3861 14.9857 16.5985 14.9268C16.6174 14.9737 16.6604 14.9967 16.6965 15.0257C16.7981 15.1061 16.7921 15.1999 16.675 15.3406C16.6165 15.3729 16.54 15.3794 16.5008 15.4422C16.4695 15.4924 16.3778 15.5097 16.4023 15.5862C16.425 15.6567 16.5119 15.5551 16.5591 15.6564C16.4196 15.6806 16.2941 15.7433 16.1543 15.7529C16.1292 15.7798 16.1011 15.8058 16.0742 15.8279C15.9559 15.8377 15.8313 15.9321 15.7184 15.8102C15.7172 15.7893 15.719 15.7696 15.7196 15.7496C15.6013 15.7278 15.4821 15.7535 15.3632 15.7562C15.3515 15.7795 15.3399 15.8028 15.3253 15.8309C15.2219 15.8595 15.1221 15.8933 15.0615 15.9919C15.0516 16.0083 15.0376 16.031 15.0235 16.0316C14.7908 16.0463 14.5718 16.2154 14.3292 16.1135C14.3286 16.1144 14.3283 16.1153 14.328 16.1162C14.3316 16.1248 14.3355 16.1341 14.3385 16.1416C14.3949 16.2844 14.4998 16.3259 14.6363 16.3041C14.8308 16.2733 14.9551 16.3423 15.0014 16.5383C15.0381 16.659 15.0125 16.7546 14.9022 16.8311C14.7699 16.9234 14.6704 17.0728 14.4768 17.0423C14.4108 17.0318 14.4075 17.085 14.4039 17.1322C14.4039 17.2099 14.3349 17.232 14.2895 17.2735C14.2088 17.3043 14.1751 17.3781 14.1365 17.4444C14.0564 17.5845 14.0672 17.6049 14.2258 17.6207C14.3447 17.6329 14.4478 17.696 14.5664 17.7145C14.6611 17.7297 14.6321 17.8185 14.639 17.8931C14.6507 17.8056 14.7224 17.8197 14.7791 17.8125C14.9611 17.791 15.1409 17.8394 15.3229 17.8265C15.3784 17.8226 15.4295 17.854 15.4268 17.9117C15.414 18.1668 15.6159 18.2519 15.7832 18.3458C16.096 18.522 16.1011 18.5128 16.1677 18.8453C16.2523 18.7425 16.2547 18.6048 16.3607 18.5223C16.4961 18.4169 16.5415 18.4181 16.6 18.5758C16.6203 18.632 16.6852 18.6738 16.6601 18.7461C16.6589 18.773 16.6595 18.7999 16.6535 18.8262C16.6502 18.8279 16.6484 18.8312 16.6463 18.8324C16.8011 18.897 16.8955 19.0057 16.9681 19.1802C17.0864 19.4619 17.0739 19.7161 16.9702 19.9835C16.9364 20.0699 16.914 20.1708 16.8065 20.1708C16.8065 20.1714 16.8071 20.172 16.8071 20.1726C16.8041 20.2013 16.8053 20.2285 16.8041 20.256C16.8471 20.3665 16.8426 20.5013 16.963 20.573C17.0219 20.6073 17.0733 20.6539 17.1285 20.6949C17.3353 20.7014 17.5082 20.7648 17.6035 20.9685C17.6472 21.0593 17.7254 21.0994 17.8282 21.1143C17.9507 21.1325 18.0774 21.1493 18.184 21.2239C18.1538 21.4707 18.1625 21.5442 18.2715 21.8134C18.3155 21.923 18.3388 22.0264 18.2605 22.1292C18.2605 22.1366 18.2599 22.1453 18.2599 22.1531C18.2721 22.1519 18.2838 22.1489 18.296 22.1537C18.3893 22.3159 18.3707 22.4464 18.1942 22.5883C18.0732 22.6863 17.9758 22.813 17.833 22.8865C17.7443 22.9319 17.7314 22.9851 17.7903 23.0813C17.8399 23.1628 17.98 23.268 17.8067 23.3738C17.7699 23.4069 17.7266 23.4362 17.697 23.475C17.5895 23.6128 17.4589 23.6642 17.2845 23.6172C17.1199 23.5736 16.9639 23.5951 16.8292 23.7143C16.7533 23.7819 16.7043 23.8398 16.848 23.8748C16.9 23.887 16.9541 23.8936 16.9388 23.9641C16.9251 24.0209 16.8737 24.0433 16.8217 24.0382C16.7605 24.0319 16.7004 24.0119 16.6401 23.9979C16.5466 23.9764 16.4545 23.9823 16.413 24.0782C16.3488 24.2261 16.2305 24.2201 16.1137 24.1909C15.9613 24.1523 15.8101 24.1117 15.6521 24.1356C15.5604 24.1496 15.5209 24.037 15.431 24.0531C15.3593 24.0457 15.2921 24.0128 15.2234 23.9895C15.2308 23.9925 15.2392 23.9949 15.2461 23.9985C15.3055 24.0292 15.3716 24.051 15.4265 24.092C15.4698 24.161 15.4964 24.239 15.5203 24.3172C15.5233 24.3698 15.5436 24.4077 15.601 24.4194C15.6518 24.4293 15.6694 24.4636 15.6646 24.5138C15.6593 24.5694 15.621 24.5846 15.5765 24.5948C15.5159 24.6088 15.4576 24.6315 15.3973 24.6462C15.3049 24.668 15.241 24.7002 15.2392 24.8135C15.238 24.8819 15.181 24.9333 15.1308 24.9817C15.0865 25.0241 15.0241 25.0722 15.0635 25.1382C15.0997 25.1982 15.1645 25.1591 15.2177 25.1481C15.3641 25.1176 15.5176 25.1038 15.5893 24.9392C15.5992 24.9153 15.633 24.9216 15.6581 24.9216C15.8215 24.8941 15.9213 24.9724 15.9715 25.1206C16.0333 25.3019 15.9556 25.4008 15.7596 25.4151C15.5765 25.4286 15.4143 25.5185 15.2455 25.5821C15.1696 25.6108 15.1517 25.7076 15.1953 25.759C15.3862 25.9837 15.2888 26.1844 15.1648 26.3879C15.1397 26.4124 15.1146 26.4375 15.0901 26.462C15.0026 26.3762 14.9022 26.3174 14.7761 26.3132C14.5545 26.3063 14.4884 26.1002 14.3591 25.9783C14.3146 25.9362 14.389 25.9111 14.4266 25.8976C14.5339 25.8603 14.5368 25.7928 14.4864 25.7073C14.4126 25.581 14.3639 25.4477 14.3722 25.2983C14.2557 25.2705 14.1807 25.2353 14.3032 25.1116C14.3719 25.0423 14.4553 24.964 14.3453 24.8496C14.2928 24.7943 14.3095 24.7137 14.377 24.6724C14.4218 24.6453 14.4622 24.6103 14.5055 24.5804C14.3997 24.5804 14.3032 24.5646 14.2509 24.4158C14.219 24.3241 14.0893 24.3334 13.997 24.3674C13.9289 24.3931 13.8384 24.4209 13.8452 24.512C13.8527 24.6148 13.9235 24.6823 14.0272 24.6993C14.0866 24.7092 14.1314 24.7391 14.1771 24.7728C14.2751 24.8445 14.2674 24.9153 14.1541 24.9425C14.046 24.9688 13.9692 25.0079 13.9489 25.1239C13.9489 25.1245 13.9372 25.1245 13.9325 25.1221C13.9271 25.1194 13.9238 25.1134 13.9193 25.1092C13.674 25.12 13.6642 25.131 13.6573 25.4092C13.6576 25.4214 13.6582 25.4337 13.6588 25.4459C13.7383 25.4292 13.8094 25.4647 13.8829 25.4845C14.0003 25.7521 13.9827 25.7757 13.6576 25.7868C13.6582 25.8235 13.6588 25.8609 13.6594 25.8976C13.8016 25.9227 13.9145 25.935 13.8706 26.1534C13.8405 26.3021 13.8957 26.4933 14.08 26.5791C14.1332 26.6036 14.1897 26.6388 14.1601 26.7052C14.1299 26.7718 14.0854 26.6884 14.0484 26.6995C13.841 26.7631 13.625 26.6475 13.4144 26.7452C13.2764 26.81 13.044 26.7574 12.9254 26.6705C12.9233 26.6693 12.9209 26.6681 12.9191 26.6663C12.8973 26.6496 12.8782 26.6326 12.8662 26.6137C12.8656 26.6021 12.865 26.5904 12.8641 26.5782C12.8516 26.6063 12.8292 26.6332 12.8277 26.6615C12.8121 26.989 12.7476 27.043 12.4109 27.0045C12.3864 27.0015 12.3622 26.9964 12.338 26.9917C12.2926 26.8429 12.1878 26.7736 12.0363 26.7664C11.915 26.7577 11.8015 26.7314 11.7322 26.6164C11.5902 26.554 11.448 26.4933 11.3076 26.4279C11.2813 26.4157 11.2434 26.3837 11.2449 26.3634C11.2586 26.1823 11.1308 26.1737 11.0032 26.145C10.8305 26.1053 10.7418 25.9404 10.6059 25.8439C10.5545 25.8077 10.5876 25.7342 10.6175 25.6882C10.6832 25.5869 10.6489 25.5203 10.5694 25.4456C10.4589 25.3422 10.4063 24.9987 10.4657 24.8633C10.507 24.7701 10.5966 24.7824 10.6734 24.7642C10.5473 24.7011 10.4738 24.6058 10.4499 24.4612C10.429 24.334 10.2969 24.2844 10.1998 24.3656C10.1494 24.408 10.1072 24.4343 10.0526 24.4018C9.96622 24.3504 9.93276 24.408 9.91723 24.4699C9.90169 24.5335 9.93067 24.5807 10.0101 24.5721C10.1096 24.5613 10.1081 24.6094 10.0848 24.6874C10.0024 24.9628 10.0048 24.9628 9.71677 24.8911C9.58651 24.8592 9.5181 24.9088 9.5417 25.0465C9.5656 25.1854 9.6134 25.3237 9.565 25.4641C9.52796 25.5726 9.49509 25.6918 9.33048 25.5914C9.21397 25.5197 9.16646 25.592 9.1811 25.7046C9.19275 25.7946 9.17513 25.8388 9.07594 25.8259C9.01858 25.8191 8.98781 25.8633 8.95106 25.8976C8.79631 26.0383 8.77659 26.0306 8.73178 25.8211C8.7264 25.7961 8.72102 25.7716 8.71535 25.7471C8.66097 25.5798 8.52982 25.4594 8.45006 25.3052C8.36581 25.1424 8.18207 25.1006 7.99924 25.1068C7.96727 25.1752 7.92813 25.2377 8.00581 25.3097C8.0569 25.356 8.07273 25.428 8.05809 25.5326C7.83582 25.3512 7.59114 25.2613 7.31808 25.2589C7.17558 25.2153 7.03785 25.1388 6.88041 25.1971C6.86428 25.2033 6.8344 25.2048 6.82663 25.1959C6.68204 25.0199 6.4511 25.0041 6.26528 24.9117C6.03165 24.7946 5.88706 24.5786 5.6597 24.4654C5.59607 24.434 5.55424 24.4092 5.47478 24.4328C5.3735 24.4633 5.2534 24.4176 5.23189 24.3074C5.17602 24.0215 4.9182 23.9958 4.72551 23.9076C4.50503 23.8061 4.41928 23.6872 4.49039 23.4467C4.40345 23.2815 4.33294 23.1094 4.2711 22.9325C4.23615 22.8327 4.18028 22.7395 4.07632 22.6911C3.90842 22.652 3.80326 22.5411 3.7447 22.3861C3.67718 22.2098 3.50839 22.1737 3.36618 22.1035C3.31121 22.0757 3.2658 22.1035 3.27865 22.1761C3.28522 22.2134 3.29956 22.249 3.30494 22.2857C3.3124 22.3422 3.32077 22.4106 3.24847 22.4252C3.17558 22.4396 3.14421 22.3715 3.14749 22.3177C3.15855 22.1247 3.06235 21.9732 2.98228 21.8104C2.93389 21.7118 2.88071 21.678 2.77794 21.7055C2.60585 21.7518 2.48546 21.6777 2.4039 21.5305C2.33399 21.4029 2.2593 21.2819 2.12397 21.2102C2.00536 21.1472 2.09021 21.042 2.07676 20.9554C2.07587 20.9309 2.07527 20.907 2.07437 20.8825C1.91424 20.7925 1.89064 20.6258 1.84523 20.472C1.81924 20.3824 1.79862 20.2915 1.77532 20.2016C1.71527 19.9247 1.49868 19.7114 1.45924 19.4254C1.45476 19.3935 1.42817 19.3642 1.39292 19.3753C1.32421 19.3974 1.35438 19.452 1.35617 19.5007C1.36424 19.726 1.40338 19.9489 1.4216 20.1732C1.38306 20.1138 1.34392 20.0549 1.30419 19.9967C1.07475 18.7999 0.936723 17.5932 0.995876 16.3713C1.05115 15.2274 1.22084 14.1014 1.50316 12.987C1.68002 12.2891 1.9011 11.614 2.18521 10.9561H2.18551C2.21837 10.8208 2.26916 10.692 2.33578 10.5692C2.44602 10.4411 2.47888 10.275 2.54879 10.1271C2.78272 9.63383 3.04831 9.16001 3.3366 8.70023C3.44117 8.66886 3.54244 8.62375 3.63655 8.55473C3.47612 8.8021 3.3145 9.04857 3.16034 9.30042C3.05518 9.47191 2.99812 9.66131 2.91297 9.84027C2.82544 9.85939 2.80363 9.91675 2.80124 10.0013C2.79915 10.0808 2.76419 10.1193 2.70534 10.1127C2.77166 10.1868 2.7875 10.2974 2.85292 10.3864C2.94165 10.2818 3.0495 10.2059 3.10836 10.0873C3.23712 9.82921 3.4322 9.61949 3.61594 9.40319C3.7934 9.19407 3.95472 8.97209 4.12591 8.76117C4.32189 8.51888 4.5346 8.2748 4.79332 8.08539C4.88355 8.11049 4.96152 8.0842 5.02964 8.02654C5.07744 7.98681 5.12942 7.95484 5.18469 7.92706C5.4449 7.79441 5.51451 7.81771 5.61728 8.07165C5.57247 8.26196 5.45805 8.41522 5.33466 8.55951C5.1336 8.79493 4.88803 8.993 4.81961 9.32462C4.78555 9.48953 4.63229 9.5221 4.3685 9.45727C4.5122 9.75423 4.48471 10.0303 4.28783 10.2917C4.2469 10.3464 4.21822 10.3968 4.14085 10.3631C4.13965 10.3622 4.13905 10.361 4.13786 10.3598C4.09753 10.4984 4.06227 10.6347 3.91648 10.7234C3.82058 10.7816 3.81789 10.9803 3.63267 10.9155C3.62789 10.9394 3.61713 10.9639 3.61922 10.9872C3.624 11.0413 3.65029 11.1464 3.67419 11.1252C3.79609 11.0194 3.88004 11.3104 3.98878 11.1455C4.03987 11.0681 4.12113 11.0586 4.2003 11.0395C4.41062 10.9878 4.43093 10.9376 4.31681 10.7497C4.28933 10.7043 4.26244 10.626 4.32428 10.6302C4.50353 10.6415 4.55014 10.5107 4.62662 10.3422C4.67203 10.557 4.82738 10.6645 4.83156 10.845C4.83365 10.928 4.87936 10.957 4.95764 10.9247C5.01559 10.9008 5.07236 10.8743 5.12912 10.8486C5.11836 10.848 5.10731 10.8474 5.09656 10.8465C4.99319 10.7562 4.88295 10.6723 4.98154 10.5074C5.00036 10.4763 4.96182 10.4133 4.95614 10.3643C4.93135 10.1569 4.92179 9.952 5.09297 9.79127C5.11926 9.77902 5.14525 9.76677 5.17124 9.75453C5.36215 9.61142 5.50107 9.41813 5.66359 9.24814C5.75172 9.15612 5.82671 9.08412 5.97967 9.11519C6.1159 9.14268 6.26259 9.10324 6.37552 8.99928C6.33339 8.64496 6.54342 8.38654 6.71908 8.11915C6.84217 7.93184 6.98647 7.75856 7.1218 7.57931C7.14391 7.54943 7.17319 7.54824 7.20455 7.56317C7.21143 7.37108 7.3363 7.34329 7.49703 7.32895C7.79698 7.30206 8.08647 7.23216 8.35416 7.04305C8.26901 6.97822 8.16056 7.00809 8.10978 6.92564C8.10619 6.92026 8.10201 6.91548 8.09992 6.9095C8.02284 6.70217 8.22539 6.65019 8.31352 6.53726C8.37298 6.46078 8.46171 6.41447 8.56239 6.48169C8.65829 6.54622 8.6556 6.71203 8.54924 6.8136C8.50084 6.86021 8.43422 6.88829 8.37596 6.92474C8.56806 7.01676 8.72909 6.89397 8.89579 6.84109C9.12225 6.76909 9.33914 6.66811 9.58233 6.66094C9.67823 6.66273 9.76068 6.61702 9.84643 6.58506C9.99819 6.51694 10.1123 6.62629 10.1446 6.72248C10.1858 6.84617 10.2497 6.83452 10.3325 6.82914C10.4051 6.82466 10.4696 6.839 10.5255 6.8859C10.567 6.89397 10.5987 6.91249 10.6026 6.96029C10.6901 6.96089 10.7776 6.96178 10.8658 6.96268C10.8756 6.95581 10.8849 6.94685 10.8965 6.94296C10.9942 6.90831 10.9918 6.73623 11.1087 6.75744C11.2055 6.77506 11.2831 6.86439 11.3683 6.92384C11.3886 6.93759 11.411 6.94834 11.4313 6.96178C11.4687 6.96208 11.506 6.96238 11.5433 6.96238C11.6318 7.02691 11.7196 7.02452 11.8074 6.96149L11.8077 6.96119C11.8887 6.91279 11.9511 6.82645 12.0691 6.86021C12.1713 6.88949 12.2463 6.93012 12.269 7.04514C12.2929 7.16643 12.1776 7.15299 12.1089 7.20885C12.2726 7.2931 12.4734 7.18914 12.5979 7.3424C12.6015 7.40095 12.6263 7.4368 12.6914 7.42754C12.7838 7.4141 12.8584 7.46548 12.94 7.49147C13.0153 7.50313 13.0768 7.59932 13.1653 7.52762C13.1665 7.45293 13.1677 7.37854 13.1689 7.30416C13.185 7.29191 13.1951 7.29161 13.2032 7.2946C13.2014 7.25397 13.1727 7.21632 13.185 7.1736C13.1593 7.14791 13.1575 7.09832 13.1282 7.07651C13.006 7.01466 12.9762 6.93639 13.0795 6.82824C13.1046 6.80195 13.1309 6.7655 13.1339 6.73145C13.1677 6.29138 13.4754 6.14021 13.8452 6.08136C14.0403 6.05029 14.207 5.91675 14.4042 5.90151C14.3797 5.84385 14.3931 5.77275 14.3994 5.70792C14.4105 5.58513 14.3881 5.53255 14.2465 5.55944C14.0884 5.58931 13.997 5.48057 14.02 5.31715C14.0131 5.32522 14.006 5.3306 13.9964 5.33717C13.8393 5.34852 13.8291 5.22842 13.8034 5.12087C13.8623 5.01989 13.9307 4.93445 14.0666 4.93744C14.1356 4.93893 14.1759 4.89382 14.1774 4.82092C14.1912 4.78926 14.2136 4.76416 14.233 4.73966C14.0585 4.71009 13.8715 4.74773 13.7233 4.62106C13.7021 4.60522 13.6869 4.58282 13.6663 4.56668C13.5289 4.45913 13.5528 4.32708 13.608 4.18876C13.631 4.1311 13.6648 4.09555 13.732 4.09525C13.8933 4.09406 13.9002 3.99816 13.8599 3.87806C13.8303 3.79082 13.8121 3.70717 13.85 3.64115C13.7852 3.70777 13.752 3.78933 13.7956 3.90525C13.8342 4.00772 13.784 4.05223 13.692 4.07016C13.611 4.08599 13.5294 4.06657 13.4479 4.07165C13.2423 4.0845 13.2241 4.10183 13.196 4.31573C13.1796 4.38026 13.1515 4.43732 13.0978 4.47855C12.8979 4.51351 12.7703 4.36891 12.6705 4.2512C12.5606 4.12124 12.5149 4.11467 12.4411 4.25748C12.3996 4.33754 12.3347 4.37399 12.2457 4.38146C11.898 4.41133 11.7662 4.67812 11.6368 4.94491C11.6109 4.99808 11.6354 5.05485 11.6482 5.10982C11.7091 5.36674 11.6482 5.46145 11.3937 5.54241C11.2413 5.59081 11.068 5.63323 10.9339 5.5917C10.7534 5.53524 10.5512 5.50537 10.397 5.37421C10.3504 5.33418 10.3047 5.26427 10.265 5.37899C10.2178 5.46503 10.3191 5.60067 10.1727 5.65325C10.0054 5.7136 9.84553 5.81816 9.65761 5.70971C9.53154 5.63741 9.3962 5.63084 9.26087 5.68551C9.19305 5.7127 9.12912 5.736 9.09267 5.64339C8.81961 5.69716 8.57225 5.82384 8.32099 5.93258C8.01447 6.06553 7.80087 6.30871 7.63207 6.59432C7.51167 6.79896 7.33362 6.94476 7.1221 7.04902C7.04263 7.08816 6.96376 7.05529 6.88399 7.03737C6.82215 7.02393 6.76778 7.029 6.79885 7.12431C6.89893 7.43202 6.83858 7.57841 6.53983 7.76872C6.50189 7.68088 6.56015 7.61277 6.58464 7.53808C6.59928 7.49416 6.59749 7.44875 6.55178 7.42246C6.51354 7.40035 6.47888 7.42216 6.44752 7.44367C6.36058 7.50253 6.31786 7.59454 6.26946 7.68238C6.23271 7.74989 6.19059 7.8198 6.09947 7.80337C6.01403 7.78784 6.00865 7.71076 5.99879 7.64175C5.90857 7.62382 5.81804 7.60619 5.73798 7.59066C5.68779 7.37765 5.77682 7.1742 5.77353 6.96358C5.77891 6.95581 5.78399 6.94774 5.78936 6.94027C5.93874 6.95372 6.10724 6.84706 6.11859 6.70307C6.12666 6.59611 6.17326 6.54473 6.25811 6.50768C6.40061 6.49872 6.53236 6.47512 6.54043 6.28989C6.54282 6.2394 6.57837 6.21192 6.6184 6.18951C6.70504 6.17607 6.80811 6.2406 6.87712 6.13603C6.88638 6.13514 6.89594 6.13424 6.90491 6.13334C7.00917 6.0969 7.07908 6.03296 7.14241 5.93527C7.23264 5.79635 7.39128 5.72883 7.55081 5.70015C7.83821 5.64847 8.1283 5.61023 8.32846 5.36465C8.47037 5.19018 8.6792 5.10414 8.84471 4.96074C8.86263 4.9452 8.8946 4.92698 8.91193 4.93296C9.1339 5.01093 9.32869 4.89083 9.53512 4.85498C9.64507 4.83616 9.74246 4.80927 9.80938 4.71277C9.81984 4.69754 9.84523 4.67394 9.84941 4.67633C10.0355 4.79613 10.1733 4.61508 10.3367 4.59865C10.3827 4.59417 10.4135 4.61807 10.4144 4.66079C10.4176 4.87231 10.5195 4.75311 10.5879 4.71009C10.6396 4.67782 10.6805 4.62882 10.7406 4.57385C10.6453 4.51948 10.5601 4.47049 10.4744 4.42239C10.4409 4.40327 10.4078 4.38235 10.4078 4.33874C10.4078 4.28496 10.4475 4.25927 10.492 4.2527C10.6602 4.227 10.795 4.0839 11.0017 4.16546C11.1358 4.21834 11.3028 4.15112 11.3593 3.97067C11.4083 3.81442 11.5577 3.79052 11.6781 3.73048C11.8095 3.66475 11.9622 3.63726 12.0264 3.47235C12.0617 3.38153 12.171 3.38153 12.252 3.35225C12.586 3.22977 12.9206 3.10847 13.2567 2.99106C13.3711 2.95103 13.493 2.96746 13.6119 2.96298C13.6863 2.96029 13.7673 2.97045 13.8201 2.90114C13.8617 2.84706 13.9148 2.79179 13.9743 2.84378C14.0496 2.9095 14.1825 2.92414 14.1879 3.05828C14.1903 3.11445 14.1864 3.17121 14.1855 3.22767C14.4633 3.44666 14.5246 3.82428 14.7893 4.05343C14.8577 4.11288 14.8469 4.18876 14.8018 4.25718C14.7711 4.30318 14.7298 4.34202 14.6919 4.38295C14.6387 4.43942 14.5446 4.47676 14.576 4.57684C14.5885 4.61628 14.6118 4.63988 14.6393 4.65751C14.6638 4.64078 14.6892 4.62524 14.7131 4.60761C14.8051 4.56161 14.8959 4.59895 14.9871 4.6109C15.0367 4.61717 15.1051 4.65392 15.1317 4.61897C15.2198 4.50186 15.3686 4.47885 15.4654 4.39281C15.5628 4.30557 15.6222 4.30348 15.7053 4.38206C15.7683 4.4421 15.8301 4.50006 15.8621 4.58879C15.8971 4.68559 16.0219 4.69336 16.0727 4.60672C16.1083 4.54517 16.1818 4.54786 16.2314 4.49289C16.2093 4.40954 16.0814 4.37578 16.1053 4.26345C16.1199 4.19085 16.177 4.14783 16.2125 4.08958C16.2621 4.00682 16.3443 4.00264 16.4273 4.00204C16.5633 4.00115 16.6888 3.97247 16.7891 3.87238C16.9851 3.82936 17.0933 3.97904 17.2047 4.08569C17.4189 4.29004 17.6343 4.40177 17.9334 4.26614C18.0448 4.21565 18.152 4.30348 18.2345 4.37996C18.2922 4.43314 18.2787 4.4908 18.196 4.52277C18.0887 4.56459 17.9841 4.60074 17.8679 4.55175C17.8243 4.53322 17.7765 4.50156 17.7245 4.54517C17.7466 4.62614 17.8273 4.64944 17.8781 4.70082C17.8536 4.73817 17.8297 4.77551 17.8052 4.81286C17.7111 4.83735 17.6068 4.87709 17.6412 4.99151C17.6705 5.0889 17.7843 5.0662 17.8688 5.0653C17.9241 5.06471 17.9833 4.993 18.0317 5.07725C17.8542 5.10444 17.6884 5.18301 17.5017 5.17285C17.4171 5.16837 17.3406 5.15941 17.2713 5.11101C17.2029 5.06291 17.1405 5.05694 17.0646 5.10593C16.9439 5.18271 16.7903 5.13611 16.7219 5.01242C16.7031 4.97986 16.6941 4.94102 16.6723 4.91204C16.6329 4.86125 16.5764 4.85677 16.5179 4.87649C16.4865 4.88725 16.459 4.90965 16.4647 4.94461C16.4817 5.03931 16.5669 4.9455 16.6111 5.00436C16.4937 5.13491 16.5224 5.24037 16.6867 5.31446C16.7536 5.34464 16.7847 5.39154 16.7847 5.47669C16.7847 5.68133 16.8617 5.75124 17.0706 5.75453C17.2776 5.75781 17.4855 5.74676 17.692 5.75602C17.7977 5.7608 17.9247 5.75632 17.9062 5.94005C17.9026 5.97172 18.0451 6.03057 18.1261 6.05627C18.2229 6.08674 18.322 6.11064 18.4179 6.14679C18.4359 6.13125 18.4565 6.11841 18.4861 6.11542C18.5401 6.11482 18.593 6.10855 18.6441 6.13155C18.754 6.15844 18.8251 6.26031 18.936 6.2872C18.9772 6.32365 19.039 6.35352 19.0665 6.30124C19.1609 6.12139 19.2993 6.21072 19.4247 6.23074C19.5305 6.24806 19.6315 6.32126 19.6844 6.13603C19.7112 6.04043 19.8439 6.06344 19.9269 6.11661C19.9771 6.14888 20.0139 6.1919 20.0694 6.13245C20.258 6.13245 20.4375 6.15127 20.5212 6.3598C20.5379 6.39386 20.5531 6.42821 20.5708 6.46167C20.6099 6.53636 20.6278 6.66034 20.7398 6.62599C20.8641 6.58805 21.0514 6.64003 21.0876 6.43508V6.43628C21.2645 6.48169 21.4237 6.59073 21.6146 6.58894C21.5958 6.62121 21.5829 6.65975 21.5563 6.68424C21.4897 6.74609 21.3905 6.79 21.447 6.90861C21.5038 7.03169 21.602 7.10071 21.7386 7.11266C21.8133 7.11893 21.8909 7.11564 21.962 7.13536C22.0881 7.17061 22.2202 7.21094 22.2632 7.35883C22.3193 7.55272 22.4487 7.61097 22.636 7.56975C22.7585 7.52971 22.8747 7.51567 22.988 7.60799C23.0423 7.6525 23.1203 7.64175 23.1887 7.6277C23.4086 7.582 23.5908 7.64653 23.7169 7.82877C23.8021 7.95185 23.8851 7.95813 23.9936 7.87208C24.1848 7.87716 24.3652 7.91391 24.5176 8.03968C24.5863 8.09585 24.6687 8.09286 24.7491 8.09615C24.8208 8.18488 24.9254 8.18309 25.0228 8.18936C25.13 8.19623 25.2155 8.23387 25.2755 8.3241C25.5235 8.42089 25.7702 8.51948 26.0194 8.61389C26.052 8.62644 26.0848 8.63868 26.115 8.65452C26.1296 8.61568 26.1431 8.57654 26.1517 8.53532C26.1715 8.4433 26.2217 8.36981 26.3298 8.38355C26.4371 8.39729 26.4834 8.35427 26.5135 8.25359C26.5416 8.16217 26.6193 8.12513 26.72 8.13051C26.8123 8.13529 26.8649 8.16815 26.8956 8.25867C26.9127 8.30767 26.9533 8.35248 27.0095 8.4185C26.849 8.21804 26.7929 7.99846 26.7027 7.7977C26.6414 7.66027 26.475 7.65011 26.4377 7.5082C26.4009 7.36869 26.4236 7.20497 26.3005 7.09772C26.1688 6.983 26.2369 6.85782 26.2686 6.73354C26.2772 6.69858 26.314 6.6947 26.345 6.68843C26.3513 6.68932 26.3549 6.69261 26.3609 6.6938C26.366 6.66273 26.3316 6.64361 26.2978 6.62509V6.42941C26.4908 6.58864 26.6731 6.7177 26.8275 6.87335C26.9449 6.99106 27.0943 7.05918 27.2132 7.16972C27.319 7.26741 27.253 7.28862 27.1612 7.30445C27.1624 7.3418 27.1642 7.37914 27.166 7.41619C27.1508 7.45771 27.1349 7.49834 27.1221 7.54017C27.0925 7.63398 27.0492 7.67102 26.9659 7.58797C26.9306 7.55302 26.881 7.50522 26.8374 7.54913C26.7908 7.59634 26.8496 7.64085 26.881 7.67521C26.9551 7.75736 27.0952 7.81263 26.9826 7.96141C26.9781 7.96679 26.9868 7.99099 26.9942 7.99398C27.1998 8.07076 27.2231 8.36234 27.4687 8.3952C27.5538 8.40655 27.5825 8.46361 27.5427 8.54816C27.5108 8.61658 27.5138 8.69007 27.5738 8.73847C27.6425 8.79433 27.6461 8.70023 27.6817 8.67782C27.7074 8.66199 27.7342 8.66557 27.7471 8.69007C27.7826 8.75639 27.8322 8.83496 27.7764 8.90009C27.6963 8.9939 27.673 9.07546 27.7432 9.1848C27.7764 9.23679 27.7605 9.27861 27.679 9.27084C27.5523 9.2583 27.5481 9.36256 27.5284 9.44621C27.5015 9.55914 27.5843 9.55048 27.6569 9.57886C27.7495 9.61501 27.7811 9.72196 27.837 9.80292C27.9272 9.93437 27.9272 10.0882 27.9822 10.2263C28.0058 10.2854 27.9992 10.3511 27.9368 10.3948C27.8047 10.4874 27.7728 10.6272 27.7689 10.7751C27.7635 10.9878 27.7145 11.1882 27.8107 11.4144C27.8917 11.6062 28.0432 11.6271 28.1707 11.6973C28.4094 11.8291 28.4934 11.9468 28.427 12.2088C28.4014 12.3107 28.4002 12.4 28.4303 12.4998C28.474 12.6447 28.5525 12.7875 28.4683 12.9479C28.445 12.9933 28.4871 13.0429 28.5262 13.0773C28.7124 13.2374 28.713 13.4328 28.6347 13.6437C28.6254 13.6592 28.6132 13.6715 28.5958 13.6792Z" fill="white"/>
<path d="M10.2214 17.4683C10.2406 17.4597 10.2603 17.4432 10.2797 17.4139C10.2961 17.3897 10.3158 17.3718 10.3368 17.3602C10.3293 17.362 10.3221 17.3614 10.3149 17.3641C10.2824 17.3766 10.2489 17.4175 10.2214 17.4683Z" fill="white"/>
<path d="M10.3369 17.3605C10.4011 17.3476 10.4582 17.3796 10.4961 17.4322C10.515 17.4585 10.5353 17.4758 10.5568 17.4898C10.5395 17.4722 10.523 17.4507 10.5084 17.4175C10.4767 17.3452 10.4008 17.3246 10.3369 17.3605Z" fill="white"/>
<path d="M10.6674 17.517C10.6246 17.5191 10.5885 17.5104 10.5571 17.4898C10.5909 17.5236 10.6285 17.5284 10.6674 17.517Z" fill="white"/>
<path d="M9.99384 16.9255C10.0216 16.8911 10.0127 16.8654 10.0013 16.8406C9.99354 16.9333 9.94007 17.0064 9.83999 17.0647C9.80384 17.0859 9.78203 17.1298 9.76709 17.1803C9.84626 17.1487 9.90661 17.1313 9.9317 17.1869C9.92842 17.0949 9.93111 17.0041 9.99384 16.9255Z" fill="white"/>
<path d="M10.0315 17.431C9.97651 17.4247 9.95261 17.3954 9.94215 17.3527C9.94155 17.4611 9.96067 17.5753 10.1124 17.6153C10.1561 17.6264 10.1528 17.6963 10.1567 17.7031C10.1456 17.6601 10.1758 17.5514 10.2215 17.4683C10.1576 17.4976 10.0942 17.439 10.0315 17.431Z" fill="white"/>
<path d="M9.93164 17.1869C9.93254 17.2189 9.93403 17.2517 9.93433 17.2837C9.93463 17.3106 9.93762 17.3327 9.9421 17.3524C9.9424 17.3303 9.94329 17.3082 9.94389 17.287C9.94628 17.2404 9.9409 17.2087 9.93164 17.1869Z" fill="white"/>
<path d="M16.5 0.500061C7.67783 0.500061 0.5 7.67759 0.5 16.5004C0.5 25.3228 7.67783 32.5004 16.5 32.5004C25.3222 32.5004 32.5 25.3231 32.5 16.5004C32.5 7.67759 25.3222 0.500061 16.5 0.500061ZM16.5 32.276C7.80122 32.276 0.724065 25.1991 0.724065 16.5001C0.724065 7.80098 7.80122 0.724126 16.5 0.724126C25.1991 0.724126 32.2759 7.80128 32.2759 16.5004C32.2759 25.1991 25.1991 32.276 16.5 32.276Z" fill="white"/>
</g>
<defs>
<clipPath id="clip0_0_722">
<rect width="32" height="32" fill="white" transform="translate(0.5 0.500061)"/>
</clipPath>
</defs>
</svg>
