<svg width="24" height="24" viewBox="0 0 24 24" fill="none" xmlns="http://www.w3.org/2000/svg">
<g clip-path="url(#clip0_211_5438)">
<path d="M11.5896 7.56062C11.5349 7.54696 11.4894 7.52432 11.4543 7.48041C11.513 7.52522 11.5056 7.56533 11.4495 7.61171C11.4063 7.64778 11.3628 7.69641 11.3971 7.75758C11.4357 7.82681 11.5069 7.82524 11.5721 7.80597C11.6328 7.78827 11.7314 7.78178 11.7319 7.71702C11.7328 7.65092 11.67 7.58079 11.5896 7.56062Z" fill="white" fill-opacity="0.2"/>
<path d="M9.94293 13.9467C9.93173 13.8866 9.91963 13.8282 9.89633 13.7605C9.86429 13.89 9.65434 13.9364 9.71506 14.0661C9.76189 14.1663 9.72918 14.3135 9.8504 14.3787C9.87392 14.3052 9.951 14.2723 10.0028 14.2404C10.0541 14.208 10.124 14.3119 10.2067 14.3186C10.2521 14.3222 10.2306 14.3785 10.225 14.4145C10.2179 14.4603 10.2138 14.5069 10.2085 14.553C10.2667 14.6323 10.3579 14.6393 10.4413 14.6628C10.4798 14.6444 10.5141 14.6182 10.5593 14.6435C10.6364 14.7022 10.6203 14.7793 10.603 14.8571C10.6008 14.8633 10.5983 14.8694 10.5961 14.8754C10.5981 14.8707 10.6008 14.8672 10.6026 14.8622C10.6443 14.8246 10.6743 14.8595 10.7077 14.8761C10.7532 14.7603 10.7789 14.6375 10.8307 14.5241C10.7489 14.4573 10.6976 14.365 10.6429 14.2788C10.5782 14.1777 10.4897 14.1436 10.3825 14.1396C10.2665 14.1356 10.1681 14.0997 10.0933 14.0144C10.0059 14.076 9.96019 14.039 9.94293 13.9467Z" fill="white" fill-opacity="0.2"/>
<path d="M10.3707 16.5526C10.3593 16.5479 10.3474 16.5449 10.3364 16.5411C10.3266 16.5425 10.3174 16.5458 10.3073 16.5465C10.2748 16.5519 10.2444 16.5626 10.2168 16.5806C10.2177 16.5898 10.2199 16.5985 10.2204 16.6081C10.2217 16.6536 10.2448 16.6904 10.2869 16.7074C10.3488 16.7318 10.4256 16.7901 10.4709 16.7018C10.5139 16.6178 10.4404 16.5781 10.3707 16.5526Z" fill="white" fill-opacity="0.2"/>
<path d="M8.63672 12.9406C8.63851 12.9415 8.63986 12.9428 8.6412 12.9437C8.6468 12.9466 8.64949 12.9471 8.65039 12.9433C8.65083 12.9424 8.65084 12.9428 8.65128 12.9419C8.64882 12.9419 8.64658 12.9419 8.64187 12.939C8.6403 12.9397 8.63851 12.9397 8.63672 12.9406Z" fill="white" fill-opacity="0.2"/>
<path d="M8.22652 12.8102C8.21509 12.8156 8.20411 12.8189 8.19336 12.8216C8.19784 12.8221 8.20143 12.8216 8.20613 12.8225C8.2794 12.8326 8.3623 12.8492 8.4163 12.8951C8.48957 12.9572 8.55926 12.9675 8.63656 12.9406C8.61639 12.929 8.59578 12.9166 8.58054 12.8996C8.48263 12.7896 8.37754 12.7363 8.22652 12.8102Z" fill="white" fill-opacity="0.2"/>
<path d="M9.96876 7.71273C9.97705 7.70108 9.984 7.69055 9.98198 7.68808C9.85942 7.54244 10.0427 7.31434 9.84553 7.18842C9.78032 7.14697 9.81057 7.12299 9.86636 7.09364C9.91588 7.06765 10.034 7.09207 10.0075 7.02418C9.97212 6.93366 9.98422 6.80549 9.87757 6.75373C9.79197 6.7125 9.69944 6.61168 9.61228 6.77681C9.58651 6.82543 9.45789 6.79944 9.41667 6.88593C9.40345 7.01477 9.32211 7.10417 9.24481 7.19559C9.2475 7.20007 9.25063 7.20276 9.2531 7.20769C9.27349 7.27535 9.24347 7.33809 9.22913 7.40038C9.21232 7.4741 9.1563 7.50592 9.07923 7.49628C8.92798 7.47768 8.86659 7.54714 8.90446 7.69704C8.91431 7.73715 8.94098 7.77435 8.90423 7.81311C8.97459 7.84 9.03957 7.84358 9.07676 7.73469C9.11844 7.70309 9.16482 7.68763 9.2168 7.69144C9.34653 7.75261 9.22868 7.8084 9.21299 7.86644C9.20537 7.86957 9.19753 7.87249 9.18969 7.87562C9.13479 7.89086 9.10186 7.9182 9.07967 7.95158C9.09625 8.01454 9.09289 8.08221 9.09133 8.14898C9.09155 8.14853 9.09155 8.14831 9.09177 8.14786C9.11642 8.02799 9.21098 7.9657 9.32973 7.98161C9.4216 7.99393 9.47716 8.09319 9.46506 8.21867C9.45745 8.29619 9.46462 8.37708 9.38238 8.43982C9.48837 8.44945 9.46462 8.37215 9.46417 8.34168C9.46282 8.24062 9.48187 8.14921 9.54371 8.07011C9.5753 8.03023 9.57262 7.99729 9.55021 7.95472C9.49823 7.85591 9.5175 7.76337 9.61698 7.73245C9.72969 7.69749 9.8509 7.63699 9.96876 7.71273Z" fill="white" fill-opacity="0.2"/>
<path d="M7.86035 11.291C7.8897 11.2836 7.91637 11.2749 7.93653 11.2675C7.91771 11.2749 7.88791 11.2798 7.86035 11.291Z" fill="white" fill-opacity="0.2"/>
<path d="M10.6067 13.0591C10.6055 13.0544 10.6053 13.0493 10.6049 13.0448C10.6044 13.0457 10.604 13.0457 10.604 13.047C10.6033 13.0549 10.6028 13.058 10.6067 13.0591Z" fill="white" fill-opacity="0.2"/>
<path d="M10.6094 13.0601C10.6073 13.0603 10.6073 13.0592 10.6064 13.059C10.6071 13.0628 10.6064 13.067 10.6078 13.0706C10.6051 13.0807 10.6282 13.059 10.6094 13.0601Z" fill="white" fill-opacity="0.2"/>
<path d="M4.15891 5.33765C4.14726 5.34302 4.13584 5.34907 4.12598 5.35781L4.12642 5.35804C4.13584 5.34907 4.14726 5.34325 4.15891 5.33765Z" fill="white" fill-opacity="0.2"/>
<path d="M12.3669 6.81293C12.3434 6.82548 12.304 6.85169 12.2715 6.83131C12.271 6.83175 12.2701 6.8322 12.2697 6.83287C12.2609 6.83713 12.2518 6.83825 12.243 6.83982C12.2374 6.91712 12.2383 6.98994 12.3468 7.01929C12.3788 7.02781 12.4299 7.06612 12.4418 7.0491C12.4987 6.96709 12.6067 7.00271 12.6676 6.9402C12.6882 6.91891 12.6813 6.89225 12.6553 6.88374C12.5616 6.85259 12.4877 6.75064 12.3669 6.81293Z" fill="white" fill-opacity="0.2"/>
<path d="M10.0137 2.35739C10.0359 2.33476 10.0609 2.3137 10.0907 2.2951C10.0513 2.31169 10.0278 2.33297 10.0137 2.35739Z" fill="white" fill-opacity="0.2"/>
<path d="M10.5889 14.8916C10.5909 14.886 10.5936 14.881 10.5957 14.8754C10.593 14.881 10.5901 14.886 10.5869 14.8913C10.5878 14.8913 10.5883 14.8916 10.5889 14.8916Z" fill="white" fill-opacity="0.2"/>
<path d="M7.11302 12.2216C7.11526 12.2334 7.12086 12.2444 7.12602 12.2552C7.12848 12.2249 7.12534 12.1927 7.11302 12.1564C7.11302 12.1783 7.10921 12.1987 7.11302 12.2216Z" fill="white" fill-opacity="0.2"/>
<path d="M7.35774 11.8893C7.44177 11.8846 7.46977 11.862 7.47022 11.7867C7.50921 11.6953 7.5659 11.611 7.57867 11.5095C7.66718 11.4679 7.75456 11.4295 7.80632 11.3341C7.8182 11.3119 7.83881 11.2998 7.86009 11.2911C7.83702 11.2969 7.81282 11.302 7.78705 11.3034C7.71221 11.3072 7.68017 11.2413 7.63693 11.1994C7.59928 11.1633 7.5547 11.1486 7.51055 11.1445C7.45454 11.1396 7.42205 11.1129 7.40995 11.0654C7.39628 11.0146 7.42138 10.9774 7.46731 10.9491C7.52288 10.9153 7.58898 10.8752 7.56836 10.7997C7.55873 10.7638 7.51369 10.7376 7.54125 10.6906C7.52758 10.756 7.48389 10.7688 7.42429 10.7625C7.38217 10.758 7.35976 10.7271 7.32906 10.7065C7.22577 10.6366 7.07565 10.659 6.99745 10.7542C6.8359 10.9507 6.69899 10.9949 6.46036 10.9196C6.38239 10.8951 6.30397 10.886 6.22375 10.8889C6.22778 10.8965 6.23249 10.9034 6.23294 10.9135C6.23518 10.9252 6.23339 10.933 6.23383 10.9431C6.35393 10.9897 6.31607 11.132 6.37119 11.2315C6.46933 11.1376 6.56231 11.1479 6.65709 11.2422C6.69137 11.2761 6.75008 11.2852 6.79736 11.3061C6.83971 11.3249 6.89505 11.3374 6.89326 11.3955C6.89146 11.4434 6.84239 11.4623 6.8043 11.4768C6.75075 11.497 6.70863 11.467 6.68981 11.4204C6.66045 11.3478 6.62281 11.3068 6.5417 11.3464C6.52579 11.3543 6.50092 11.3661 6.49958 11.3785C6.49487 11.421 6.52602 11.4815 6.44826 11.4829C6.375 11.4842 6.29276 11.5122 6.23092 11.4528C6.15967 11.3843 6.06153 11.3834 5.96182 11.3171C5.98109 11.3648 5.99028 11.3854 5.99767 11.4065C6.01604 11.4569 6.13009 11.4912 6.03173 11.5608C5.95174 11.6175 5.83254 11.5803 5.78772 11.4947C5.78347 11.4865 5.77966 11.4775 5.77742 11.4685C5.75904 11.3879 5.76778 11.2684 5.67009 11.2599C5.63401 11.2568 5.60421 11.2707 5.57688 11.2899C5.5724 11.3115 5.5715 11.3368 5.57329 11.3659C5.57553 11.3944 5.54865 11.4154 5.53879 11.4416C5.51481 11.5066 5.5305 11.5508 5.60175 11.5703C5.66068 11.5864 5.71781 11.6086 5.7745 11.6299C5.87219 11.6659 5.88385 11.739 5.8052 11.8096C5.77114 11.8405 5.73036 11.8647 5.70684 11.9095C5.88541 11.9102 5.88653 11.9102 5.89684 12.099C5.90087 12.1775 5.94726 12.2171 6.01336 12.2413C6.07721 12.2646 6.13771 12.294 6.19619 12.3271C6.19059 12.1909 6.24302 12.1712 6.42093 12.1858C6.60937 12.2014 6.80834 12.2386 6.96563 12.076C6.99386 12.0466 7.03487 12.0195 7.0799 12.0374C7.1348 12.0589 7.09828 12.1123 7.11172 12.1481C7.11284 12.1512 7.11239 12.1533 7.11329 12.1564C7.11486 12.011 7.20291 11.8978 7.35774 11.8893Z" fill="white" fill-opacity="0.2"/>
<path d="M5.62032 14.2247C5.61337 14.2053 5.61046 14.1846 5.60508 14.1649C5.59971 14.1584 5.59298 14.1537 5.59074 14.1425C5.53204 13.8822 5.45698 13.6252 5.42762 13.3594C5.4218 13.3077 5.4088 13.2581 5.3799 13.2135C5.30685 13.102 5.24927 13.1002 5.18295 13.2167C5.13343 13.3038 5.08301 13.3204 5.00885 13.2474C4.97725 13.2162 4.92258 13.1889 4.89435 13.2153C4.8222 13.2841 4.73706 13.2714 4.65527 13.2756C4.68059 13.365 4.68799 13.4578 4.67409 13.5481C4.65281 13.683 4.70322 13.7988 4.74848 13.9169C4.78613 14.0148 4.86836 14.0419 4.96784 14.0296C5.01198 14.0244 5.06934 13.9846 5.08794 14.0636C5.14822 13.9608 5.23291 13.9937 5.30125 14.0403C5.3864 14.099 5.46639 14.1625 5.56161 14.2068C5.60934 14.229 5.65034 14.2696 5.6546 14.3323C5.65595 14.3525 5.66043 14.3666 5.6667 14.378C5.66737 14.376 5.66782 14.3742 5.66849 14.3726C5.66244 14.3587 5.65796 14.3424 5.65572 14.3206C5.65236 14.2877 5.636 14.2548 5.62032 14.2247Z" fill="white" fill-opacity="0.2"/>
<path d="M5.08968 14.067C5.08946 14.0652 5.08834 14.0652 5.08811 14.0634H5.08789C5.08924 14.0641 5.08991 14.0674 5.08968 14.067Z" fill="white" fill-opacity="0.2"/>
<path d="M7.69311 12.7249C7.67093 12.7446 7.64785 12.756 7.625 12.7627C7.63239 12.7623 7.63912 12.7629 7.64718 12.7618C7.73412 12.7502 7.78722 12.7981 7.81658 12.8786C7.84391 12.953 7.85579 13.0347 7.91404 13.0952C7.89208 12.9409 7.97409 12.8351 8.11794 12.8212C8.05498 12.8062 7.9974 12.7594 7.94407 12.7262C7.8522 12.6688 7.78409 12.6458 7.69311 12.7249Z" fill="white" fill-opacity="0.2"/>
<path d="M11.9997 0.236389C5.51327 0.236389 0.236328 5.51356 0.236328 12C0.236328 18.4864 5.51327 23.7634 11.9997 23.7634C18.4864 23.7634 23.7636 18.4864 23.7636 12C23.7638 5.51356 18.4864 0.236389 11.9997 0.236389ZM19.1073 4.99395C19.1689 5.01412 19.2341 5.02442 19.2885 5.06857C19.3766 5.13982 19.3869 5.18934 19.261 5.21734C19.2413 5.19852 19.222 5.1797 19.2023 5.1611C19.1711 5.12481 19.133 5.11741 19.0871 5.12481C19.0293 5.13422 19.0096 5.10061 19.0158 5.0493C19.0219 4.99373 19.0584 4.97804 19.1073 4.99395ZM16.4194 3.45754C16.4689 3.43491 16.4631 3.39279 16.4676 3.35021C16.4855 3.15841 16.6031 3.01457 16.7559 2.93547C16.84 2.89178 16.9603 2.99037 17.0378 3.0726C17.0667 3.10285 17.0855 3.14228 17.1091 3.17746C17.1393 3.16536 17.1691 3.15124 17.2005 3.14183C17.2565 3.12481 17.2892 3.09949 17.2368 3.04504C17.2132 3.02062 17.1834 2.99843 17.2041 2.96236C17.2271 2.92449 17.2697 2.93054 17.3065 2.93502C17.3336 2.93816 17.362 2.94735 17.3856 2.96124C17.4718 3.0121 17.5444 3.08246 17.6605 3.07842C17.7028 3.07708 17.7813 3.1071 17.7689 3.20659C17.7584 3.28927 17.902 3.28299 17.9076 3.37486L17.9081 3.37509C18.0067 3.36567 18.0669 3.42976 18.1283 3.49115C18.1592 3.51423 18.1953 3.53327 18.2287 3.53865C18.3083 3.55165 18.3537 3.59131 18.3853 3.66413C18.4102 3.71992 18.4501 3.76384 18.52 3.78535C18.6179 3.81515 18.6484 3.90724 18.6255 3.99552C18.6022 4.08537 18.6246 4.14699 18.6802 4.21241C18.8176 4.37374 18.8014 4.68362 18.6455 4.82456C18.5908 4.87363 18.559 4.94914 18.4819 4.97356C18.4676 4.97087 18.453 4.97267 18.4387 4.97177C18.3831 5.01703 18.306 4.97647 18.2426 4.99059C18.239 4.98768 18.2357 4.98656 18.2321 4.98387C18.1624 4.99328 18.0929 4.99955 18.0228 4.98544C18.0264 4.99776 18.0259 5.01076 18.0132 5.02622C17.9939 5.04974 17.9603 5.05893 17.937 5.04392C17.8088 4.959 17.6289 4.96729 17.5361 4.82008L17.5357 4.81985C17.4001 4.79229 17.2964 4.69393 17.1673 4.65091C17.1586 4.65024 17.1498 4.64979 17.1411 4.64912C17.0842 4.62335 17.0356 4.5819 16.9751 4.56151C16.9462 4.5521 16.9143 4.51423 16.9341 4.48734C17.0486 4.33767 16.9007 4.31504 16.827 4.25543C16.8178 4.25521 16.809 4.25454 16.7998 4.25364C16.7848 4.21622 16.7705 4.1788 16.8005 4.14139C16.7999 4.1322 16.799 4.12301 16.799 4.11405C16.799 4.11405 16.799 4.11405 16.7985 4.11405C16.6842 4.15976 16.6697 4.03406 16.6016 4C16.4729 3.88662 16.3477 3.77347 16.3647 3.57562C16.3701 3.52454 16.3687 3.48084 16.4194 3.45754ZM15.1498 3.61147C15.1743 3.54425 15.2379 3.54761 15.2944 3.56285C15.367 3.58234 15.4091 3.62693 15.3968 3.66861C15.3605 3.80394 15.455 3.84697 15.4776 3.92203C15.4904 3.96505 15.5372 4.00448 15.4938 4.05019C15.4534 4.09232 15.4167 4.06027 15.3826 4.03406C15.345 4.00515 15.2968 4.03204 15.2596 4.01367C15.2081 3.98813 15.0869 3.98544 15.2063 3.88506C15.2545 3.84428 15.22 3.8147 15.1834 3.80058C15.0678 3.7542 15.1268 3.676 15.1498 3.61147ZM2.78237 18.1882C2.70283 18.1761 2.68513 18.095 2.6625 18.0316C2.65018 17.9975 2.66407 17.9449 2.71336 17.9498C2.79537 17.9577 2.82719 18.0224 2.84422 18.0907C2.84197 18.1394 2.83368 18.1954 2.78237 18.1882ZM3.69454 18.6034C3.61903 18.6668 3.54352 18.6236 3.47787 18.5736C3.21795 18.3767 3.11713 18.1172 3.17695 17.803C3.47204 17.8826 3.61522 18.1134 3.72949 18.3711C3.76714 18.4555 3.76826 18.5416 3.69454 18.6034ZM8.26904 21.2212C8.21863 21.2162 8.15253 21.207 8.15925 21.145C8.1653 21.0856 8.23924 21.0937 8.28607 21.0836C8.3329 21.0739 8.37413 21.0977 8.37278 21.1492C8.37099 21.2095 8.31789 21.2149 8.26904 21.2212ZM9.98179 21.9653C9.95333 21.9465 9.92488 21.9276 9.89642 21.9084C9.87088 21.8721 9.83234 21.855 9.79403 21.8367C9.7277 21.8042 9.71471 21.7466 9.73106 21.6823C9.74809 21.6166 9.80949 21.6249 9.85811 21.6191C9.88992 21.6144 9.92353 21.6258 9.9558 21.6227C10.1478 21.6025 10.1931 21.6274 10.2038 21.7643C10.2144 21.8933 10.1503 21.9523 9.98179 21.9653ZM10.4586 20.4047C10.4297 20.423 10.4147 20.4336 10.4331 20.4654V20.4663C10.2576 20.5736 10.0759 20.6471 9.86841 20.5595C9.82517 20.5411 9.77924 20.503 9.73577 20.5263C9.6029 20.596 9.55405 20.5115 9.5191 20.4125C9.48549 20.3179 9.39922 20.2581 9.35732 20.1622C9.4595 20.1302 9.54195 20.2229 9.59909 20.2147C9.72793 20.1958 9.87939 20.2187 9.98672 20.1165C10.0613 20.0455 10.0936 20.0271 10.1196 20.1542C10.1494 20.3005 10.2975 20.3585 10.434 20.2955C10.4431 20.296 10.4526 20.296 10.4617 20.296C10.5126 20.3341 10.5036 20.3762 10.4586 20.4047ZM11.462 18.9023C11.4033 18.901 11.3614 18.8756 11.3623 18.8109C11.3631 18.7632 11.3916 18.7278 11.4402 18.7296C11.505 18.7313 11.5294 18.786 11.5549 18.8329C11.5446 18.8893 11.507 18.9032 11.462 18.9023ZM21.0716 9.88438C20.9854 9.87654 20.9901 9.77818 20.9312 9.74143C20.9101 9.7616 20.9056 9.79162 20.9202 9.80574C21.1023 9.97513 21.084 10.1954 21.0396 10.3991C21.0004 10.5792 20.8435 10.6807 20.6708 10.7426C20.6166 10.7361 20.6009 10.6968 20.604 10.6527C20.6137 10.5223 20.5307 10.4582 20.4328 10.4022C20.2173 10.2787 20.2054 10.2438 20.2825 10.0054C20.3083 9.92539 20.3414 9.84697 20.3515 9.76227C20.3564 9.7197 20.3681 9.67735 20.4149 9.66234C20.4705 9.64441 20.485 9.69863 20.5157 9.72418C20.5153 9.72171 20.5182 9.72037 20.5144 9.71768C20.4317 9.65606 20.4911 9.57652 20.4877 9.50504C20.4868 9.48577 20.485 9.46673 20.4841 9.44746C20.5209 9.37957 20.5236 9.311 20.4644 9.25723C20.4221 9.21802 20.4411 9.17186 20.4317 9.12906C20.4313 9.12369 20.4295 9.1201 20.429 9.11517C20.3752 9.10957 20.3217 9.10464 20.2697 9.09276C20.2325 9.08425 20.2005 9.06857 20.177 9.04437C20.1651 9.04459 20.1532 9.04571 20.1411 9.04862C20.1301 9.05535 20.1187 9.0596 20.1073 9.06386C20.0898 9.0614 20.0768 9.06655 20.0647 9.07215C20.0535 9.12436 20.0508 9.17813 20.0526 9.2328C20.0067 9.22339 19.9802 9.19494 19.9603 9.15909C19.9527 9.16334 19.9462 9.16939 19.937 9.17051C19.8158 9.15192 19.7299 9.17051 19.7185 9.3231C19.7125 9.40578 19.6455 9.43581 19.5778 9.3706C19.4508 9.24737 19.3042 9.17567 19.1256 9.175C19.0873 9.175 19.071 9.14228 19.0501 9.11696C18.9894 9.04818 18.9459 8.9767 19.008 8.88595C19.0172 8.87228 19.0284 8.85996 19.0389 8.84741C19.0284 8.82568 19.0176 8.80417 19.0044 8.7849C18.9531 8.71208 18.8863 8.70715 18.8303 8.7728C18.7862 8.82501 18.7765 8.9395 18.6876 8.90679C18.6018 8.87497 18.6105 8.76787 18.6123 8.68295C18.6128 8.66883 18.6137 8.65494 18.6141 8.64105C18.628 8.60005 18.6665 8.59825 18.7013 8.58952C18.699 8.58795 18.6961 8.58839 18.6943 8.5866C18.6921 8.57898 18.6925 8.57137 18.6907 8.56352C18.5998 8.60027 18.4785 8.57517 18.4138 8.49653C18.4156 8.45284 18.3992 8.41407 18.3779 8.37733C18.3504 8.32915 18.3078 8.28143 18.36 8.22631C18.4124 8.17074 18.4785 8.13354 18.5556 8.12727C18.6224 8.12189 18.6141 8.1862 18.632 8.22675C18.6493 8.18732 18.658 8.1555 18.6614 8.12749C18.6228 8.00896 18.5585 7.98297 18.3938 8.01232C18.289 7.95183 18.1944 7.87632 18.0618 7.87453C17.9726 7.87341 17.9843 7.78781 17.9746 7.72395C17.9529 7.57719 17.9332 7.42976 17.8978 7.28524C17.8964 7.33162 17.8937 7.37777 17.8859 7.42348C17.878 7.4665 17.8812 7.51266 17.8182 7.53081C17.7582 7.54806 17.7329 7.51916 17.7031 7.48286C17.6961 7.46269 17.6903 7.44186 17.682 7.42326C17.6291 7.42326 17.5756 7.42281 17.5222 7.42438C17.4947 7.42528 17.4492 7.42684 17.4429 7.44118C17.401 7.53977 17.3551 7.55792 17.2735 7.47681C17.239 7.44253 17.2189 7.49406 17.2032 7.51893C17.1545 7.59579 17.1077 7.63635 17.0383 7.53664C17.0107 7.4972 16.9603 7.486 16.913 7.47793C16.9038 7.47726 16.8946 7.47681 16.8854 7.47681C16.805 7.55299 16.7122 7.58593 16.6018 7.56106C16.4552 7.54112 16.47 7.64553 16.5213 7.70356C16.621 7.81784 16.5283 7.97558 16.6293 8.08111C16.6316 8.08358 16.6307 8.09164 16.6284 8.09478C16.4579 8.32445 16.6977 8.49272 16.7174 8.69371C16.7443 8.70356 16.7714 8.71365 16.7985 8.72373C16.8854 8.77414 16.939 8.8454 16.9464 8.94936C16.9482 8.97648 16.956 9.01233 16.9744 9.02734C17.1456 9.16559 17.1158 9.39413 17.2186 9.56263C17.2417 9.59982 17.2379 9.66973 17.3074 9.64015C17.3596 9.61775 17.3421 9.57114 17.3165 9.53283C17.2995 9.50684 17.2903 9.48017 17.3208 9.45889C17.3537 9.43558 17.3755 9.46695 17.3909 9.48555C17.5319 9.65046 17.6865 9.63769 17.8749 9.56151C17.9652 9.52476 18.0768 9.42841 18.1949 9.52969C18.2132 9.54537 18.2363 9.51893 18.2522 9.50101C18.2776 9.473 18.2639 9.39637 18.3226 9.41699C18.3726 9.43424 18.3506 9.49944 18.3551 9.54425C18.3551 9.54694 18.3551 9.54963 18.3551 9.55232C18.3638 9.55232 18.3726 9.55232 18.3813 9.5521C18.4523 9.57652 18.5339 9.57092 18.5971 9.61909C18.6024 9.62693 18.604 9.63612 18.6058 9.64531C18.6141 9.6406 18.6224 9.63657 18.6311 9.63254C18.6614 9.60274 18.7073 9.59624 18.7432 9.57518C18.7844 9.57092 18.833 9.56442 18.8344 9.6238C18.8357 9.68676 18.8615 9.73583 18.8996 9.78019C18.9354 9.82187 18.9213 9.86399 18.8928 9.892C18.8272 9.95676 18.8662 9.99014 18.9213 10.0244C19.0392 10.143 19.0324 10.3285 19.148 10.4484C19.1505 10.5122 19.1756 10.5696 19.2182 10.6126C19.3148 10.7103 19.3161 10.8555 19.4033 10.9597C19.4422 11.0056 19.3862 11.0547 19.334 11.0724C19.2758 11.0921 19.2155 11.0923 19.1554 11.0713C19.1227 11.0596 19.0858 11.0132 19.0562 11.0486C19.0226 11.0885 19.0705 11.1232 19.0925 11.1571H19.0916C19.0333 11.2012 19.0967 11.2855 19.0351 11.3285L19.0349 11.3287C18.9959 11.363 18.9482 11.3805 18.9061 11.3473C18.8243 11.2834 18.7264 11.2841 18.6379 11.2924C18.5014 11.305 18.3941 11.2126 18.2646 11.2126C18.2493 11.2126 18.2361 11.2014 18.2301 11.1914C18.1395 11.0439 17.9858 10.9698 17.8612 10.8624C17.786 10.7977 17.7452 10.683 17.7781 10.5499C17.8205 10.3798 17.8547 10.2046 17.8668 10.0282C17.8543 10.0143 17.8435 9.99933 17.8263 9.99059C17.7864 9.95989 17.7396 9.95743 17.6923 9.95541C17.6612 9.95407 17.6372 9.94354 17.6157 9.93009C17.5863 9.92046 17.557 9.90814 17.5272 9.8929C17.3849 9.81985 17.3448 9.85077 17.3365 10.0099C17.3347 10.0426 17.3347 10.076 17.3302 10.1084C17.3219 10.1692 17.2912 10.2207 17.2305 10.2317C17.1662 10.2431 17.1433 10.1833 17.1245 10.1369C17.0698 10.0034 16.9784 9.92203 16.831 9.90477C16.8001 9.90097 16.7667 9.88483 16.7423 9.86444C16.6582 9.79364 16.5872 9.85122 16.5803 9.91463C16.5659 10.0533 16.3943 10.0108 16.3663 10.1268C16.3618 10.1463 16.3154 10.1111 16.3212 10.0822C16.3374 9.99776 16.3076 9.93637 16.2419 9.8855C16.2292 9.87565 16.2171 9.84965 16.2213 9.83688C16.2733 9.67824 16.1232 9.70715 16.0577 9.66727C15.9802 9.62021 15.9029 9.63679 15.8565 9.73628C15.8254 9.676 15.8433 9.62402 15.8373 9.57405C15.7799 9.51849 15.8189 9.45754 15.842 9.40959C15.8599 9.37105 15.87 9.34842 15.8377 9.31885C15.8368 9.30943 15.8364 9.30025 15.8355 9.29129C15.9256 9.24513 16.0262 9.29017 16.1178 9.26104C16.1182 9.25252 16.1189 9.24423 16.1189 9.23594C16.0394 9.19516 15.9903 9.11876 15.9213 9.0652C15.9126 9.06453 15.9038 9.06386 15.8953 9.06341C15.8314 9.00269 15.7786 8.93278 15.7315 8.85906C15.7315 8.90769 15.6759 8.93233 15.624 8.95138C15.5413 8.98118 15.4604 8.9991 15.3934 9.06901C15.3434 9.12144 15.2699 9.08604 15.2126 9.05109C15.0748 8.96617 14.9964 8.9776 14.8751 9.09142C14.8357 9.12861 14.8007 9.18082 14.7342 9.17791C14.539 9.18732 14.539 9.18732 14.5399 9.00045C14.5399 8.96191 14.5166 8.89872 14.49 8.9283C14.3952 9.03182 14.3567 8.92292 14.2984 8.89357C14.2652 8.87677 14.2341 8.8557 14.202 8.83643C14.1312 8.84114 14.0528 8.81985 14.0013 8.8929C13.9159 9.03652 13.9164 9.03608 13.8099 8.89424C13.7938 8.87273 13.7727 8.84943 13.7488 8.84002C13.6547 8.80327 13.6437 8.75375 13.7161 8.68452C13.7497 8.65225 13.7804 8.5987 13.7279 8.581C13.5558 8.52274 13.5536 8.28972 13.3589 8.24804C13.2753 8.23012 13.3497 8.1369 13.3643 8.07932C13.2036 8.07618 13.0586 8.01188 12.9034 8.03496C12.8592 8.04145 12.8426 8.00471 12.8386 7.96034C12.8285 7.84719 12.9258 7.80014 12.9829 7.73135C13.0035 7.70603 13.0539 7.73986 13.0627 7.78288C13.0723 7.82994 13.0967 7.83554 13.133 7.81649C13.1536 7.80596 13.1826 7.79431 13.1877 7.77728C13.2009 7.73426 13.1566 7.72888 13.1312 7.70984C13.0591 7.65494 12.9504 7.63231 12.9269 7.53238C12.9224 7.53059 12.9182 7.52902 12.9141 7.52745C12.9011 7.52566 12.8888 7.52431 12.8756 7.52297C12.8534 7.50572 12.8375 7.48779 12.8245 7.46919C12.8104 7.46314 12.7978 7.45351 12.7918 7.43267C12.7777 7.38226 12.8111 7.34596 12.8469 7.31504C12.8565 7.30675 12.8666 7.29868 12.8763 7.29039C12.8828 7.26888 12.8881 7.24692 12.8933 7.22496C12.7703 7.28008 12.684 7.37374 12.6298 7.50258C12.6179 7.53059 12.5877 7.54627 12.5563 7.53036C12.5995 7.56532 12.6421 7.60699 12.6876 7.64486C12.7091 7.66278 12.7313 7.68273 12.7432 7.70827C12.7611 7.74591 12.8115 7.8082 12.7698 7.82344C12.6302 7.87453 12.7367 8.09635 12.5664 8.10509C12.47 8.11002 12.4452 8.14385 12.4806 8.22631C12.5068 8.28748 12.4924 8.35021 12.4949 8.41206C12.5088 8.41206 12.5234 8.41497 12.5366 8.42304C12.6145 8.47143 12.6954 8.52566 12.701 8.63209C12.7062 8.72821 12.6683 8.79028 12.5715 8.83016C12.4149 8.89514 12.3313 9.02846 12.2892 9.18934C12.2861 9.19023 12.2836 9.18956 12.2805 9.18978C12.3567 9.37038 12.1675 9.62917 11.9724 9.58369C11.9211 9.57181 11.8695 9.57607 11.818 9.58302C11.6363 9.60766 11.572 9.76182 11.6824 9.91038C11.732 9.97692 11.8005 10.0137 11.8772 10.0439C12.0219 10.1011 12.0342 10.1486 11.9497 10.2785C11.9025 10.3516 11.9291 10.41 12.0194 10.4495C12.0627 10.4683 12.1109 10.4806 12.1384 10.5324C12.1523 10.5573 12.1778 10.5835 12.1554 10.6007C12.0934 10.6489 12.032 10.6948 11.9764 10.7526C11.9428 10.788 11.8937 10.762 11.8496 10.7457C11.8496 10.7466 11.8496 10.7475 11.8496 10.7484C11.8509 10.7656 11.8482 10.7822 11.8482 10.7992C11.8772 10.8739 11.9143 10.8642 12.0737 10.8201C12.0878 10.8553 12.12 10.8725 12.1472 10.8942C12.2233 10.9545 12.2189 11.0249 12.131 11.1304C12.0871 11.1546 12.0297 11.1595 12.0004 11.2066C11.9769 11.2442 11.9081 11.2572 11.9264 11.3146C11.9435 11.3675 12.0087 11.2913 12.0441 11.3672C11.9394 11.3854 11.8453 11.4324 11.7405 11.4396C11.7217 11.4598 11.7006 11.4793 11.6804 11.4959C11.5917 11.5033 11.4983 11.5741 11.4136 11.4826C11.4127 11.467 11.414 11.4522 11.4145 11.4372C11.3257 11.4208 11.2363 11.4401 11.1472 11.4421C11.1384 11.4596 11.1297 11.477 11.1187 11.4981C11.0412 11.5196 10.9663 11.5449 10.9208 11.6189C10.9135 11.6312 10.9029 11.6482 10.8924 11.6487C10.7178 11.6596 10.5536 11.7865 10.3717 11.7101C10.3712 11.7107 10.371 11.7114 10.3708 11.7121C10.3735 11.7186 10.3764 11.7255 10.3786 11.7311C10.421 11.8382 10.4996 11.8694 10.602 11.853C10.7479 11.8299 10.8411 11.8817 10.8758 12.0287C10.9034 12.1192 10.8841 12.1909 10.8014 12.2483C10.7022 12.3175 10.6275 12.4295 10.4824 12.4067C10.4328 12.3988 10.4304 12.4387 10.4277 12.4741C10.4277 12.5324 10.3759 12.549 10.3419 12.5801C10.2814 12.6032 10.256 12.6585 10.2271 12.7083C10.1671 12.8134 10.1752 12.8286 10.2941 12.8405C10.3833 12.8497 10.4606 12.8969 10.5496 12.9108C10.6206 12.9223 10.5989 12.9888 10.604 13.0448C10.6128 12.9792 10.6665 12.9897 10.7091 12.9843C10.8456 12.9682 10.9804 13.0045 11.1169 12.9948C11.1586 12.9919 11.1969 13.0155 11.1949 13.0587C11.1852 13.2501 11.3367 13.3139 11.4622 13.3843C11.6968 13.5165 11.7006 13.5095 11.7506 13.7589C11.814 13.6818 11.8158 13.5785 11.8953 13.5167C11.9968 13.4376 12.0309 13.4385 12.0748 13.5568C12.09 13.5989 12.1386 13.6303 12.1198 13.6845C12.1189 13.7047 12.1194 13.7249 12.1149 13.7446C12.1124 13.7459 12.1111 13.7484 12.1095 13.7493C12.2256 13.7977 12.2964 13.8792 12.3508 14.0101C12.4396 14.2214 12.4301 14.4121 12.3524 14.6126C12.3271 14.6773 12.3103 14.7531 12.2296 14.7531C12.2296 14.7535 12.2301 14.754 12.2301 14.7544C12.2278 14.7759 12.2287 14.7963 12.2278 14.8169C12.2601 14.8998 12.2567 15.0009 12.347 15.0547C12.3912 15.0804 12.4297 15.1154 12.4711 15.1461C12.6262 15.151 12.7559 15.1985 12.8274 15.3513C12.8601 15.4195 12.9188 15.4495 12.9959 15.4607C13.0878 15.4743 13.1828 15.4869 13.2628 15.5429C13.2401 15.728 13.2466 15.7831 13.3284 15.985C13.3614 16.0672 13.3788 16.1447 13.3201 16.2218C13.3201 16.2274 13.3197 16.2339 13.3197 16.2398C13.3289 16.2389 13.3376 16.2366 13.3468 16.2402C13.4167 16.3619 13.4028 16.4598 13.2704 16.5662C13.1796 16.6397 13.1066 16.7347 12.9995 16.7898C12.9329 16.8239 12.9233 16.8638 12.9675 16.9359C13.0046 16.9971 13.1097 17.076 12.9798 17.1553C12.9522 17.1802 12.9197 17.2021 12.8975 17.2312C12.8169 17.3345 12.719 17.3731 12.5881 17.3379C12.4646 17.3052 12.3477 17.3213 12.2466 17.4107C12.1897 17.4614 12.153 17.5048 12.2608 17.531C12.2997 17.5402 12.3403 17.5452 12.3289 17.598C12.3186 17.6406 12.28 17.6574 12.241 17.6536C12.1951 17.6489 12.1501 17.6339 12.1048 17.6233C12.0347 17.6072 11.9657 17.6117 11.9345 17.6836C11.8863 17.7945 11.7976 17.7901 11.71 17.7681C11.5957 17.7392 11.4824 17.7087 11.3638 17.7266C11.295 17.7372 11.2655 17.6527 11.198 17.6648C11.1442 17.6592 11.0938 17.6346 11.0423 17.6171C11.0479 17.6193 11.0542 17.6211 11.0593 17.6238C11.1039 17.6469 11.1534 17.6632 11.1947 17.6939C11.2271 17.7457 11.2471 17.8042 11.265 17.8629C11.2672 17.9023 11.2825 17.9308 11.3255 17.9395C11.3636 17.9469 11.3768 17.9727 11.3732 18.0103C11.3692 18.052 11.3405 18.0634 11.3071 18.071C11.2616 18.0816 11.218 18.0986 11.1727 18.1096C11.1035 18.1259 11.0555 18.1501 11.0542 18.235C11.0533 18.2864 11.0105 18.3249 10.9728 18.3612C10.9397 18.393 10.8928 18.4291 10.9224 18.4786C10.9495 18.5236 10.9981 18.4943 11.038 18.486C11.1478 18.4631 11.263 18.4528 11.3168 18.3294C11.3242 18.3115 11.3495 18.3162 11.3683 18.3162C11.4909 18.2955 11.5657 18.3542 11.6033 18.4654C11.6497 18.6014 11.5915 18.6756 11.4445 18.6863C11.3071 18.6964 11.1855 18.7638 11.0589 18.8116C11.002 18.8331 10.9885 18.9057 11.0212 18.9442C11.1644 19.1127 11.0914 19.2633 10.9984 19.4159C10.9796 19.4342 10.9607 19.4531 10.9424 19.4714C10.8767 19.4071 10.8014 19.363 10.7069 19.3598C10.5406 19.3547 10.4911 19.2001 10.3941 19.1087C10.3607 19.0771 10.4165 19.0583 10.4447 19.0482C10.5251 19.0202 10.5274 18.9695 10.4895 18.9054C10.4342 18.8107 10.3977 18.7107 10.4039 18.5987C10.3165 18.5779 10.2603 18.5514 10.3522 18.4587C10.4037 18.4067 10.4662 18.348 10.3838 18.2622C10.3443 18.2207 10.3569 18.1602 10.4075 18.1293C10.4411 18.1089 10.4714 18.0827 10.5039 18.0603C10.4245 18.0603 10.3522 18.0484 10.313 17.9368C10.289 17.868 10.1917 17.875 10.1225 17.9005C10.0714 17.9198 10.0035 17.9406 10.0087 18.009C10.0143 18.086 10.0674 18.1367 10.1451 18.1495C10.1897 18.1568 10.2233 18.1793 10.2576 18.2046C10.3311 18.2583 10.3253 18.3115 10.2404 18.3318C10.1592 18.3516 10.1017 18.3809 10.0864 18.4678C10.0864 18.4683 10.0777 18.4683 10.0741 18.4665C10.0701 18.4645 10.0676 18.46 10.0642 18.4569C9.88029 18.4649 9.8729 18.4732 9.86774 18.6818C9.86797 18.691 9.86841 18.7002 9.86886 18.7094C9.92846 18.6968 9.98179 18.7235 10.0369 18.7383C10.125 18.9391 10.1117 18.9568 9.86797 18.965C9.86841 18.9926 9.86886 19.0206 9.86931 19.0482C9.97597 19.067 10.0607 19.0762 10.0277 19.24C10.0051 19.3516 10.0465 19.495 10.1848 19.5593C10.2247 19.5776 10.267 19.6041 10.2448 19.6538C10.2222 19.7038 10.1888 19.6413 10.161 19.6496C10.0055 19.6973 9.84354 19.6106 9.68558 19.6838C9.58206 19.7325 9.40774 19.693 9.31878 19.6278C9.31722 19.6269 9.31542 19.626 9.31408 19.6247C9.29772 19.6121 9.28338 19.5994 9.27442 19.5853C9.27397 19.5765 9.27352 19.5678 9.27285 19.5586C9.26344 19.5797 9.24664 19.5998 9.24551 19.6211C9.23386 19.8667 9.18547 19.9072 8.93294 19.8783C8.91457 19.8761 8.89642 19.8723 8.87827 19.8687C8.84422 19.7571 8.76557 19.7051 8.65197 19.6998C8.561 19.6933 8.47585 19.6735 8.42387 19.5873C8.31744 19.5404 8.21078 19.495 8.10547 19.4459C8.08576 19.4367 8.0573 19.4127 8.05842 19.3975C8.06873 19.2617 7.97283 19.2552 7.87715 19.2337C7.74764 19.2039 7.6811 19.0802 7.57915 19.0078C7.54061 18.9807 7.56548 18.9256 7.58789 18.8911C7.63718 18.8151 7.61141 18.7652 7.55181 18.7092C7.46891 18.6316 7.42947 18.374 7.47406 18.2725C7.50498 18.2026 7.5722 18.2117 7.62979 18.1981C7.53523 18.1508 7.48011 18.0793 7.46219 17.9709C7.4465 17.8754 7.34746 17.8382 7.27464 17.8992C7.23678 17.931 7.20518 17.9507 7.16418 17.9263C7.09942 17.8877 7.07433 17.931 7.06268 17.9774C7.05103 18.0251 7.07276 18.0605 7.13236 18.054C7.20698 18.0459 7.20586 18.082 7.18838 18.1405C7.12654 18.3471 7.12833 18.3471 6.91233 18.2933C6.81464 18.2693 6.76333 18.3065 6.78103 18.4098C6.79895 18.514 6.8348 18.6177 6.79851 18.7231C6.77072 18.8044 6.74608 18.8938 6.62262 18.8185C6.53523 18.7647 6.4996 18.819 6.51058 18.9034C6.51932 18.9709 6.5061 19.004 6.43171 18.9944C6.38869 18.9892 6.36561 19.0224 6.33805 19.0482C6.22199 19.1537 6.2072 19.1479 6.17359 18.9908C6.16956 18.972 6.16552 18.9536 6.16127 18.9352C6.12049 18.8098 6.02212 18.7195 5.9623 18.6039C5.89911 18.4817 5.76131 18.4504 5.62418 18.4551C5.60021 18.5064 5.57086 18.5532 5.62911 18.6072C5.66743 18.6419 5.6793 18.6959 5.66832 18.7744C5.50162 18.6384 5.31811 18.5709 5.11332 18.5691C5.00644 18.5364 4.90314 18.4791 4.78506 18.5227C4.77296 18.5274 4.75056 18.5286 4.74473 18.5218C4.63628 18.3899 4.46308 18.378 4.32371 18.3088C4.14849 18.2209 4.04005 18.0589 3.86953 17.974C3.82181 17.9505 3.79044 17.9319 3.73084 17.9496C3.65488 17.9724 3.56481 17.9382 3.54867 17.8555C3.50677 17.6411 3.31341 17.6218 3.16888 17.5557C3.00353 17.4795 2.93922 17.3903 2.99255 17.21C2.92734 17.086 2.87446 16.957 2.82808 16.8243C2.80187 16.7495 2.75997 16.6796 2.68199 16.6433C2.55607 16.6139 2.4772 16.5308 2.43328 16.4145C2.38264 16.2823 2.25605 16.2552 2.14939 16.2026C2.10816 16.1817 2.07411 16.2026 2.08374 16.257C2.08867 16.285 2.09942 16.3117 2.10346 16.3392C2.10906 16.3816 2.11533 16.4329 2.06111 16.4439C2.00644 16.4546 1.98291 16.4035 1.98538 16.3632C1.99367 16.2185 1.92152 16.1049 1.86147 15.9827C1.82517 15.9088 1.78529 15.8835 1.70821 15.9041C1.57915 15.9388 1.48885 15.8833 1.42768 15.7728C1.37525 15.6771 1.31923 15.5864 1.21773 15.5326C1.12878 15.4853 1.19241 15.4065 1.18233 15.3415C1.18166 15.3231 1.18121 15.3052 1.18054 15.2868C1.06044 15.2194 1.04274 15.0943 1.00868 14.9789C0.989185 14.9117 0.973725 14.8436 0.956247 14.7762C0.91121 14.5685 0.748764 14.4085 0.719187 14.194C0.715826 14.1701 0.695884 14.1481 0.669445 14.1564C0.61791 14.173 0.640541 14.214 0.641885 14.2505C0.647935 14.4195 0.677287 14.5866 0.690955 14.7549C0.662051 14.7103 0.632698 14.6661 0.602898 14.6225C0.430816 13.7249 0.327298 12.8199 0.371663 11.9034C0.413115 11.0455 0.540384 10.201 0.752125 9.36523C0.884771 8.84181 1.05058 8.33543 1.26366 7.84204H1.26389C1.28854 7.74053 1.32663 7.64396 1.37659 7.55187C1.45927 7.45575 1.48392 7.33117 1.53635 7.22026C1.71179 6.85033 1.91099 6.49496 2.12721 6.15012C2.20563 6.1266 2.28159 6.09276 2.35217 6.04101C2.23185 6.22653 2.11063 6.41138 1.99501 6.60027C1.91614 6.72888 1.87334 6.87094 1.80949 7.00515C1.74383 7.0195 1.72748 7.06252 1.72569 7.12593C1.72412 7.18553 1.6979 7.21443 1.65376 7.2095C1.7035 7.26507 1.71538 7.34797 1.76445 7.41474C1.831 7.33632 1.91188 7.27941 1.95602 7.19046C2.0526 6.99686 2.19891 6.83957 2.33671 6.67735C2.4698 6.5205 2.5908 6.35402 2.71919 6.19583C2.86617 6.01412 3.02571 5.83106 3.21975 5.689C3.28741 5.70782 3.3459 5.6881 3.39698 5.64486C3.43283 5.61506 3.47182 5.59108 3.51327 5.57025C3.70843 5.47076 3.76064 5.48824 3.83772 5.67869C3.80411 5.82142 3.71829 5.93637 3.62575 6.04459C3.47496 6.22115 3.29078 6.36971 3.23946 6.61842C3.21392 6.7421 3.09898 6.76653 2.90113 6.7179C3.0089 6.94062 2.98829 7.14766 2.84063 7.34372C2.80993 7.38472 2.78842 7.42259 2.73039 7.39727C2.72949 7.3966 2.72905 7.3957 2.72815 7.3948C2.6979 7.49877 2.67146 7.60094 2.56212 7.66749C2.49019 7.71118 2.48818 7.86018 2.34926 7.81156C2.34567 7.82949 2.33761 7.84786 2.33917 7.86534C2.34276 7.90589 2.36248 7.98476 2.3804 7.96886C2.47182 7.88954 2.53478 8.10778 2.61634 7.98409C2.65466 7.92606 2.7156 7.91889 2.77498 7.90455C2.93272 7.86579 2.94796 7.82814 2.86236 7.68721C2.84175 7.65315 2.82158 7.59444 2.86797 7.59758C3.0024 7.6061 3.03736 7.50796 3.09472 7.38158C3.12878 7.54269 3.24529 7.62335 3.24843 7.75868C3.25 7.82097 3.28428 7.84271 3.34298 7.81851C3.38645 7.80058 3.42902 7.78064 3.4716 7.76137C3.46353 7.76092 3.45524 7.76048 3.44717 7.7598C3.36965 7.69214 3.28697 7.62918 3.36091 7.50549C3.37502 7.48219 3.34612 7.43491 3.34186 7.39816C3.32327 7.24266 3.3161 7.08896 3.44448 6.96841C3.4642 6.95922 3.4837 6.95003 3.50319 6.94085C3.64637 6.83352 3.75056 6.68855 3.87245 6.56106C3.93855 6.49205 3.99479 6.43805 4.10951 6.46135C4.21168 6.48196 4.3217 6.45239 4.40639 6.37441C4.3748 6.10867 4.53232 5.91486 4.66407 5.71432C4.75638 5.57383 4.86461 5.44387 4.96611 5.30943C4.98269 5.28703 5.00465 5.28613 5.02817 5.29733C5.03333 5.15326 5.12698 5.13242 5.24753 5.12167C5.47249 5.1015 5.68961 5.04907 5.89037 4.90724C5.82651 4.85862 5.74518 4.88102 5.70709 4.81918C5.7044 4.81515 5.70126 4.81156 5.69969 4.80708C5.64188 4.65158 5.7938 4.61259 5.8599 4.5279C5.90449 4.47054 5.97104 4.43581 6.04655 4.48622C6.11847 4.53462 6.11645 4.65897 6.03669 4.73516C6.00039 4.77011 5.95042 4.79117 5.90673 4.81851C6.0508 4.88752 6.17157 4.79543 6.2966 4.75577C6.46644 4.70177 6.62911 4.62604 6.8115 4.62066C6.88343 4.622 6.94527 4.58772 7.00957 4.56375C7.1234 4.51266 7.20899 4.59467 7.23319 4.66682C7.26411 4.75958 7.31206 4.75084 7.37413 4.74681C7.42858 4.74345 7.47697 4.7542 7.51887 4.78938C7.55002 4.79543 7.57377 4.80932 7.57668 4.84517C7.64233 4.84562 7.70798 4.84629 7.77408 4.84697C7.78148 4.84181 7.78842 4.83509 7.79716 4.83218C7.87043 4.80619 7.86864 4.67712 7.95625 4.69303C8.02884 4.70625 8.0871 4.77325 8.15096 4.81784C8.1662 4.82814 8.183 4.83621 8.19824 4.84629C8.22625 4.84652 8.25425 4.84674 8.28226 4.84674C8.34858 4.89514 8.41446 4.89335 8.48033 4.84607L8.48056 4.84585C8.54128 4.80955 8.58811 4.74479 8.67661 4.77011C8.75324 4.79207 8.80949 4.82254 8.82651 4.90881C8.84444 4.99978 8.75795 4.98969 8.70642 5.03159C8.8292 5.09478 8.97977 5.01681 9.07321 5.13175C9.0759 5.17567 9.09449 5.20256 9.14334 5.19561C9.21258 5.18553 9.26859 5.22407 9.32976 5.24356C9.38623 5.2523 9.43238 5.32445 9.49871 5.27067C9.4996 5.21466 9.5005 5.15886 9.5014 5.10307C9.5135 5.09388 9.52111 5.09366 9.52716 5.0959C9.52582 5.06543 9.50431 5.0372 9.5135 5.00515C9.49423 4.98589 9.49288 4.94869 9.47092 4.93233C9.37928 4.88595 9.35687 4.82725 9.4344 4.74614C9.45322 4.72642 9.47294 4.69908 9.47518 4.67354C9.5005 4.34349 9.73129 4.23012 10.0087 4.18597C10.155 4.16267 10.28 4.06252 10.4279 4.05109C10.4095 4.00784 10.4196 3.95452 10.4243 3.90589C10.4326 3.8138 10.4158 3.77437 10.3096 3.79453C10.1911 3.81694 10.1225 3.73538 10.1398 3.61282C10.1346 3.61887 10.1292 3.6229 10.1221 3.62783C10.0042 3.63634 9.99658 3.54627 9.97731 3.46561C10.0214 3.38987 10.0728 3.32579 10.1747 3.32803C10.2265 3.32915 10.2567 3.29532 10.2578 3.24065C10.2681 3.2169 10.2849 3.19807 10.2995 3.1797C10.1687 3.15752 10.0284 3.18575 9.91726 3.09075C9.90135 3.07887 9.88992 3.06207 9.87446 3.04997C9.77139 2.9693 9.78932 2.87027 9.83077 2.76653C9.84802 2.72328 9.87334 2.69662 9.92376 2.69639C10.0448 2.6955 10.0499 2.62357 10.0197 2.5335C9.99748 2.46807 9.98381 2.40533 10.0123 2.35582C9.96364 2.40578 9.93877 2.46695 9.97148 2.55389C10.0004 2.63074 9.96275 2.66413 9.89373 2.67757C9.83301 2.68945 9.77184 2.67488 9.71067 2.67869C9.55652 2.68833 9.54285 2.70132 9.52179 2.86175C9.50946 2.91015 9.4884 2.95295 9.44807 2.98387C9.29817 3.01008 9.20249 2.90164 9.12766 2.81336C9.0452 2.71589 9.01092 2.71096 8.95558 2.81806C8.92443 2.87811 8.87581 2.90545 8.80904 2.91105C8.54823 2.93345 8.44941 3.13354 8.35239 3.33363C8.3329 3.37352 8.35127 3.41609 8.36091 3.45732C8.40662 3.65001 8.36091 3.72104 8.17001 3.78176C8.05573 3.81806 7.92577 3.84988 7.82517 3.81873C7.68983 3.77638 7.53814 3.75398 7.42253 3.65561C7.38757 3.62559 7.35329 3.57316 7.32349 3.6592C7.28809 3.72373 7.36404 3.82546 7.25425 3.86489C7.12878 3.91015 7.0089 3.98857 6.86797 3.90724C6.77341 3.85301 6.67191 3.84809 6.57041 3.88909C6.51955 3.90948 6.4716 3.92696 6.44426 3.8575C6.23946 3.89783 6.05394 3.99283 5.8655 4.07439C5.63561 4.1741 5.4754 4.35649 5.34881 4.57069C5.25851 4.72418 5.12497 4.83352 4.96633 4.91172C4.90673 4.94107 4.84758 4.91643 4.78775 4.90298C4.74137 4.8929 4.70059 4.89671 4.72389 4.96818C4.79895 5.19897 4.75369 5.30876 4.52963 5.45149C4.50117 5.38562 4.54487 5.33453 4.56324 5.27851C4.57422 5.24558 4.57287 5.21152 4.53859 5.1918C4.50991 5.17522 4.48392 5.19158 4.46039 5.20771C4.39519 5.25185 4.36315 5.32086 4.32685 5.38674C4.29929 5.43738 4.2677 5.48981 4.19936 5.47748C4.13528 5.46583 4.13124 5.40802 4.12385 5.35626C4.05618 5.34282 3.98829 5.3296 3.92824 5.31795C3.8906 5.15819 3.95737 5.0056 3.9549 4.84764C3.95894 4.84181 3.96275 4.83576 3.96678 4.83016C4.07881 4.84024 4.20518 4.76025 4.2137 4.65225C4.21975 4.57204 4.2547 4.5335 4.31834 4.50571C4.42521 4.49899 4.52403 4.48129 4.53008 4.34237C4.53187 4.3045 4.55853 4.28389 4.58856 4.26709C4.65354 4.257 4.73084 4.3054 4.7826 4.22698C4.78954 4.22631 4.79671 4.22563 4.80344 4.22496C4.88163 4.19763 4.93406 4.14968 4.98157 4.07641C5.04923 3.97222 5.16821 3.92158 5.28786 3.90007C5.50341 3.86131 5.72098 3.83263 5.8711 3.64844C5.97753 3.51759 6.13415 3.45306 6.25829 3.34551C6.27173 3.33386 6.29571 3.32019 6.3087 3.32467C6.47518 3.38315 6.62127 3.29308 6.7761 3.26619C6.85856 3.25207 6.9316 3.23191 6.98179 3.15954C6.98963 3.14811 7.00868 3.13041 7.01182 3.1322C7.15141 3.22205 7.2547 3.08627 7.37726 3.07394C7.41177 3.07058 7.43485 3.08851 7.43552 3.12055C7.43799 3.27919 7.51439 3.18978 7.5657 3.15752C7.60447 3.13332 7.63516 3.09657 7.6802 3.05535C7.60872 3.01457 7.54487 2.97782 7.48056 2.94174C7.45546 2.9274 7.43059 2.91172 7.43059 2.87901C7.43059 2.83867 7.46039 2.81941 7.49378 2.81448C7.61993 2.79521 7.72098 2.68788 7.87603 2.74905C7.97664 2.78871 8.10189 2.73829 8.14424 2.60296C8.18098 2.48577 8.29302 2.46785 8.38331 2.42281C8.4819 2.37352 8.5964 2.3529 8.64457 2.22922C8.67101 2.1611 8.75302 2.1611 8.81374 2.13915C9.06425 2.04728 9.3152 1.95631 9.56727 1.86825C9.65309 1.83823 9.74451 1.85055 9.83368 1.84719C9.88948 1.84517 9.9502 1.85279 9.98986 1.80081C10.021 1.76025 10.0609 1.7188 10.1055 1.75779C10.1619 1.80708 10.2616 1.81806 10.2657 1.91867C10.2675 1.96079 10.2646 2.00336 10.2639 2.04571C10.4723 2.20995 10.5182 2.49317 10.7167 2.66502C10.768 2.70961 10.76 2.76653 10.7261 2.81784C10.7031 2.85234 10.6721 2.88147 10.6437 2.91217C10.6038 2.95452 10.5332 2.98252 10.5567 3.05759C10.5662 3.08716 10.5836 3.10486 10.6042 3.11808C10.6226 3.10554 10.6417 3.09388 10.6596 3.08066C10.7286 3.04616 10.7967 3.07417 10.8651 3.08313C10.9022 3.08783 10.9536 3.11539 10.9735 3.08918C11.0396 3.00135 11.1512 2.98409 11.2238 2.91956C11.2968 2.85414 11.3414 2.85257 11.4037 2.9115C11.451 2.95653 11.4974 3 11.5213 3.06655C11.5476 3.13915 11.6412 3.14497 11.6793 3.07999C11.706 3.03383 11.7611 3.03585 11.7983 2.99462C11.7817 2.93211 11.6858 2.90679 11.7037 2.82254C11.7147 2.76809 11.7575 2.73583 11.7842 2.69214C11.8214 2.63007 11.883 2.62693 11.9453 2.62649C12.0472 2.62581 12.1413 2.6043 12.2166 2.52924C12.3636 2.49698 12.4447 2.60923 12.5283 2.68922C12.6889 2.84248 12.8505 2.92628 13.0748 2.82456C13.1584 2.78669 13.2388 2.85257 13.3006 2.90993C13.3439 2.94981 13.3338 2.99306 13.2717 3.01703C13.1913 3.0484 13.1129 3.07551 13.0257 3.03876C12.993 3.02487 12.9571 3.00112 12.9182 3.03383C12.9347 3.09456 12.9952 3.11203 13.0333 3.15057C13.015 3.17858 12.997 3.20659 12.9787 3.2346C12.9081 3.25297 12.8299 3.28277 12.8556 3.36859C12.8776 3.44163 12.963 3.4246 13.0264 3.42393C13.0678 3.42348 13.1122 3.36971 13.1485 3.43289C13.0154 3.45328 12.891 3.51221 12.751 3.50459C12.6876 3.50123 12.6302 3.49451 12.5783 3.45821C12.5269 3.42214 12.4801 3.41766 12.4232 3.4544C12.3327 3.51199 12.2175 3.47703 12.1662 3.38427C12.1521 3.35985 12.1454 3.33072 12.129 3.30899C12.0994 3.2709 12.0571 3.26753 12.0132 3.28232C11.9896 3.29039 11.969 3.30719 11.9733 3.33341C11.986 3.40444 12.0499 3.33408 12.0831 3.37822C11.995 3.47614 12.0165 3.55523 12.1398 3.6108C12.1899 3.63343 12.2132 3.66861 12.2132 3.73247C12.2132 3.88595 12.2711 3.93838 12.4277 3.94085C12.583 3.94331 12.7389 3.93502 12.8937 3.94197C12.9731 3.94555 13.0683 3.94219 13.0544 4.07999C13.0517 4.10374 13.1586 4.14788 13.2193 4.16715C13.2919 4.19001 13.3663 4.20793 13.4382 4.23504C13.4517 4.22339 13.4671 4.21376 13.4893 4.21152C13.5299 4.21107 13.5695 4.20636 13.6078 4.22362C13.6903 4.24378 13.7436 4.32019 13.8267 4.34036C13.8577 4.36769 13.904 4.3901 13.9247 4.35089C13.9955 4.216 14.0992 4.28299 14.1933 4.29801C14.2726 4.311 14.3484 4.3659 14.388 4.22698C14.4082 4.15528 14.5077 4.17253 14.57 4.21241C14.6076 4.23661 14.6352 4.26888 14.6768 4.22429C14.8182 4.22429 14.9529 4.23841 15.0156 4.3948C15.0282 4.42035 15.0396 4.44611 15.0528 4.47121C15.0822 4.52723 15.0956 4.62021 15.1796 4.59444C15.2729 4.56599 15.4133 4.60498 15.4405 4.45127V4.45216C15.5731 4.48622 15.6925 4.568 15.8357 4.56666C15.8216 4.59086 15.812 4.61976 15.792 4.63814C15.742 4.68452 15.6677 4.71746 15.71 4.80641C15.7526 4.89872 15.8263 4.95048 15.9287 4.95945C15.9847 4.96415 16.043 4.96169 16.0963 4.97647C16.1908 5.00291 16.2899 5.03316 16.3221 5.14407C16.3643 5.28949 16.4613 5.33319 16.6018 5.30226C16.6936 5.27224 16.7808 5.26171 16.8657 5.33094C16.9065 5.36433 16.965 5.35626 17.0163 5.34573C17.1812 5.31145 17.3179 5.35985 17.4124 5.49653C17.4763 5.58884 17.5386 5.59355 17.6199 5.52902C17.7633 5.53283 17.8987 5.56039 18.0129 5.65472C18.0645 5.69684 18.1263 5.6946 18.1866 5.69707C18.2404 5.76361 18.3188 5.76227 18.3918 5.76697C18.4723 5.77213 18.5364 5.80036 18.5814 5.86803C18.7674 5.94062 18.9524 6.01457 19.1393 6.08537C19.1637 6.09478 19.1884 6.10397 19.211 6.11584C19.222 6.08671 19.2321 6.05736 19.2386 6.02644C19.2534 5.95743 19.291 5.90231 19.3721 5.91262C19.4526 5.92292 19.4873 5.89066 19.5099 5.81515C19.531 5.74658 19.5892 5.7188 19.6647 5.72283C19.734 5.72642 19.7734 5.75107 19.7965 5.81896C19.8093 5.8557 19.8397 5.88931 19.8819 5.93883C19.7615 5.78848 19.7194 5.6238 19.6517 5.47323C19.6058 5.37016 19.481 5.36254 19.453 5.25611C19.4254 5.15147 19.4425 5.02868 19.3502 4.94824C19.2513 4.8622 19.3024 4.76832 19.3262 4.67511C19.3327 4.64889 19.3602 4.64598 19.3835 4.64127C19.3882 4.64195 19.3909 4.64441 19.3954 4.64531C19.3992 4.622 19.3735 4.60766 19.3481 4.59377V4.44701C19.4929 4.56644 19.6296 4.66323 19.7454 4.77997C19.8335 4.86825 19.9455 4.91934 20.0347 5.00224C20.114 5.07551 20.0645 5.09142 19.9957 5.10329C19.9966 5.1313 19.9979 5.15931 19.9993 5.1871C19.9878 5.21824 19.976 5.24871 19.9663 5.28008C19.9441 5.35044 19.9117 5.37822 19.8491 5.31593C19.8227 5.28972 19.7855 5.25387 19.7528 5.2868C19.7178 5.32221 19.762 5.35559 19.7855 5.38136C19.8411 5.44298 19.9462 5.48443 19.8617 5.59601C19.8583 5.60005 19.8648 5.6182 19.8704 5.62044C20.0246 5.67802 20.0421 5.89671 20.2262 5.92135C20.2901 5.92987 20.3116 5.97267 20.2818 6.03608C20.2578 6.08739 20.2601 6.14251 20.3051 6.1788C20.3567 6.2207 20.3593 6.15012 20.386 6.13332C20.4053 6.12144 20.4254 6.12413 20.4351 6.14251C20.4617 6.19225 20.4989 6.25118 20.457 6.30002C20.397 6.37038 20.3795 6.43155 20.4322 6.51356C20.457 6.55254 20.4452 6.58391 20.384 6.57809C20.289 6.56868 20.2858 6.64688 20.2711 6.70961C20.2509 6.79431 20.313 6.78781 20.3674 6.8091C20.4369 6.83621 20.4606 6.91643 20.5025 6.97715C20.5702 7.07574 20.5702 7.19113 20.6114 7.29465C20.6291 7.33901 20.6242 7.38831 20.5774 7.42102C20.4783 7.49048 20.4543 7.59534 20.4514 7.70625C20.4474 7.86579 20.4107 8.01613 20.4828 8.18575C20.5435 8.3296 20.6571 8.34528 20.7528 8.39794C20.9318 8.49675 20.9948 8.58503 20.945 8.78154C20.9258 8.85794 20.9249 8.92494 20.9475 8.99978C20.9802 9.10845 21.0392 9.21555 20.976 9.33587C20.9585 9.36993 20.9901 9.40713 21.0194 9.43289C21.159 9.55299 21.1595 9.69953 21.1008 9.85772C21.0938 9.86937 21.0846 9.87856 21.0716 9.88438Z" fill="white" fill-opacity="0.2"/>
<path d="M7.29102 12.7262C7.30536 12.7197 7.32014 12.7074 7.33471 12.6854C7.34703 12.6673 7.36182 12.6538 7.3775 12.6451C7.3719 12.6464 7.36653 12.646 7.36115 12.648C7.33672 12.6574 7.31163 12.6881 7.29102 12.7262Z" fill="white" fill-opacity="0.2"/>
<path d="M7.37793 12.6453C7.4261 12.6357 7.4689 12.6596 7.49736 12.6991C7.51147 12.7188 7.52671 12.7318 7.54284 12.7423C7.52985 12.7291 7.51752 12.713 7.50654 12.6881C7.48279 12.6339 7.42588 12.6184 7.37793 12.6453Z" fill="white" fill-opacity="0.2"/>
<path d="M7.62565 12.7627C7.59361 12.7643 7.5665 12.7578 7.54297 12.7423C7.56829 12.7676 7.59652 12.7712 7.62565 12.7627Z" fill="white" fill-opacity="0.2"/>
<path d="M7.12026 12.3191C7.1411 12.2933 7.13438 12.274 7.12586 12.2554C7.12004 12.3249 7.07993 12.3798 7.00487 12.4235C6.97776 12.4394 6.9614 12.4723 6.9502 12.5102C7.00957 12.4864 7.05483 12.4734 7.07366 12.5151C7.07119 12.4461 7.07321 12.378 7.12026 12.3191Z" fill="white" fill-opacity="0.2"/>
<path d="M7.14904 12.6982C7.10781 12.6935 7.08988 12.6715 7.08204 12.6395C7.08159 12.7208 7.09593 12.8064 7.20976 12.8364C7.24247 12.8447 7.24001 12.8971 7.24292 12.9023C7.23463 12.87 7.25726 12.7885 7.29154 12.7262C7.24359 12.7481 7.19609 12.7042 7.14904 12.6982Z" fill="white" fill-opacity="0.2"/>
<path d="M7.07324 12.5151C7.07391 12.5391 7.07503 12.5638 7.07526 12.5877C7.07548 12.6079 7.07772 12.6245 7.08108 12.6393C7.08131 12.6227 7.08198 12.6061 7.08243 12.5902C7.08422 12.5552 7.08019 12.5315 7.07324 12.5151Z" fill="white" fill-opacity="0.2"/>
<path d="M12 0C5.38337 0 0 5.38315 0 12.0002C0 18.6171 5.38337 24.0002 12 24.0002C18.6166 24.0002 24 18.6173 24 12.0002C24 5.38315 18.6166 0 12 0ZM12 23.832C5.47591 23.832 0.168048 18.5243 0.168048 12C0.168048 5.47569 5.47591 0.168048 12 0.168048C18.5243 0.168048 23.832 5.47591 23.832 12.0002C23.832 18.5243 18.5243 23.832 12 23.832Z" fill="white" fill-opacity="0.2"/>
<mask id="path-27-inside-1_211_5438" fill="white">
<path d="M12 0C5.38337 0 0 5.38315 0 12.0002C0 18.6171 5.38337 24.0002 12 24.0002C18.6166 24.0002 24 18.6173 24 12.0002C24 5.38315 18.6166 0 12 0ZM12 23.832C5.47591 23.832 0.168048 18.5243 0.168048 12C0.168048 5.47569 5.47591 0.168048 12 0.168048C18.5243 0.168048 23.832 5.47591 23.832 12.0002C23.832 18.5243 18.5243 23.832 12 23.832Z"/>
</mask>
<path d="M12 0C5.38337 0 0 5.38315 0 12.0002C0 18.6171 5.38337 24.0002 12 24.0002C18.6166 24.0002 24 18.6173 24 12.0002C24 5.38315 18.6166 0 12 0ZM12 23.832C5.47591 23.832 0.168048 18.5243 0.168048 12C0.168048 5.47569 5.47591 0.168048 12 0.168048C18.5243 0.168048 23.832 5.47591 23.832 12.0002C23.832 18.5243 18.5243 23.832 12 23.832Z" fill="white"/>
<path d="M12 -2C4.2788 -2 -2 4.27858 -2 12.0002H2C2 6.48772 6.48794 2 12 2V-2ZM-2 12.0002C-2 19.7217 4.27883 26.0002 12 26.0002V22.0002C6.48792 22.0002 2 17.5125 2 12.0002H-2ZM12 26.0002C19.7211 26.0002 26 19.7219 26 12.0002H22C22 17.5127 17.5121 22.0002 12 22.0002V26.0002ZM26 12.0002C26 4.27858 19.7212 -2 12 -2V2C17.5121 2 22 6.48772 22 12.0002H26ZM12 21.832C6.58046 21.832 2.16805 17.4197 2.16805 12H-1.83195C-1.83195 19.6289 4.37137 25.832 12 25.832V21.832ZM2.16805 12C2.16805 6.58028 6.58046 2.16805 12 2.16805V-1.83195C4.37137 -1.83195 -1.83195 4.37109 -1.83195 12H2.16805ZM12 2.16805C17.4197 2.16805 21.832 6.58043 21.832 12.0002H25.832C25.832 4.37139 19.6289 -1.83195 12 -1.83195V2.16805ZM21.832 12.0002C21.832 17.4197 17.4198 21.832 12 21.832V25.832C19.6289 25.832 25.832 19.6289 25.832 12.0002H21.832Z" fill="white" mask="url(#path-27-inside-1_211_5438)"/>
</g>
<defs>
<clipPath id="clip0_211_5438">
<rect width="24" height="24" fill="white"/>
</clipPath>
</defs>
</svg>
