<svg
    xmlns="http://www.w3.org/2000/svg"
    viewBox="0 0 17 16"
    id="vector">
    <path
        id="path"
        d="M 6.246 14.593 C 7.221 14.903 8.257 15.038 9.292 14.991 C 10.326 14.943 11.34 14.714 12.275 14.316 C 13.383 13.85 14.351 13.158 15.101 12.296 C 15.188 12.197 15.242 12.079 15.258 11.954 C 15.273 11.829 15.249 11.703 15.188 11.59 C 15.127 11.476 15.032 11.38 14.913 11.312 C 14.795 11.244 14.657 11.206 14.516 11.204 C 13.335 11.184 12.185 10.873 11.193 10.305 C 10.2 9.737 9.406 8.936 8.899 7.99 C 8.392 7.044 8.192 5.991 8.321 4.95 C 8.45 3.909 8.904 2.92 9.631 2.095 C 9.718 1.995 9.772 1.877 9.788 1.752 C 9.803 1.627 9.779 1.501 9.718 1.387 C 9.657 1.274 9.562 1.178 9.443 1.11 C 9.324 1.041 9.186 1.004 9.045 1.001 C 7.172 0.968 5.348 1.527 3.897 2.578 C 2.447 3.63 1.465 5.105 1.129 6.74 C 0.792 8.375 1.122 10.063 2.059 11.502 C 2.997 12.941 4.481 14.037 6.246 14.593 Z M 2.889 6.105 C 3.253 5.194 3.874 4.382 4.694 3.746 C 5.514 3.109 6.504 2.671 7.569 2.472 C 7.042 3.419 6.764 4.46 6.755 5.517 C 6.746 6.574 7.007 7.619 7.519 8.573 C 8.031 9.527 8.779 10.366 9.709 11.026 C 10.638 11.687 11.724 12.152 12.885 12.387 C 12.497 12.667 12.072 12.905 11.619 13.095 C 10.483 13.575 9.212 13.745 7.966 13.584 C 6.721 13.423 5.557 12.938 4.622 12.189 C 3.688 11.441 3.024 10.464 2.716 9.381 C 2.407 8.298 2.467 7.158 2.889 6.105 Z"
        fill="#ffffff"/>
    <path
        id="path_1"
        d="M 14.087 6.085 L 13.27 6.791 L 13.27 3.686 C 13.27 3.506 13.19 3.334 13.047 3.207 C 12.903 3.08 12.71 3.009 12.507 3.009 C 12.305 3.009 12.111 3.08 11.968 3.207 C 11.825 3.334 11.744 3.506 11.744 3.686 L 11.744 6.791 L 10.948 6.085 C 10.805 5.961 10.612 5.893 10.412 5.895 C 10.212 5.896 10.02 5.967 9.879 6.093 C 9.738 6.219 9.657 6.388 9.656 6.566 C 9.654 6.743 9.731 6.914 9.87 7.042 L 11.968 8.904 C 12.003 8.936 12.043 8.964 12.084 8.989 C 12.103 9 12.123 9.007 12.141 9.016 C 12.166 9.029 12.191 9.04 12.218 9.05 C 12.243 9.058 12.268 9.065 12.294 9.071 C 12.316 9.077 12.337 9.085 12.36 9.089 C 12.459 9.106 12.56 9.106 12.659 9.089 C 12.682 9.085 12.703 9.077 12.725 9.071 C 12.751 9.065 12.776 9.058 12.801 9.05 C 12.827 9.04 12.853 9.029 12.877 9.016 C 12.897 9.007 12.916 9 12.934 8.989 C 12.976 8.964 13.015 8.936 13.051 8.904 L 15.171 7.042 C 15.309 6.914 15.386 6.743 15.385 6.566 C 15.383 6.388 15.303 6.219 15.161 6.093 C 15.02 5.967 14.828 5.896 14.628 5.895 C 14.428 5.893 14.236 5.961 14.092 6.085 L 14.087 6.085 Z"
        fill="#ffffff"/>
</svg>
