<svg width="20" height="21" viewBox="0 0 20 21" fill="none" xmlns="http://www.w3.org/2000/svg">
<path d="M12.7291 10.2292C12.7291 10.3403 12.7119 10.4445 12.6774 10.5417C12.643 10.639 12.5838 10.7292 12.4999 10.8126L8.66659 14.6459C8.51381 14.7987 8.31936 14.8751 8.08325 14.8751C7.84714 14.8751 7.6527 14.7987 7.49992 14.6459C7.34714 14.4931 7.27075 14.2987 7.27075 14.0626C7.27075 13.8265 7.34714 13.632 7.49992 13.4792L10.7499 10.2292L7.49992 6.97923C7.34714 6.82645 7.27075 6.63201 7.27075 6.39589C7.27075 6.15978 7.34714 5.96534 7.49992 5.81256C7.6527 5.65978 7.84714 5.58339 8.08325 5.58339C8.31936 5.58339 8.51381 5.65978 8.66659 5.81256L12.4999 9.64589C12.5833 9.72923 12.6424 9.81951 12.6774 9.91673C12.7124 10.014 12.7296 10.1181 12.7291 10.2292Z" fill="white"/>
</svg>
