<svg
    xmlns="http://www.w3.org/2000/svg"
    viewBox="0 0 17 16"
    id="vector">
    <path
        id="path"
        d="M 6.246 14.593 C 7.221 14.903 8.257 15.038 9.292 14.991 C 10.326 14.943 11.34 14.714 12.275 14.316 C 13.383 13.85 14.351 13.158 15.101 12.296 C 15.188 12.197 15.242 12.079 15.258 11.954 C 15.273 11.829 15.249 11.703 15.188 11.59 C 15.127 11.476 15.032 11.38 14.913 11.312 C 14.795 11.244 14.657 11.206 14.516 11.204 C 13.335 11.184 12.185 10.873 11.193 10.305 C 10.2 9.737 9.406 8.936 8.899 7.99 C 8.392 7.044 8.192 5.991 8.321 4.95 C 8.45 3.909 8.904 2.92 9.631 2.095 C 9.718 1.995 9.772 1.877 9.788 1.752 C 9.803 1.627 9.779 1.501 9.718 1.387 C 9.657 1.274 9.562 1.178 9.443 1.11 C 9.324 1.041 9.186 1.004 9.045 1.001 C 7.172 0.968 5.348 1.527 3.897 2.578 C 2.447 3.63 1.465 5.105 1.129 6.74 C 0.792 8.375 1.122 10.063 2.059 11.502 C 2.997 12.941 4.481 14.037 6.246 14.593 Z M 2.889 6.105 C 3.253 5.194 3.874 4.382 4.694 3.746 C 5.514 3.109 6.504 2.671 7.569 2.472 C 7.042 3.419 6.764 4.46 6.755 5.517 C 6.746 6.574 7.007 7.619 7.519 8.573 C 8.031 9.527 8.779 10.366 9.709 11.026 C 10.638 11.687 11.724 12.152 12.885 12.387 C 12.497 12.667 12.072 12.905 11.619 13.095 C 10.483 13.575 9.212 13.745 7.966 13.584 C 6.721 13.423 5.557 12.938 4.622 12.189 C 3.688 11.441 3.024 10.464 2.716 9.381 C 2.407 8.298 2.467 7.158 2.889 6.105 Z"
        fill="#ffffff"/>
    <path
        id="path_1"
        d="M 14.087 6.026 L 13.27 5.32 L 13.27 8.425 C 13.27 8.604 13.19 8.777 13.047 8.904 C 12.903 9.031 12.71 9.102 12.507 9.102 C 12.305 9.102 12.111 9.031 11.968 8.904 C 11.825 8.777 11.744 8.604 11.744 8.425 L 11.744 5.32 L 10.948 6.026 C 10.805 6.149 10.612 6.217 10.412 6.216 C 10.212 6.214 10.02 6.143 9.879 6.018 C 9.738 5.892 9.657 5.722 9.656 5.545 C 9.654 5.367 9.731 5.196 9.87 5.068 L 11.968 3.206 C 12.003 3.175 12.043 3.146 12.084 3.121 C 12.103 3.111 12.123 3.103 12.141 3.094 C 12.166 3.082 12.191 3.07 12.218 3.06 C 12.243 3.052 12.268 3.045 12.294 3.039 C 12.316 3.034 12.337 3.026 12.36 3.022 C 12.459 3.004 12.56 3.004 12.659 3.022 C 12.682 3.026 12.703 3.034 12.725 3.039 C 12.751 3.045 12.776 3.052 12.801 3.06 C 12.827 3.07 12.853 3.082 12.877 3.094 C 12.897 3.103 12.916 3.111 12.934 3.121 C 12.976 3.146 13.015 3.175 13.051 3.206 L 15.171 5.068 C 15.309 5.196 15.386 5.367 15.385 5.545 C 15.383 5.722 15.303 5.892 15.161 6.018 C 15.02 6.143 14.828 6.214 14.628 6.216 C 14.428 6.217 14.236 6.149 14.092 6.026 L 14.087 6.026 Z"
        fill="#ffffff"/>
</svg>
