<svg width="32" height="33" viewBox="0 0 32 33" fill="none" xmlns="http://www.w3.org/2000/svg">
<g clip-path="url(#clip0_0_851)">
<path d="M24.506 19.4664C24.5153 19.4404 24.5191 19.4129 24.5263 19.3866C24.5335 19.3779 24.5424 19.3717 24.5454 19.3567C24.6237 19.0096 24.7238 18.6669 24.7629 18.3126C24.7707 18.2436 24.788 18.1776 24.8266 18.1181C24.924 17.9693 25.0007 17.9669 25.0892 18.1223C25.1552 18.2385 25.2224 18.2606 25.3213 18.1632C25.3634 18.1217 25.4363 18.0852 25.474 18.1205C25.5702 18.2122 25.6837 18.1952 25.7927 18.2009C25.759 18.3201 25.7491 18.4437 25.7676 18.5641C25.796 18.744 25.7288 18.8984 25.6684 19.0559C25.6183 19.1864 25.5086 19.2226 25.376 19.2062C25.3171 19.1993 25.2406 19.1461 25.2158 19.2516C25.1355 19.1144 25.0225 19.1584 24.9314 19.2205C24.8179 19.2988 24.7112 19.3833 24.5843 19.4425C24.5206 19.4721 24.466 19.5261 24.4603 19.6098C24.4585 19.6367 24.4525 19.6555 24.4442 19.6707C24.4433 19.668 24.4427 19.6656 24.4418 19.6636C24.4498 19.645 24.4558 19.6232 24.4588 19.5942C24.4633 19.5503 24.4851 19.5064 24.506 19.4664Z" fill="white"/>
<path d="M25.2148 19.2549C25.215 19.2531 25.2161 19.2531 25.2163 19.2513H25.2166C25.2152 19.2519 25.2145 19.2553 25.2148 19.2549Z" fill="white"/>
<path d="M15.8868 5.00615C16.0042 5.1367 15.9755 5.24216 15.8109 5.31625C15.8088 5.31715 15.8082 5.31894 15.8061 5.32013V4.95117C15.8121 4.93833 15.8175 4.92518 15.8259 4.91383C15.865 4.86304 15.9212 4.85856 15.98 4.87828C16.0114 4.88903 16.0389 4.91144 16.0332 4.94639C16.0165 5.0414 15.9313 4.94759 15.8868 5.00615Z" fill="white"/>
<path d="M18.172 22.5701C18.1872 22.5638 18.203 22.56 18.2177 22.5549C18.2308 22.5567 18.2431 22.5612 18.2565 22.5621C18.2998 22.5692 18.3405 22.5836 18.3772 22.6075C18.376 22.6197 18.373 22.6314 18.3724 22.6442C18.3706 22.7049 18.3399 22.7539 18.2837 22.7766C18.2012 22.8091 18.0988 22.8868 18.0384 22.7691C17.9811 22.6571 18.079 22.6042 18.172 22.5701Z" fill="white"/>
<path d="M22.1631 17.3605C22.0989 17.3476 22.0418 17.3796 22.0039 17.4322C21.985 17.4585 21.9647 17.4758 21.9432 17.4898C21.9605 17.4722 21.977 17.4507 21.9916 17.4175C22.0233 17.3452 22.0992 17.3246 22.1631 17.3605Z" fill="white"/>
<path d="M20.4849 17.7542C20.4825 17.7554 20.4807 17.7572 20.4789 17.7584C20.4714 17.7623 20.4678 17.7629 20.4666 17.7578C20.466 17.7566 20.466 17.7572 20.4654 17.756C20.4687 17.756 20.4717 17.756 20.478 17.7521C20.4801 17.753 20.4825 17.753 20.4849 17.7542Z" fill="white"/>
<path d="M21.0317 17.5804C21.0469 17.5875 21.0616 17.592 21.0759 17.5956C21.07 17.5962 21.0652 17.5956 21.0589 17.5968C20.9612 17.6102 20.8507 17.6323 20.7787 17.6936C20.681 17.7763 20.5881 17.7901 20.485 17.7542C20.5119 17.7387 20.5394 17.7223 20.5597 17.6996C20.6902 17.5529 20.8304 17.4818 21.0317 17.5804Z" fill="white"/>
<path d="M21.7419 17.4665C21.7715 17.4928 21.8023 17.5081 21.8328 17.517C21.8229 17.5164 21.8139 17.5173 21.8032 17.5158C21.6873 17.5003 21.6165 17.5642 21.5773 17.6715C21.5409 17.7707 21.525 17.8797 21.4474 17.9604C21.4767 17.7545 21.3673 17.6135 21.1755 17.595C21.2595 17.575 21.3362 17.5125 21.4073 17.4683C21.5298 17.3918 21.6207 17.3611 21.7419 17.4665Z" fill="white"/>
<path d="M22.4685 17.431C22.5235 17.4247 22.5474 17.3954 22.5578 17.3527C22.5584 17.4611 22.5393 17.5753 22.3876 17.6153C22.3439 17.6264 22.3472 17.6963 22.3433 17.7031C22.3544 17.6601 22.3242 17.5514 22.2785 17.4683C22.3424 17.4976 22.4058 17.439 22.4685 17.431Z" fill="white"/>
<path d="M22.2786 17.4683C22.2594 17.4597 22.2397 17.4432 22.2203 17.4139C22.2039 17.3897 22.1842 17.3718 22.1632 17.3602C22.1707 17.362 22.1779 17.3614 22.1851 17.3641C22.2176 17.3766 22.2511 17.4175 22.2786 17.4683Z" fill="white"/>
<path d="M16.5705 10.9083C16.4896 10.8847 16.3581 10.876 16.3575 10.7897C16.3563 10.7016 16.4397 10.6081 16.5472 10.5809C16.6201 10.5627 16.6808 10.5325 16.7277 10.4739C16.6494 10.5337 16.6592 10.5872 16.7339 10.649C16.7916 10.6971 16.8496 10.7619 16.8038 10.8435C16.7528 10.9358 16.6575 10.934 16.5705 10.9083Z" fill="white"/>
<path d="M16.0349 13.2765C16.1033 13.2607 16.172 13.2664 16.2407 13.2756C16.483 13.3085 16.5687 13.514 16.4215 13.7121C16.3554 13.8008 16.264 13.8498 16.1618 13.8902C15.9688 13.9663 15.9524 14.0297 16.065 14.203C16.1281 14.3003 16.0925 14.3783 15.9721 14.4309C15.9145 14.456 15.8502 14.4724 15.8135 14.5414C15.8111 14.5456 15.8081 14.5495 15.806 14.554V13.2278C15.875 13.272 15.9539 13.2953 16.0349 13.2765Z" fill="white"/>
<path d="M17.8809 20.3555C17.8782 20.348 17.8746 20.3414 17.8719 20.334C17.8755 20.3414 17.8794 20.348 17.8835 20.3552C17.8823 20.3552 17.8818 20.3555 17.8809 20.3555Z" fill="white"/>
<path d="M18.708 10.7837C18.6969 10.7682 18.6877 10.7542 18.6904 10.7509C18.8538 10.5567 18.6094 10.2525 18.8723 10.0846C18.9592 10.0294 18.9189 9.99741 18.8445 9.95828C18.7785 9.92362 18.6211 9.95618 18.6563 9.86566C18.7035 9.74497 18.6874 9.57408 18.8296 9.50507C18.9437 9.4501 19.0671 9.31566 19.1833 9.53584C19.2177 9.60067 19.3891 9.56601 19.4441 9.68133C19.4617 9.85311 19.5702 9.97232 19.6733 10.0942C19.6697 10.1002 19.6655 10.1038 19.6622 10.1103C19.635 10.2006 19.6751 10.2842 19.6942 10.3673C19.7166 10.4656 19.7913 10.508 19.894 10.4951C20.0957 10.4703 20.1776 10.563 20.1271 10.7628C20.1139 10.8163 20.0784 10.8659 20.1274 10.9176C20.0336 10.9534 19.9469 10.9582 19.8973 10.813C19.8418 10.7709 19.7799 10.7503 19.7106 10.7553C19.5376 10.8369 19.6948 10.9113 19.7157 10.9887C19.7258 10.9929 19.7363 10.9967 19.7468 11.0009C19.8199 11.0212 19.8639 11.0577 19.8934 11.1022C19.8713 11.1861 19.8758 11.2764 19.8779 11.3654C19.8776 11.3648 19.8776 11.3645 19.8773 11.3639C19.8444 11.2041 19.7184 11.121 19.56 11.1422C19.4375 11.1587 19.3635 11.291 19.3796 11.4583C19.3897 11.5617 19.3802 11.6695 19.4898 11.7532C19.3485 11.766 19.3802 11.663 19.3808 11.6223C19.3826 11.4876 19.3572 11.3657 19.2747 11.2602C19.2326 11.2071 19.2362 11.1631 19.2661 11.1064C19.3354 10.9746 19.3097 10.8512 19.177 10.81C19.0268 10.7634 18.8651 10.6828 18.708 10.7837Z" fill="white"/>
<path d="M18.1567 19.3529C18.3114 19.3475 18.4426 19.2997 18.5424 19.1858C18.6592 19.2674 18.7201 19.2181 18.7428 19.095C18.7578 19.0153 18.7739 18.9367 18.805 18.8468C18.8477 19.0194 19.1276 19.0813 19.0467 19.254C18.9842 19.3881 19.0278 19.5838 18.8662 19.6707C18.8349 19.5727 18.7321 19.5291 18.6631 19.4864C18.5947 19.4434 18.5014 19.582 18.3912 19.591C18.3306 19.5957 18.3592 19.6707 18.3667 19.7188C18.3763 19.7798 18.3816 19.8419 18.3888 19.9035C18.3111 20.0089 18.1895 20.0185 18.0784 20.0501C18.027 20.0256 17.9813 19.9904 17.921 20.0238C17.8182 20.1024 17.8397 20.2052 17.8627 20.3092C17.8657 20.3172 17.869 20.3253 17.872 20.3337C17.8693 20.3274 17.8657 20.3226 17.8633 20.3157C17.8077 20.2655 17.7677 20.3118 17.7232 20.3346C17.6625 20.1798 17.6282 20.0161 17.5592 19.8649C17.6682 19.7762 17.7366 19.6528 17.8095 19.5381C17.8959 19.4036 18.0136 19.3585 18.1567 19.3529Z" fill="white"/>
<path d="M22.5684 17.1869C22.5675 17.2189 22.566 17.2517 22.5657 17.2837C22.5654 17.3106 22.5624 17.3327 22.5579 17.3524C22.5576 17.3303 22.5567 17.3082 22.5561 17.287C22.5537 17.2404 22.5591 17.2087 22.5684 17.1869Z" fill="white"/>
<path d="M17.8579 17.9123C17.8594 17.906 17.8597 17.8991 17.8603 17.8931C17.8609 17.8943 17.8615 17.8943 17.8615 17.8961C17.8624 17.9066 17.863 17.9108 17.8579 17.9123Z" fill="white"/>
<path d="M17.854 17.9135C17.8567 17.9138 17.8567 17.9123 17.8579 17.912C17.857 17.917 17.8579 17.9227 17.8561 17.9275C17.8597 17.9409 17.8289 17.912 17.854 17.9135Z" fill="white"/>
<path d="M22.5062 16.9255C22.4784 16.8911 22.4873 16.8654 22.4987 16.8406C22.5065 16.9333 22.5599 17.0064 22.66 17.0647C22.6962 17.0859 22.718 17.1298 22.7329 17.1803C22.6537 17.1487 22.5934 17.1313 22.5683 17.1869C22.5716 17.0949 22.5689 17.0041 22.5062 16.9255Z" fill="white"/>
<path d="M26.4549 7.61695C26.4704 7.62412 26.4856 7.63219 26.4988 7.64384L26.4982 7.64414C26.4856 7.63219 26.4704 7.62442 26.4549 7.61695Z" fill="white"/>
<path d="M15.9982 15.4407C16.0296 15.4909 16.1213 15.5082 16.0968 15.5847C16.0741 15.6552 15.9871 15.5536 15.9399 15.6549C16.0795 15.6791 16.2049 15.7418 16.3447 15.7514C16.3698 15.7783 16.3979 15.8043 16.4248 15.8264C16.5431 15.8362 16.6677 15.9306 16.7806 15.8087C16.7818 15.7878 16.78 15.7681 16.7794 15.7481C16.8977 15.7263 17.0169 15.752 17.1358 15.755C17.1475 15.7783 17.1591 15.8016 17.1738 15.8297C17.2772 15.8583 17.3769 15.8921 17.4376 15.9907C17.4474 16.0071 17.4615 16.0298 17.4755 16.0304C17.7083 16.0451 17.9272 16.2142 18.1698 16.1123C18.1704 16.1132 18.1707 16.1141 18.171 16.115C18.1674 16.1236 18.1636 16.1329 18.1606 16.1404C18.1041 16.2832 17.9992 16.3247 17.8627 16.3029C17.6682 16.2721 17.5439 16.3408 17.4976 16.5371C17.4609 16.6581 17.4866 16.7537 17.5968 16.8302C17.7292 16.9228 17.8287 17.0722 18.0222 17.0414C18.0883 17.0309 18.0916 17.0838 18.0951 17.131C18.0951 17.2093 18.1642 17.2314 18.2096 17.2729C18.2902 17.3034 18.324 17.3772 18.3625 17.4438C18.4426 17.5833 18.4318 17.604 18.2732 17.6201C18.1543 17.6317 18.0512 17.6948 17.9326 17.7136C17.8379 17.7288 17.8669 17.8179 17.86 17.8925C17.8484 17.8044 17.7767 17.8191 17.7199 17.8116C17.538 17.7898 17.3581 17.8385 17.1762 17.8256C17.1206 17.8217 17.0695 17.8528 17.0722 17.9108C17.0851 18.1656 16.8831 18.2511 16.7158 18.3446C16.403 18.5211 16.3979 18.5119 16.3313 18.8444C16.2468 18.7419 16.2444 18.6042 16.1383 18.5214C16.003 18.4157 15.9576 18.4169 15.899 18.5749C15.8787 18.6311 15.8136 18.6729 15.8387 18.7452C15.8399 18.7721 15.8393 18.799 15.8455 18.8256C15.8485 18.8273 15.8503 18.8303 15.853 18.8318C15.8354 18.839 15.8216 18.8492 15.8058 18.8572V15.3134C15.8121 15.3221 15.8157 15.3295 15.8234 15.3388C15.8826 15.3714 15.9591 15.3779 15.9982 15.4407Z" fill="white"/>
<path d="M16.0298 14.8351C16.0746 14.8823 16.14 14.8477 16.1989 14.8259C16.1989 14.827 16.1989 14.8282 16.1989 14.8294C16.1971 14.8524 16.2007 14.8745 16.2007 14.8973C16.1621 14.9967 16.1126 14.9839 15.9001 14.925C15.8819 14.9701 15.8416 14.9932 15.8063 15.0206V14.6442C15.8837 14.7046 15.9602 14.7628 16.0298 14.8351Z" fill="white"/>
<path d="M18.6484 3.64324C18.6189 3.61307 18.5854 3.58498 18.5457 3.56019C18.5982 3.5823 18.6296 3.61068 18.6484 3.64324Z" fill="white"/>
<path d="M21.52 15.5548C21.4809 15.5449 21.4453 15.5333 21.4184 15.5234C21.4435 15.5333 21.4833 15.5399 21.52 15.5548Z" fill="white"/>
<path d="M22.1899 16.3525C22.0779 16.3462 22.0405 16.316 22.0399 16.2156C21.988 16.0938 21.9124 15.9814 21.8954 15.8461C21.7773 15.7905 21.6608 15.7394 21.5918 15.6122C21.576 15.5826 21.5485 15.5665 21.5201 15.5548C21.5509 15.5626 21.5832 15.5694 21.6175 15.5712C21.7173 15.5763 21.76 15.4885 21.8177 15.4326C21.8679 15.3845 21.9273 15.3648 21.9862 15.3594C22.0609 15.3528 22.1042 15.3173 22.1203 15.254C22.1385 15.1861 22.1051 15.1366 22.0438 15.0989C21.9697 15.0538 21.8816 15.0003 21.9091 14.8996C21.9219 14.8518 21.982 14.8169 21.9452 14.7541C21.9635 14.8414 22.0217 14.8584 22.1012 14.85C22.1574 14.8441 22.1872 14.8028 22.2282 14.7754C22.3659 14.6821 22.5661 14.712 22.6703 14.839C22.8857 15.101 23.0683 15.1599 23.3864 15.0595C23.4904 15.0269 23.595 15.0147 23.7019 15.0185C23.6965 15.0287 23.6903 15.038 23.6897 15.0514C23.6867 15.0669 23.6891 15.0774 23.6885 15.0908C23.5283 15.153 23.5788 15.3427 23.5053 15.4753C23.3745 15.3502 23.2505 15.3639 23.1241 15.4897C23.0784 15.5348 23.0001 15.547 22.9371 15.5748C22.8806 15.5999 22.8068 15.6166 22.8092 15.694C22.8116 15.758 22.8771 15.7831 22.9278 15.8025C22.9992 15.8294 23.0554 15.7893 23.0805 15.7272C23.1196 15.6304 23.1698 15.5757 23.278 15.6286C23.2992 15.6391 23.3324 15.6549 23.3341 15.6713C23.3404 15.7281 23.2989 15.8087 23.4026 15.8105C23.5003 15.8123 23.6099 15.8497 23.6923 15.7705C23.7874 15.6791 23.9182 15.6779 24.0512 15.5895C24.0255 15.6531 24.0132 15.6806 24.0033 15.7087C23.9789 15.7759 23.8268 15.8216 23.9579 15.9145C24.0646 15.9901 24.2235 15.9405 24.2833 15.8264C24.289 15.8153 24.294 15.8034 24.297 15.7914C24.3215 15.6839 24.3099 15.5246 24.4401 15.5133C24.4882 15.5091 24.528 15.5276 24.5644 15.5533C24.5704 15.582 24.5716 15.6158 24.5692 15.6546C24.5662 15.6925 24.6021 15.7206 24.6152 15.7556C24.6472 15.8422 24.6262 15.9011 24.5312 15.9271C24.4527 15.9486 24.3765 15.9781 24.3009 16.0065C24.1707 16.0546 24.1551 16.152 24.26 16.2461C24.3054 16.2873 24.3598 16.3196 24.3911 16.3794C24.153 16.3803 24.1515 16.3803 24.1378 16.6321C24.1324 16.7367 24.0706 16.7896 23.9824 16.8218C23.8973 16.8529 23.8166 16.892 23.7387 16.9362C23.7461 16.7546 23.6762 16.7283 23.439 16.7477C23.1878 16.7686 22.9225 16.8182 22.7127 16.6013C22.6751 16.5622 22.6204 16.5261 22.5604 16.55C22.4872 16.5786 22.5359 16.6497 22.518 16.6975C22.5165 16.7017 22.5171 16.7044 22.5159 16.7086C22.5138 16.5147 22.3964 16.3638 22.1899 16.3525Z" fill="white"/>
<path d="M22.5161 16.7955C22.5131 16.8114 22.5056 16.826 22.4987 16.8403C22.4954 16.8 22.4996 16.757 22.5161 16.7086C22.5161 16.7379 22.5211 16.7651 22.5161 16.7955Z" fill="white"/>
<path d="M21.8326 17.517C21.8754 17.5191 21.9115 17.5104 21.9429 17.4898C21.9091 17.5236 21.8715 17.5284 21.8326 17.517Z" fill="white"/>
<path d="M15.8064 15.0209V15.3134C15.7105 15.1873 15.7075 15.0989 15.8019 15.0239C15.8037 15.023 15.8049 15.0218 15.8064 15.0209Z" fill="white"/>
<path d="M15.8064 14.554V14.6445C15.8007 14.6406 15.7965 14.6364 15.7909 14.6326C15.7652 14.6125 15.7879 14.5833 15.8064 14.554Z" fill="white"/>
<path d="M16 0.500061C24.8222 0.500061 32 7.67759 32 16.5004C32 25.3228 24.8222 32.5004 16 32.5004C7.17783 32.5004 1.90735e-06 25.3231 1.90735e-06 16.5004C1.90735e-06 7.67759 7.17783 0.500061 16 0.500061ZM31.7759 16.5004C31.7759 10.9878 28.9321 6.13035 24.6369 3.30834C25.4678 3.87985 26.2622 4.54129 27.0192 5.29624C30.1301 8.40177 31.6851 12.1359 31.6851 16.5004C31.6851 20.8762 30.1301 24.6139 27.0189 27.7134C26.2852 28.4439 25.5153 29.0853 24.7116 29.6437C28.9653 26.8148 31.7759 21.9804 31.7759 16.5004ZM28.3818 24.4328C28.2725 24.4433 28.23 24.5296 28.2073 24.6208C28.2103 24.6862 28.2214 24.7609 28.2895 24.751C28.3955 24.7352 28.4192 24.6267 28.4493 24.5422C28.4661 24.4965 28.4475 24.4266 28.3818 24.4328ZM27.7637 24.2372C27.3702 24.3429 27.1793 24.6512 27.027 24.9945C26.9768 25.1071 26.9753 25.2221 27.0736 25.3043C27.1742 25.3886 27.2749 25.3312 27.3625 25.2643C27.709 25.0026 27.8438 24.6563 27.7637 24.2372ZM20.9742 28.7949C21.0415 28.7884 21.1296 28.7761 21.1206 28.6934C21.1126 28.6142 21.014 28.6249 20.9515 28.6115C20.8891 28.5986 20.8341 28.6303 20.8359 28.699C20.8383 28.7794 20.9091 28.7866 20.9742 28.7949ZM18.6906 29.7871C18.7285 29.762 18.7665 29.7369 18.8044 29.7112C18.8385 29.6628 18.8898 29.6401 18.9409 29.6156C19.0294 29.5723 19.0467 29.4955 19.0249 29.4098C19.0022 29.3222 18.9203 29.3333 18.8555 29.3255C18.8131 29.3192 18.7682 29.3345 18.7252 29.3303C18.4692 29.3034 18.4088 29.3366 18.3945 29.5191C18.3805 29.6912 18.4659 29.7698 18.6906 29.7871ZM18.0548 27.7063C18.0934 27.7308 18.1134 27.7448 18.0889 27.7872C18.0889 27.7872 18.0886 27.7884 18.0889 27.7884C18.3228 27.9315 18.5651 28.0295 18.8417 27.9127C18.8994 27.8882 18.9606 27.8374 19.0186 27.8685C19.1958 27.9614 19.2609 27.8488 19.3075 27.7167C19.3523 27.5907 19.4673 27.5109 19.5232 27.383C19.387 27.3403 19.277 27.464 19.2008 27.4529C19.0291 27.4278 18.8271 27.4583 18.684 27.3221C18.5845 27.2274 18.5415 27.2029 18.5068 27.3723C18.4671 27.5674 18.2696 27.6447 18.0877 27.5608C18.0754 27.5614 18.0629 27.5614 18.0506 27.5614C17.9828 27.6122 17.9948 27.6683 18.0548 27.7063ZM16.717 25.7031C16.7953 25.7013 16.8511 25.6676 16.85 25.5812C16.8488 25.5176 16.8108 25.4704 16.746 25.4728C16.6596 25.4752 16.6271 25.5481 16.593 25.6105C16.6068 25.6858 16.657 25.7043 16.717 25.7031ZM15.8064 32.2712V24.011C15.8243 24.0062 15.8417 24.0014 15.8596 23.9976C15.9531 23.976 16.0451 23.9823 16.0866 24.0776C16.1509 24.2258 16.2692 24.2195 16.386 24.1903C16.5384 24.1517 16.6895 24.1114 16.8476 24.1353C16.9393 24.1493 16.9787 24.0367 17.0686 24.0525C17.1403 24.0451 17.2076 24.0125 17.2763 23.9892C17.2688 23.9925 17.2604 23.9949 17.2536 23.9982C17.1941 24.0286 17.1281 24.0507 17.0731 24.0914C17.0298 24.1607 17.0032 24.2384 16.9793 24.3166C16.9763 24.3692 16.956 24.4071 16.8986 24.4188C16.8479 24.4287 16.8302 24.463 16.835 24.5132C16.8404 24.5688 16.8786 24.5843 16.9231 24.5942C16.9838 24.6082 17.042 24.6309 17.1024 24.6456C17.1947 24.6677 17.2586 24.6993 17.2604 24.8126C17.2616 24.8813 17.3187 24.9327 17.3689 24.9811C17.4131 25.0232 17.4755 25.0716 17.4361 25.1379C17.4 25.1979 17.3351 25.1585 17.2819 25.1478C17.1356 25.117 16.982 25.1035 16.9103 24.9389C16.9004 24.915 16.8667 24.921 16.8416 24.921C16.6782 24.8935 16.5784 24.9718 16.5282 25.12C16.4664 25.301 16.544 25.4002 16.74 25.4142C16.9231 25.4277 17.0854 25.5179 17.2542 25.5815C17.33 25.6105 17.348 25.707 17.3044 25.7587C17.1135 25.9834 17.2108 26.1841 17.3348 26.3873C17.3599 26.4118 17.385 26.4369 17.4095 26.4614C17.4971 26.3756 17.5974 26.3168 17.7235 26.3126C17.9452 26.306 18.0112 26.0993 18.1406 25.9777C18.1851 25.9353 18.1107 25.9102 18.073 25.8967C17.9658 25.8594 17.9628 25.7922 18.0133 25.7064C18.0871 25.5804 18.1358 25.4468 18.1274 25.2974C18.2439 25.2699 18.3189 25.2344 18.1964 25.1107C18.1277 25.0414 18.0444 24.9631 18.1543 24.8487C18.2069 24.7937 18.1902 24.7128 18.1226 24.6718C18.0778 24.6447 18.0375 24.6097 17.9942 24.5795C18.0999 24.5795 18.1964 24.5643 18.2487 24.4155C18.2807 24.3235 18.4103 24.3328 18.5027 24.3671C18.5708 24.3928 18.6613 24.4203 18.6544 24.5114C18.6469 24.6145 18.5761 24.6817 18.4725 24.699C18.413 24.7086 18.3682 24.7388 18.3225 24.7722C18.2245 24.8439 18.2323 24.915 18.3455 24.9416C18.4537 24.9682 18.5304 25.0073 18.5508 25.123C18.5508 25.1236 18.5624 25.1236 18.5672 25.1212C18.5726 25.1188 18.5758 25.1125 18.5803 25.1083C18.8256 25.1194 18.8355 25.1304 18.8423 25.4083C18.842 25.4205 18.8414 25.4328 18.8408 25.445C18.7614 25.4286 18.6903 25.4641 18.6168 25.4836C18.4994 25.7512 18.517 25.7748 18.842 25.7859C18.8414 25.8226 18.8408 25.86 18.8402 25.8967C18.698 25.9218 18.5851 25.9341 18.629 26.1528C18.6592 26.3015 18.6039 26.4924 18.4196 26.5782C18.3664 26.6027 18.31 26.6382 18.3395 26.7043C18.3697 26.7709 18.4142 26.6878 18.4513 26.6989C18.6586 26.7625 18.8746 26.6469 19.0852 26.7449C19.2232 26.8094 19.4557 26.7571 19.5743 26.6702C19.5764 26.6684 19.5788 26.6678 19.5806 26.666C19.6024 26.649 19.6215 26.6323 19.6334 26.6131C19.634 26.6015 19.6346 26.5898 19.6355 26.5779C19.6481 26.606 19.6705 26.6329 19.672 26.6609C19.6875 26.9887 19.752 27.0421 20.0887 27.0036C20.1132 27.0006 20.1374 26.9958 20.1616 26.9908C20.207 26.842 20.3119 26.773 20.4634 26.7655C20.5847 26.7568 20.6982 26.7305 20.7675 26.6155C20.9094 26.5531 21.0516 26.4924 21.192 26.427C21.2183 26.4148 21.2563 26.3828 21.2548 26.3628C21.241 26.1814 21.3689 26.1731 21.4965 26.1441C21.6691 26.1044 21.7579 25.9398 21.8938 25.843C21.9452 25.8068 21.912 25.7333 21.8821 25.6876C21.8164 25.5866 21.8508 25.52 21.9302 25.4453C22.0408 25.3416 22.0934 24.9984 22.0339 24.863C21.9927 24.7695 21.9031 24.7821 21.8263 24.7639C21.9523 24.7008 22.0258 24.6052 22.0497 24.4609C22.0707 24.3334 22.2027 24.2838 22.2998 24.3653C22.3503 24.4074 22.3924 24.4337 22.4471 24.4015C22.5334 24.3501 22.5669 24.4074 22.5824 24.4693C22.598 24.5329 22.569 24.5801 22.4895 24.5715C22.39 24.5604 22.3915 24.6088 22.4148 24.6865C22.4973 24.9619 22.4949 24.9619 22.7829 24.8902C22.9131 24.8586 22.9816 24.9082 22.958 25.0459C22.9341 25.1851 22.8863 25.3234 22.9346 25.4632C22.9717 25.5717 23.0046 25.6912 23.1692 25.5908C23.2857 25.5194 23.3332 25.5914 23.3185 25.704C23.3069 25.7943 23.3245 25.8382 23.4237 25.8253C23.4811 25.8188 23.5118 25.8627 23.5486 25.8967C23.7033 26.0377 23.7231 26.0297 23.7679 25.8202C23.7732 25.7952 23.7786 25.7707 23.7843 25.7462C23.8387 25.5792 23.9698 25.4585 24.0496 25.3043C24.1338 25.1415 24.3176 25.1 24.5004 25.1059C24.5324 25.1743 24.5715 25.2368 24.4938 25.3085C24.4428 25.3551 24.4269 25.4268 24.4416 25.5314C24.6638 25.35 24.9085 25.2601 25.1816 25.2577C25.3241 25.2141 25.4618 25.1376 25.6192 25.1959C25.6354 25.2021 25.6652 25.2039 25.673 25.1947C25.8176 25.019 26.0485 25.0032 26.2344 24.9105C26.468 24.7937 26.6126 24.5774 26.8399 24.4642C26.9036 24.4331 26.9454 24.408 27.0249 24.4319C27.1261 24.4627 27.2462 24.4164 27.2678 24.3065C27.3236 24.0206 27.5814 23.9946 27.7741 23.9064C27.9946 23.8049 28.0804 23.6863 28.0093 23.4455C28.0962 23.2803 28.1667 23.1082 28.2285 22.9313C28.2635 22.8315 28.3194 22.7386 28.4233 22.6902C28.5912 22.6511 28.6964 22.5402 28.7549 22.3855C28.8225 22.2092 28.9913 22.1731 29.1335 22.1026C29.1884 22.0751 29.2338 22.1026 29.221 22.1755C29.2144 22.2128 29.2001 22.2484 29.1947 22.2851C29.1872 22.3413 29.1789 22.41 29.2512 22.4246C29.3241 22.4387 29.3554 22.3708 29.3522 22.3168C29.3411 22.1238 29.4373 21.972 29.5174 21.8092C29.5658 21.7106 29.6189 21.6768 29.7217 21.7046C29.8938 21.7512 30.0142 21.6771 30.0958 21.5296C30.1657 21.4023 30.2403 21.281 30.3757 21.2093C30.4943 21.1463 30.4094 21.0408 30.4229 20.9548C30.4238 20.9303 30.4244 20.9058 30.4253 20.8813C30.5854 20.7913 30.609 20.6249 30.6544 20.4711C30.6804 20.3818 30.701 20.2906 30.7243 20.2007C30.7844 19.9238 31.001 19.7108 31.0404 19.4248C31.0449 19.3926 31.0715 19.363 31.1067 19.3741C31.1754 19.3962 31.1453 19.4511 31.1435 19.4995C31.1354 19.7251 31.0963 19.9477 31.078 20.1723C31.1166 20.1129 31.1557 20.054 31.1955 19.9955C31.4249 18.7987 31.5629 17.5926 31.5038 16.3701C31.4485 15.2265 31.2788 14.1005 30.9965 12.9861C30.8196 12.2882 30.5986 11.6131 30.3144 10.9552C30.2816 10.8199 30.2305 10.6911 30.1639 10.5683C30.0536 10.4402 30.0208 10.2741 29.9509 10.1262C29.7169 9.63293 29.4513 9.15911 29.163 8.69933C29.0585 8.66796 28.9572 8.62285 28.8631 8.55384C29.0235 8.8012 29.1852 9.04767 29.3393 9.29952C29.4445 9.47101 29.5015 9.66042 29.5867 9.83937C29.6742 9.85849 29.696 9.91585 29.6984 10.0004C29.7005 10.0799 29.7355 10.1184 29.7943 10.1118C29.728 10.1859 29.7122 10.2965 29.6467 10.3855C29.558 10.2809 29.4501 10.205 29.3913 10.0864C29.2625 9.82832 29.0674 9.61859 28.8837 9.40229C28.7063 9.19317 28.5449 8.97119 28.3737 8.76027C28.1778 8.51799 27.965 8.2739 27.7063 8.0845C27.6161 8.10959 27.5381 8.0833 27.47 8.02564C27.4222 7.98591 27.3702 7.95394 27.315 7.92616C27.0547 7.79351 26.9851 7.81681 26.8824 8.07075C26.9272 8.26106 27.0416 8.41432 27.165 8.55862C27.366 8.79403 27.6116 8.99211 27.68 9.32402C27.7141 9.48893 27.8674 9.5215 28.1312 9.45667C27.9875 9.75363 28.0149 10.0297 28.2118 10.2911C28.2527 10.3458 28.2814 10.3962 28.3588 10.3625C28.36 10.3616 28.3606 10.3604 28.3618 10.3592C28.4021 10.4978 28.4374 10.6341 28.5832 10.7228C28.6791 10.781 28.6818 10.9797 28.867 10.9149C28.8718 10.9388 28.8825 10.9633 28.8804 10.9866C28.8756 11.0407 28.8494 11.1458 28.8255 11.1246C28.7036 11.0188 28.6196 11.3098 28.5109 11.1449C28.4598 11.0675 28.3785 11.058 28.2994 11.0389C28.089 10.9872 28.0687 10.937 28.1828 10.7491C28.2103 10.7037 28.2372 10.6254 28.1754 10.6296C27.9961 10.6409 27.9495 10.5101 27.873 10.3416C27.8276 10.5564 27.6723 10.6639 27.6681 10.8444C27.666 10.9274 27.6203 10.9564 27.542 10.9241C27.4841 10.9002 27.4273 10.8737 27.3705 10.848C27.3813 10.8474 27.3923 10.8468 27.4031 10.8459C27.5065 10.7556 27.6167 10.6717 27.5181 10.5068C27.4993 10.4757 27.5378 10.4127 27.5435 10.3637C27.5683 10.1563 27.5779 9.9514 27.4067 9.79067C27.3804 9.77842 27.3544 9.76617 27.3284 9.75393C27.1375 9.61082 26.9986 9.41753 26.8361 9.24754C26.7479 9.15552 26.6729 9.08352 26.52 9.11459C26.3837 9.14208 26.2371 9.10264 26.1241 8.99868C26.1663 8.64436 25.9562 8.38594 25.7806 8.11855C25.6575 7.93124 25.5132 7.75796 25.3778 7.57871C25.3557 7.54883 25.3265 7.54764 25.2951 7.56257C25.2882 7.37048 25.1633 7.34269 25.0026 7.32835C24.7027 7.30147 24.4132 7.23156 24.1455 7.04245C24.2306 6.97762 24.3391 7.00749 24.3899 6.92504C24.3935 6.91966 24.3976 6.91488 24.3997 6.9089C24.4768 6.70157 24.2743 6.64959 24.1861 6.53666C24.1267 6.46018 24.0379 6.41387 23.9373 6.48109C23.8414 6.54562 23.8441 6.71143 23.9504 6.813C23.9988 6.85961 24.0654 6.88769 24.1237 6.92414C23.9316 7.01616 23.7706 6.89337 23.6039 6.84049C23.3774 6.76849 23.1605 6.66751 22.9173 6.66034C22.8214 6.66213 22.739 6.61642 22.6532 6.58446C22.5015 6.51664 22.3873 6.62569 22.3551 6.72188C22.3138 6.84557 22.2499 6.83392 22.1672 6.82854C22.0946 6.82406 22.03 6.8384 21.9742 6.8853C21.9326 6.89337 21.901 6.91189 21.8971 6.95969C21.8095 6.96029 21.722 6.96119 21.6339 6.96208C21.624 6.95521 21.6148 6.94625 21.6031 6.94236C21.5054 6.90771 21.5078 6.73563 21.391 6.75684C21.2942 6.77447 21.2165 6.86379 21.1314 6.92324C21.1111 6.93699 21.0887 6.94774 21.0683 6.96119C21.031 6.96148 20.9937 6.96178 20.9563 6.96178C20.8679 7.02631 20.78 7.02392 20.6922 6.96089L20.6919 6.96059C20.6109 6.91219 20.5485 6.82585 20.4305 6.85961C20.3283 6.88889 20.2533 6.92952 20.2306 7.04454C20.2067 7.16583 20.3221 7.15239 20.3908 7.20825C20.2271 7.2925 20.0263 7.18854 19.9017 7.3418C19.8981 7.40035 19.8733 7.4362 19.8082 7.42694C19.7159 7.4135 19.6412 7.46488 19.5596 7.49087C19.4844 7.50253 19.4228 7.59872 19.3344 7.52702C19.3332 7.45233 19.332 7.37795 19.3308 7.30356C19.3147 7.29131 19.3045 7.29101 19.2964 7.294C19.2982 7.25337 19.3269 7.21572 19.3147 7.173C19.3404 7.14731 19.3421 7.09772 19.3714 7.07591C19.4936 7.01406 19.5235 6.93579 19.4201 6.82764C19.395 6.80135 19.3687 6.76491 19.3657 6.73085C19.332 6.29078 19.0243 6.13962 18.6544 6.08076C18.4593 6.04939 18.2926 5.91615 18.0955 5.90091C18.12 5.84325 18.1065 5.77215 18.1002 5.70732C18.0892 5.58453 18.1116 5.53195 18.2532 5.55884C18.4112 5.58872 18.5027 5.47997 18.4796 5.31655C18.4865 5.32462 18.4937 5.33 18.5033 5.33657C18.6604 5.34792 18.6706 5.22782 18.6962 5.12027C18.6374 5.01929 18.569 4.93385 18.433 4.93684C18.364 4.93833 18.3237 4.89322 18.3222 4.82032C18.3085 4.78866 18.2861 4.76356 18.2666 4.73906C18.4411 4.70949 18.6281 4.74713 18.7763 4.62046C18.7975 4.60462 18.8128 4.58222 18.8334 4.56609C18.9708 4.45853 18.9469 4.32649 18.8916 4.18816C18.8686 4.1305 18.8349 4.09495 18.7676 4.09465C18.6063 4.09346 18.5994 3.99756 18.6398 3.87746C18.6694 3.79022 18.6876 3.70657 18.6496 3.64055C18.7145 3.70717 18.7476 3.78873 18.704 3.90465C18.6655 4.00712 18.7157 4.05163 18.8077 4.06956C18.8886 4.08539 18.9702 4.06597 19.0518 4.07105C19.2573 4.0839 19.2755 4.10123 19.3036 4.31513C19.32 4.37966 19.3481 4.43673 19.4019 4.47795C19.6018 4.51291 19.7293 4.36831 19.8291 4.2506C19.9391 4.12064 19.9848 4.11407 20.0586 4.25658C20.1001 4.33664 20.1649 4.37309 20.2539 4.38056C20.6017 4.41044 20.7334 4.67722 20.8628 4.94401C20.8888 4.99719 20.8643 5.05395 20.8514 5.10892C20.7905 5.36585 20.8514 5.46055 21.106 5.54151C21.2583 5.58991 21.4316 5.63233 21.5658 5.59081C21.7462 5.53434 21.9485 5.50447 22.1026 5.37331C22.1492 5.33328 22.1949 5.26337 22.2347 5.37809C22.2819 5.46414 22.1806 5.59977 22.327 5.65235C22.4943 5.7127 22.6541 5.81726 22.842 5.70881C22.9681 5.63652 23.1034 5.62994 23.2388 5.68462C23.3066 5.7118 23.3705 5.7351 23.407 5.64249C23.68 5.69627 23.9274 5.82294 24.1787 5.93168C24.4852 6.06463 24.6988 6.30781 24.8676 6.59342C24.988 6.79807 25.166 6.94386 25.3775 7.04812C25.457 7.08726 25.5359 7.0544 25.6157 7.03647C25.6775 7.02303 25.7319 7.02811 25.7008 7.12341C25.6007 7.43112 25.6611 7.57751 25.9598 7.76782C25.9978 7.67998 25.9395 7.61187 25.915 7.53718C25.9004 7.49297 25.9022 7.44785 25.9479 7.42156C25.9861 7.39946 26.0208 7.42126 26.0521 7.44278C26.1391 7.50163 26.1818 7.59365 26.2302 7.68148C26.2669 7.749 26.3091 7.8189 26.4002 7.80247C26.4856 7.78694 26.491 7.70986 26.5009 7.64085C26.5911 7.62292 26.6816 7.6053 26.7617 7.58976C26.8119 7.37675 26.7228 7.1733 26.7261 6.96268C26.7207 6.95491 26.7157 6.94685 26.7103 6.93938C26.5609 6.95282 26.3924 6.84587 26.3811 6.70217C26.373 6.59521 26.3264 6.54383 26.2415 6.50678C26.099 6.49782 25.9673 6.47422 25.9592 6.28899C25.9568 6.2385 25.9213 6.21102 25.8812 6.18861C25.7946 6.17517 25.6915 6.2397 25.6225 6.13513C25.6133 6.13424 25.6037 6.13334 25.5947 6.13245C25.4905 6.096 25.4206 6.03206 25.3572 5.93437C25.267 5.79545 25.1084 5.72793 24.9488 5.69925C24.6614 5.64757 24.3713 5.60933 24.1712 5.36376C24.0293 5.18928 23.8204 5.10324 23.6549 4.95984C23.637 4.94431 23.605 4.92608 23.5877 4.93206C23.3657 5.01003 23.171 4.88993 22.9645 4.85408C22.8546 4.83526 22.7572 4.80837 22.6903 4.71188C22.6798 4.69664 22.6544 4.67304 22.6502 4.67543C22.4641 4.79523 22.3264 4.61418 22.163 4.59775C22.117 4.59327 22.0862 4.61717 22.0853 4.65989C22.082 4.87141 21.9801 4.75221 21.9117 4.70919C21.86 4.67692 21.8191 4.62793 21.7591 4.57296C21.8544 4.51858 21.9395 4.46959 22.0252 4.42149C22.0587 4.40237 22.0919 4.38146 22.0919 4.33784C22.0919 4.28406 22.0521 4.25837 22.0076 4.2518C21.8394 4.2261 21.7047 4.083 21.4979 4.16456C21.3638 4.21744 21.1968 4.15022 21.1403 3.96977C21.0913 3.81353 20.942 3.78963 20.8216 3.72958C20.6901 3.66385 20.5375 3.63637 20.4732 3.47146C20.438 3.38063 20.3286 3.38063 20.2477 3.35136C19.9137 3.22887 19.5791 3.10757 19.243 2.99016C19.1285 2.95013 19.0066 2.96656 18.8877 2.96208C18.8134 2.95939 18.7324 2.96955 18.6795 2.90024C18.638 2.84617 18.5848 2.7909 18.5254 2.84288C18.4501 2.90861 18.3171 2.92324 18.3117 3.05738C18.3094 3.11355 18.3132 3.17031 18.3141 3.22678C18.0363 3.44576 17.9751 3.82339 17.7104 4.05253C17.6419 4.11198 17.6527 4.18786 17.6978 4.25628C17.7286 4.30229 17.7698 4.34112 17.8078 4.38205C17.8609 4.43822 17.955 4.47556 17.9237 4.57594C17.9111 4.61538 17.8878 4.63898 17.8603 4.65661C17.8358 4.63988 17.8104 4.62434 17.7865 4.60672C17.6945 4.56071 17.6037 4.59805 17.5126 4.61C17.463 4.61628 17.3946 4.65302 17.368 4.61807C17.2799 4.50096 17.1311 4.47795 17.0343 4.39191C16.9369 4.30468 16.8774 4.30259 16.7944 4.38116C16.7313 4.44121 16.6695 4.49916 16.6375 4.58789C16.6026 4.68469 16.4777 4.69246 16.4269 4.60582C16.3914 4.54428 16.3179 4.54697 16.2683 4.49199C16.2904 4.40864 16.4183 4.37488 16.3944 4.26255C16.3797 4.18996 16.3227 4.14694 16.2871 4.08868C16.2375 4.00592 16.1554 4.00174 16.0723 4.00114C15.9776 4.00055 15.8883 3.98471 15.8085 3.94229V0.729204C7.19666 0.833768 0.224066 7.86611 0.224066 16.5004C0.224066 25.134 7.19666 32.1664 15.8064 32.2712Z" fill="white"/>
</g>
<defs>
<clipPath id="clip0_0_851">
<rect width="32" height="32" fill="white" transform="matrix(-1 0 0 1 32 0.500061)"/>
</clipPath>
</defs>
</svg>
