<svg width="33" height="33" viewBox="0 0 33 33" fill="none" xmlns="http://www.w3.org/2000/svg">
<g clip-path="url(#clip0_0_828)">
<path d="M32.6091 16.5004C32.6091 9.39094 27.8811 3.36719 21.4044 1.402C23.4739 2.15366 25.3494 3.43949 27.0281 5.26935C29.8761 8.37518 31.3006 12.1093 31.3006 16.4732C31.3006 20.8493 29.8761 24.587 27.0281 27.6863C25.0943 29.7895 22.9018 31.1769 20.4502 31.8524C27.4111 30.2125 32.6091 23.9539 32.6091 16.5004Z" fill="white"/>
<path d="M16.8333 0.500061C8.01079 0.500061 0.833252 7.67759 0.833252 16.5004C0.833252 25.3228 8.01079 32.5004 16.8333 32.5004C25.6557 32.5004 32.8333 25.3231 32.8333 16.5004C32.8333 7.67759 25.6557 0.500061 16.8333 0.500061ZM27.9914 27.6866C24.8799 30.7852 21.1481 32.3348 16.7962 32.3348C18.0728 32.3348 19.2905 32.1726 20.4506 31.853C19.2881 32.1269 18.0782 32.2763 16.8333 32.2763C8.13447 32.2763 1.05732 25.1994 1.05732 16.5004C1.05732 7.80098 8.13447 0.724126 16.8333 0.724126C18.4226 0.724126 19.957 0.962829 21.4045 1.402C19.963 0.878581 18.428 0.612093 16.7962 0.612093C21.1478 0.612093 24.8799 2.16471 27.9914 5.26905C31.1017 8.37488 32.6573 12.109 32.6573 16.4732C32.6573 20.8496 31.1017 24.5873 27.9914 27.6866Z" fill="white"/>
</g>
<defs>
<clipPath id="clip0_0_828">
<rect width="32" height="32" fill="white" transform="translate(0.833252 0.500061)"/>
</clipPath>
</defs>
</svg>
