<svg width="22" height="21" viewBox="0 0 22 21" fill="none" xmlns="http://www.w3.org/2000/svg">
<path d="M6.7133 0.0355371C6.80677 -0.00309214 6.91023 -0.0104528 7.00823 0.014554C7.10623 0.0395609 7.19351 0.095594 7.25705 0.174287C7.31899 0.254137 7.35415 0.351499 7.35751 0.452501C7.36088 0.553502 7.33228 0.65299 7.2758 0.736787C6.05303 2.50519 5.52805 4.66359 5.80202 6.79605C6.076 8.9285 7.12954 10.8841 8.75963 12.286C10.3897 13.6878 12.481 14.4368 14.6304 14.3885C16.7799 14.3401 18.8354 13.498 20.4008 12.0243C20.4745 11.9547 20.5688 11.9108 20.6696 11.8993C20.7703 11.8878 20.872 11.9093 20.9595 11.9605C21.0459 12.0119 21.1138 12.0892 21.1535 12.1815C21.1933 12.2738 21.2028 12.3763 21.1808 12.4743C20.7546 14.2661 19.8745 15.9182 18.6253 17.2716C17.376 18.6251 15.7996 19.6343 14.0475 20.2025C12.2955 20.7706 10.4268 20.8784 8.62103 20.5155C6.81527 20.1527 5.13323 19.3314 3.73661 18.1307C2.33999 16.9299 1.27578 15.39 0.646276 13.6591C0.0167762 11.9282 -0.156835 10.0644 0.142134 8.24696C0.441103 6.42955 1.2026 4.7196 2.3534 3.28154C3.50421 1.84347 5.00563 0.725647 6.7133 0.0355371V0.0355371Z" fill="#FFFEFE"/>
<path d="M12.8829 10.6H13.7163V5.6L16.0079 7.89167L16.5996 7.3L13.2996 4L9.99961 7.3L10.5913 7.89167L12.8829 5.6V10.6Z" fill="white"/>
</svg>
