<svg width="24" height="24" viewBox="0 0 24 24" fill="none" xmlns="http://www.w3.org/2000/svg">
<path d="M12.0229 13.4997C12.3511 13.4999 12.6702 13.3917 12.9308 13.1921C13.1914 12.9925 13.3788 12.7125 13.4641 12.3955C13.5493 12.0785 13.5277 11.7422 13.4024 11.4388C13.2772 11.1354 13.0554 10.8818 12.7714 10.7172V6.01172C12.7714 5.81281 12.6924 5.62204 12.5517 5.48139C12.4111 5.34074 12.2203 5.26172 12.0214 5.26172C11.8225 5.26172 11.6317 5.34074 11.491 5.48139C11.3504 5.62204 11.2714 5.81281 11.2714 6.01172V10.7195L11.2691 10.7202L8.49862 9.12122C8.32645 9.02333 8.12256 8.99752 7.93142 9.04941C7.74029 9.1013 7.57744 9.22668 7.47842 9.3982C7.37939 9.56971 7.35222 9.77344 7.40284 9.96491C7.45347 10.1564 7.57777 10.3201 7.74862 10.4202L10.5311 12.0267C10.5361 12.4192 10.6955 12.794 10.9749 13.0697C11.2543 13.3454 11.6303 13.4999 12.0229 13.4997Z" fill="white"/>
<path d="M22.5 12C22.5 6.201 17.799 1.5 12 1.5C6.201 1.5 1.5 6.201 1.5 12C1.5 17.799 6.201 22.5 12 22.5C17.799 22.5 22.5 17.799 22.5 12ZM20.25 12C20.25 16.5562 16.5562 20.25 12 20.25C7.44375 20.25 3.75 16.5562 3.75 12C3.75 7.44375 7.44375 3.75 12 3.75C16.5562 3.75 20.25 7.44375 20.25 12Z" fill="white"/>
</svg>
