<svg width="24" height="25" viewBox="0 0 24 25" fill="none" xmlns="http://www.w3.org/2000/svg">
<rect y="0.116989" width="24" height="24" rx="4" fill="#29E0AB"/>
<g clip-path="url(#clip0_0_261)">
<path d="M10.0001 13.4503C10.0001 13.0821 9.7016 12.7837 9.33341 12.7837C8.96522 12.7837 8.66675 13.0821 8.66675 13.4503C8.66675 14.3553 8.84489 15.2753 9.38833 15.9818C9.95633 16.7202 10.8382 17.117 12.0001 17.117C12.3683 17.117 12.6668 16.8185 12.6668 16.4503C12.6668 16.0821 12.3683 15.7837 12.0001 15.7837C11.162 15.7837 10.7105 15.5138 10.4452 15.1689C10.1553 14.792 10.0001 14.2121 10.0001 13.4503Z" fill="white"/>
<path fill-rule="evenodd" clip-rule="evenodd" d="M12.9487 5.14543C12.4343 4.59164 11.5655 4.59166 11.0512 5.14547C10.422 5.82296 9.26089 7.13732 8.25289 8.63619C7.24709 10.1318 6.31314 11.8352 6.32956 13.6854C6.33101 13.8491 6.33971 14.0787 6.36824 14.3527C6.4249 14.897 6.56175 15.6357 6.88919 16.3842C7.21807 17.136 7.74591 17.9119 8.58794 18.4976C9.4338 19.0861 10.5505 19.4503 11.9999 19.4503C13.4494 19.4503 14.5661 19.0861 15.412 18.4976C16.254 17.9119 16.7819 17.1361 17.1109 16.3843C17.4383 15.6357 17.5753 14.897 17.6319 14.3527C17.6605 14.0788 17.6692 13.8491 17.6707 13.6855C17.6872 11.8353 16.753 10.1317 15.7472 8.63615C14.7391 7.13727 13.5779 5.82291 12.9487 5.14543ZM9.3593 9.38026C10.2973 7.98548 11.3866 6.74566 11.9999 6.08326C12.6133 6.74566 13.7027 7.98547 14.6408 9.38026C15.4902 10.6432 16.3514 12.104 16.3374 13.6735C16.3363 13.8015 16.3293 13.9886 16.3058 14.2146C16.2583 14.6703 16.1452 15.265 15.8893 15.8498C15.6349 16.4313 15.2461 16.9889 14.6505 17.4031C14.0589 17.8147 13.2172 18.117 11.9999 18.117C10.7827 18.117 9.94098 17.8147 9.34937 17.4031C8.75393 16.9889 8.36515 16.4313 8.11076 15.8498C7.85493 15.265 7.74185 14.6704 7.6944 14.2147C7.67087 13.9886 7.66397 13.8016 7.66284 13.6736C7.64892 12.1041 8.50991 10.6433 9.3593 9.38026Z" fill="white"/>
</g>
<defs>
<clipPath id="clip0_0_261">
<rect width="16" height="16" fill="white" transform="translate(4 4.11699)"/>
</clipPath>
</defs>
</svg>
