<svg width="24" height="25" viewBox="0 0 24 25" fill="none" xmlns="http://www.w3.org/2000/svg">
<rect y="0.705704" width="24" height="24" rx="4" fill="#29E0AB"/>
<g clip-path="url(#clip0_0_297)">
<path d="M17.6601 8.11092C14.5402 4.99101 9.46369 4.99106 6.34373 8.11097C4.83229 9.62231 4 11.6318 4 13.7692C4 15.9065 4.83229 17.916 6.34373 19.4273C6.62777 19.7114 7.08844 19.7114 7.37248 19.4273C7.65652 19.1432 7.65652 18.6826 7.37248 18.3985C6.30905 17.3352 5.65692 15.9702 5.49504 14.4966H6.18233C6.58403 14.4966 6.90978 14.171 6.90978 13.7692C6.90978 13.3674 6.58403 13.0418 6.18233 13.0418H5.49504C5.63049 11.8084 6.10969 10.6514 6.88592 9.68332L7.37011 10.1675C7.5121 10.3095 7.69833 10.3805 7.88441 10.3805C8.07063 10.3805 8.25676 10.3095 8.39881 10.1675C8.68285 9.88341 8.68285 9.42279 8.39881 9.1387L7.91482 8.65471C8.90521 7.86209 10.074 7.39919 11.2731 7.26602V7.94817C11.2731 8.34991 11.5987 8.67561 12.0005 8.67561C12.4022 8.67561 12.728 8.34991 12.728 7.94817V7.26568C13.9273 7.39836 15.0966 7.86097 16.0875 8.65345L15.6023 9.1387C15.3181 9.42279 15.3181 9.88336 15.6023 10.1675C15.7443 10.3095 15.9305 10.3805 16.1166 10.3805C16.3028 10.3805 16.4889 10.3095 16.631 10.1675L17.1163 9.6821C17.9092 10.6729 18.3722 11.8422 18.5051 13.0417H17.8215C17.4197 13.0417 17.0941 13.3674 17.0941 13.7691C17.0941 14.1709 17.4197 14.4966 17.8215 14.4966H18.5051C18.347 15.923 17.7226 17.3071 16.6313 18.3985C16.3472 18.6826 16.3472 19.1432 16.6313 19.4273C16.7733 19.5693 16.9595 19.6403 17.1457 19.6403C17.3318 19.6403 17.518 19.5693 17.66 19.4273C20.78 16.3074 20.78 11.2309 17.6601 8.11092Z" fill="white"/>
<path d="M14.2358 18.1854H9.76773C9.36603 18.1854 9.04028 18.5112 9.04028 18.9129C9.04028 19.3147 9.36603 19.6404 9.76773 19.6404H14.2358C14.6375 19.6404 14.9633 19.3147 14.9633 18.9129C14.9633 18.5112 14.6376 18.1854 14.2358 18.1854Z" fill="white"/>
<path d="M12.002 15.2241C12.5166 15.2241 12.9366 14.8228 12.9687 14.3161L14.5739 12.7109C14.858 12.4269 14.858 11.9663 14.5739 11.6821C14.2898 11.3981 13.8292 11.3981 13.5451 11.6821L11.94 13.2873C11.4333 13.3194 11.032 13.7393 11.032 14.254C11.0319 14.7896 11.4661 15.2239 12.0018 15.224C12.0018 15.224 12.0019 15.2241 12.002 15.2241Z" fill="white"/>
</g>
<defs>
<clipPath id="clip0_0_297">
<rect width="16" height="16" fill="white" transform="translate(4 4.7057)"/>
</clipPath>
</defs>
</svg>
