<svg width="91" height="98" viewBox="0 0 91 98" fill="none" xmlns="http://www.w3.org/2000/svg">
<path d="M48.5511 0.48999C38.4111 0.48999 29.8211 7.10999 26.8311 16.26C21.1211 17.53 16.4812 21.56 14.3412 26.88C6.63116 27.14 0.451172 33.46 0.451172 41.23C0.451172 49 6.61115 55.3 14.3011 55.59V55.61H48.8112V0.49999C48.7312 0.49999 48.6411 0.48999 48.5511 0.48999Z" fill="white"/>
<path d="M71.2203 20.53C69.8403 9.33 60.3703 0.63 48.8203 0.5V55.62H70.5803V55.58C79.9303 55.17 87.3903 47.49 87.3903 38.04C87.3803 28.8 80.2603 21.25 71.2203 20.53Z" fill="#F2F4F9"/>
<path d="M50.18 0C39.59 0 30.63 6.91001 27.52 16.45C21.57 17.77 16.72 21.98 14.49 27.53C6.44 27.8 0 34.39 0 42.51C0 50.61 6.42 57.19 14.45 57.49V57.52H50.46V0.0200043C50.37 0.0100043 50.28 0 50.18 0Z" fill="url(#paint0_linear_234_630)"/>
<path d="M73.8307 20.91C72.4007 9.22 62.5107 0.15001 50.4707 0.0100098V57.51H73.1707V57.47C82.9207 57.05 90.7007 49.03 90.7007 39.17C90.6907 29.54 83.2607 21.66 73.8307 20.91Z" fill="url(#paint1_linear_234_630)"/>
<path d="M50.18 0C39.59 0 30.63 6.91001 27.52 16.45C21.57 17.77 16.72 21.98 14.49 27.53C6.44 27.8 0 34.39 0 42.51C0 50.61 6.42 57.19 14.45 57.49V57.52H50.46V0.0200043C50.37 0.0100043 50.28 0 50.18 0Z" fill="url(#paint2_linear_234_630)"/>
<path d="M73.8307 20.91C72.4007 9.22 62.5107 0.15001 50.4707 0.0100098V57.51H73.1707V57.47C82.9207 57.05 90.7007 49.03 90.7007 39.17C90.6907 29.54 83.2607 21.66 73.8307 20.91Z" fill="url(#paint3_linear_234_630)"/>
<path d="M30.0204 48.3801L15.5304 52.2701L14.3004 52.6001C12.8604 53.0701 11.5104 53.8701 10.3604 55.0101C6.46039 58.9101 6.45039 65.2401 10.3604 69.1501L30.9704 48.5401C30.7804 48.3401 30.4504 48.2701 30.0204 48.3801Z" fill="#00E1FF"/>
<path d="M26.9211 65.22L27.2511 63.98L31.1411 49.49C31.2511 49.07 31.1811 48.74 30.9811 48.54L10.3711 69.15C14.2711 73.05 20.6011 73.05 24.5011 69.15C25.6511 68.01 26.4411 66.66 26.9211 65.22Z" fill="#00C6F4"/>
<path opacity="0.2" d="M31.1396 49.49L28.3496 59.88H42.3196L30.9796 48.54C31.1796 48.74 31.2496 49.08 31.1396 49.49Z" fill="#122C3D"/>
<path opacity="0.2" d="M77.2606 52.5L75.3906 59.44C77.8406 58.92 80.1006 57.92 82.0806 56.53L77.1006 51.54C77.3106 51.74 77.3806 52.08 77.2606 52.5Z" fill="#122C3D"/>
<path d="M76.1512 51.3801L61.6612 55.2701L60.4312 55.6001C58.9912 56.0701 57.6412 56.8701 56.5012 58.0101C52.6012 61.9101 52.6012 68.2401 56.5012 72.1501L77.1112 51.5401C76.9012 51.3401 76.5712 51.2701 76.1512 51.3801Z" fill="#00E1FF"/>
<path d="M73.0402 68.23L73.3702 66.99L77.2602 52.5C77.3702 52.08 77.3002 51.74 77.1002 51.54L56.4902 72.15C60.3902 76.05 66.7202 76.05 70.6302 72.15C71.7702 71.01 72.5702 69.66 73.0402 68.23Z" fill="#00C6F4"/>
<path d="M52.4701 59.8801H36.0601L28.8301 78.0101H40.4301L33.3401 97.2501L56.3101 71.4001H44.7901L52.4701 59.8801Z" fill="#FFDA24"/>
<path d="M52.471 59.8801H36.061L36.041 59.9201L45.881 69.7701L52.471 59.8801Z" fill="#FFA300"/>
<defs>
<linearGradient id="paint0_linear_234_630" x1="25.23" y1="0" x2="25.23" y2="57.52" gradientUnits="userSpaceOnUse">
<stop stop-color="#89A1FF"/>
<stop offset="1" stop-color="#2A4BCE"/>
</linearGradient>
<linearGradient id="paint1_linear_234_630" x1="70.5857" y1="0.0100098" x2="70.5857" y2="57.51" gradientUnits="userSpaceOnUse">
<stop stop-color="#89A1FF"/>
<stop offset="1" stop-color="#2A4BCE"/>
</linearGradient>
<linearGradient id="paint2_linear_234_630" x1="25.23" y1="0" x2="25.23" y2="57.52" gradientUnits="userSpaceOnUse">
<stop stop-color="#89A1FF"/>
<stop offset="1" stop-color="#3255DC"/>
</linearGradient>
<linearGradient id="paint3_linear_234_630" x1="70.5857" y1="0.0100098" x2="70.5857" y2="57.51" gradientUnits="userSpaceOnUse">
<stop stop-color="#89A1FF"/>
<stop offset="1" stop-color="#3255DC"/>
</linearGradient>
</defs>
</svg>
