<svg width="26" height="25" viewBox="0 0 26 25" fill="none" xmlns="http://www.w3.org/2000/svg">
<rect y="0.423447" width="25.4555" height="24" rx="4" fill="#29E0AB"/>
<path d="M12.7158 10.5999C12.5147 10.5999 12.3511 10.7635 12.3511 10.9646V11.8372C12.3511 12.0383 12.5147 12.2019 12.7158 12.2019C12.9169 12.2019 13.0805 12.0383 13.0805 11.8372V10.9646C13.0805 10.7635 12.9169 10.5999 12.7158 10.5999Z" fill="white" stroke="white" stroke-width="0.5"/>
<path d="M9.33791 12.8462C9.43676 13.02 9.66173 13.0779 9.83557 12.9791C10.0094 12.8802 10.0674 12.6553 9.96851 12.4814L9.5288 11.7213C9.42995 11.5475 9.20498 11.4861 9.03114 11.5884C8.8573 11.6872 8.79935 11.9122 8.8982 12.086L9.33791 12.8462Z" fill="white" stroke="white" stroke-width="0.5"/>
<path d="M6.46791 14.7821L7.24166 15.2287C7.4155 15.3309 7.63706 15.2696 7.73932 15.0957C7.83817 14.9219 7.78022 14.7003 7.60638 14.5981L6.83263 14.1515C6.65879 14.0527 6.43723 14.1106 6.33497 14.2845C6.23612 14.4617 6.29407 14.6833 6.46791 14.7821Z" fill="white" stroke="white" stroke-width="0.5"/>
<path d="M18.1901 15.2287L18.8957 14.8231C19.0695 14.7242 19.1309 14.4992 19.0286 14.3254C18.9298 14.1516 18.7082 14.0902 18.531 14.1925L17.8254 14.5981C17.6515 14.6969 17.5902 14.9219 17.6924 15.0957C17.7947 15.2696 18.0163 15.3275 18.1901 15.2287Z" fill="white" stroke="white" stroke-width="0.5"/>
<path d="M15.5995 12.9824C15.7734 13.0847 15.9949 13.0233 16.0972 12.8495L16.496 12.1576C16.5949 11.9837 16.5369 11.7622 16.3631 11.6599C16.1892 11.5611 15.9677 11.619 15.8654 11.7928L15.4666 12.4848C15.3644 12.6586 15.4257 12.8802 15.5995 12.9824Z" fill="white" stroke="white" stroke-width="0.5"/>
<path d="M21.0873 16.4457H17.7469C17.0959 14.2198 15.0712 12.686 12.7192 12.686C10.3673 12.686 8.34256 14.2198 7.69152 16.4457H4.36472C4.16361 16.4457 4 16.6093 4 16.8104C4 17.0115 4.16361 17.1751 4.36472 17.1751H21.0907C21.2919 17.1751 21.4555 17.0115 21.4555 16.8104C21.4555 16.6093 21.2884 16.4457 21.0873 16.4457ZM8.44823 16.4457C9.0686 14.6391 10.7661 13.412 12.7192 13.412C14.6723 13.412 16.3664 14.6391 16.9902 16.4457H8.44823Z" fill="white" stroke="white" stroke-width="0.5"/>
<path d="M18.8103 18.0716H6.64158C6.44047 18.0716 6.27686 18.2352 6.27686 18.4363C6.27686 18.6374 6.44047 18.801 6.64158 18.801H18.8137C19.0148 18.801 19.1784 18.6374 19.1784 18.4363C19.175 18.2318 19.0114 18.0716 18.8103 18.0716Z" fill="white" stroke="white" stroke-width="0.5"/>
<path d="M15.9471 19.694H9.50144C9.30033 19.694 9.13672 19.8576 9.13672 20.0587C9.13672 20.2598 9.30033 20.4234 9.50144 20.4234H15.9471C16.1482 20.4234 16.3118 20.2598 16.3118 20.0587C16.3118 19.8576 16.1482 19.694 15.9471 19.694Z" fill="white" stroke="white" stroke-width="0.5"/>
<path d="M12.9932 4.53861C12.8534 4.38863 12.6148 4.38522 12.4682 4.52839L11.4354 5.56119C11.2923 5.70435 11.2923 5.93273 11.4354 6.07589C11.5786 6.21905 11.807 6.21905 11.9501 6.07589L12.3626 5.66345L12.3626 7.84837C12.3626 8.04948 12.5262 8.21309 12.7273 8.21309C12.9284 8.21309 13.092 8.04948 13.092 7.84837L13.092 5.66345L13.5044 6.07589C13.6476 6.21905 13.876 6.21905 14.0191 6.07589C14.1623 5.93273 14.1589 5.70435 14.0191 5.56119L12.9932 4.53861Z" fill="white" stroke="white" stroke-width="0.5"/>
</svg>
