<svg width="32" height="30" viewBox="0 0 32 30" fill="none" xmlns="http://www.w3.org/2000/svg">
<g filter="url(#filter0_d_170_27922)">
<path d="M15.986 8.32715C15.7094 8.32715 15.4844 8.55216 15.4844 8.82873V10.0288C15.4844 10.3053 15.7094 10.5303 15.986 10.5303C16.2625 10.5303 16.4875 10.3053 16.4875 10.0288V8.82873C16.4875 8.55216 16.2625 8.32715 15.986 8.32715Z" fill="#474A8D"/>
<path d="M11.3408 11.4161C11.4767 11.6552 11.7861 11.7349 12.0252 11.599C12.2643 11.463 12.3439 11.1536 12.208 10.9146L11.6033 9.86922C11.4674 9.63015 11.158 9.54578 10.9189 9.6864C10.6798 9.82235 10.6001 10.1317 10.7361 10.3708L11.3408 11.4161Z" fill="#474A8D"/>
<path d="M7.39351 14.0789L8.4576 14.693C8.69667 14.8336 9.00137 14.7492 9.142 14.5101C9.27794 14.2711 9.19825 13.9664 8.95918 13.8257L7.89509 13.2117C7.65602 13.0757 7.35132 13.1554 7.21069 13.3945C7.07475 13.6382 7.15444 13.9429 7.39351 14.0789Z" fill="#474A8D"/>
<path d="M23.5144 14.6925L24.4847 14.1347C24.7238 13.9987 24.8081 13.6893 24.6675 13.4503C24.5316 13.2112 24.2269 13.1268 23.9831 13.2675L23.0128 13.8253C22.7737 13.9612 22.6893 14.2706 22.83 14.5097C22.9706 14.7488 23.2753 14.8284 23.5144 14.6925Z" fill="#474A8D"/>
<path d="M19.9522 11.6037C20.1913 11.7443 20.496 11.66 20.6366 11.4209L21.1851 10.4693C21.321 10.2302 21.2413 9.92554 21.0023 9.78491C20.7632 9.64897 20.4585 9.72866 20.3179 9.96773L19.7694 10.9193C19.6288 11.1584 19.7132 11.4631 19.9522 11.6037Z" fill="#474A8D"/>
<path d="M27.4992 16.3668H22.9053C22.01 13.3057 19.2255 11.1963 15.991 11.1963C12.7565 11.1963 9.97207 13.3057 9.07673 16.3668H4.50158C4.22501 16.3668 4 16.5918 4 16.8683C4 17.1449 4.22501 17.3699 4.50158 17.3699H27.5039C27.7805 17.3699 28.0055 17.1449 28.0055 16.8683C28.0055 16.5918 27.7758 16.3668 27.4992 16.3668ZM10.1174 16.3668C10.9705 13.8823 13.305 12.1948 15.991 12.1948C18.677 12.1948 21.0068 13.8823 21.8646 16.3668H10.1174Z" fill="#474A8D"/>
<path d="M24.3674 18.6025H7.63244C7.35587 18.6025 7.13086 18.8275 7.13086 19.1041C7.13086 19.3807 7.35587 19.6057 7.63244 19.6057H24.372C24.6486 19.6057 24.8736 19.3807 24.8736 19.1041C24.8689 18.8229 24.6439 18.6025 24.3674 18.6025Z" fill="#474A8D"/>
<path d="M20.4304 20.834H11.566C11.2895 20.834 11.0645 21.059 11.0645 21.3356C11.0645 21.6121 11.2895 21.8371 11.566 21.8371H20.4304C20.707 21.8371 20.932 21.6121 20.932 21.3356C20.932 21.059 20.707 20.834 20.4304 20.834Z" fill="white"/>
<path d="M15.635 6.8863C15.8272 7.09255 16.1553 7.09724 16.3569 6.90036L17.7773 5.48C17.9742 5.28312 17.9742 4.96905 17.7773 4.77217C17.5804 4.57528 17.2663 4.57528 17.0694 4.77217L16.5022 5.33937V2.33459C16.5022 2.05802 16.2772 1.83301 16.0007 1.83301C15.7241 1.83301 15.4991 2.05802 15.4991 2.33459V5.33937L14.9319 4.77217C14.735 4.57528 14.4209 4.57528 14.224 4.77217C14.0272 4.96905 14.0318 5.28312 14.224 5.48L15.635 6.8863Z" fill="#474A8D"/>
</g>
<defs>
<filter id="filter0_d_170_27922" x="0" y="1.83301" width="32.0059" height="28.0039" filterUnits="userSpaceOnUse" color-interpolation-filters="sRGB">
<feFlood flood-opacity="0" result="BackgroundImageFix"/>
<feColorMatrix in="SourceAlpha" type="matrix" values="0 0 0 0 0 0 0 0 0 0 0 0 0 0 0 0 0 0 127 0" result="hardAlpha"/>
<feOffset dy="4"/>
<feGaussianBlur stdDeviation="2"/>
<feComposite in2="hardAlpha" operator="out"/>
<feColorMatrix type="matrix" values="0 0 0 0 0 0 0 0 0 0 0 0 0 0 0 0 0 0 0.25 0"/>
<feBlend mode="normal" in2="BackgroundImageFix" result="effect1_dropShadow_170_27922"/>
<feBlend mode="normal" in="SourceGraphic" in2="effect1_dropShadow_170_27922" result="shape"/>
</filter>
</defs>
</svg>
