<svg width="26" height="25" viewBox="0 0 26 25" fill="none" xmlns="http://www.w3.org/2000/svg">
<rect y="0.14119" width="25.4555" height="24" rx="4" fill="#29E0AB"/>
<path d="M12.7158 10.3176C12.5147 10.3176 12.3511 10.4812 12.3511 10.6823V11.5549C12.3511 11.756 12.5147 11.9197 12.7158 11.9197C12.9169 11.9197 13.0805 11.756 13.0805 11.5549V10.6823C13.0805 10.4812 12.9169 10.3176 12.7158 10.3176Z" fill="white" stroke="white" stroke-width="0.5"/>
<path d="M9.33791 12.5639C9.43676 12.7377 9.66173 12.7957 9.83557 12.6968C10.0094 12.598 10.0674 12.373 9.96851 12.1992L9.5288 11.4391C9.42995 11.2652 9.20498 11.2039 9.03114 11.3061C8.8573 11.405 8.79935 11.6299 8.8982 11.8038L9.33791 12.5639Z" fill="white" stroke="white" stroke-width="0.5"/>
<path d="M6.46791 14.4999L7.24166 14.9464C7.4155 15.0487 7.63706 14.9873 7.73932 14.8135C7.83817 14.6396 7.78022 14.4181 7.60638 14.3158L6.83263 13.8693C6.65879 13.7704 6.43723 13.8284 6.33497 14.0022C6.23612 14.1795 6.29407 14.401 6.46791 14.4999Z" fill="white" stroke="white" stroke-width="0.5"/>
<path d="M18.1901 14.9464L18.8957 14.5408C19.0695 14.442 19.1309 14.217 19.0286 14.0431C18.9298 13.8693 18.7082 13.808 18.531 13.9102L17.8254 14.3158C17.6515 14.4147 17.5902 14.6397 17.6924 14.8135C17.7947 14.9873 18.0163 15.0453 18.1901 14.9464Z" fill="white" stroke="white" stroke-width="0.5"/>
<path d="M15.5995 12.7002C15.7734 12.8024 15.9949 12.7411 16.0972 12.5673L16.496 11.8753C16.5949 11.7015 16.5369 11.4799 16.3631 11.3777C16.1892 11.2788 15.9677 11.3367 15.8654 11.5106L15.4666 12.2025C15.3644 12.3764 15.4257 12.5979 15.5995 12.7002Z" fill="white" stroke="white" stroke-width="0.5"/>
<path d="M21.0873 16.1634H17.7469C17.0959 13.9376 15.0712 12.4037 12.7192 12.4037C10.3673 12.4037 8.34256 13.9376 7.69152 16.1634H4.36472C4.16361 16.1634 4 16.327 4 16.5281C4 16.7292 4.16361 16.8928 4.36472 16.8928H21.0908C21.2919 16.8928 21.4555 16.7292 21.4555 16.5281C21.4555 16.327 21.2885 16.1634 21.0873 16.1634ZM8.44823 16.1634C9.0686 14.3568 10.7661 13.1297 12.7192 13.1297C14.6723 13.1297 16.3664 14.3568 16.9902 16.1634H8.44823Z" fill="white" stroke="white" stroke-width="0.5"/>
<path d="M18.8103 17.7893H6.64158C6.44047 17.7893 6.27686 17.9529 6.27686 18.154C6.27686 18.3551 6.44047 18.5187 6.64158 18.5187H18.8137C19.0148 18.5187 19.1784 18.3551 19.1784 18.154C19.175 17.9495 19.0114 17.7893 18.8103 17.7893Z" fill="white" stroke="white" stroke-width="0.5"/>
<path d="M15.9471 19.4117H9.50144C9.30033 19.4117 9.13672 19.5754 9.13672 19.7765C9.13672 19.9776 9.30033 20.1412 9.50144 20.1412H15.9471C16.1482 20.1412 16.3118 19.9776 16.3118 19.7765C16.3118 19.5754 16.1482 19.4117 15.9471 19.4117Z" fill="white" stroke="white" stroke-width="0.5"/>
<path d="M12.4602 7.81567C12.6 7.96565 12.8386 7.96905 12.9851 7.82589L14.0179 6.79309C14.1611 6.64992 14.1611 6.42155 14.0179 6.27839C13.8748 6.13522 13.6464 6.13522 13.5032 6.27839L13.0908 6.69083V4.50591C13.0908 4.3048 12.9272 4.14119 12.7261 4.14119C12.525 4.14119 12.3614 4.3048 12.3614 4.50591V6.69083L11.9489 6.27839C11.8058 6.13522 11.5774 6.13522 11.4342 6.27839C11.2911 6.42155 11.2945 6.64992 11.4342 6.79309L12.4602 7.81567Z" fill="white" stroke="white" stroke-width="0.5"/>
</svg>
