<svg width="25" height="24" viewBox="0 0 25 24" fill="none" xmlns="http://www.w3.org/2000/svg">
<g clip-path="url(#clip0_84_287)">
<path d="M22.2674 12.0002C22.2674 17.3951 17.8949 21.7677 12.4999 21.7677C7.10497 21.7677 2.73242 17.3951 2.73242 12.0002C2.73242 6.60795 7.10497 2.2326 12.4999 2.2326C17.8921 2.2326 22.2674 6.60795 22.2674 12.0002Z" fill="#FFDA24"/>
<path d="M4.45798 3.07009L3.57003 3.95804C3.11064 4.41743 3.11064 5.16813 3.57003 5.62751L4.43557 6.49306C5.12185 5.49026 5.9902 4.62191 6.9958 3.93563L6.13025 3.07289C5.67087 2.6107 4.91737 2.6107 4.45798 3.07009ZM20.542 3.07009C20.0826 2.6107 19.3291 2.6107 18.8697 3.07009L18.0042 3.93563C19.007 4.62191 19.8754 5.49026 20.5616 6.49586L21.4272 5.63031C21.8866 5.17093 21.8866 4.41743 21.4272 3.95804L20.542 3.07009ZM13.1275 6.10352e-05H11.8725C11.2227 6.10352e-05 10.6905 0.532274 10.6905 1.18213V2.40902C11.2787 2.29978 11.881 2.23535 12.5 2.23535C13.119 2.23535 13.7213 2.29978 14.3095 2.40902V1.18213C14.3095 0.532274 13.7773 6.10352e-05 13.1275 6.10352e-05ZM1.68207 10.1906C1.03221 10.1906 0.5 10.7228 0.5 11.3726V12.6276C0.5 13.2774 1.03221 13.8096 1.68207 13.8096H2.90896C2.79972 13.2214 2.73529 12.6191 2.73529 12.0001C2.73529 11.3811 2.79972 10.776 2.90896 10.1906H1.68207ZM20.5644 17.5043C19.8782 18.5071 19.0098 19.3755 18.007 20.0617L18.8725 20.9245C19.3319 21.3839 20.0854 21.3839 20.5448 20.9245L21.4328 20.0365C21.8922 19.5771 21.8922 18.8236 21.4328 18.3642L20.5644 17.5043ZM23.3179 10.1906H22.0938C22.2031 10.7788 22.2675 11.3811 22.2675 12.0001C22.2675 12.6191 22.2031 13.2214 22.0938 13.8096H23.3179C23.9678 13.8096 24.5 13.2774 24.5 12.6276V11.3726C24.5 10.7228 23.9678 10.1906 23.3179 10.1906ZM4.43557 17.5043L3.57003 18.3698C3.11064 18.8292 3.11064 19.5799 3.57003 20.0421L4.45798 20.9301C4.91737 21.3895 5.67087 21.3895 6.13025 20.9301L6.9958 20.0673C5.9902 19.3783 5.12185 18.5099 4.43557 17.5043ZM10.6905 21.5911V22.818C10.6905 23.4679 11.2227 24.0001 11.8725 24.0001H13.1275C13.7773 24.0001 14.3095 23.4679 14.3095 22.818V21.5911C13.7213 21.7004 13.119 21.7648 12.5 21.7648C11.881 21.7676 11.2759 21.7032 10.6905 21.5911Z" fill="#FFDA24"/>
<path d="M10.6903 1.89918V2.40899C11.2786 2.29974 11.8808 2.23532 12.4999 2.23532C13.1189 2.23532 13.7212 2.29974 14.3094 2.40899V1.89918C13.7212 1.79554 13.1189 1.73111 12.4999 1.73111C11.8808 1.72831 11.2786 1.79274 10.6903 1.89918ZM20.5643 6.49582L20.9256 6.13448C20.231 5.13728 19.3626 4.27173 18.3682 3.57705L18.0069 3.9356C19.0097 4.62187 19.878 5.49022 20.5643 6.49582ZM2.39902 10.1905C2.29258 10.7788 2.23096 11.381 2.23096 12.0001C2.23096 12.6191 2.29538 13.2213 2.39902 13.8096H2.90883C2.79958 13.2213 2.73516 12.6191 2.73516 12.0001C2.73516 11.381 2.79958 10.776 2.90883 10.1905H2.39902ZM18.0041 20.0645L18.3654 20.423C19.3626 19.7283 20.2282 18.8628 20.9228 17.8656L20.5615 17.5043C19.878 18.5099 19.0097 19.3782 18.0041 20.0645ZM22.6007 10.1905H22.0909C22.2001 10.7788 22.2646 11.381 22.2646 12.0001C22.2646 12.6191 22.2001 13.2213 22.0909 13.8096H22.6007C22.7043 13.2213 22.7688 12.6191 22.7688 12.0001C22.7688 11.381 22.7071 10.7788 22.6007 10.1905ZM10.6903 21.5911V22.1009C11.2786 22.2045 11.8808 22.269 12.4999 22.269C13.1189 22.269 13.7212 22.2045 14.3094 22.1009V21.5911C13.7212 21.7003 13.1189 21.7648 12.4999 21.7648C11.8808 21.7676 11.2758 21.7031 10.6903 21.5911ZM4.43544 17.5043L4.0769 17.8656C4.77157 18.8628 5.63992 19.7311 6.63432 20.4258L6.99566 20.0673C5.99006 19.3782 5.12171 18.5099 4.43544 17.5043ZM4.07409 6.13448L4.43544 6.49302C5.12171 5.49022 5.99006 4.62187 6.99566 3.9356L6.63432 3.57705C5.63712 4.27173 4.77157 5.13728 4.07409 6.13448Z" fill="#FFA300"/>
<path opacity="0.15" d="M18.8697 3.07009L18.0042 3.93563C16.9118 3.18773 15.6569 2.66112 14.3067 2.40902V1.18213C14.3095 0.532274 13.7773 6.10352e-05 13.1275 6.10352e-05H11.8725C11.2227 6.10352e-05 10.6905 0.532274 10.6905 1.18213V2.40902C9.34034 2.66112 8.08824 3.19054 6.9958 3.93563L6.13025 3.07289C5.67087 2.61351 4.92017 2.61351 4.46078 3.07289L3.57283 3.96084C3.11345 4.42023 3.11345 5.17093 3.57283 5.63031L4.43838 6.49586C3.69048 7.5883 3.16387 8.8432 2.91176 10.1934H1.68207C1.03221 10.1906 0.5 10.7228 0.5 11.3726V12.6276C0.5 13.2774 1.03221 13.8096 1.68207 13.8096H2.90896C3.16106 15.1598 3.69048 16.4119 4.43557 17.5043L3.57003 18.3698C3.11064 18.8292 3.11064 19.5799 3.57003 20.0421L4.08263 20.5547L21.0518 3.58269L20.5392 3.07009C20.0826 2.6107 19.3291 2.6107 18.8697 3.07009Z" fill="white"/>
</g>
<defs>
<clipPath id="clip0_84_287">
<rect width="24" height="24" fill="white" transform="translate(0.5 6.10352e-05)"/>
</clipPath>
</defs>
</svg>
