<svg width="37" height="39" viewBox="0 0 37 39" fill="none" xmlns="http://www.w3.org/2000/svg">
<path d="M17.9863 15.3641C17.5711 15.3641 17.2329 15.7578 17.2329 16.2419V18.3419C17.2329 18.8258 17.5711 19.2195 17.9863 19.2195C18.4003 19.2195 18.7385 18.8258 18.7385 18.3419V16.2419C18.7385 15.7578 18.4003 15.3641 17.9863 15.3641Z" fill="white"/>
<path d="M11.0179 20.7701C11.221 21.1886 11.6852 21.328 12.0439 21.0901C12.4026 20.8522 12.5221 20.3108 12.319 19.8925L11.4113 18.0632C11.2082 17.6449 10.744 17.4971 10.3853 17.7433C10.0266 17.9812 9.90702 18.5225 10.1102 18.9409L11.0179 20.7701Z" fill="white"/>
<path d="M5.09721 25.4293L6.69403 26.5039C7.05275 26.75 7.50918 26.6023 7.72004 26.1839C7.92447 25.7656 7.80492 25.2325 7.4462 24.9863L5.85064 23.9117C5.49192 23.6738 5.03419 23.8133 4.82334 24.2317C4.62019 24.6581 4.73978 25.1914 5.09721 25.4293Z" fill="white"/>
<path d="M29.2791 26.5039L30.7345 25.5277C31.0932 25.2898 31.2192 24.7483 31.0084 24.33C30.8039 23.9116 30.3475 23.764 29.9823 24.0102L28.5269 24.9862C28.1682 25.2241 28.0409 25.7656 28.2518 26.184C28.4626 26.6023 28.9204 26.7417 29.2791 26.5039Z" fill="white"/>
<path d="M23.9339 21.098C24.2926 21.3441 24.7503 21.1964 24.9612 20.778L25.7841 19.1129C25.9872 18.6945 25.8676 18.1613 25.5089 17.9151C25.1502 17.6772 24.6938 17.8167 24.4829 18.2351L23.6601 19.9004C23.4492 20.3187 23.5752 20.8518 23.9339 21.098Z" fill="white"/>
<path d="M35.2549 29.4327H28.3635C27.0212 24.076 22.8452 20.3845 17.993 20.3845C13.142 20.3845 8.96466 24.076 7.62237 29.4327H0.759212C0.343926 29.4327 0.00708008 29.8264 0.00708008 30.3103C0.00708008 30.7944 0.343926 31.1881 0.759212 31.1881H35.2614C35.6767 31.1881 36.0135 30.7944 36.0135 30.3103C36.0135 29.8264 35.6689 29.4327 35.2549 29.4327ZM9.18321 29.4327C10.4625 25.0849 13.9635 22.1319 17.993 22.1319C22.0224 22.1319 25.5169 25.0849 26.8027 29.4327H9.18321Z" fill="white"/>
<path d="M30.5583 33.3455H5.45599C5.04199 33.3455 4.70386 33.7393 4.70386 34.2232C4.70386 34.7072 5.04199 35.101 5.45599 35.101H30.5647C30.98 35.101 31.3181 34.7072 31.3181 34.2232C31.3104 33.731 30.9735 33.3455 30.5583 33.3455Z" fill="white"/>
<path d="M24.6515 37.2501H11.3547C10.9407 37.2501 10.6025 37.6438 10.6025 38.1279C10.6025 38.6118 10.9407 39.0055 11.3547 39.0055H24.6515C25.0655 39.0055 25.4037 38.6118 25.4037 38.1279C25.4037 37.6438 25.0655 37.2501 24.6515 37.2501Z" fill="white"/>
<path d="M17.4577 9.34301C17.7457 9.70391 18.2382 9.71216 18.5403 9.36761L20.6707 6.88211C20.9664 6.53756 20.9664 5.98796 20.6707 5.64341C20.3763 5.29886 19.9045 5.29886 19.61 5.64341L18.7589 6.63596V1.37786C18.7589 0.89381 18.4207 0.500061 18.0067 0.500061C17.5915 0.500061 17.2546 0.89381 17.2546 1.37786V6.63596L16.4034 5.64341C16.1077 5.29886 15.6372 5.29886 15.3415 5.64341C15.0457 5.98796 15.0535 6.53756 15.3415 6.88211L17.4577 9.34301Z" fill="white"/>
</svg>
