<svg width="36" height="39" viewBox="0 0 36 39" fill="none" xmlns="http://www.w3.org/2000/svg">
<path d="M17.979 15.3641C17.5641 15.3641 17.2266 15.7578 17.2266 16.2419V18.3419C17.2266 18.8258 17.5641 19.2195 17.979 19.2195C18.3937 19.2195 18.7312 18.8258 18.7312 18.3419V16.2419C18.7312 15.7578 18.3937 15.3641 17.979 15.3641Z" fill="white"/>
<path d="M11.0107 20.7699C11.2146 21.1884 11.6786 21.3277 12.0372 21.0898C12.3958 20.8519 12.5153 20.3106 12.3114 19.8922L11.4044 18.063C11.2005 17.6446 10.7364 17.4969 10.3778 17.743C10.0193 17.9809 9.89972 18.5223 10.1036 18.9406L11.0107 20.7699Z" fill="white"/>
<path d="M5.09025 25.429L6.68634 26.5036C7.04494 26.7498 7.50197 26.602 7.7129 26.1837C7.9168 25.7653 7.79728 25.2322 7.43869 24.9861L5.84259 23.9115C5.484 23.6736 5.02697 23.8131 4.81603 24.2314C4.61212 24.6579 4.73165 25.1911 5.09025 25.429Z" fill="white"/>
<path d="M29.2715 26.5037L30.727 25.5275C31.0856 25.2896 31.2121 24.7481 31.0011 24.3297C30.7972 23.9114 30.3403 23.7638 29.9746 24.0099L28.5192 24.986C28.1606 25.2239 28.034 25.7654 28.2449 26.1837C28.4558 26.6021 28.9129 26.7414 29.2715 26.5037Z" fill="white"/>
<path d="M23.9272 21.098C24.2857 21.3441 24.7428 21.1964 24.9537 20.778L25.7764 19.1129C25.9803 18.6945 25.8607 18.1613 25.5022 17.9151C25.1436 17.6772 24.6865 17.8167 24.4755 18.2351L23.6529 19.9004C23.4419 20.3187 23.5686 20.8518 23.9272 21.098Z" fill="white"/>
<path d="M35.2476 29.4325H28.3571C27.014 24.0758 22.8375 20.3843 17.986 20.3843C13.1343 20.3843 8.95782 24.0758 7.61485 29.4325H0.752343C0.3375 29.4325 0 29.8262 0 30.3101C0 30.7942 0.3375 31.1879 0.752343 31.1879H35.2547C35.6696 31.1879 36.0071 30.7942 36.0071 30.3101C36.0071 29.8262 35.6625 29.4325 35.2476 29.4325ZM9.17578 29.4325C10.4555 25.0847 13.9571 22.1317 17.986 22.1317C22.0149 22.1317 25.5093 25.0847 26.7961 29.4325H9.17578Z" fill="white"/>
<path d="M30.5507 33.3455H5.44913C5.03428 33.3455 4.69678 33.7393 4.69678 34.2232C4.69678 34.7072 5.03428 35.101 5.44913 35.101H30.5577C30.9725 35.101 31.31 34.7072 31.31 34.2232C31.3031 33.731 30.9656 33.3455 30.5507 33.3455Z" fill="white"/>
<path d="M24.6439 37.2498H11.3478C10.933 37.2498 10.5955 37.6436 10.5955 38.1276C10.5955 38.6115 10.933 39.0053 11.3478 39.0053H24.6439C25.0587 39.0053 25.3962 38.6115 25.3962 38.1276C25.3962 37.6436 25.0587 37.2498 24.6439 37.2498Z" fill="white"/>
<path d="M18.5512 0.777103C18.263 0.416053 17.7708 0.407954 17.4684 0.752504L15.338 3.238C15.0426 3.58255 15.0426 4.13215 15.338 4.4767C15.6333 4.82125 16.1044 4.82125 16.3997 4.4767L17.2505 3.484V8.74225C17.2505 9.2263 17.588 9.62005 18.0027 9.62005C18.4176 9.62005 18.7551 9.2263 18.7551 8.74225V3.484L19.6059 4.4767C19.9012 4.82125 20.3723 4.82125 20.6676 4.4767C20.963 4.13215 20.9559 3.58255 20.6676 3.238L18.5512 0.777103Z" fill="white"/>
</svg>
