<svg width="25" height="24" viewBox="0 0 25 24" fill="none" xmlns="http://www.w3.org/2000/svg">
<path d="M15.5288 13.9311V4.12498C15.5288 2.45516 14.1699 1.09668 12.4998 1.09668C10.8299 1.09668 9.4713 2.45516 9.4713 4.12498V13.931C8.23066 14.8761 7.5 16.3358 7.5 17.9034C7.5 20.6603 9.74281 22.9032 12.4998 22.9032C15.2569 22.9032 17.4999 20.6603 17.4999 17.9034C17.4999 16.336 16.7692 14.8763 15.5288 13.9311ZM12.4998 21.5958C10.4638 21.5958 8.8074 19.9394 8.8074 17.9034C8.8074 16.6575 9.43391 15.5032 10.4833 14.8157C10.6677 14.6949 10.7788 14.4893 10.7788 14.269V4.12498C10.7788 3.17606 11.5509 2.40408 12.4999 2.40408C13.4492 2.40408 14.2215 3.17606 14.2215 4.12498V14.269C14.2215 14.4894 14.3325 14.6949 14.5169 14.8157C15.5662 15.5033 16.1927 16.6576 16.1927 17.9034C16.1925 19.9394 14.5359 21.5958 12.4998 21.5958Z" fill="white"/>
<path d="M12.5 19V13" stroke="#56E33F" stroke-width="1.3" stroke-linecap="round"/>
<circle cx="12.5051" cy="17.9152" r="2.175" fill="#56E33F"/>
<path d="M19.7898 13.0533C19.5976 13.2595 19.2695 13.2642 19.0679 13.0674L17.6475 11.647C17.4507 11.4501 17.4507 11.136 17.6475 10.9392C17.8444 10.7423 18.1585 10.7423 18.3554 10.9392L18.9226 11.5064L18.9226 8.50158C18.9226 8.22501 19.1476 8 19.4242 8C19.7007 8 19.9257 8.22501 19.9257 8.50158L19.9257 11.5064L20.4929 10.9392C20.6898 10.7423 21.0039 10.7423 21.2008 10.9392C21.3977 11.136 21.393 11.4501 21.2008 11.647L19.7898 13.0533Z" fill="#56E33F"/>
</svg>
