<svg width="22" height="21" viewBox="0 0 22 21" fill="none" xmlns="http://www.w3.org/2000/svg">
<path d="M10.7133 9.51606C10.024 9.51606 9.34933 9.31206 8.776 8.9294C8.20266 8.5454 7.756 8.0014 7.492 7.36406C7.228 6.72673 7.15866 6.0254 7.29333 5.3494C7.428 4.67206 7.76 4.05073 8.248 3.56273C8.736 3.07606 9.35733 2.74406 10.0333 2.6094C10.7107 2.47473 11.4107 2.54273 12.048 2.80673C12.6853 3.07073 13.2307 3.51873 13.6133 4.09206C13.9973 4.6654 14.2013 5.34006 14.2013 6.0294C14.2 6.9534 13.832 7.84006 13.1787 8.4934C12.5253 9.14806 11.6387 9.51606 10.7133 9.51606ZM10.7133 3.9374C10.3 3.9374 9.896 4.06006 9.552 4.2894C9.20666 4.51873 8.93866 4.84673 8.78133 5.22806C8.62266 5.61073 8.58133 6.03206 8.66133 6.4374C8.74266 6.84273 8.94133 7.21606 9.23466 7.5094C9.52666 7.8014 9.9 8.00006 10.3053 8.0814C10.712 8.16273 11.132 8.12006 11.5147 7.96273C11.8973 7.80406 12.224 7.53606 12.4533 7.19206C12.684 6.84806 12.8067 6.44273 12.8067 6.0294C12.8053 5.47473 12.5853 4.94273 12.1933 4.55073C11.8 4.1574 11.2693 3.9374 10.7133 3.9374Z" fill="white"/>
<path d="M10.7132 2.19339C10.5292 2.19339 10.3519 2.12006 10.2199 1.98939C10.0892 1.85739 10.0159 1.68006 10.0159 1.49606V0.798728C10.0159 0.613395 10.0892 0.436061 10.2199 0.305395C10.3519 0.174728 10.5292 0.101395 10.7132 0.101395C10.8985 0.101395 11.0759 0.174728 11.2065 0.305395C11.3372 0.436061 11.4105 0.613395 11.4105 0.798728V1.49606C11.4105 1.68006 11.3372 1.85739 11.2065 1.98939C11.0759 2.12006 10.8985 2.19339 10.7132 2.19339Z" fill="white"/>
<path d="M7.50805 3.52139C7.32272 3.52139 7.14538 3.44806 7.01472 3.31739L6.52138 2.82406C6.39072 2.69339 6.31738 2.51473 6.31738 2.33073C6.31738 2.14539 6.39072 1.96806 6.52138 1.83739C6.65205 1.70673 6.82938 1.63339 7.01472 1.63339C7.20005 1.63339 7.37738 1.70673 7.50805 1.83739L8.00138 2.33073C8.09872 2.42806 8.16538 2.55206 8.19205 2.68806C8.21872 2.82273 8.20538 2.96273 8.15205 3.09073C8.10005 3.21739 8.01072 3.32673 7.89605 3.40406C7.78138 3.48006 7.64672 3.52139 7.50805 3.52139Z" fill="white"/>
<path d="M6.18007 6.72673H5.48273C5.2974 6.72673 5.12007 6.6534 4.9894 6.52273C4.85873 6.39206 4.7854 6.21473 4.7854 6.02939C4.7854 5.84406 4.85873 5.66673 4.9894 5.53606C5.12007 5.40539 5.2974 5.33206 5.48273 5.33206H6.18007C6.3654 5.33206 6.54273 5.40539 6.6734 5.53606C6.80407 5.66673 6.8774 5.84406 6.8774 6.02939C6.8774 6.21473 6.80407 6.39206 6.6734 6.52273C6.54273 6.6534 6.3654 6.72673 6.18007 6.72673Z" fill="white"/>
<path d="M7.01472 10.4254C6.87738 10.4254 6.74272 10.3841 6.62805 10.3081C6.51338 10.2307 6.42405 10.1227 6.37072 9.99473C6.31738 9.86807 6.30405 9.72673 6.33072 9.59207C6.35738 9.45607 6.42405 9.33206 6.52138 9.23473L7.01472 8.7414C7.14672 8.61473 7.32272 8.54406 7.50538 8.5454C7.68805 8.54806 7.86405 8.6214 7.99338 8.75073C8.12272 8.88007 8.19605 9.05473 8.19738 9.2374C8.19872 9.42007 8.12805 9.59606 8.00138 9.72806L7.50805 10.2214C7.37738 10.3521 7.20005 10.4254 7.01472 10.4254Z" fill="white"/>
<path d="M10.7132 11.9574C10.5292 11.9574 10.3519 11.8841 10.2199 11.7534C10.0892 11.6227 10.0159 11.4454 10.0159 11.2601V10.5627C10.0159 10.3774 10.0892 10.2001 10.2199 10.0694C10.3519 9.93872 10.5292 9.86539 10.7132 9.86539C10.8985 9.86539 11.0759 9.93872 11.2065 10.0694C11.3372 10.2001 11.4105 10.3774 11.4105 10.5627V11.2601C11.4105 11.4454 11.3372 11.6227 11.2065 11.7534C11.0759 11.8841 10.8985 11.9574 10.7132 11.9574Z" fill="white"/>
<path d="M14.4121 10.4254C14.2281 10.4254 14.0507 10.3521 13.9187 10.2214L13.4267 9.72806C13.2987 9.59606 13.2294 9.42007 13.2307 9.2374C13.2321 9.05473 13.3054 8.88007 13.4347 8.75073C13.5641 8.6214 13.7387 8.54806 13.9214 8.5454C14.1054 8.54406 14.2814 8.61473 14.4121 8.7414L14.9054 9.23473C15.0041 9.33206 15.0694 9.45607 15.0974 9.59207C15.1241 9.72673 15.1094 9.86807 15.0574 9.99473C15.0041 10.1227 14.9147 10.2307 14.8001 10.3081C14.6854 10.3841 14.5507 10.4254 14.4121 10.4254Z" fill="white"/>
<path d="M15.9453 6.72673H15.248C15.0626 6.72673 14.8853 6.6534 14.7547 6.52273C14.6227 6.39206 14.5493 6.21473 14.5493 6.02939C14.5493 5.84406 14.6227 5.66673 14.7547 5.53606C14.8853 5.40539 15.0626 5.33206 15.248 5.33206H15.9453C16.1293 5.33206 16.3067 5.40539 16.4373 5.53606C16.5693 5.66673 16.6427 5.84406 16.6427 6.02939C16.6427 6.21473 16.5693 6.39206 16.4373 6.52273C16.3067 6.6534 16.1293 6.72673 15.9453 6.72673Z" fill="white"/>
<path d="M13.9186 3.52139C13.7812 3.52139 13.6466 3.48006 13.5319 3.40406C13.4172 3.32673 13.3279 3.21739 13.2746 3.09073C13.2226 2.96273 13.2079 2.82273 13.2359 2.68806C13.2626 2.55206 13.3292 2.42806 13.4266 2.33073L13.9186 1.83739C14.0506 1.70673 14.2279 1.63339 14.4119 1.63339C14.5972 1.63339 14.7746 1.70673 14.9052 1.83739C15.0372 1.96806 15.1106 2.14539 15.1106 2.33073C15.1106 2.51473 15.0372 2.69339 14.9052 2.82406L14.4119 3.31739C14.2812 3.44806 14.1039 3.52139 13.9186 3.52139Z" fill="white"/>
<path d="M20.4786 20.3281H0.949286C0.763953 20.3281 0.58662 20.2534 0.455953 20.1227C0.325286 19.9921 0.251953 19.8147 0.251953 19.6294C0.251953 19.4454 0.325286 19.2681 0.455953 19.1361C0.58662 19.0054 0.763953 18.9321 0.949286 18.9321H20.4786C20.664 18.9321 20.8413 19.0054 20.972 19.1361C21.1026 19.2681 21.176 19.4454 21.176 19.6294C21.176 19.8147 21.1026 19.9921 20.972 20.1227C20.8413 20.2534 20.664 20.3281 20.4786 20.3281Z" fill="white"/>
<path d="M6.87726 18.9321C6.78659 18.9321 6.69592 18.9147 6.61059 18.8801C6.52659 18.8441 6.44926 18.7934 6.38526 18.7281L2.19992 14.5427C2.07326 14.4121 2.00259 14.2361 2.00392 14.0521C2.00526 13.8694 2.07859 13.6947 2.20792 13.5654C2.33726 13.4361 2.51326 13.3627 2.69592 13.3614C2.87859 13.3601 3.05459 13.4294 3.18659 13.5574L6.87726 17.2481L9.72792 14.3987H8.62126C8.43592 14.3987 8.25859 14.3254 8.12792 14.1947C7.99726 14.0641 7.92392 13.8867 7.92392 13.7014C7.92392 13.5161 7.99726 13.3387 8.12792 13.2081C8.25859 13.0774 8.43592 13.0041 8.62126 13.0041H11.4066C11.4253 13.0041 11.4426 13.0041 11.4613 13.0054C11.6373 13.0187 11.8013 13.0961 11.9213 13.2241C12.0413 13.3534 12.1079 13.5214 12.1093 13.6974V13.6987V16.4907C12.1093 16.6761 12.0359 16.8534 11.9053 16.9841C11.7733 17.1147 11.5959 17.1894 11.4119 17.1894C11.2266 17.1894 11.0493 17.1147 10.9186 16.9841C10.7879 16.8534 10.7146 16.6761 10.7146 16.4907V15.3854L7.37059 18.7281C7.30659 18.7934 7.22926 18.8441 7.14526 18.8801C7.05992 18.9147 6.96926 18.9321 6.87726 18.9321Z" fill="white"/>
<path d="M14.2013 18.9321C14.1093 18.9321 14.0186 18.9147 13.9346 18.8801C13.8493 18.8441 13.7733 18.7934 13.708 18.7281L12.6626 17.6814C12.5346 17.5507 12.464 17.3747 12.4666 17.1907C12.468 17.0081 12.5413 16.8334 12.6706 16.7041C12.8 16.5747 12.9746 16.5014 13.1573 16.5001C13.34 16.4987 13.516 16.5681 13.648 16.6961L14.2013 17.2481L17.0506 14.3987H15.9453C15.76 14.3987 15.5826 14.3254 15.452 14.1947C15.3213 14.0641 15.248 13.8867 15.248 13.7014C15.248 13.5161 15.3213 13.3387 15.452 13.2081C15.5826 13.0774 15.76 13.0041 15.9453 13.0041H18.7293C18.748 13.0041 18.7666 13.0041 18.7853 13.0054C18.96 13.0187 19.124 13.0961 19.244 13.2241C19.364 13.3534 19.4306 13.5214 19.432 13.6974V13.6987V16.4907C19.432 16.6761 19.3586 16.8534 19.228 16.9841C19.0973 17.1147 18.92 17.1894 18.7346 17.1894C18.5493 17.1894 18.372 17.1147 18.2413 16.9841C18.1106 16.8534 18.0373 16.6761 18.0373 16.4907V15.3854L14.6946 18.7281C14.6293 18.7934 14.5533 18.8441 14.468 18.8801C14.384 18.9147 14.2933 18.9321 14.2013 18.9321Z" fill="white"/>
</svg>
