<svg width="60" height="63" viewBox="0 0 60 63" fill="none" xmlns="http://www.w3.org/2000/svg">
<path d="M54.7463 24.9403C54.7463 36.1488 45.6581 45.2371 34.4496 45.2371C23.2411 45.2371 14.1528 36.1488 14.1528 24.9403C14.1528 13.7319 23.2411 4.64355 34.4496 4.64355C45.6581 4.64355 54.7463 13.7319 54.7463 24.9403Z" fill="#FFDA24"/>
<path d="M17.7394 6.3803L15.8967 8.22306C14.939 9.18077 14.939 10.7395 15.8967 11.6972L17.6932 13.4937C19.1198 11.4066 20.923 9.60348 23.0101 8.17683L21.2136 6.3803C20.2559 5.4292 18.6971 5.4292 17.7394 6.3803ZM51.1601 6.3803C50.2024 5.4292 48.6436 5.4292 47.6859 6.3803L45.8894 8.17683C47.9765 9.60348 49.7796 11.4066 51.2063 13.4937L53.0028 11.6972C53.9605 10.7395 53.9605 9.18077 53.0028 8.22306L51.1601 6.3803ZM35.7575 0H33.1486C31.7946 0 30.6916 1.10301 30.6916 2.45701V5.00649C31.9069 4.77532 33.1618 4.64322 34.4498 4.64322C35.7377 4.64322 36.986 4.77532 38.2079 5.00649V2.45701C38.2079 1.10301 37.1049 0 35.7575 0ZM11.9668 21.1818C10.6128 21.1818 9.50977 22.2848 9.50977 23.6388V26.2477C9.50977 27.5951 10.6194 28.7048 11.9668 28.7048H14.5097C14.2851 27.4829 14.1464 26.2279 14.1464 24.9466C14.1464 23.6586 14.2785 22.4037 14.5097 21.1884H11.9668V21.1818ZM51.2063 36.3796C49.7796 38.4667 47.9765 40.2699 45.8894 41.6965L47.6859 43.493C48.6436 44.4508 50.2024 44.4508 51.1601 43.493L53.0028 41.6503C53.9605 40.6926 53.9605 39.1338 53.0028 38.1761L51.2063 36.3796ZM56.9327 21.1818H54.3832C54.6144 22.4037 54.7465 23.6586 54.7465 24.94C54.7465 26.2279 54.6144 27.4829 54.3832 28.6981H56.9327C58.2801 28.6981 59.3897 27.5951 59.3897 26.2411V23.6322C59.3897 22.2848 58.2801 21.1818 56.9327 21.1818ZM17.6932 36.3796L15.8967 38.1761C14.939 39.1338 14.939 40.6926 15.8967 41.6503L17.7394 43.493C18.6971 44.4508 20.2559 44.4508 21.2136 43.493L23.0101 41.6965C20.923 40.2699 19.1198 38.4667 17.6932 36.3796ZM30.6916 44.8735V47.4229C30.6916 48.7703 31.7946 49.88 33.1486 49.88H35.7575C37.1049 49.88 38.2145 48.7769 38.2145 47.4229V44.8735C36.9926 45.098 35.7443 45.2367 34.4563 45.2367C33.1618 45.2367 31.9069 45.1046 30.6916 44.8735Z" fill="#FFDA24"/>
<path d="M30.6915 3.94283V4.99961C31.9068 4.76844 33.1618 4.63634 34.4497 4.63634C35.7376 4.63634 36.986 4.76844 38.2079 4.99961V3.94283C36.986 3.72487 35.7376 3.59277 34.4497 3.59277C33.1684 3.59277 31.9134 3.72487 30.6915 3.94283ZM51.2062 13.5001L51.9526 12.7537C50.5061 10.6798 48.7096 8.88327 46.6357 7.43681L45.8893 8.18316C47.9765 9.6032 49.7862 11.4129 51.2062 13.5001ZM13.4594 21.1815C13.2415 22.4034 13.1094 23.6584 13.1094 24.9397C13.1094 26.221 13.2415 27.476 13.4594 28.6979H14.5162C14.2916 27.476 14.1529 26.221 14.1529 24.9397C14.1529 23.6518 14.285 22.3968 14.5162 21.1815H13.4594ZM45.8893 41.6963L46.6357 42.4426C48.7096 40.9961 50.5061 39.1996 51.9526 37.1257L51.2062 36.3793C49.7862 38.4665 47.9765 40.2696 45.8893 41.6963ZM55.44 21.1815H54.3832C54.6144 22.4034 54.7464 23.6584 54.7464 24.9397C54.7464 26.2277 54.6144 27.4826 54.3832 28.6979H55.44C55.6579 27.476 55.79 26.221 55.79 24.9397C55.7966 23.6518 55.6579 22.4034 55.44 21.1815ZM30.6915 44.8732V45.93C31.9134 46.1479 33.1684 46.28 34.4497 46.28C35.7376 46.28 36.986 46.1479 38.2079 45.93V44.8732C36.986 45.0978 35.7376 45.2365 34.4497 45.2365C33.1618 45.2365 31.9068 45.1044 30.6915 44.8732ZM17.6931 36.3793L16.9468 37.1257C18.3933 39.1996 20.1898 41.0027 22.2637 42.4426L23.0101 41.6963C20.9229 40.2696 19.1198 38.4665 17.6931 36.3793ZM16.9402 12.7471L17.6865 13.4935C19.1132 11.4063 20.9163 9.6032 23.0035 8.17655L22.2571 7.4302C20.1898 8.87667 18.3867 10.6798 16.9402 12.7471Z" fill="#FFA300"/>
<path opacity="0.15" d="M47.6859 6.3803L45.8894 8.17683C43.6173 6.61808 41.015 5.52827 38.2079 4.99988V2.45701C38.2079 1.10962 37.1049 0 35.7509 0H33.142C31.788 0 30.685 1.10301 30.685 2.45701V5.00649C27.8779 5.53488 25.2756 6.62468 23.0035 8.18343L21.207 6.38691C20.2493 5.4292 18.6905 5.4292 17.7328 6.38691L15.8901 8.22966C14.9324 9.18737 14.9324 10.7461 15.8901 11.7038L17.6866 13.5003C16.1278 15.7724 15.038 18.3747 14.5097 21.1818H11.9668C10.6128 21.1818 9.50977 22.2848 9.50977 23.6388V26.2477C9.50977 27.5951 10.6194 28.7048 11.9668 28.7048H14.5097C15.038 31.5118 16.1344 34.1141 17.6866 36.3862L15.8901 38.1827C14.9324 39.1404 14.9324 40.6992 15.8901 41.6569L16.9534 42.7269L52.2234 7.45689L51.1534 6.39351C50.2023 5.4292 48.6436 5.4292 47.6859 6.3803Z" fill="white"/>
<path d="M31.9794 13.7451C25.282 13.7451 19.6084 18.1175 17.6336 24.161C13.8622 24.9998 10.7976 27.6616 9.38411 31.1754C4.29176 31.3471 0.209961 35.5214 0.209961 40.6533C0.209961 45.7853 4.27854 49.9464 9.35769 50.1379V50.1511H32.1511V13.7517C32.0983 13.7517 32.0388 13.7451 31.9794 13.7451Z" fill="white"/>
<path d="M46.9526 26.9815C46.0411 19.5841 39.7863 13.8378 32.1577 13.752V50.158H46.5299V50.1316C52.7054 49.8608 57.6327 44.7882 57.6327 38.5466C57.6261 32.4437 52.9234 27.4571 46.9526 26.9815Z" fill="#F2F4F9"/>
<path d="M19.7274 42.8724L10.5532 45.336L9.77385 45.5474C8.86237 45.8446 8.01035 46.3532 7.28382 47.0731C4.8136 49.5433 4.8136 53.5525 7.28382 56.0227L20.335 42.9715C20.2095 42.846 19.9982 42.7998 19.7274 42.8724Z" fill="#00E1FF"/>
<path d="M17.7659 53.5397L17.9772 52.7537L20.4408 43.5796C20.5135 43.3154 20.4672 43.104 20.3418 42.9785L7.29053 56.0297C9.76075 58.5 13.7699 58.5 16.2401 56.0297C16.9601 55.3032 17.462 54.4446 17.7659 53.5397Z" fill="#00C6F4"/>
<path d="M48.9339 44.7752L39.7598 47.2388L38.9804 47.4502C38.0689 47.7474 37.2103 48.256 36.4904 48.9759C34.0201 51.4461 34.0201 55.4553 36.4904 57.9255L49.5416 44.8743C49.4095 44.7422 49.1981 44.7026 48.9339 44.7752Z" fill="#00E1FF"/>
<path d="M46.9655 55.4352L47.1769 54.6492L49.6405 45.4817C49.7132 45.2175 49.6669 44.9995 49.5414 44.874L36.4902 57.9252C38.9605 60.3955 42.9696 60.3955 45.4398 57.9252C46.1598 57.1987 46.6617 56.3467 46.9655 55.4352Z" fill="#00C6F4"/>
<path d="M29.2249 53.1497L23.657 54.6424L23.1814 54.7679C22.6332 54.9528 22.1114 55.2567 21.6689 55.6992C20.1696 57.1985 20.1696 59.6291 21.6689 61.1284L29.5948 53.2091C29.5155 53.1299 29.39 53.1035 29.2249 53.1497Z" fill="#00E1FF"/>
<path d="M28.0292 59.6157L28.1547 59.1402L29.6474 53.5723C29.6936 53.4137 29.6672 53.2816 29.5879 53.209L21.6621 61.1282C23.1614 62.6275 25.592 62.6275 27.0913 61.1282C27.5404 60.6857 27.8509 60.1705 28.0292 59.6157Z" fill="#00C6F4"/>
<path opacity="0.2" d="M20.4407 43.5796L18.6772 50.158H27.5212L20.3417 42.9785C20.4672 43.104 20.5068 43.3154 20.4407 43.5796Z" fill="#122C3D"/>
<path opacity="0.2" d="M49.6408 45.4817L48.4585 49.8739C50.0106 49.5437 51.4439 48.9096 52.6922 48.0311L49.5351 44.874C49.6672 44.9995 49.7068 45.2109 49.6408 45.4817Z" fill="#122C3D"/>
</svg>
