<svg width="50" height="29" viewBox="0 0 50 29" fill="none" xmlns="http://www.w3.org/2000/svg">
<path d="M42.2468 2.71596L30.0953 13.1662C29.4846 13.2528 28.8928 13.399 28.3388 13.6048C27.2181 10.4859 24.1393 8.11977 20.3364 7.54582C22.5463 2.88922 28.0176 -0.316296 34.3011 0.0248486C36.1773 0.127729 37.9591 0.555462 39.5771 1.24313C40.5279 1.64919 41.422 2.14201 42.2468 2.71596Z" fill="#FBE2A7"/>
<path d="M20.3363 7.54584C20.1789 7.88153 20.0341 8.22813 19.9082 8.58003C19.4675 8.52586 19.0205 8.49344 18.5608 8.49344C13.6059 8.49344 9.58262 11.9534 9.58262 16.2147C9.58262 16.4367 9.58887 16.6533 9.61416 16.8699L9.76523 18.4131L8.02754 18.007C7.69385 17.9258 7.35381 17.8878 7.02022 17.8878C6.825 17.8878 6.62988 17.8987 6.43467 17.9257C4.73477 18.1478 3.3874 19.3769 3.22998 20.8551C3.16074 21.4832 3.30557 22.1113 3.63926 22.669L4.35693 23.8548L2.8585 24.2121C1.91406 24.4342 1.25928 25.1759 1.25928 26.0152C1.25928 27.0494 2.23516 27.8886 3.4377 27.8886H12.9763L11.7171 28.9715H3.4377C3.22988 28.9715 3.02842 28.9552 2.8333 28.9228C1.42295 28.7062 0.302246 27.7479 0.0567383 26.535C0.0189453 26.3671 0 26.1938 0 26.0151C0 24.6614 1.07031 23.5135 2.51846 23.167C2.09033 22.4577 1.88252 21.6293 1.97705 20.7521C2.18477 18.7866 3.97295 17.1514 6.2458 16.8536C6.98252 16.7615 7.7002 16.8049 8.35498 16.9619C8.33603 16.7128 8.31719 16.4637 8.31719 16.2147C8.31719 11.3524 12.907 7.41046 18.5609 7.41046C19.1653 7.41046 19.7635 7.45917 20.3363 7.54584Z" fill="url(#paint0_linear_1_604)"/>
<path d="M27.1375 13.9233L27.5512 15.0704L28.1266 14.8588L30.0959 13.1651C29.4838 13.2527 28.8947 13.3987 28.3403 13.6025C27.2173 10.4886 24.1379 8.11709 20.3387 7.54407C20.1783 7.88227 20.0355 8.22795 19.9104 8.5806C23.2858 9.01438 26.1018 11.0505 27.1375 13.9233Z" fill="#F0DB70"/>
<path d="M27.1375 13.9233L27.5512 15.0704L28.1266 14.8588L30.0959 13.1651C29.4838 13.2527 28.8947 13.3987 28.3403 13.6025C27.2173 10.4886 24.1379 8.11709 20.3387 7.54407C20.1783 7.88227 20.0355 8.22795 19.9104 8.5806C23.2858 9.01438 26.1018 11.0505 27.1375 13.9233Z" fill="url(#paint1_linear_1_604)"/>
<path d="M19.3243 12.9067C19.2132 11.3938 19.4293 9.93747 19.9104 8.58062C19.4684 8.52377 19.0176 8.49152 18.559 8.49152C13.6076 8.49152 9.57969 11.956 9.57969 16.2142C9.57969 16.4353 9.59141 16.6539 9.6123 16.8701L9.76299 18.4139L8.02539 18.0051C7.6958 17.9277 7.35645 17.8883 7.01768 17.8883C6.82461 17.8883 6.62852 17.9012 6.43545 17.9263C4.7335 18.1481 3.38457 19.3788 3.22842 20.8526C3.16074 21.4842 3.30342 22.1119 3.63916 22.6679L4.35547 23.8534L2.85889 24.2109C1.91631 24.4359 1.25781 25.178 1.25781 26.0155C1.25781 27.0482 2.23477 27.8885 3.43623 27.8885H12.976L22.4556 19.7361C20.6625 17.8394 19.5133 15.4786 19.3243 12.9067Z" fill="url(#paint2_linear_1_604)"/>
<path opacity="0.3" d="M19.3243 12.9067C19.2132 11.3938 19.4293 9.93747 19.9104 8.58062C19.4684 8.52377 19.0176 8.49152 18.559 8.49152C13.6076 8.49152 9.57969 11.956 9.57969 16.2142C9.57969 16.4353 9.59141 16.6539 9.6123 16.8701L9.76299 18.4139L8.02539 18.0051C7.6958 17.9277 7.35645 17.8883 7.01768 17.8883C6.82461 17.8883 6.62852 17.9012 6.43545 17.9263C4.7335 18.1481 3.38457 19.3788 3.22842 20.8526C3.16074 21.4842 3.30342 22.1119 3.63916 22.6679L4.35547 23.8534L2.85889 24.2109C1.91631 24.4359 1.25781 25.178 1.25781 26.0155C1.25781 27.0482 2.23477 27.8885 3.43623 27.8885H12.976L22.4556 19.7361C20.6625 17.8394 19.5133 15.4786 19.3243 12.9067Z" fill="url(#paint3_linear_1_604)"/>
<path d="M19.3243 12.9066C19.5132 15.4786 20.6626 17.8394 22.4554 19.7361L28.1266 14.8589L27.5512 15.0705L27.1375 13.9234C26.1018 11.0507 23.2858 9.01447 19.9105 8.58069C19.4293 9.93746 19.2131 11.3937 19.3243 12.9066Z" fill="#F0DB70"/>
<path d="M19.3243 12.9066C19.5132 15.4786 20.6626 17.8394 22.4554 19.7361L28.1266 14.8589L27.5512 15.0705L27.1375 13.9234C26.1018 11.0507 23.2858 9.01447 19.9105 8.58069C19.4293 9.93746 19.2131 11.3937 19.3243 12.9066Z" fill="url(#paint4_linear_1_604)"/>
<path opacity="0.3" d="M19.3243 12.9066C19.5132 15.4786 20.6626 17.8394 22.4554 19.7361L28.1266 14.8589L27.5512 15.0705L27.1375 13.9234C26.1018 11.0507 23.2858 9.01447 19.9105 8.58069C19.4293 9.93746 19.2131 11.3937 19.3243 12.9066Z" fill="url(#paint5_linear_1_604)"/>
<path d="M32.4818 13.1389C35.8825 13.5494 38.5919 15.9249 39.0128 18.8559C39.2342 20.3978 38.8383 21.8513 38.0102 23.0594H39.4511C44.4554 21.0045 47.8319 16.4893 47.453 11.332C47.1988 7.87172 45.2125 4.79109 42.2453 2.71667L30.0959 13.1651C30.8595 13.0558 31.6597 13.0396 32.4818 13.1389Z" fill="#F0DB70"/>
<path d="M50 26.0154C50 24.3897 48.4533 23.0595 46.5628 23.0595H39.4511C38.3314 23.5193 37.1307 23.8553 35.8715 24.0478L35.8068 24.1423H46.563C47.7638 24.1423 48.7409 24.9825 48.7409 26.0155C48.7409 27.0482 47.7638 27.8884 46.563 27.8884H12.9757L11.7166 28.9713H46.5628C48.4533 28.9713 50 27.6412 50 26.0154Z" fill="#DFDBCB"/>
<path d="M39.0127 18.8559C38.5918 15.9249 35.8823 13.5495 32.4816 13.1389C31.6596 13.0397 30.8594 13.056 30.0958 13.1651L28.1265 14.8588L28.8349 14.5982C29.636 14.3037 30.4882 14.1543 31.3668 14.1543C31.6779 14.1543 31.9939 14.1734 32.3062 14.2112C35.1198 14.5509 37.4145 16.56 37.7624 18.9886C37.9413 20.232 37.6518 21.4495 36.925 22.5097L35.8713 24.0478C37.1305 23.8553 38.3312 23.5192 39.4509 23.0595H38.01C38.8382 21.8513 39.2341 20.3979 39.0127 18.8559Z" fill="#F4F4C5"/>
<path d="M46.5631 24.1423H35.8069L35.8717 24.0478L36.9254 22.5097C37.6521 21.4495 37.9417 20.2321 37.7628 18.9886C37.4147 16.5599 35.1201 14.5509 32.3066 14.2112C31.9943 14.1734 31.6782 14.1543 31.3672 14.1543C30.4886 14.1543 29.6364 14.3037 28.8353 14.5982L28.1269 14.8588L22.4557 19.736L12.9761 27.8883H46.5633C47.7641 27.8883 48.7411 27.0481 48.7411 26.0154C48.7409 24.9825 47.764 24.1423 46.5631 24.1423Z" fill="url(#paint6_linear_1_604)"/>
<defs>
<linearGradient id="paint0_linear_1_604" x1="10.1682" y1="34.5012" x2="10.1682" y2="18.0112" gradientUnits="userSpaceOnUse">
<stop stop-color="#C2BD9C"/>
<stop offset="1" stop-color="#FEF7E8"/>
</linearGradient>
<linearGradient id="paint1_linear_1_604" x1="25.0032" y1="34.5014" x2="25.0032" y2="18.0101" gradientUnits="userSpaceOnUse">
<stop stop-color="#C2BD9C"/>
<stop offset="1" stop-color="#FEF7E8"/>
</linearGradient>
<linearGradient id="paint2_linear_1_604" x1="11.8565" y1="34.5014" x2="11.8565" y2="18.0101" gradientUnits="userSpaceOnUse">
<stop stop-color="#C2BD9C"/>
<stop offset="1" stop-color="#FEF7E8"/>
</linearGradient>
<linearGradient id="paint3_linear_1_604" x1="20.2317" y1="2.31022" x2="16.5138" y2="14.443" gradientUnits="userSpaceOnUse">
<stop stop-color="#C2BD9C"/>
<stop offset="1" stop-color="#FEF7E8"/>
</linearGradient>
<linearGradient id="paint4_linear_1_604" x1="23.7111" y1="34.5014" x2="23.7111" y2="18.0102" gradientUnits="userSpaceOnUse">
<stop stop-color="#C2BD9C"/>
<stop offset="1" stop-color="#FEF7E8"/>
</linearGradient>
<linearGradient id="paint5_linear_1_604" x1="1.25754" y1="14.1583" x2="48.7408" y2="14.1583" gradientUnits="userSpaceOnUse">
<stop stop-color="#C2BD9C"/>
<stop offset="1" stop-color="#FEF7E8"/>
</linearGradient>
<linearGradient id="paint6_linear_1_604" x1="25.3641" y1="21.9252" x2="50.0724" y2="33.7657" gradientUnits="userSpaceOnUse">
<stop stop-color="#EEE9D2"/>
<stop offset="1" stop-color="#FEF7E8"/>
</linearGradient>
</defs>
</svg>
