<svg width="24" height="25" viewBox="0 0 24 25" fill="none" xmlns="http://www.w3.org/2000/svg">
<rect y="0.83474" width="24" height="24" rx="4" fill="#29E0AB"/>
<path d="M14.5093 9.5014C14.8755 9.09224 15.4077 8.83474 16 8.83474C17.1046 8.83474 18 9.73017 18 10.8347C18 11.9393 17.1046 12.8347 16 12.8347H6M9.67284 7.94585C9.91699 7.67307 10.2718 7.5014 10.6667 7.5014C11.4031 7.5014 12 8.09836 12 8.83474C12 9.57112 11.4031 10.1681 10.6667 10.1681H6M11.6729 17.7236C11.917 17.9964 12.2718 18.1681 12.6667 18.1681C13.4031 18.1681 14 17.5711 14 16.8347C14 16.0983 13.4031 15.5014 12.6667 15.5014H6" stroke="white" stroke-width="1.2" stroke-linecap="round" stroke-linejoin="round"/>
</svg>
