<svg width="24" height="24" viewBox="0 0 24 24" fill="none" xmlns="http://www.w3.org/2000/svg">
<path d="M21.987 6.03837L8.487 1.53838C8.37198 1.5001 8.2494 1.49027 8.12975 1.50973C8.0101 1.52919 7.89696 1.57737 7.8 1.65013L3 5.25013V1.50013H1.5V22.5001H3V8.25013L7.8 11.8501C7.89704 11.923 8.01032 11.9713 8.13011 11.9907C8.2499 12.0102 8.37263 12.0003 8.48775 11.9619L21.9877 7.46188C22.137 7.41203 22.2668 7.31652 22.3587 7.18886C22.4507 7.06119 22.5002 6.90784 22.5002 6.7505C22.5002 6.59316 22.4507 6.43981 22.3587 6.31214C22.2668 6.18448 22.137 6.08897 21.9877 6.03913L21.987 6.03837ZM7.5 9.75013L3.50025 6.75013L7.5 3.75013V9.75013ZM10.5 9.70963L9 10.2099V3.29038L10.5 3.79063V9.70963ZM13.5 8.70988L12 9.20938V4.29088L13.5 4.79038V8.70988ZM15 8.20963V5.29063L19.3785 6.75013L15 8.20963Z" fill="white"/>
<path d="M15 16.5C15 15.7044 14.6839 14.9413 14.1213 14.3787C13.5587 13.8161 12.7956 13.5 12 13.5C11.2044 13.5 10.4413 13.8161 9.87868 14.3787C9.31607 14.9413 9 15.7044 9 16.5H10.5C10.5 16.2033 10.588 15.9133 10.7528 15.6666C10.9176 15.42 11.1519 15.2277 11.426 15.1142C11.7001 15.0006 12.0017 14.9709 12.2926 15.0288C12.5836 15.0867 12.8509 15.2296 13.0607 15.4393C13.2704 15.6491 13.4133 15.9164 13.4712 16.2074C13.5291 16.4983 13.4994 16.7999 13.3858 17.074C13.2723 17.3481 13.08 17.5824 12.8334 17.7472C12.5867 17.912 12.2967 18 12 18H6V19.5H12C12.7953 19.499 13.5578 19.1826 14.1202 18.6202C14.6826 18.0578 14.999 17.2953 15 16.5Z" fill="white"/>
<path d="M19.5 16.5C18.7047 16.501 17.9422 16.8174 17.3798 17.3798C16.8174 17.9422 16.501 18.7047 16.5 19.5H18C18 19.2033 18.088 18.9133 18.2528 18.6666C18.4176 18.42 18.6519 18.2277 18.926 18.1142C19.2001 18.0006 19.5017 17.9709 19.7926 18.0288C20.0836 18.0867 20.3509 18.2296 20.5607 18.4393C20.7704 18.6491 20.9133 18.9164 20.9712 19.2074C21.0291 19.4983 20.9994 19.7999 20.8858 20.074C20.7723 20.3481 20.58 20.5824 20.3334 20.7472C20.0867 20.912 19.7967 21 19.5 21H9V22.5H19.5C20.2956 22.5 21.0587 22.1839 21.6213 21.6213C22.1839 21.0587 22.5 20.2956 22.5 19.5C22.5 18.7044 22.1839 17.9413 21.6213 17.3787C21.0587 16.8161 20.2956 16.5 19.5 16.5Z" fill="white"/>
</svg>
