<svg width="24" height="24" viewBox="0 0 24 24" fill="none" xmlns="http://www.w3.org/2000/svg">
<path d="M20.693 17.3296C21.0505 15.9961 21.0965 14.5983 20.8273 13.2442C20.5581 11.8901 19.9809 10.616 19.1406 9.52068C18.3002 8.42532 17.2191 7.53798 15.9809 6.92731C14.7427 6.31664 13.3806 5.99902 12 5.99902C10.6194 5.99902 9.25731 6.31664 8.01911 6.92731C6.78092 7.53798 5.69981 8.42532 4.85943 9.52068C4.01905 10.616 3.44194 11.8901 3.17274 13.2442C2.90355 14.5983 2.94948 15.9961 3.307 17.3296" stroke="#474A8D" stroke-width="2" stroke-linecap="round"/>
<path d="M12.7657 15.5815C13.2527 16.2915 12.9097 17.3735 11.9997 17.9985C11.0897 18.6245 9.95668 18.5565 9.46968 17.8475C8.94968 17.0915 7.15568 12.8405 6.06668 10.2105C5.86168 9.71547 6.46668 9.29947 6.85668 9.66847C8.92068 11.6285 12.2467 14.8255 12.7657 15.5815Z" stroke="#474A8D" stroke-width="2"/>
<path d="M11.9996 6V8M5.63564 8.636L7.04964 10.05M18.3636 8.636L16.9496 10.05M20.6926 17.33L18.7616 16.812M3.30664 17.33L5.23764 16.812" stroke="white" stroke-width="2" stroke-linecap="round"/>
</svg>
