<svg width="25" height="25" viewBox="0 0 25 25" fill="none" xmlns="http://www.w3.org/2000/svg">
<path d="M3.5 12.5001C3.50917 14.6929 4.3186 16.8069 5.77628 18.4451C7.23396 20.0833 9.23959 21.133 11.4165 21.397C13.5934 21.661 15.7918 21.1211 17.5987 19.8788C19.4057 18.6364 20.697 16.7771 21.23 14.6501C20.5095 15.3117 19.6583 15.815 18.7313 16.1274C17.8044 16.4399 16.8222 16.5546 15.8482 16.4641C14.8741 16.3737 13.9299 16.0801 13.0763 15.6023C12.2227 15.1245 11.4788 14.4731 10.8924 13.6901C10.306 12.9071 9.89029 12.0099 9.67197 11.0564C9.45365 10.1028 9.43762 9.11413 9.62489 8.15401C9.81216 7.19389 10.1986 6.28368 10.7593 5.48208C11.3199 4.68048 12.0424 4.0053 12.88 3.50006H12.5C10.1131 3.50006 7.82387 4.44827 6.13604 6.1361C4.44821 7.82393 3.5 10.1131 3.5 12.5001Z" stroke="#428FDB" stroke-width="1.5" stroke-linecap="round" stroke-linejoin="round"/>
</svg>
