<svg width="37" height="37" viewBox="0 0 37 37" fill="none" xmlns="http://www.w3.org/2000/svg">
<g clip-path="url(#clip0_0_651)">
<path d="M18.7499 30.4123C25.3289 30.4123 30.6622 25.079 30.6622 18.5001C30.6622 11.9211 25.3289 6.58778 18.7499 6.58778C12.171 6.58778 6.83765 11.9211 6.83765 18.5001C6.83765 25.079 12.171 30.4123 18.7499 30.4123Z" fill="#97019A"/>
<path d="M18.75 31.1292C11.7863 31.1292 6.12085 25.4638 6.12085 18.5001C6.12085 11.5363 11.7863 5.87088 18.75 5.87088C25.7138 5.87088 31.3792 11.5363 31.3792 18.5001C31.3792 25.4638 25.7138 31.1292 18.75 31.1292ZM18.75 7.30511C12.5771 7.30511 7.55508 12.3271 7.55508 18.5001C7.55508 24.673 12.5771 29.695 18.75 29.695C24.923 29.695 29.945 24.673 29.945 18.5001C29.945 12.3271 24.923 7.30511 18.75 7.30511Z" fill="#97019A"/>
<path d="M27.6423 4.3958C27.5165 4.3958 27.3891 4.36275 27.2734 4.29307C24.707 2.74999 21.7597 1.9343 18.7501 1.9343C15.7405 1.9343 12.7931 2.74999 10.2266 4.29307C9.88725 4.49712 9.44653 4.38736 9.24255 4.04803C9.03843 3.70863 9.14819 3.26798 9.48759 3.06387C12.2772 1.38663 15.4801 0.500061 18.7501 0.500061C22.02 0.500061 25.223 1.38663 28.0125 3.06394C28.3519 3.26805 28.4617 3.70863 28.2576 4.0481C28.123 4.2719 27.8857 4.3958 27.6423 4.3958Z" fill="#97019A"/>
<path d="M3.92918 28.1102C3.68576 28.1102 3.44845 27.9863 3.31387 27.7625C1.63657 24.973 0.75 21.77 0.75 18.5001C0.75 15.2301 1.63657 12.0272 3.31387 9.23758C3.51806 8.89825 3.95857 8.7885 4.29804 8.99254C4.63744 9.19666 4.7472 9.63724 4.54308 9.97664C2.99993 12.5431 2.18423 15.4905 2.18423 18.5001C2.18423 21.5096 2.99993 24.457 4.54301 27.0235C4.74712 27.3629 4.63737 27.8035 4.29797 28.0076C4.18237 28.077 4.0549 28.1102 3.92918 28.1102Z" fill="#97019A"/>
<path d="M33.5708 28.1102C33.445 28.1102 33.3176 28.0771 33.2019 28.0074C32.8625 27.8033 32.7528 27.3627 32.9569 27.0233C34.5001 24.4569 35.3158 21.5096 35.3158 18.5C35.3158 15.4904 34.5001 12.543 32.957 9.97657C32.7529 9.63717 32.8626 9.19652 33.202 8.99248C33.5414 8.78829 33.9821 8.89812 34.1862 9.23751C35.8634 12.0272 36.75 15.2301 36.75 18.5001C36.75 21.77 35.8634 24.973 34.1861 27.7625C34.0515 27.9863 33.8142 28.1102 33.5708 28.1102Z" fill="#97019A"/>
<path d="M18.7501 36.5001C15.4801 36.5001 12.2772 35.6135 9.48759 33.9362C9.14819 33.7321 9.03843 33.2915 9.24255 32.952C9.44667 32.6126 9.88732 32.5029 10.2266 32.707C12.7931 34.2502 15.7405 35.0658 18.7501 35.0658C21.7597 35.0658 24.707 34.2501 27.2735 32.7071C27.6128 32.5028 28.0535 32.6127 28.2576 32.9521C28.4617 33.2915 28.3519 33.7321 28.0125 33.9363C25.223 35.6135 22.02 36.5001 18.7501 36.5001Z" fill="#97019A"/>
<path d="M32.8459 15.6933C32.5243 15.6933 32.2318 15.4754 32.1506 15.1492C31.5473 12.7266 30.2906 10.5082 28.5162 8.73393C26.7419 6.9596 24.5236 5.7029 22.1009 5.09962C21.7166 5.00393 21.4826 4.61475 21.5783 4.23049C21.674 3.84616 22.0634 3.61216 22.4474 3.70786C25.1228 4.374 27.5719 5.76119 29.5304 7.7196C31.4888 9.67809 32.8761 12.1273 33.5422 14.8027C33.6379 15.187 33.4039 15.5761 33.0196 15.6718C32.9615 15.6863 32.9031 15.6933 32.8459 15.6933Z" fill="#97019A"/>
<path d="M4.65414 15.6933C4.59677 15.6933 4.53848 15.6863 4.48033 15.6718C4.096 15.5761 3.862 15.1869 3.95769 14.8027C4.62384 12.1274 6.01103 9.67816 7.96945 7.71961C9.92793 5.76119 12.3771 4.37393 15.0525 3.70786C15.4367 3.61209 15.826 3.84609 15.9216 4.23049C16.0173 4.61482 15.7834 5.00393 15.399 5.09962C12.9763 5.70291 10.758 6.9596 8.9837 8.73394C7.20937 10.5083 5.95267 12.7266 5.34939 15.1492C5.26825 15.4754 4.97575 15.6933 4.65414 15.6933Z" fill="#97019A"/>
<path d="M32.7409 23.1421C32.677 23.1421 32.612 23.1335 32.5475 23.1154C32.166 23.0088 31.9432 22.6131 32.0499 22.2318C32.0849 22.1067 32.1187 21.9785 32.1506 21.8507C32.2463 21.4664 32.6357 21.2323 33.0198 21.3282C33.4041 21.424 33.638 21.8132 33.5422 22.1974C33.5072 22.3383 33.4698 22.4797 33.4312 22.6178C33.3426 22.9347 33.0545 23.1421 32.7409 23.1421Z" fill="#97019A"/>
<path d="M22.2736 33.3137C21.9521 33.3137 21.6595 33.0958 21.5783 32.7697C21.4826 32.3854 21.7165 31.9963 22.1009 31.9006C24.5236 31.2973 26.742 30.0406 28.5163 28.2663C29.4375 27.345 30.2208 26.3055 30.8446 25.1766C31.0361 24.8299 31.4724 24.7041 31.8191 24.8957C32.1657 25.0872 32.2915 25.5235 32.1 25.8702C31.4113 27.1169 30.5468 28.2642 29.5305 29.2805C27.572 31.239 25.1228 32.6262 22.4475 33.2923C22.3893 33.3068 22.331 33.3137 22.2736 33.3137Z" fill="#97019A"/>
<path d="M15.2263 33.3137C15.169 33.3137 15.1107 33.3067 15.0525 33.2923C12.3772 32.6261 9.928 31.2389 7.96945 29.2805C6.01103 27.322 4.62377 24.8728 3.9577 22.1975C3.862 21.8132 4.09593 21.4241 4.48033 21.3284C4.86445 21.2327 5.25377 21.4666 5.34946 21.851C5.95275 24.2737 7.20944 26.4921 8.98378 28.2663C10.7581 30.0407 12.9765 31.2974 15.3991 31.9006C15.7834 31.9963 16.0174 32.3855 15.9217 32.7698C15.8405 33.0958 15.548 33.3137 15.2263 33.3137Z" fill="#97019A"/>
</g>
<defs>
<clipPath id="clip0_0_651">
<rect width="36" height="36" fill="white" transform="translate(0.75 0.500061)"/>
</clipPath>
</defs>
</svg>
