<svg width="37" height="37" viewBox="0 0 37 37" fill="none" xmlns="http://www.w3.org/2000/svg">
<path d="M18.25 8.00006C18.6478 8.00006 19.0294 7.84203 19.3107 7.56072C19.592 7.27942 19.75 6.89789 19.75 6.50006V3.50006C19.75 3.10224 19.592 2.72071 19.3107 2.4394C19.0294 2.1581 18.6478 2.00006 18.25 2.00006C17.8522 2.00006 17.4706 2.1581 17.1893 2.4394C16.908 2.72071 16.75 3.10224 16.75 3.50006V6.50006C16.75 6.89789 16.908 7.27942 17.1893 7.56072C17.4706 7.84203 17.8522 8.00006 18.25 8.00006Z" fill="#FF8A00"/>
<path d="M18.25 35C18.6478 35 19.0294 34.842 19.3107 34.5607C19.592 34.2794 19.75 33.8979 19.75 33.5V30.5C19.75 30.1022 19.592 29.7207 19.3107 29.4394C19.0294 29.1581 18.6478 29 18.25 29C17.8522 29 17.4706 29.1581 17.1893 29.4394C16.908 29.7207 16.75 30.1022 16.75 30.5V33.5C16.75 33.8979 16.908 34.2794 17.1893 34.5607C17.4706 34.842 17.8522 35 18.25 35Z" fill="#FF8A00"/>
<path d="M6.25 17.0001H3.25C2.85218 17.0001 2.47064 17.1581 2.18934 17.4394C1.90803 17.7207 1.75 18.1022 1.75 18.5001C1.75 18.8979 1.90803 19.2794 2.18934 19.5607C2.47064 19.842 2.85218 20.0001 3.25 20.0001H6.25C6.64782 20.0001 7.02936 19.842 7.31066 19.5607C7.59197 19.2794 7.75 18.8979 7.75 18.5001C7.75 18.1022 7.59197 17.7207 7.31066 17.4394C7.02936 17.1581 6.64782 17.0001 6.25 17.0001Z" fill="#FF8A00"/>
<path d="M33.2502 17H30.2502C29.8524 17 29.4709 17.158 29.1896 17.4393C28.9083 17.7207 28.7502 18.1022 28.7502 18.5C28.7502 18.8978 28.9083 19.2794 29.1896 19.5607C29.4709 19.842 29.8524 20 30.2502 20H33.2502C33.6481 20 34.0296 19.842 34.3109 19.5607C34.5922 19.2794 34.7502 18.8978 34.7502 18.5C34.7502 18.1022 34.5922 17.7207 34.3109 17.4393C34.0296 17.158 33.6481 17 33.2502 17Z" fill="#FF8A00"/>
<path d="M7.34048 24.3255C7.50926 24.1925 7.70466 24.0973 7.91345 24.0463C8.12223 23.9954 8.33952 23.9899 8.55061 24.0303C8.76169 24.0706 8.96165 24.1558 9.13693 24.2802C9.31221 24.4045 9.45872 24.5651 9.56654 24.751C9.67437 24.9369 9.74099 25.1438 9.76189 25.3577C9.78279 25.5716 9.75749 25.7875 9.6877 25.9907C9.61791 26.194 9.50525 26.3799 9.35736 26.5358C9.20947 26.6917 9.02981 26.8141 8.83052 26.8945L6.24226 28.457C6.06868 28.6165 5.86155 28.7349 5.63612 28.8036C5.41069 28.8723 5.17271 28.8896 4.93973 28.8541C4.70674 28.8186 4.48469 28.7313 4.28994 28.5986C4.09519 28.4659 3.93271 28.2911 3.81446 28.0873C3.69622 27.8834 3.62524 27.6556 3.60674 27.4207C3.58824 27.1857 3.62271 26.9496 3.70759 26.7298C3.79248 26.5099 3.92562 26.3119 4.0972 26.1504C4.26878 25.9888 4.47444 25.8678 4.699 25.7963L7.34048 24.3255Z" fill="#FF8A00"/>
<path d="M29.6662 13.0029C29.3446 13.1669 28.9745 13.2094 28.6241 13.1226C28.2736 13.0358 27.9662 12.8254 27.7583 12.5302C27.5504 12.235 27.456 11.8747 27.4924 11.5154C27.5288 11.1562 27.6936 10.8221 27.9564 10.5746L30.3976 8.79092C30.7432 8.5975 31.1448 8.52891 31.5351 8.59666C31.9253 8.66442 32.2803 8.86439 32.5405 9.16299C32.7339 9.50862 32.8025 9.91027 32.7347 10.3005C32.667 10.6907 32.467 11.0457 32.1684 11.3059L29.6662 13.0029Z" fill="#FF8A00"/>
<path d="M12.1523 29.062C11.6381 28.7642 10.9795 28.9418 10.6825 29.4556L9.60641 31.3195C9.30896 31.8341 9.48556 32.4923 10.0001 32.7893C10.5147 33.087 11.1725 32.9104 11.4699 32.3956L12.546 30.5317C12.8434 30.0171 12.6669 29.359 12.1523 29.062Z" fill="#FF8A00"/>
<path d="M26.5002 4.21076C25.986 3.91369 25.3278 4.09062 25.0304 4.60444L23.9543 6.4683C23.6569 6.98289 23.8335 7.64109 24.348 7.93809C24.8626 8.2358 25.5204 8.05913 25.8178 7.54441L26.8939 5.68055C27.1913 5.16596 27.0148 4.50776 26.5002 4.21076Z" fill="#FF8A00"/>
<path d="M26.8939 31.3196L25.8178 29.4557C25.5211 28.9408 24.8643 28.7642 24.348 29.062C23.8334 29.3591 23.6569 30.0172 23.9543 30.5318L25.0304 32.3957C25.3283 32.912 25.9863 33.0867 26.5002 32.7894C27.0148 32.4922 27.1914 31.8341 26.8939 31.3196Z" fill="#FF8A00"/>
<path d="M12.546 6.46829L11.4699 4.60444C11.1732 4.08984 10.5161 3.91363 10.0001 4.21076C9.48551 4.50782 9.30897 5.16595 9.60642 5.68055L10.6825 7.54441C10.9804 8.06074 11.6384 8.23547 12.1523 7.93808C12.6669 7.64102 12.8434 6.98289 12.546 6.46829Z" fill="#FF8A00"/>
<path d="M30.0145 24.2921C29.8474 24.157 29.6532 24.0593 29.4451 24.0057C29.237 23.9522 29.0198 23.944 28.8082 23.9816C28.5966 24.0193 28.3956 24.102 28.2188 24.2242C28.0419 24.3463 27.8934 24.505 27.7832 24.6895C27.6731 24.8741 27.6039 25.0801 27.5803 25.2937C27.5567 25.5073 27.5793 25.7235 27.6465 25.9276C27.7137 26.1317 27.824 26.319 27.9699 26.4768C28.1158 26.6346 28.294 26.7592 28.4922 26.8421L31.0606 28.4372C31.2321 28.5987 31.4378 28.7198 31.6623 28.7913C31.8869 28.8629 32.1246 28.8831 32.358 28.8506C32.5914 28.818 32.8146 28.7335 33.011 28.6033C33.2074 28.473 33.372 28.3003 33.4928 28.098C33.6136 27.8956 33.6875 27.6687 33.7089 27.434C33.7304 27.1994 33.6989 26.9628 33.6168 26.7419C33.5347 26.521 33.4041 26.3214 33.2345 26.1577C33.065 25.994 32.8609 25.8704 32.6372 25.7961L30.0145 24.2921Z" fill="#FF8A00"/>
<path d="M6.57058 13.0029C6.89224 13.1669 7.26228 13.2094 7.61276 13.1226C7.96323 13.0358 8.27063 12.8254 8.4785 12.5302C8.68638 12.235 8.78079 11.8747 8.74439 11.5154C8.708 11.1562 8.54325 10.8221 8.28038 10.5746L5.83926 8.79092C5.49364 8.5975 5.09199 8.52891 4.70176 8.59666C4.31154 8.66442 3.95652 8.86439 3.69632 9.16299C3.50291 9.50862 3.43431 9.91027 3.50207 10.3005C3.56982 10.6907 3.76979 11.0457 4.0684 11.3059L6.57058 13.0029Z" fill="#FF8A00"/>
<path d="M15.4216 21.3285L11.886 24.864L15.4216 21.3285C14.8622 20.7691 14.4812 20.0563 14.3269 19.2804C14.1725 18.5045 14.2517 17.7002 14.5545 16.9693C14.8572 16.2384 15.3699 15.6137 16.0277 15.1742C16.6855 14.7347 17.4589 14.5001 18.25 14.5001C19.3109 14.5001 20.3283 14.9215 21.0784 15.6716C21.8286 16.4218 22.25 17.4392 22.25 18.5001C22.25 19.2912 22.0154 20.0645 21.5759 20.7223L25.7332 23.5002L21.5759 20.7223C21.1364 21.3801 20.5116 21.8928 19.7807 22.1956C19.0498 22.4983 18.2456 22.5775 17.4696 22.4232C16.6937 22.2689 15.981 21.8879 15.4216 21.3285Z" fill="#FF8A00" stroke="#FF8A00" stroke-width="10"/>
</svg>
