<svg width="37" height="37" viewBox="0 0 37 37" fill="none" xmlns="http://www.w3.org/2000/svg">
<g clip-path="url(#clip0_0_522)">
<path d="M18.5 8.00006C18.8978 8.00006 19.2794 7.84203 19.5607 7.56072C19.842 7.27942 20 6.89789 20 6.50006V3.50006C20 3.10224 19.842 2.72071 19.5607 2.4394C19.2794 2.1581 18.8978 2.00006 18.5 2.00006C18.1022 2.00006 17.7206 2.1581 17.4393 2.4394C17.158 2.72071 17 3.10224 17 3.50006V6.50006C17 6.89789 17.158 7.27942 17.4393 7.56072C17.7206 7.84203 18.1022 8.00006 18.5 8.00006Z" fill="#DBFF00"/>
<path d="M18.5 29.0001C18.1022 29.0001 17.7206 29.1581 17.4393 29.4394C17.158 29.7207 17 30.1022 17 30.5001V33.5001C17 33.8979 17.158 34.2794 17.4393 34.5607C17.7206 34.842 18.1022 35.0001 18.5 35.0001C18.8978 35.0001 19.2794 34.842 19.5607 34.5607C19.842 34.2794 20 33.8979 20 33.5001V30.5001C20 30.1022 19.842 29.7207 19.5607 29.4394C19.2794 29.1581 18.8978 29.0001 18.5 29.0001Z" fill="#DBFF00"/>
<path d="M28.025 11.0751L30.2 8.97506C30.4496 8.66762 30.5859 8.28362 30.5859 7.88756C30.5859 7.4915 30.4496 7.1075 30.2 6.80006C29.8925 6.55037 29.5085 6.41408 29.1125 6.41408C28.7164 6.41408 28.3324 6.55037 28.025 6.80006L25.925 8.97506C25.753 9.104 25.6108 9.26839 25.5079 9.45708C25.4051 9.64577 25.344 9.85436 25.3287 10.0687C25.3135 10.2831 25.3445 10.4982 25.4196 10.6996C25.4948 10.9009 25.6123 11.0838 25.7643 11.2357C25.9163 11.3877 26.0991 11.5052 26.3004 11.5804C26.5018 11.6555 26.7169 11.6865 26.9313 11.6713C27.1457 11.6561 27.3542 11.5949 27.5429 11.4921C27.7316 11.3892 27.896 11.247 28.025 11.0751Z" fill="#DBFF00"/>
<path d="M8.97504 25.9251L6.80004 28.0251C6.55035 28.3325 6.41406 28.7165 6.41406 29.1126C6.41406 29.5086 6.55035 29.8926 6.80004 30.2001C7.10748 30.4497 7.49148 30.586 7.88754 30.586C8.28361 30.586 8.6676 30.4497 8.97504 30.2001L11.075 28.0251C11.247 27.8961 11.3892 27.7317 11.492 27.543C11.5949 27.3544 11.656 27.1458 11.6713 26.9314C11.6865 26.717 11.6555 26.5019 11.5804 26.3005C11.5052 26.0992 11.3877 25.9164 11.2357 25.7644C11.0837 25.6124 10.9009 25.4949 10.6996 25.4198C10.4982 25.3446 10.2831 25.3136 10.0687 25.3288C9.85434 25.3441 9.64575 25.4052 9.45706 25.5081C9.26837 25.6109 9.10399 25.7531 8.97504 25.9251Z" fill="#DBFF00"/>
<path d="M33.5 17.0001H30.5C30.1022 17.0001 29.7206 17.1581 29.4393 17.4394C29.158 17.7207 29 18.1022 29 18.5001C29 18.8979 29.158 19.2794 29.4393 19.5607C29.7206 19.842 30.1022 20.0001 30.5 20.0001H33.5C33.8978 20.0001 34.2794 19.842 34.5607 19.5607C34.842 19.2794 35 18.8979 35 18.5001C35 18.1022 34.842 17.7207 34.5607 17.4394C34.2794 17.1581 33.8978 17.0001 33.5 17.0001Z" fill="#DBFF00"/>
<path d="M8 18.5001C8 18.1022 7.84196 17.7207 7.56066 17.4394C7.27936 17.1581 6.89782 17.0001 6.5 17.0001H3.5C3.10218 17.0001 2.72064 17.1581 2.43934 17.4394C2.15804 17.7207 2 18.1022 2 18.5001C2 18.8979 2.15804 19.2794 2.43934 19.5607C2.72064 19.842 3.10218 20.0001 3.5 20.0001H6.5C6.89782 20.0001 7.27936 19.842 7.56066 19.5607C7.84196 19.2794 8 18.8979 8 18.5001Z" fill="#DBFF00"/>
<path d="M28.025 25.9251C27.896 25.7531 27.7316 25.6109 27.5429 25.5081C27.3542 25.4052 27.1457 25.3441 26.9313 25.3288C26.7169 25.3136 26.5018 25.3446 26.3004 25.4198C26.0991 25.4949 25.9163 25.6124 25.7643 25.7644C25.6123 25.9164 25.4948 26.0992 25.4196 26.3005C25.3445 26.5019 25.3135 26.717 25.3287 26.9314C25.344 27.1458 25.4051 27.3544 25.5079 27.543C25.6108 27.7317 25.753 27.8961 25.925 28.0251L28.025 30.2001C28.1517 30.3987 28.3215 30.5664 28.5217 30.6907C28.7219 30.815 28.9475 30.8928 29.1818 30.9184C29.4161 30.9439 29.6531 30.9166 29.8754 30.8384C30.0977 30.7601 30.2996 30.633 30.4663 30.4664C30.6329 30.2997 30.76 30.0978 30.8383 29.8755C30.9165 29.6532 30.9438 29.4162 30.9183 29.1819C30.8927 28.9476 30.8149 28.722 30.6906 28.5218C30.5663 28.3216 30.3986 28.1519 30.2 28.0251L28.025 25.9251Z" fill="#DBFF00"/>
<path d="M8.97504 11.0751C9.2639 11.2917 9.62121 11.3969 9.98138 11.3713C10.3415 11.3457 10.6804 11.191 10.9357 10.9357C11.191 10.6804 11.3457 10.3416 11.3713 9.98139C11.3969 9.62123 11.2917 9.26392 11.075 8.97506L8.97504 6.80006C8.6676 6.55037 8.28361 6.41408 7.88754 6.41408C7.49148 6.41408 7.10748 6.55037 6.80004 6.80006C6.55035 7.1075 6.41406 7.4915 6.41406 7.88756C6.41406 8.28362 6.55035 8.66762 6.80004 8.97506L8.97504 11.0751Z" fill="#DBFF00"/>
<path d="M18.5 11.0001C17.0166 11.0001 15.5666 11.4399 14.3332 12.264C13.0999 13.0881 12.1386 14.2595 11.5709 15.6299C11.0032 17.0004 10.8547 18.5084 11.1441 19.9632C11.4335 21.4181 12.1478 22.7545 13.1967 23.8034C14.2456 24.8523 15.582 25.5666 17.0368 25.856C18.4917 26.1453 19.9997 25.9968 21.3701 25.4292C22.7406 24.8615 23.9119 23.9002 24.736 22.6668C25.5601 21.4335 26 19.9834 26 18.5001C26 16.5109 25.2098 14.6033 23.8033 13.1968C22.3968 11.7902 20.4891 11.0001 18.5 11.0001ZM18.5 23.0001C17.61 23.0001 16.74 22.7361 15.9999 22.2417C15.2599 21.7472 14.6831 21.0444 14.3425 20.2221C14.002 19.3999 13.9128 18.4951 14.0865 17.6222C14.2601 16.7492 14.6887 15.9474 15.318 15.3181C15.9474 14.6887 16.7492 14.2602 17.6221 14.0865C18.495 13.9129 19.3998 14.002 20.2221 14.3426C21.0443 14.6832 21.7471 15.26 22.2416 16C22.7361 16.74 23 17.61 23 18.5001C23 19.6935 22.5259 20.8381 21.682 21.682C20.8381 22.526 19.6935 23.0001 18.5 23.0001Z" fill="#DBFF00"/>
</g>
<defs>
<clipPath id="clip0_0_522">
<rect width="36" height="36" fill="white" transform="translate(0.5 0.500061)"/>
</clipPath>
</defs>
</svg>
