<svg width="37" height="37" viewBox="0 0 37 37" fill="none" xmlns="http://www.w3.org/2000/svg">
<g clip-path="url(#clip0_0_540)">
<path d="M18.75 8.00006C19.1478 8.00006 19.5294 7.84203 19.8107 7.56072C20.092 7.27942 20.25 6.89789 20.25 6.50006V3.50006C20.25 3.10224 20.092 2.72071 19.8107 2.4394C19.5294 2.1581 19.1478 2.00006 18.75 2.00006C18.3522 2.00006 17.9706 2.1581 17.6893 2.4394C17.408 2.72071 17.25 3.10224 17.25 3.50006V6.50006C17.25 6.89789 17.408 7.27942 17.6893 7.56072C17.9706 7.84203 18.3522 8.00006 18.75 8.00006Z" fill="#FFD43D"/>
<path d="M18.75 29.0001C18.3522 29.0001 17.9706 29.1581 17.6893 29.4394C17.408 29.7207 17.25 30.1022 17.25 30.5001V33.5001C17.25 33.8979 17.408 34.2794 17.6893 34.5607C17.9706 34.842 18.3522 35.0001 18.75 35.0001C19.1478 35.0001 19.5294 34.842 19.8107 34.5607C20.092 34.2794 20.25 33.8979 20.25 33.5001V30.5001C20.25 30.1022 20.092 29.7207 19.8107 29.4394C19.5294 29.1581 19.1478 29.0001 18.75 29.0001Z" fill="#FFD43D"/>
<path d="M28.275 11.0751L30.45 8.97506C30.6996 8.66762 30.8359 8.28362 30.8359 7.88756C30.8359 7.4915 30.6996 7.1075 30.45 6.80006C30.1425 6.55037 29.7585 6.41408 29.3625 6.41408C28.9664 6.41408 28.5824 6.55037 28.275 6.80006L26.175 8.97506C26.003 9.104 25.8608 9.26839 25.7579 9.45708C25.6551 9.64577 25.594 9.85436 25.5787 10.0687C25.5635 10.2831 25.5945 10.4982 25.6696 10.6996C25.7448 10.9009 25.8623 11.0838 26.0143 11.2357C26.1663 11.3877 26.3491 11.5052 26.5504 11.5804C26.7518 11.6555 26.9669 11.6865 27.1813 11.6713C27.3957 11.6561 27.6042 11.5949 27.7929 11.4921C27.9816 11.3892 28.146 11.247 28.275 11.0751Z" fill="#FFD43D"/>
<path d="M9.22504 25.9251L7.05004 28.0251C6.80035 28.3325 6.66406 28.7165 6.66406 29.1126C6.66406 29.5086 6.80035 29.8926 7.05004 30.2001C7.35748 30.4497 7.74148 30.586 8.13754 30.586C8.53361 30.586 8.9176 30.4497 9.22504 30.2001L11.325 28.0251C11.497 27.8961 11.6392 27.7317 11.742 27.543C11.8449 27.3544 11.906 27.1458 11.9213 26.9314C11.9365 26.717 11.9055 26.5019 11.8304 26.3005C11.7552 26.0992 11.6377 25.9164 11.4857 25.7644C11.3337 25.6124 11.1509 25.4949 10.9496 25.4198C10.7482 25.3446 10.5331 25.3136 10.3187 25.3288C10.1043 25.3441 9.89575 25.4052 9.70706 25.5081C9.51837 25.6109 9.35399 25.7531 9.22504 25.9251Z" fill="#FFD43D"/>
<path d="M33.75 17.0001H30.75C30.3522 17.0001 29.9706 17.1581 29.6893 17.4394C29.408 17.7207 29.25 18.1022 29.25 18.5001C29.25 18.8979 29.408 19.2794 29.6893 19.5607C29.9706 19.842 30.3522 20.0001 30.75 20.0001H33.75C34.1478 20.0001 34.5294 19.842 34.8107 19.5607C35.092 19.2794 35.25 18.8979 35.25 18.5001C35.25 18.1022 35.092 17.7207 34.8107 17.4394C34.5294 17.1581 34.1478 17.0001 33.75 17.0001Z" fill="#FFD43D"/>
<path d="M8.25 18.5001C8.25 18.1022 8.09196 17.7207 7.81066 17.4394C7.52936 17.1581 7.14782 17.0001 6.75 17.0001H3.75C3.35218 17.0001 2.97064 17.1581 2.68934 17.4394C2.40804 17.7207 2.25 18.1022 2.25 18.5001C2.25 18.8979 2.40804 19.2794 2.68934 19.5607C2.97064 19.842 3.35218 20.0001 3.75 20.0001H6.75C7.14782 20.0001 7.52936 19.842 7.81066 19.5607C8.09196 19.2794 8.25 18.8979 8.25 18.5001Z" fill="#FFD43D"/>
<path d="M28.275 25.9251C28.146 25.7531 27.9816 25.6109 27.7929 25.5081C27.6042 25.4052 27.3957 25.3441 27.1813 25.3288C26.9669 25.3136 26.7518 25.3446 26.5504 25.4198C26.3491 25.4949 26.1663 25.6124 26.0143 25.7644C25.8623 25.9164 25.7448 26.0992 25.6696 26.3005C25.5945 26.5019 25.5635 26.717 25.5787 26.9314C25.594 27.1458 25.6551 27.3544 25.7579 27.543C25.8608 27.7317 26.003 27.8961 26.175 28.0251L28.275 30.2001C28.4017 30.3987 28.5715 30.5664 28.7717 30.6907C28.9719 30.815 29.1975 30.8928 29.4318 30.9184C29.6661 30.9439 29.9031 30.9166 30.1254 30.8384C30.3477 30.7601 30.5496 30.633 30.7163 30.4664C30.8829 30.2997 31.01 30.0978 31.0883 29.8755C31.1665 29.6532 31.1938 29.4162 31.1683 29.1819C31.1427 28.9476 31.0649 28.722 30.9406 28.5218C30.8163 28.3216 30.6486 28.1519 30.45 28.0251L28.275 25.9251Z" fill="#FFD43D"/>
<path d="M9.22504 11.0751C9.5139 11.2917 9.87121 11.3969 10.2314 11.3713C10.5915 11.3457 10.9304 11.191 11.1857 10.9357C11.441 10.6804 11.5957 10.3416 11.6213 9.98139C11.6469 9.62123 11.5417 9.26392 11.325 8.97506L9.22504 6.80006C8.9176 6.55037 8.53361 6.41408 8.13754 6.41408C7.74148 6.41408 7.35748 6.55037 7.05004 6.80006C6.80035 7.1075 6.66406 7.4915 6.66406 7.88756C6.66406 8.28362 6.80035 8.66762 7.05004 8.97506L9.22504 11.0751Z" fill="#FFD43D"/>
<path d="M16.4403 17.5434L11.8209 15.6299L16.4403 17.5434C16.6295 17.0865 16.95 16.6961 17.3611 16.4214C17.7722 16.1467 18.2555 16.0001 18.75 16.0001C19.413 16.0001 20.0489 16.2635 20.5178 16.7323C20.9866 17.2011 21.25 17.837 21.25 18.5001C21.25 18.9945 21.1034 19.4779 20.8287 19.889C20.554 20.3001 20.1635 20.6205 19.7067 20.8098C19.2499 20.999 18.7472 21.0485 18.2623 20.952L17.2868 25.8559L18.2623 20.952C17.7773 20.8556 17.3319 20.6175 16.9822 20.2678L13.4467 23.8034L16.9822 20.2678C16.6326 19.9182 16.3945 19.4727 16.298 18.9878C16.2016 18.5028 16.2511 18.0002 16.4403 17.5434Z" fill="#FFD43D" stroke="#FFD43D" stroke-width="10"/>
</g>
<defs>
<clipPath id="clip0_0_540">
<rect width="36" height="36" fill="white" transform="translate(0.75 0.500061)"/>
</clipPath>
</defs>
</svg>
