<svg width="37" height="37" viewBox="0 0 37 37" fill="none" xmlns="http://www.w3.org/2000/svg">
<g clip-path="url(#clip0_0_608)">
<path d="M18.5001 0.500061C17.8516 0.500061 17.3262 1.02551 17.3262 1.674V4.0218C17.3262 4.6703 17.8516 5.19574 18.5001 5.19574C19.1486 5.19574 19.674 4.6703 19.674 4.0218V1.674C19.674 1.02551 19.1486 0.500061 18.5001 0.500061Z" fill="#FF3D00"/>
<path d="M18.5001 31.8044C17.8516 31.8044 17.3262 32.3298 17.3262 32.9783V35.3261C17.3262 35.9746 17.8516 36.5001 18.5001 36.5001C19.1486 36.5001 19.674 35.9746 19.674 35.3261V32.9783C19.674 32.3298 19.1486 31.8044 18.5001 31.8044Z" fill="#FF3D00"/>
<path d="M4.02174 17.3261H1.67394C1.02545 17.3261 0.5 17.8516 0.5 18.5001C0.5 19.1486 1.02545 19.674 1.67394 19.674H4.02174C4.67023 19.674 5.19568 19.1486 5.19568 18.5001C5.19568 17.8516 4.67023 17.3261 4.02174 17.3261Z" fill="#FF3D00"/>
<path d="M35.3259 17.3261H32.9781C32.3296 17.3261 31.8042 17.8516 31.8042 18.5001C31.8042 19.1486 32.3296 19.674 32.9781 19.674H35.3259C35.974 19.674 36.4999 19.1486 36.4999 18.5001C36.4999 17.8516 35.974 17.3261 35.3259 17.3261Z" fill="#FF3D00"/>
<path d="M6.97792 25.1523C6.6542 24.5905 5.93659 24.3983 5.37452 24.7228L3.34122 25.8967C2.77992 26.2207 2.58733 26.9388 2.91175 27.5001C3.23674 28.0634 3.95456 28.254 4.51516 27.9296L6.54845 26.7557C7.10976 26.4316 7.30242 25.7136 6.97792 25.1523Z" fill="#FF3D00"/>
<path d="M34.0883 9.50006C33.7646 8.93911 33.0473 8.74568 32.4849 9.07059L30.4516 10.2445C29.8902 10.5686 29.6977 11.2866 30.0221 11.8479C30.3471 12.4112 31.0649 12.6018 31.6256 12.2774L33.6589 11.1035C34.2202 10.7794 34.4128 10.0614 34.0883 9.50006Z" fill="#FF3D00"/>
<path d="M11.8478 30.0222C11.2869 29.6974 10.5684 29.8911 10.2444 30.4516L9.07047 32.4849C8.74598 33.0463 8.93864 33.7643 9.49994 34.0883C10.0613 34.4131 10.7789 34.2205 11.1033 33.6589L12.2773 31.6256C12.6018 31.0642 12.4092 30.3462 11.8478 30.0222Z" fill="#FF3D00"/>
<path d="M27.4999 2.91178C26.939 2.58771 26.2209 2.78071 25.8965 3.34125L24.7226 5.37454C24.3981 5.93592 24.5907 6.65395 25.152 6.97795C25.7134 7.30272 26.431 7.11 26.7554 6.54848L27.9294 4.51518C28.2539 3.95381 28.0613 3.23578 27.4999 2.91178Z" fill="#FF3D00"/>
<path d="M27.9294 32.4851L26.7555 30.4518C26.4317 29.8901 25.7153 29.6974 25.1521 30.0223C24.5907 30.3464 24.3981 31.0643 24.7226 31.6257L25.8965 33.659C26.2215 34.2223 26.9393 34.4128 27.4999 34.0885C28.0613 33.7643 28.2539 33.0464 27.9294 32.4851Z" fill="#FF3D00"/>
<path d="M12.2773 5.37454L11.1034 3.34125C10.7797 2.77987 10.0628 2.58764 9.49996 2.91178C8.93858 3.23585 8.746 3.95381 9.07049 4.51519L10.2444 6.54848C10.5694 7.11176 11.2872 7.30237 11.8478 6.97795C12.4091 6.65388 12.6017 5.93592 12.2773 5.37454Z" fill="#FF3D00"/>
<path d="M33.6588 25.8967L31.6255 24.7227C31.0642 24.3982 30.3461 24.5917 30.0221 25.1522C29.6976 25.7136 29.8903 26.4316 30.4516 26.7556L32.4849 27.9295C33.0463 28.2543 33.7639 28.0616 34.0883 27.5001C34.4128 26.9387 34.2202 26.2207 33.6588 25.8967Z" fill="#FF3D00"/>
<path d="M6.54849 10.2445L4.51519 9.07052C3.95346 8.74575 3.2362 8.93904 2.91178 9.49999C2.58729 10.0614 2.77995 10.7794 3.34125 11.1034L5.37455 12.2774C5.93592 12.6022 6.65367 12.4095 6.97795 11.8479C7.30245 11.2865 7.10979 10.5685 6.54849 10.2445Z" fill="#FF3D00"/>
<path d="M18.5 7.54355C12.4584 7.54355 7.54346 12.4585 7.54346 18.5001C7.54346 24.5416 12.4584 29.4566 18.5 29.4566C24.5415 29.4566 29.4565 24.5416 29.4565 18.5001C29.4565 12.4585 24.5415 7.54355 18.5 7.54355Z" fill="#FF3D00"/>
</g>
<defs>
<clipPath id="clip0_0_608">
<rect width="36" height="36" fill="white" transform="translate(0.5 0.500061)"/>
</clipPath>
</defs>
</svg>
