<svg width="36" height="37" viewBox="0 0 36 37" fill="none" xmlns="http://www.w3.org/2000/svg">
<g clip-path="url(#clip0_0_667)">
<path d="M18.0001 0.500061C17.3516 0.500061 16.8262 1.02551 16.8262 1.674V4.0218C16.8262 4.6703 17.3516 5.19574 18.0001 5.19574C18.6486 5.19574 19.174 4.6703 19.174 4.0218V1.674C19.174 1.02551 18.6486 0.500061 18.0001 0.500061Z" fill="#FF3D00"/>
<path d="M18.0001 31.8044C17.3516 31.8044 16.8262 32.3298 16.8262 32.9783V35.3261C16.8262 35.9746 17.3516 36.5001 18.0001 36.5001C18.6486 36.5001 19.174 35.9746 19.174 35.3261V32.9783C19.174 32.3298 18.6486 31.8044 18.0001 31.8044Z" fill="#FF3D00"/>
<path d="M3.52174 17.3261H1.17394C0.525445 17.3261 0 17.8516 0 18.5001C0 19.1486 0.525445 19.674 1.17394 19.674H3.52174C4.17023 19.674 4.69568 19.1486 4.69568 18.5001C4.69568 17.8516 4.17023 17.3261 3.52174 17.3261Z" fill="#FF3D00"/>
<path d="M34.8259 17.3261H32.4781C31.8296 17.3261 31.3042 17.8516 31.3042 18.5001C31.3042 19.1486 31.8296 19.674 32.4781 19.674H34.8259C35.474 19.674 35.9999 19.1486 35.9999 18.5001C35.9999 17.8516 35.474 17.3261 34.8259 17.3261Z" fill="#FF3D00"/>
<path d="M6.47792 25.1523C6.1542 24.5905 5.43659 24.3983 4.87452 24.7228L2.84122 25.8967C2.27992 26.2207 2.08733 26.9388 2.41175 27.5001C2.73674 28.0634 3.45456 28.254 4.01516 27.9296L6.04845 26.7557C6.60976 26.4316 6.80242 25.7136 6.47792 25.1523Z" fill="#FF3D00"/>
<path d="M33.5883 9.50006C33.2646 8.93911 32.5473 8.74568 31.9849 9.07059L29.9516 10.2445C29.3902 10.5686 29.1977 11.2866 29.5221 11.8479C29.8471 12.4112 30.5649 12.6018 31.1256 12.2774L33.1589 11.1035C33.7202 10.7794 33.9128 10.0614 33.5883 9.50006Z" fill="#FF3D00"/>
<path d="M11.3478 30.0222C10.7869 29.6974 10.0684 29.8911 9.74441 30.4516L8.57047 32.4849C8.24598 33.0463 8.43864 33.7643 8.99994 34.0883C9.56132 34.4131 10.2789 34.2205 10.6033 33.6589L11.7773 31.6256C12.1018 31.0642 11.9092 30.3462 11.3478 30.0222Z" fill="#FF3D00"/>
<path d="M26.9999 2.91178C26.439 2.58771 25.7209 2.78071 25.3965 3.34125L24.2226 5.37454C23.8981 5.93592 24.0907 6.65395 24.652 6.97795C25.2134 7.30272 25.931 7.11 26.2554 6.54848L27.4294 4.51518C27.7539 3.95381 27.5613 3.23578 26.9999 2.91178Z" fill="#FF3D00"/>
<path d="M27.4294 32.4851L26.2555 30.4518C25.9317 29.8901 25.2153 29.6974 24.6521 30.0223C24.0907 30.3464 23.8981 31.0643 24.2226 31.6257L25.3965 33.659C25.7215 34.2223 26.4393 34.4128 26.9999 34.0885C27.5613 33.7643 27.7539 33.0464 27.4294 32.4851Z" fill="#FF3D00"/>
<path d="M11.7773 5.37454L10.6034 3.34125C10.2797 2.77987 9.56281 2.58764 8.99996 2.91178C8.43858 3.23585 8.246 3.95381 8.57049 4.51519L9.74443 6.54848C10.0694 7.11176 10.7872 7.30237 11.3478 6.97795C11.9091 6.65388 12.1017 5.93592 11.7773 5.37454Z" fill="#FF3D00"/>
<path d="M33.1588 25.8967L31.1255 24.7227C30.5642 24.3982 29.8461 24.5917 29.5221 25.1522C29.1976 25.7136 29.3903 26.4316 29.9516 26.7556L31.9849 27.9295C32.5463 28.2543 33.2639 28.0616 33.5883 27.5001C33.9128 26.9387 33.7202 26.2207 33.1588 25.8967Z" fill="#FF3D00"/>
<path d="M6.04849 10.2445L4.01519 9.07052C3.45346 8.74575 2.7362 8.93904 2.41178 9.49999C2.08729 10.0614 2.27995 10.7794 2.84125 11.1034L4.87455 12.2774C5.43592 12.6022 6.15367 12.4095 6.47795 11.8479C6.80245 11.2865 6.60979 10.5685 6.04849 10.2445Z" fill="#FF3D00"/>
<path d="M18 7.54355C11.9584 7.54355 7.04346 12.4585 7.04346 18.5001C7.04346 24.5416 11.9584 29.4566 18 29.4566C24.0415 29.4566 28.9565 24.5416 28.9565 18.5001C28.9565 12.4585 24.0415 7.54355 18 7.54355Z" fill="#FF3D00"/>
</g>
<defs>
<clipPath id="clip0_0_667">
<rect width="36" height="36" fill="white" transform="translate(0 0.500061)"/>
</clipPath>
</defs>
</svg>
