<svg width="36" height="37" viewBox="0 0 36 37" fill="none" xmlns="http://www.w3.org/2000/svg">
<path d="M18 8.00006C18.3978 8.00006 18.7794 7.84203 19.0607 7.56072C19.342 7.27942 19.5 6.89789 19.5 6.50006V3.50006C19.5 3.10224 19.342 2.72071 19.0607 2.4394C18.7794 2.1581 18.3978 2.00006 18 2.00006C17.6022 2.00006 17.2206 2.1581 16.9393 2.4394C16.658 2.72071 16.5 3.10224 16.5 3.50006V6.50006C16.5 6.89789 16.658 7.27942 16.9393 7.56072C17.2206 7.84203 17.6022 8.00006 18 8.00006Z" fill="#FFD43D"/>
<path d="M18 29.0001C17.6022 29.0001 17.2206 29.1581 16.9393 29.4394C16.658 29.7207 16.5 30.1022 16.5 30.5001V33.5001C16.5 33.8979 16.658 34.2794 16.9393 34.5607C17.2206 34.842 17.6022 35.0001 18 35.0001C18.3978 35.0001 18.7794 34.842 19.0607 34.5607C19.342 34.2794 19.5 33.8979 19.5 33.5001V30.5001C19.5 30.1022 19.342 29.7207 19.0607 29.4394C18.7794 29.1581 18.3978 29.0001 18 29.0001Z" fill="#FFD43D"/>
<path d="M27.525 11.0751L29.7 8.97506C29.9496 8.66762 30.0859 8.28362 30.0859 7.88756C30.0859 7.4915 29.9496 7.1075 29.7 6.80006C29.3925 6.55037 29.0085 6.41408 28.6125 6.41408C28.2164 6.41408 27.8324 6.55037 27.525 6.80006L25.425 8.97506C25.253 9.104 25.1108 9.26839 25.0079 9.45708C24.9051 9.64577 24.844 9.85436 24.8287 10.0687C24.8135 10.2831 24.8445 10.4982 24.9196 10.6996C24.9948 10.9009 25.1123 11.0838 25.2643 11.2357C25.4163 11.3877 25.5991 11.5052 25.8004 11.5804C26.0018 11.6555 26.2169 11.6865 26.4313 11.6713C26.6457 11.6561 26.8542 11.5949 27.0429 11.4921C27.2316 11.3892 27.396 11.247 27.525 11.0751Z" fill="#FFD43D"/>
<path d="M8.47504 25.9251L6.30004 28.0251C6.05035 28.3325 5.91406 28.7165 5.91406 29.1126C5.91406 29.5086 6.05035 29.8926 6.30004 30.2001C6.60748 30.4497 6.99148 30.586 7.38754 30.586C7.78361 30.586 8.1676 30.4497 8.47504 30.2001L10.575 28.0251C10.747 27.8961 10.8892 27.7317 10.992 27.543C11.0949 27.3544 11.156 27.1458 11.1713 26.9314C11.1865 26.717 11.1555 26.5019 11.0804 26.3005C11.0052 26.0992 10.8877 25.9164 10.7357 25.7644C10.5837 25.6124 10.4009 25.4949 10.1996 25.4198C9.99822 25.3446 9.78308 25.3136 9.56871 25.3288C9.35434 25.3441 9.14575 25.4052 8.95706 25.5081C8.76837 25.6109 8.60399 25.7531 8.47504 25.9251Z" fill="#FFD43D"/>
<path d="M33 17.0001H30C29.6022 17.0001 29.2206 17.1581 28.9393 17.4394C28.658 17.7207 28.5 18.1022 28.5 18.5001C28.5 18.8979 28.658 19.2794 28.9393 19.5607C29.2206 19.842 29.6022 20.0001 30 20.0001H33C33.3978 20.0001 33.7794 19.842 34.0607 19.5607C34.342 19.2794 34.5 18.8979 34.5 18.5001C34.5 18.1022 34.342 17.7207 34.0607 17.4394C33.7794 17.1581 33.3978 17.0001 33 17.0001Z" fill="#FFD43D"/>
<path d="M7.5 18.5001C7.5 18.1022 7.34196 17.7207 7.06066 17.4394C6.77936 17.1581 6.39782 17.0001 6 17.0001H3C2.60218 17.0001 2.22064 17.1581 1.93934 17.4394C1.65804 17.7207 1.5 18.1022 1.5 18.5001C1.5 18.8979 1.65804 19.2794 1.93934 19.5607C2.22064 19.842 2.60218 20.0001 3 20.0001H6C6.39782 20.0001 6.77936 19.842 7.06066 19.5607C7.34196 19.2794 7.5 18.8979 7.5 18.5001Z" fill="#FFD43D"/>
<path d="M27.525 25.9251C27.396 25.7531 27.2316 25.6109 27.0429 25.5081C26.8542 25.4052 26.6457 25.3441 26.4313 25.3288C26.2169 25.3136 26.0018 25.3446 25.8004 25.4198C25.5991 25.4949 25.4163 25.6124 25.2643 25.7644C25.1123 25.9164 24.9948 26.0992 24.9196 26.3005C24.8445 26.5019 24.8135 26.717 24.8287 26.9314C24.844 27.1458 24.9051 27.3544 25.0079 27.543C25.1108 27.7317 25.253 27.8961 25.425 28.0251L27.525 30.2001C27.6517 30.3987 27.8215 30.5664 28.0217 30.6907C28.2219 30.815 28.4475 30.8928 28.6818 30.9184C28.9161 30.9439 29.1531 30.9166 29.3754 30.8384C29.5977 30.7601 29.7996 30.633 29.9663 30.4664C30.1329 30.2997 30.26 30.0978 30.3383 29.8755C30.4165 29.6532 30.4438 29.4162 30.4183 29.1819C30.3927 28.9476 30.3149 28.722 30.1906 28.5218C30.0663 28.3216 29.8986 28.1519 29.7 28.0251L27.525 25.9251Z" fill="#FFD43D"/>
<path d="M8.47504 11.0751C8.7639 11.2917 9.12121 11.3969 9.48138 11.3713C9.84154 11.3457 10.1804 11.191 10.4357 10.9357C10.691 10.6804 10.8457 10.3416 10.8713 9.98139C10.8969 9.62123 10.7917 9.26392 10.575 8.97506L8.47504 6.80006C8.1676 6.55037 7.78361 6.41408 7.38754 6.41408C6.99148 6.41408 6.60748 6.55037 6.30004 6.80006C6.05035 7.1075 5.91406 7.4915 5.91406 7.88756C5.91406 8.28362 6.05035 8.66762 6.30004 8.97506L8.47504 11.0751Z" fill="#FFD43D"/>
<path d="M15.6903 17.5434L11.0709 15.6299L15.6903 17.5434C15.8795 17.0865 16.2 16.6961 16.6111 16.4214C17.0222 16.1467 17.5055 16.0001 18 16.0001C18.663 16.0001 19.2989 16.2635 19.7678 16.7323C20.2366 17.2011 20.5 17.837 20.5 18.5001C20.5 18.9945 20.3534 19.4779 20.0787 19.889C19.804 20.3001 19.4135 20.6205 18.9567 20.8098C18.4999 20.999 17.9972 21.0485 17.5123 20.952L16.5368 25.8559L17.5123 20.952C17.0273 20.8556 16.5819 20.6175 16.2322 20.2678L12.6967 23.8034L16.2322 20.2678C15.8826 19.9182 15.6445 19.4727 15.548 18.9878C15.4516 18.5028 15.5011 18.0002 15.6903 17.5434Z" fill="#FFD43D" stroke="#FFD43D" stroke-width="10"/>
</svg>
