<svg width="24" height="25" viewBox="0 0 24 25" fill="none" xmlns="http://www.w3.org/2000/svg">
    <path
        d="M11.7133 11.5161C11.024 11.5161 10.3493 11.3121 9.776 10.9294C9.20266 10.5454 8.756 10.0014 8.492 9.36406C8.228 8.72673 8.15866 8.0254 8.29333 7.3494C8.428 6.67206 8.76 6.05073 9.248 5.56273C9.736 5.07606 10.3573 4.74406 11.0333 4.6094C11.7107 4.47473 12.4107 4.54273 13.048 4.80673C13.6853 5.07073 14.2307 5.51873 14.6133 6.09206C14.9973 6.6654 15.2013 7.34006 15.2013 8.0294C15.2 8.9534 14.832 9.84006 14.1787 10.4934C13.5253 11.1481 12.6387 11.5161 11.7133 11.5161ZM11.7133 5.9374C11.3 5.9374 10.896 6.06006 10.552 6.2894C10.2067 6.51873 9.93866 6.84673 9.78133 7.22806C9.62266 7.61073 9.58133 8.03206 9.66133 8.4374C9.74266 8.84273 9.94133 9.21606 10.2347 9.5094C10.5267 9.8014 10.9 10.0001 11.3053 10.0814C11.712 10.1627 12.132 10.1201 12.5147 9.96273C12.8973 9.80406 13.224 9.53606 13.4533 9.19206C13.684 8.84806 13.8067 8.44273 13.8067 8.0294C13.8053 7.47473 13.5853 6.94273 13.1933 6.55073C12.8 6.1574 12.2693 5.9374 11.7133 5.9374Z"
        fill="#003870" />
    <path
        d="M11.7132 4.19339C11.5292 4.19339 11.3519 4.12006 11.2199 3.98939C11.0892 3.85739 11.0159 3.68006 11.0159 3.49606V2.79873C11.0159 2.61339 11.0892 2.43606 11.2199 2.30539C11.3519 2.17473 11.5292 2.10139 11.7132 2.10139C11.8985 2.10139 12.0759 2.17473 12.2065 2.30539C12.3372 2.43606 12.4105 2.61339 12.4105 2.79873V3.49606C12.4105 3.68006 12.3372 3.85739 12.2065 3.98939C12.0759 4.12006 11.8985 4.19339 11.7132 4.19339Z"
        fill="#003870" />
    <path
        d="M8.50805 5.52139C8.32272 5.52139 8.14538 5.44806 8.01472 5.31739L7.52138 4.82406C7.39072 4.69339 7.31738 4.51473 7.31738 4.33073C7.31738 4.14539 7.39072 3.96806 7.52138 3.83739C7.65205 3.70673 7.82938 3.63339 8.01472 3.63339C8.20005 3.63339 8.37738 3.70673 8.50805 3.83739L9.00138 4.33073C9.09872 4.42806 9.16538 4.55206 9.19205 4.68806C9.21872 4.82273 9.20538 4.96273 9.15205 5.09073C9.10005 5.21739 9.01072 5.32673 8.89605 5.40406C8.78138 5.48006 8.64672 5.52139 8.50805 5.52139Z"
        fill="#003870" />
    <path
        d="M7.18007 8.72673H6.48273C6.2974 8.72673 6.12007 8.6534 5.9894 8.52273C5.85873 8.39206 5.7854 8.21473 5.7854 8.02939C5.7854 7.84406 5.85873 7.66673 5.9894 7.53606C6.12007 7.40539 6.2974 7.33206 6.48273 7.33206H7.18007C7.3654 7.33206 7.54273 7.40539 7.6734 7.53606C7.80407 7.66673 7.8774 7.84406 7.8774 8.02939C7.8774 8.21473 7.80407 8.39206 7.6734 8.52273C7.54273 8.6534 7.3654 8.72673 7.18007 8.72673Z"
        fill="#003870" />
    <path
        d="M8.01472 12.4254C7.87738 12.4254 7.74272 12.3841 7.62805 12.3081C7.51338 12.2307 7.42405 12.1227 7.37072 11.9947C7.31738 11.8681 7.30405 11.7267 7.33072 11.5921C7.35738 11.4561 7.42405 11.3321 7.52138 11.2347L8.01472 10.7414C8.14672 10.6147 8.32272 10.5441 8.50538 10.5454C8.68805 10.5481 8.86405 10.6214 8.99338 10.7507C9.12272 10.8801 9.19605 11.0547 9.19738 11.2374C9.19872 11.4201 9.12805 11.5961 9.00138 11.7281L8.50805 12.2214C8.37738 12.3521 8.20005 12.4254 8.01472 12.4254Z"
        fill="#003870" />
    <path
        d="M11.7132 13.9574C11.5292 13.9574 11.3519 13.8841 11.2199 13.7534C11.0892 13.6227 11.0159 13.4454 11.0159 13.2601V12.5627C11.0159 12.3774 11.0892 12.2001 11.2199 12.0694C11.3519 11.9387 11.5292 11.8654 11.7132 11.8654C11.8985 11.8654 12.0759 11.9387 12.2065 12.0694C12.3372 12.2001 12.4105 12.3774 12.4105 12.5627V13.2601C12.4105 13.4454 12.3372 13.6227 12.2065 13.7534C12.0759 13.8841 11.8985 13.9574 11.7132 13.9574Z"
        fill="#003870" />
    <path
        d="M15.4121 12.4254C15.2281 12.4254 15.0507 12.3521 14.9187 12.2214L14.4267 11.7281C14.2987 11.5961 14.2294 11.4201 14.2307 11.2374C14.2321 11.0547 14.3054 10.8801 14.4347 10.7507C14.5641 10.6214 14.7387 10.5481 14.9214 10.5454C15.1054 10.5441 15.2814 10.6147 15.4121 10.7414L15.9054 11.2347C16.0041 11.3321 16.0694 11.4561 16.0974 11.5921C16.1241 11.7267 16.1094 11.8681 16.0574 11.9947C16.0041 12.1227 15.9147 12.2307 15.8001 12.3081C15.6854 12.3841 15.5507 12.4254 15.4121 12.4254Z"
        fill="#003870" />
    <path
        d="M16.9453 8.72673H16.248C16.0626 8.72673 15.8853 8.6534 15.7547 8.52273C15.6227 8.39206 15.5493 8.21473 15.5493 8.02939C15.5493 7.84406 15.6227 7.66673 15.7547 7.53606C15.8853 7.40539 16.0626 7.33206 16.248 7.33206H16.9453C17.1293 7.33206 17.3067 7.40539 17.4373 7.53606C17.5693 7.66673 17.6427 7.84406 17.6427 8.02939C17.6427 8.21473 17.5693 8.39206 17.4373 8.52273C17.3067 8.6534 17.1293 8.72673 16.9453 8.72673Z"
        fill="#003870" />
    <path
        d="M14.9186 5.52139C14.7812 5.52139 14.6466 5.48006 14.5319 5.40406C14.4172 5.32673 14.3279 5.21739 14.2746 5.09073C14.2226 4.96273 14.2079 4.82273 14.2359 4.68806C14.2626 4.55206 14.3292 4.42806 14.4266 4.33073L14.9186 3.83739C15.0506 3.70673 15.2279 3.63339 15.4119 3.63339C15.5972 3.63339 15.7746 3.70673 15.9052 3.83739C16.0372 3.96806 16.1106 4.14539 16.1106 4.33073C16.1106 4.51473 16.0372 4.69339 15.9052 4.82406L15.4119 5.31739C15.2812 5.44806 15.1039 5.52139 14.9186 5.52139Z"
        fill="#003870" />
    <path
        d="M21.4786 22.3281H1.94929C1.76395 22.3281 1.58662 22.2534 1.45595 22.1227C1.32529 21.9921 1.25195 21.8147 1.25195 21.6294C1.25195 21.4454 1.32529 21.2681 1.45595 21.1361C1.58662 21.0054 1.76395 20.9321 1.94929 20.9321H21.4786C21.664 20.9321 21.8413 21.0054 21.972 21.1361C22.1026 21.2681 22.176 21.4454 22.176 21.6294C22.176 21.8147 22.1026 21.9921 21.972 22.1227C21.8413 22.2534 21.664 22.3281 21.4786 22.3281Z"
        fill="#003870" />
    <path
        d="M7.87726 20.9321C7.78659 20.9321 7.69592 20.9147 7.61059 20.8801C7.52659 20.8441 7.44926 20.7934 7.38526 20.7281L3.19992 16.5427C3.07326 16.4121 3.00259 16.2361 3.00392 16.0521C3.00526 15.8694 3.07859 15.6947 3.20792 15.5654C3.33726 15.4361 3.51326 15.3627 3.69592 15.3614C3.87859 15.3601 4.05459 15.4294 4.18659 15.5574L7.87726 19.2481L10.7279 16.3987H9.62126C9.43592 16.3987 9.25859 16.3254 9.12792 16.1947C8.99726 16.0641 8.92392 15.8867 8.92392 15.7014C8.92392 15.5161 8.99726 15.3387 9.12792 15.2081C9.25859 15.0774 9.43592 15.0041 9.62126 15.0041H12.4066C12.4253 15.0041 12.4426 15.0041 12.4613 15.0054C12.6373 15.0187 12.8013 15.0961 12.9213 15.2241C13.0413 15.3534 13.1079 15.5214 13.1093 15.6974V15.6987V18.4907C13.1093 18.6761 13.0359 18.8534 12.9053 18.9841C12.7733 19.1147 12.5959 19.1894 12.4119 19.1894C12.2266 19.1894 12.0493 19.1147 11.9186 18.9841C11.7879 18.8534 11.7146 18.6761 11.7146 18.4907V17.3854L8.37059 20.7281C8.30659 20.7934 8.22926 20.8441 8.14526 20.8801C8.05992 20.9147 7.96926 20.9321 7.87726 20.9321Z"
        fill="#003870" />
    <path
        d="M15.2013 20.9321C15.1093 20.9321 15.0186 20.9147 14.9346 20.8801C14.8493 20.8441 14.7733 20.7934 14.708 20.7281L13.6626 19.6814C13.5346 19.5507 13.464 19.3747 13.4666 19.1907C13.468 19.0081 13.5413 18.8334 13.6706 18.7041C13.8 18.5747 13.9746 18.5014 14.1573 18.5001C14.34 18.4987 14.516 18.5681 14.648 18.6961L15.2013 19.2481L18.0506 16.3987H16.9453C16.76 16.3987 16.5826 16.3254 16.452 16.1947C16.3213 16.0641 16.248 15.8867 16.248 15.7014C16.248 15.5161 16.3213 15.3387 16.452 15.2081C16.5826 15.0774 16.76 15.0041 16.9453 15.0041H19.7293C19.748 15.0041 19.7666 15.0041 19.7853 15.0054C19.96 15.0187 20.124 15.0961 20.244 15.2241C20.364 15.3534 20.4306 15.5214 20.432 15.6974V15.6987V18.4907C20.432 18.6761 20.3586 18.8534 20.228 18.9841C20.0973 19.1147 19.92 19.1894 19.7346 19.1894C19.5493 19.1894 19.372 19.1147 19.2413 18.9841C19.1106 18.8534 19.0373 18.6761 19.0373 18.4907V17.3854L15.6946 20.7281C15.6293 20.7934 15.5533 20.8441 15.468 20.8801C15.384 20.9147 15.2933 20.9321 15.2013 20.9321Z"
        fill="#003870" />
</svg>