<svg width="24" height="25" viewBox="0 0 24 25" fill="none" xmlns="http://www.w3.org/2000/svg">
<g clip-path="url(#clip0_0_412)">
<path d="M18.75 9.15006C18.3 9.60006 17.7833 9.94173 17.2 10.1751C16.6167 10.4084 16.0333 10.5251 15.45 10.5251C14.8667 10.5251 14.2917 10.4127 13.725 10.1881C13.1583 9.96339 12.65 9.61739 12.2 9.15006L10.325 7.27506C10.075 7.02506 9.79167 6.83773 9.475 6.71306C9.15833 6.58839 8.83333 6.52573 8.5 6.52506C8.16667 6.52506 7.84167 6.58773 7.525 6.71306C7.20833 6.83839 6.925 7.02573 6.675 7.27506L4.8 9.15006L3.375 7.72506L5.25 5.85006C5.7 5.40006 6.20833 5.06273 6.775 4.83806C7.34167 4.61339 7.91667 4.50073 8.5 4.50006C9.08333 4.50006 9.65433 4.61273 10.213 4.83806C10.7717 5.06339 11.2757 5.40073 11.725 5.85006L13.6 7.72506C13.8667 7.99173 14.1583 8.18773 14.475 8.31306C14.7917 8.43839 15.1167 8.50073 15.45 8.50006C15.7833 8.50006 16.1127 8.43773 16.438 8.31306C16.7633 8.18839 17.059 7.99239 17.325 7.72506L19.2 5.85006L20.625 7.27506L18.75 9.15006ZM18.75 14.1501C18.3 14.6001 17.7877 14.9377 17.213 15.1631C16.6383 15.3884 16.0587 15.5007 15.474 15.5001C14.8907 15.5001 14.3117 15.3877 13.737 15.1631C13.1623 14.9384 12.65 14.6007 12.2 14.1501L10.325 12.2751C10.075 12.0251 9.79167 11.8377 9.475 11.7131C9.15833 11.5884 8.83333 11.5257 8.5 11.5251C8.16667 11.5251 7.84167 11.5877 7.525 11.7131C7.20833 11.8384 6.925 12.0257 6.675 12.2751L4.8 14.1501L3.375 12.7501L5.25 10.8501C5.7 10.4001 6.20833 10.0627 6.775 9.83806C7.34167 9.61339 7.91667 9.50073 8.5 9.50006C9.08333 9.50006 9.65433 9.61273 10.213 9.83806C10.7717 10.0634 11.2757 10.4007 11.725 10.8501L13.6 12.7251C13.8667 12.9917 14.1583 13.1877 14.475 13.3131C14.7917 13.4384 15.1167 13.5007 15.45 13.5001C15.7833 13.5001 16.1127 13.4377 16.438 13.3131C16.7633 13.1884 17.059 12.9924 17.325 12.7251L19.2 10.8501L20.625 12.2751L18.75 14.1501ZM18.725 19.1501C18.275 19.6001 17.7667 19.9377 17.2 20.1631C16.6333 20.3884 16.0583 20.5007 15.475 20.5001C14.8917 20.5001 14.3127 20.3877 13.738 20.1631C13.1633 19.9384 12.6507 19.6007 12.2 19.1501L10.3 17.2751C10.05 17.0251 9.76667 16.8377 9.45 16.7131C9.13333 16.5884 8.80833 16.5257 8.475 16.5251C8.14167 16.5251 7.81667 16.5877 7.5 16.7131C7.18333 16.8384 6.9 17.0257 6.65 17.2751L4.775 19.1501L3.375 17.7501L5.25 15.8501C5.7 15.4001 6.20833 15.0627 6.775 14.8381C7.34167 14.6134 7.91667 14.5007 8.5 14.5001C9.08333 14.5001 9.65433 14.6127 10.213 14.8381C10.7717 15.0634 11.2757 15.4007 11.725 15.8501L13.6 17.7251C13.8667 17.9917 14.1627 18.1877 14.488 18.3131C14.8133 18.4384 15.1423 18.5007 15.475 18.5001C15.8083 18.5001 16.1333 18.4377 16.45 18.3131C16.7667 18.1884 17.0583 17.9924 17.325 17.7251L19.2 15.8501L20.6 17.2751L18.725 19.1501Z" fill="#428fdb"/>
</g>
<defs>
<clipPath id="clip0_0_412">
<rect width="24" height="24" fill="white" transform="translate(0 0.500061)"/>
</clipPath>
</defs>
</svg>
