<svg width="24" height="25" viewBox="0 0 24 25" fill="none" xmlns="http://www.w3.org/2000/svg">
<path d="M4.5601 7.41993C4.65514 7.41897 4.74826 7.43721 4.83658 7.47369C4.92394 7.50921 5.00362 7.56201 5.07082 7.62825L9.39082 11.9482C9.52522 12.0836 9.6001 12.266 9.6001 12.4561C9.6001 12.6462 9.52522 12.8286 9.39082 12.9639L5.07082 17.2839C4.93354 17.402 4.75594 17.4634 4.57546 17.4567C4.39402 17.45 4.22218 17.3742 4.09354 17.2465C3.96586 17.1178 3.89002 16.946 3.8833 16.7646C3.87658 16.5831 3.93802 16.4065 4.0561 16.2682L7.86442 12.4599L4.0561 8.65065C3.9553 8.55081 3.88618 8.42313 3.85738 8.28297C3.82954 8.14377 3.84298 7.99881 3.89674 7.86729C3.9505 7.73577 4.04266 7.62249 4.16074 7.54281C4.27882 7.46313 4.41802 7.42089 4.5601 7.41993Z" fill="#FF8329"/>
<path d="M12.4801 3.50025C12.649 3.49929 12.8151 3.53097 12.9716 3.59529C13.1271 3.65865 13.2692 3.75273 13.3892 3.87081L21.0692 11.5508C21.3073 11.7908 21.4407 12.1153 21.4407 12.4532C21.4407 12.7911 21.3073 13.1166 21.0692 13.3556L13.3892 21.0356C13.1444 21.2458 12.8295 21.3553 12.5069 21.3428C12.1844 21.3303 11.8791 21.1969 11.6516 20.9684C11.4231 20.7409 11.2897 20.4356 11.2772 20.1131C11.2647 19.7905 11.3741 19.4756 11.5844 19.2308L18.3553 12.4599L11.5844 5.68905C11.4049 5.51049 11.282 5.28297 11.2311 5.03433C11.1802 4.78665 11.2052 4.52937 11.3012 4.29513C11.3972 4.06089 11.5604 3.86025 11.7697 3.71817C11.9799 3.57705 12.2266 3.50121 12.4801 3.50025Z" fill="#FF8329"/>
</svg>
