<?xml version="1.0" encoding="utf-8"?>
<!-- Generator: Adobe Illustrator 25.0.0, SVG Export Plug-In . SVG Version: 6.00 Build 0)  -->
<svg version="1.1" id="Layer_1" xmlns="http://www.w3.org/2000/svg" xmlns:xlink="http://www.w3.org/1999/xlink" x="0px" y="0px"
	 viewBox="0 0 20 20" style="enable-background:new 0 0 20 20;" xml:space="preserve">
<style type="text/css">
	.st0{fill:#ffffff;}
</style>
<path class="st0" d="M10,13.8c-1,0-1.9-0.4-2.7-1.1C6.6,11.9,6.2,11,6.2,10c0-1,0.4-1.9,1.1-2.7S9,6.2,10,6.2c1,0,1.9,0.4,2.7,1.1
	c0.7,0.7,1.1,1.7,1.1,2.7c0,1-0.4,1.9-1.1,2.7C11.9,13.4,11,13.8,10,13.8z M10,15c1.3,0,2.6-0.5,3.5-1.5c0.9-0.9,1.5-2.2,1.5-3.5
	c0-1.3-0.5-2.6-1.5-3.5C12.6,5.5,11.3,5,10,5C8.7,5,7.4,5.5,6.5,6.5C5.5,7.4,5,8.7,5,10c0,1.3,0.5,2.6,1.5,3.5
	C7.4,14.5,8.7,15,10,15z M10,0c0.2,0,0.3,0.1,0.4,0.2c0.1,0.1,0.2,0.3,0.2,0.4v2.5c0,0.2-0.1,0.3-0.2,0.4c-0.1,0.1-0.3,0.2-0.4,0.2
	c-0.2,0-0.3-0.1-0.4-0.2C9.4,3.4,9.4,3.3,9.4,3.1V0.6c0-0.2,0.1-0.3,0.2-0.4C9.7,0.1,9.8,0,10,0L10,0z M10,16.2
	c0.2,0,0.3,0.1,0.4,0.2c0.1,0.1,0.2,0.3,0.2,0.4v2.5c0,0.2-0.1,0.3-0.2,0.4C10.3,19.9,10.2,20,10,20c-0.2,0-0.3-0.1-0.4-0.2
	c-0.1-0.1-0.2-0.3-0.2-0.4v-2.5c0-0.2,0.1-0.3,0.2-0.4C9.7,16.3,9.8,16.2,10,16.2z M20,10c0,0.2-0.1,0.3-0.2,0.4
	c-0.1,0.1-0.3,0.2-0.4,0.2h-2.5c-0.2,0-0.3-0.1-0.4-0.2c-0.1-0.1-0.2-0.3-0.2-0.4c0-0.2,0.1-0.3,0.2-0.4c0.1-0.1,0.3-0.2,0.4-0.2
	h2.5c0.2,0,0.3,0.1,0.4,0.2C19.9,9.7,20,9.8,20,10z M3.8,10c0,0.2-0.1,0.3-0.2,0.4c-0.1,0.1-0.3,0.2-0.4,0.2H0.6
	c-0.2,0-0.3-0.1-0.4-0.2C0.1,10.3,0,10.2,0,10c0-0.2,0.1-0.3,0.2-0.4c0.1-0.1,0.3-0.2,0.4-0.2h2.5c0.2,0,0.3,0.1,0.4,0.2
	C3.7,9.7,3.8,9.8,3.8,10z M17.1,2.9c0.1,0.1,0.2,0.3,0.2,0.4c0,0.2-0.1,0.3-0.2,0.4l-1.8,1.8c-0.1,0.1-0.1,0.1-0.2,0.1
	c-0.1,0-0.2,0-0.2,0c-0.2,0-0.3-0.1-0.4-0.2c-0.1-0.1-0.1-0.1-0.1-0.2c0-0.1,0-0.2,0-0.2c0-0.2,0.1-0.3,0.2-0.4l1.8-1.8
	c0.1-0.1,0.3-0.2,0.4-0.2C16.8,2.7,17,2.8,17.1,2.9z M5.6,14.4c0.1,0.1,0.2,0.3,0.2,0.4c0,0.2-0.1,0.3-0.2,0.4l-1.8,1.8
	c-0.1,0.1-0.3,0.2-0.4,0.2c-0.2,0-0.3-0.1-0.4-0.2c-0.1-0.1-0.2-0.3-0.2-0.4c0-0.2,0.1-0.3,0.2-0.4l1.8-1.8c0.1-0.1,0.3-0.2,0.4-0.2
	C5.3,14.2,5.5,14.3,5.6,14.4z M17.1,17.1c-0.1,0.1-0.3,0.2-0.4,0.2c-0.2,0-0.3-0.1-0.4-0.2l-1.8-1.8c-0.1-0.1-0.2-0.3-0.2-0.4
	c0-0.2,0.1-0.3,0.2-0.4s0.3-0.2,0.4-0.2c0.2,0,0.3,0.1,0.4,0.2l1.8,1.8c0.1,0.1,0.2,0.3,0.2,0.4C17.3,16.8,17.2,17,17.1,17.1z
	 M5.6,5.6C5.5,5.7,5.3,5.8,5.1,5.8C5,5.8,4.8,5.7,4.7,5.6L2.9,3.8C2.9,3.8,2.8,3.7,2.8,3.6c0-0.1-0.1-0.2-0.1-0.2c0-0.1,0-0.2,0-0.2
	C2.8,3,2.9,3,2.9,2.9C3,2.9,3,2.8,3.1,2.8c0.1,0,0.2,0,0.2,0c0.1,0,0.2,0,0.2,0.1c0.1,0,0.1,0.1,0.2,0.1l1.8,1.8
	c0.1,0.1,0.1,0.1,0.1,0.2s0,0.2,0,0.2s0,0.2,0,0.2C5.7,5.5,5.6,5.5,5.6,5.6z"/>
</svg>
