<?xml version="1.0" encoding="utf-8"?>
<!-- Generator: Adobe Illustrator 25.0.0, SVG Export Plug-In . SVG Version: 6.00 Build 0)  -->
<svg version="1.1" id="Layer_1" xmlns="http://www.w3.org/2000/svg" xmlns:xlink="http://www.w3.org/1999/xlink" x="0px"
	y="0px" viewBox="0 0 18 14" style="enable-background:new 0 0 18 14;" xml:space="preserve">
	<style type="text/css">
		.st0 {
			fill: #003870;
		}
	</style>
	<path class="st0" d="M4.6,11.4c0,0.6,0.2,1.2,0.6,1.6c0.4,0.4,0.9,0.8,1.5,0.9s1.2,0,1.7-0.3c0.5-0.3,0.9-0.8,1.1-1.3
	c0-0.1,0.1-0.2,0.1-0.2c0-0.1,0-0.2-0.1-0.2c0-0.1-0.1-0.1-0.1-0.2c-0.1-0.1-0.1-0.1-0.2-0.1c-0.1,0-0.2,0-0.2,0
	c-0.1,0-0.2,0-0.2,0.1c-0.1,0-0.1,0.1-0.2,0.2c-0.1,0.1-0.1,0.1-0.1,0.2c-0.1,0.2-0.2,0.4-0.4,0.5c-0.2,0.1-0.4,0.2-0.6,0.3
	c-0.2,0-0.5,0-0.7-0.1c-0.2-0.1-0.4-0.2-0.5-0.4c-0.1-0.2-0.2-0.4-0.2-0.6c0-0.2,0-0.5,0.1-0.7c0.1-0.2,0.3-0.4,0.5-0.5
	c0.2-0.1,0.4-0.2,0.6-0.2h8.8c0.2,0,0.3-0.1,0.4-0.2c0.1-0.1,0.2-0.3,0.2-0.4s-0.1-0.3-0.2-0.4c-0.1-0.1-0.3-0.2-0.4-0.2H7.1
	c-0.7,0-1.3,0.3-1.8,0.7C4.9,10.1,4.6,10.7,4.6,11.4z M9.6,5.1C9.2,5.1,8.7,5,8.3,4.8c-0.4-0.2-0.7-0.6-0.9-1
	C7.2,3.4,7.1,2.9,7.1,2.5c0-0.5,0.2-0.9,0.4-1.3c0.3-0.4,0.6-0.7,1-0.9s0.9-0.3,1.3-0.2c0.5,0.1,0.9,0.2,1.2,0.5s0.6,0.7,0.8,1.1
	C12,1.8,12,1.9,12,2c0,0.1,0,0.2-0.1,0.2s-0.1,0.1-0.1,0.2c-0.1,0.1-0.1,0.1-0.2,0.1c-0.1,0-0.2,0-0.2,0c-0.1,0-0.2,0-0.2-0.1
	c-0.1,0-0.1-0.1-0.2-0.2c-0.1-0.1-0.1-0.1-0.1-0.2c-0.1-0.2-0.2-0.4-0.4-0.5C10.2,1.5,10,1.4,9.8,1.4c-0.2,0-0.5,0-0.7,0.1
	S8.7,1.7,8.6,1.9C8.5,2.1,8.4,2.3,8.4,2.5c0,0.2,0,0.5,0.1,0.7C8.6,3.4,8.8,3.6,9,3.7c0.2,0.1,0.4,0.2,0.6,0.2h7.5
	c0.2,0,0.3,0.1,0.4,0.2c0.1,0.1,0.2,0.3,0.2,0.4s-0.1,0.3-0.2,0.4c-0.1,0.1-0.3,0.2-0.4,0.2H9.6z M2.8,2.6c0.5,0,1,0.2,1.4,0.5
	c0.4,0.3,0.7,0.7,0.9,1.2c0,0.1,0.1,0.2,0.1,0.2c0,0.1,0,0.2-0.1,0.2C5.1,4.8,5,4.9,4.9,5C4.9,5,4.8,5.1,4.7,5.1c-0.1,0-0.2,0-0.2,0
	c-0.1,0-0.2,0-0.2-0.1C4.2,5,4.1,5,4,4.9C4,4.8,3.9,4.8,3.9,4.7C3.8,4.5,3.7,4.3,3.5,4.1C3.3,4,3.1,3.9,2.9,3.9
	c-0.2,0-0.5,0-0.7,0.1C2,4.1,1.9,4.2,1.7,4.4C1.6,4.6,1.5,4.8,1.5,5c0,0.2,0,0.5,0.1,0.7s0.3,0.4,0.5,0.5c0.2,0.1,0.4,0.2,0.6,0.2
	h13.8c0.2,0,0.3,0.1,0.4,0.2c0.1,0.1,0.2,0.3,0.2,0.4s-0.1,0.3-0.2,0.4c-0.1,0.1-0.3,0.2-0.4,0.2H2.8C2.1,7.6,1.5,7.4,1,6.9
	C0.5,6.4,0.2,5.8,0.2,5.1S0.5,3.8,1,3.4C1.5,2.9,2.1,2.6,2.8,2.6z" />
</svg>