<?xml version="1.0" encoding="utf-8"?>
<!-- Generator: Adobe Illustrator 25.0.0, SVG Export Plug-In . SVG Version: 6.00 Build 0)  -->
<svg version="1.1" id="Layer_1" xmlns="http://www.w3.org/2000/svg" xmlns:xlink="http://www.w3.org/1999/xlink" x="0px"
	y="0px" viewBox="0 0 8 16" style="enable-background:new 0 0 8 16;" xml:space="preserve">
	<style type="text/css">
		.st0 {
			fill: #003870;
		}
	</style>
	<path class="st0"
		d="M4,4.5c0.1,0,0.3,0.1,0.4,0.1C4.4,4.7,4.5,4.9,4.5,5v5.1c0.5,0.1,0.9,0.4,1.2,0.8C5.9,11.3,6,11.8,6,12.3
	c-0.1,0.5-0.3,0.9-0.7,1.2C5,13.8,4.5,14,4,14c-0.5,0-1-0.2-1.3-0.5c-0.4-0.3-0.6-0.8-0.7-1.2c-0.1-0.5,0.1-1,0.3-1.4
	c0.3-0.4,0.7-0.7,1.2-0.8V5c0-0.1,0.1-0.3,0.1-0.4C3.7,4.6,3.9,4.5,4,4.5z M4,0C3.2,0,2.4,0.3,1.9,0.9C1.3,1.4,1,2.2,1,3v6.4
	c-0.5,0.6-0.8,1.3-1,2.1c-0.1,0.8,0,1.5,0.3,2.2s0.8,1.3,1.5,1.7C2.5,15.8,3.2,16,4,16s1.5-0.2,2.2-0.6c0.6-0.4,1.2-1,1.5-1.7
	s0.4-1.5,0.3-2.2c-0.1-0.8-0.4-1.5-1-2.1V3c0-0.8-0.3-1.6-0.9-2.1C5.6,0.3,4.8,0,4,0z M4,1c0.5,0,1,0.2,1.4,0.6C5.8,2,6,2.5,6,3v6.8
	l0.1,0.1c0.4,0.4,0.7,1,0.8,1.5c0.1,0.6,0,1.2-0.2,1.7c-0.2,0.5-0.6,1-1.1,1.3C5.2,14.8,4.6,15,4,15s-1.2-0.2-1.7-0.5
	c-0.5-0.3-0.9-0.8-1.1-1.3C1,12.6,0.9,12,1.1,11.4c0.1-0.6,0.4-1.1,0.8-1.5L2,9.8V3c0-0.5,0.2-1,0.6-1.4C3,1.2,3.5,1,4,1z" />
</svg>