<?xml version="1.0" encoding="utf-8"?>
<!-- Generator: Adobe Illustrator 25.0.0, SVG Export Plug-In . SVG Version: 6.00 Build 0)  -->
<svg version="1.1" id="Layer_1" xmlns="http://www.w3.org/2000/svg" xmlns:xlink="http://www.w3.org/1999/xlink" x="0px" y="0px"
	 viewBox="0 0 14 18" style="enable-background:new 0 0 14 18;" xml:space="preserve">
<style type="text/css">
	.st0{fill:#003870;}
</style>
<path class="st0" d="M7.9,9L13,4.5c0.1-0.1,0.2-0.2,0.2-0.3s0-0.3,0-0.4c0-0.1-0.1-0.2-0.2-0.3c-0.1-0.1-0.2-0.1-0.4-0.1h-1.9V0.2
	H9.5v4.4H11L7,8.2L3,4.6h1.5V0.2H3.3v3.1H1.4c-0.1,0-0.3,0-0.4,0.1C0.9,3.6,0.8,3.7,0.8,3.8c0,0.1-0.1,0.2,0,0.4
	c0,0.1,0.1,0.2,0.2,0.3L6.1,9L1,13.5c-0.1,0.1-0.2,0.2-0.2,0.3c0,0.1,0,0.3,0,0.4c0,0.1,0.1,0.2,0.2,0.3c0.1,0.1,0.2,0.1,0.4,0.1
	h1.9v3.1h1.3v-4.4H3l4-3.5l4,3.5H9.5v4.4h1.2v-3.1h1.9c0.1,0,0.3,0,0.4-0.1c0.1-0.1,0.2-0.2,0.2-0.3c0-0.1,0.1-0.2,0-0.4
	c0-0.1-0.1-0.2-0.2-0.3L7.9,9z"/>
</svg>
