<?xml version="1.0" ?>
<svg xmlns="http://www.w3.org/2000/svg" width="86" height="86" viewBox="0 0 86 86">
  <g>
    <path d="M43,43m-35,0a35,35 0,1 1,70 0a35,35 0,1 1,-70 0" fill="#FCD822" fill-opacity="0.3"/>
    <path d="M14.13,10.96L10.96,14.13C9.32,15.77 9.32,18.45 10.96,20.09L14.05,23.18C16.5,19.6 19.6,16.5 23.19,14.05L20.1,10.97C18.46,9.32 15.77,9.32 14.13,10.96ZM71.55,10.96C69.91,9.32 67.22,9.32 65.58,10.96L62.49,14.05C66.07,16.5 69.17,19.6 71.62,23.19L74.71,20.1C76.35,18.46 76.35,15.77 74.71,14.13L71.55,10.96ZM45.08,0H40.6C38.28,0 36.38,1.9 36.38,4.22V8.6C38.48,8.21 40.63,7.98 42.84,7.98C45.05,7.98 47.2,8.21 49.3,8.6V4.22C49.3,1.9 47.4,0 45.08,0ZM4.22,36.38C1.9,36.38 0,38.28 0,40.6V45.08C0,47.4 1.9,49.3 4.22,49.3H8.6C8.21,47.2 7.98,45.05 7.98,42.84C7.98,40.63 8.21,38.47 8.6,36.38H4.22ZM71.63,62.49C69.18,66.07 66.08,69.17 62.5,71.62L65.59,74.7C67.23,76.34 69.92,76.34 71.56,74.7L74.73,71.53C76.37,69.89 76.37,67.2 74.73,65.56L71.63,62.49ZM81.46,36.38H77.09C77.48,38.48 77.71,40.63 77.71,42.84C77.71,45.05 77.48,47.2 77.09,49.3H81.46C83.78,49.3 85.68,47.4 85.68,45.08V40.6C85.68,38.28 83.78,36.38 81.46,36.38ZM14.05,62.49L10.96,65.58C9.32,67.22 9.32,69.9 10.96,71.55L14.13,74.72C15.77,76.36 18.46,76.36 20.1,74.72L23.19,71.64C19.6,69.18 16.5,66.08 14.05,62.49ZM36.38,77.08V81.46C36.38,83.78 38.28,85.68 40.6,85.68H45.08C47.4,85.68 49.3,83.78 49.3,81.46V77.08C47.2,77.47 45.05,77.7 42.84,77.7C40.63,77.71 38.47,77.48 36.38,77.08Z" fill="#FFDA24"/>
    <path d="M36.38,6.78V8.6C38.48,8.21 40.63,7.98 42.84,7.98C45.05,7.98 47.2,8.21 49.3,8.6V6.78C47.2,6.41 45.05,6.18 42.84,6.18C40.63,6.17 38.48,6.4 36.38,6.78ZM71.63,23.19L72.92,21.9C70.44,18.34 67.34,15.25 63.79,12.77L62.5,14.05C66.08,16.5 69.18,19.6 71.63,23.19ZM6.78,36.38C6.4,38.48 6.18,40.63 6.18,42.84C6.18,45.05 6.41,47.2 6.78,49.3H8.6C8.21,47.2 7.98,45.05 7.98,42.84C7.98,40.63 8.21,38.47 8.6,36.38H6.78ZM62.49,71.63L63.78,72.91C67.34,70.43 70.43,67.34 72.91,63.78L71.62,62.49C69.18,66.08 66.08,69.18 62.49,71.63ZM78.9,36.38H77.08C77.47,38.48 77.7,40.63 77.7,42.84C77.7,45.05 77.47,47.2 77.08,49.3H78.9C79.27,47.2 79.5,45.05 79.5,42.84C79.5,40.63 79.28,38.48 78.9,36.38ZM36.38,77.08V78.9C38.48,79.27 40.63,79.5 42.84,79.5C45.05,79.5 47.2,79.27 49.3,78.9V77.08C47.2,77.47 45.05,77.7 42.84,77.7C40.63,77.71 38.47,77.48 36.38,77.08ZM14.05,62.49L12.77,63.78C15.25,67.34 18.35,70.44 21.9,72.92L23.19,71.64C19.6,69.18 16.5,66.08 14.05,62.49ZM12.76,21.9L14.05,23.18C16.5,19.6 19.6,16.5 23.19,14.05L21.9,12.77C18.34,15.25 15.25,18.34 12.76,21.9Z" fill="#FFA300"/>
    <path d="M65.58,10.96L62.49,14.05C58.59,11.38 54.11,9.5 49.29,8.6V4.22C49.3,1.9 47.4,0 45.08,0H40.6C38.28,0 36.38,1.9 36.38,4.22V8.6C31.56,9.5 27.09,11.39 23.19,14.05L20.1,10.97C18.46,9.33 15.78,9.33 14.14,10.97L10.97,14.14C9.33,15.78 9.33,18.46 10.97,20.1L14.06,23.19C11.39,27.09 9.51,31.57 8.61,36.39H4.22C1.9,36.38 0,38.28 0,40.6V45.08C0,47.4 1.9,49.3 4.22,49.3H8.6C9.5,54.12 11.39,58.59 14.05,62.49L10.96,65.58C9.32,67.22 9.32,69.9 10.96,71.55L12.79,73.38L73.37,12.79L71.54,10.96C69.91,9.32 67.22,9.32 65.58,10.96Z" fill="#ffffff" fill-opacity="0.15"/>
  </g>
</svg>
