<svg width="25" height="24" viewBox="0 0 25 24" fill="none" xmlns="http://www.w3.org/2000/svg">
<g clip-path="url(#clip0_37_917)">
<path d="M13.8168 4.00006C11.0885 4.00006 8.78011 5.79944 7.9789 8.28987C6.446 8.6341 5.19649 9.73199 4.62198 11.1793C2.54806 11.2497 0.888916 12.9682 0.888916 15.0857C0.888916 17.1981 2.5429 18.914 4.61167 18.9922V19.0001H13.8889V4.00528C13.8658 4.00267 13.8425 4.00006 13.8168 4.00006Z" fill="white"/>
<path d="M20.2761 9.45224C19.8852 6.40268 17.181 4.03658 13.8889 4.00006V19.0001H20.0957V18.9896C22.7616 18.8801 24.8889 16.7879 24.8889 14.2157C24.8862 11.7035 22.8546 9.64789 20.2761 9.45224Z" fill="#F2F4F9"/>
</g>
<defs>
<clipPath id="clip0_37_917">
<rect width="24" height="24" fill="white" transform="translate(0.888916 6.10352e-05)"/>
</clipPath>
</defs>
</svg>
