<svg width="31" height="26" viewBox="0 0 31 26" fill="none" xmlns="http://www.w3.org/2000/svg">
<path d="M30.3101 12.9042C30.3101 19.6656 24.8275 25.1482 18.066 25.1482C11.3046 25.1482 5.82202 19.6656 5.82202 12.9042C5.82202 6.14275 11.3046 0.660156 18.066 0.660156C24.8275 0.660156 30.3101 6.14275 30.3101 12.9042Z" fill="#C6C5A3"/>
<path d="M18.066 0.660156C15.6452 0.660156 13.3914 1.36468 11.4915 2.57672C10.2795 4.4766 9.57495 6.73041 9.57495 9.15117C9.57495 15.9126 15.0575 21.3952 21.819 21.3952C24.2397 21.3952 26.4935 20.6907 28.3934 19.4786C29.6055 17.5787 30.31 15.3249 30.31 12.9042C30.31 6.14275 24.8307 0.660156 18.066 0.660156Z" fill="#D1D1B0"/>
<path d="M12.4629 11.3964C12.4629 12.6652 11.4345 13.6903 10.169 13.6903C8.90023 13.6903 7.87183 12.6619 7.87183 11.3964C7.87183 10.1276 8.90023 9.10254 10.169 9.10254C11.4345 9.10254 12.4629 10.1276 12.4629 11.3964Z" fill="#B7B284"/>
<path d="M10.1691 9.10254C9.71499 9.10254 9.29428 9.2361 8.93701 9.46315C8.70996 9.82042 8.57642 10.2411 8.57642 10.6952C8.57642 11.964 9.60482 12.9891 10.8736 12.9891C11.3277 12.9891 11.7484 12.8589 12.1057 12.6285C12.3328 12.2712 12.4663 11.8505 12.4663 11.3964C12.463 10.1276 11.4346 9.10254 10.1691 9.10254Z" fill="#C1BE99"/>
<path d="M21.8424 12.3838C21.8424 14.1601 20.4 15.5992 18.6236 15.5992C16.8473 15.5992 15.4082 14.1601 15.4082 12.3838C15.4082 10.6075 16.8473 9.16504 18.6236 9.16504C20.4 9.16504 21.8424 10.6075 21.8424 12.3838Z" fill="#B7B284"/>
<path d="M18.6237 9.16504C17.986 9.16504 17.395 9.35202 16.8975 9.66922C16.5803 10.1667 16.3933 10.7611 16.3933 11.3955C16.3933 13.1718 17.8324 14.6109 19.6087 14.6109C20.2465 14.6109 20.8375 14.4273 21.335 14.1067C21.6522 13.6059 21.8392 13.0149 21.8392 12.3805C21.8425 10.6075 20.4001 9.16504 18.6237 9.16504Z" fill="#C1BE99"/>
<path d="M14.3094 19.2587C14.3094 19.9999 13.7084 20.6043 12.9638 20.6043C12.2192 20.6043 11.6182 20.0033 11.6182 19.2587C11.6182 18.5174 12.2192 17.9131 12.9638 17.9131C13.7084 17.9131 14.3094 18.5174 14.3094 19.2587Z" fill="#B7B284"/>
<path d="M12.967 17.9131C12.6998 17.9131 12.4528 17.9899 12.2458 18.1234C12.1122 18.3305 12.0354 18.5809 12.0354 18.8447C12.0354 19.5893 12.6364 20.1903 13.381 20.1903C13.6448 20.1903 13.8952 20.1135 14.1022 19.9799C14.2358 19.7696 14.3126 19.5225 14.3126 19.2587C14.3092 18.5174 13.7082 17.9131 12.967 17.9131Z" fill="#C1BE99"/>
<path d="M25.4586 5.84183C25.4586 6.75337 24.7207 7.49129 23.8091 7.49129C22.8976 7.49129 22.1597 6.75337 22.1597 5.84183C22.1597 4.93029 22.8976 4.19238 23.8091 4.19238C24.724 4.19238 25.4586 4.93029 25.4586 5.84183Z" fill="#B7B284"/>
<path d="M23.8124 4.19238C23.4851 4.19238 23.1813 4.28587 22.9275 4.44948C22.7639 4.70324 22.6704 5.00709 22.6704 5.33431C22.6704 6.24251 23.4083 6.98042 24.3199 6.98042C24.6471 6.98042 24.9476 6.88694 25.2047 6.72333C25.3683 6.46623 25.4618 6.16571 25.4618 5.8385C25.4585 4.93029 24.7239 4.19238 23.8124 4.19238Z" fill="#C1BE99"/>
<path d="M15.595 3.94509C15.595 4.46263 15.1743 4.88334 14.6568 4.88334C14.1392 4.88334 13.7185 4.46263 13.7185 3.94509C13.7185 3.42755 14.1392 3.00684 14.6568 3.00684C15.1776 3.00684 15.595 3.42755 15.595 3.94509Z" fill="#B7B284"/>
<path d="M14.6567 3.00684C14.4697 3.00684 14.2994 3.06026 14.1525 3.15375C14.059 3.30067 14.0056 3.47095 14.0056 3.65794C14.0056 4.17548 14.4263 4.59619 14.9439 4.59619C15.1308 4.59619 15.3045 4.54276 15.448 4.44927C15.5415 4.30236 15.595 4.13207 15.595 3.94509C15.595 3.42755 15.1776 3.00684 14.6567 3.00684Z" fill="#C1BE99"/>
<path d="M28.6973 14.1631C28.6973 15.108 27.9293 15.876 26.9844 15.876C26.0395 15.876 25.2715 15.108 25.2715 14.1631C25.2715 13.2182 26.0395 12.4502 26.9844 12.4502C27.9293 12.4502 28.6973 13.2182 28.6973 14.1631Z" fill="#B7B284"/>
<path d="M26.9843 12.4502C26.6438 12.4502 26.3299 12.547 26.0628 12.7207C25.8925 12.9844 25.7957 13.2983 25.7957 13.6389C25.7957 14.5838 26.5603 15.3518 27.5085 15.3518C27.8458 15.3518 28.163 15.2549 28.4267 15.0846C28.597 14.8175 28.6939 14.5037 28.6939 14.1631C28.6972 13.2182 27.9293 12.4502 26.9843 12.4502Z" fill="#C1BE99"/>
<path d="M23.2148 21.1877C23.2148 22.0025 22.5537 22.6636 21.739 22.6636C20.9243 22.6636 20.2632 22.0025 20.2632 21.1877C20.2632 20.373 20.9243 19.7119 21.739 19.7119C22.5537 19.7119 23.2148 20.373 23.2148 21.1877Z" fill="#B7B284"/>
<path d="M21.7392 19.7119C21.4453 19.7119 21.1749 19.7987 20.9445 19.9423C20.7976 20.1727 20.7141 20.4431 20.7141 20.7336C20.7141 21.5483 21.3752 22.2095 22.1899 22.2095C22.4804 22.2095 22.7542 22.126 22.9813 21.9791C23.1282 21.7487 23.2117 21.4782 23.2117 21.1844C23.215 20.373 22.5539 19.7119 21.7392 19.7119Z" fill="#C1BE99"/>
<path d="M16.7704 7.27734C13.3847 7.27734 10.5165 9.48775 9.51818 12.5429C7.61162 12.967 6.06232 14.3126 5.34778 16.0889C2.77343 16.1757 0.709961 18.2859 0.709961 20.8803C0.709961 23.4747 2.76676 25.5783 5.33443 25.6751V25.6851H16.8572V7.28069C16.8305 7.28069 16.8005 7.27734 16.7704 7.27734Z" fill="white"/>
<path d="M24.3367 13.9682C23.8759 10.2286 20.7139 7.32368 16.8574 7.28027V25.6847H24.123V25.6714C27.245 25.5345 29.7358 22.9701 29.7358 19.8148C29.7358 16.7296 27.3585 14.2086 24.3367 13.9682Z" fill="#F2F4F9"/>
</svg>
