<svg width="31" height="27" viewBox="0 0 31 27" fill="none" xmlns="http://www.w3.org/2000/svg">
<path d="M28.0873 13.4694C28.0873 19.0762 23.5411 23.6224 17.9343 23.6224C12.3275 23.6224 7.78125 19.0762 7.78125 13.4694C7.78125 7.86263 12.3275 3.31641 17.9343 3.31641C23.5444 3.31641 28.0873 7.86263 28.0873 13.4694Z" fill="#FFDA24"/>
<path d="M9.57533 4.18575L8.65352 5.10755C8.17444 5.58662 8.17444 6.36635 8.65352 6.84542L9.5522 7.7441C10.2659 6.70005 11.1678 5.79807 12.2119 5.08442L11.3132 4.18575C10.8374 3.70668 10.0544 3.70668 9.57533 4.18575ZM26.2966 4.18575C25.8175 3.70998 25.0378 3.70998 24.5587 4.18575L23.66 5.08442C24.7041 5.79807 25.6061 6.70005 26.3197 7.7441L27.2184 6.84542C27.6975 6.36635 27.6975 5.58662 27.2184 5.10755L26.2966 4.18575ZM18.5885 0.994141H17.2834C16.6061 0.994141 16.0544 1.5459 16.0544 2.22321V3.49853C16.6656 3.38289 17.2933 3.31681 17.9343 3.31681C18.5786 3.31681 19.2063 3.38289 19.8142 3.49853V2.22321C19.8176 1.5459 19.2625 0.994141 18.5885 0.994141ZM6.69097 11.5866C6.01697 11.5866 5.46191 12.1383 5.46191 12.8157V14.1207C5.46191 14.7947 6.01697 15.3498 6.69097 15.3498H7.96629C7.85065 14.7385 7.78458 14.1108 7.78458 13.4698C7.78458 12.8256 7.85065 12.1978 7.96629 11.5899H6.69097V11.5866ZM26.3197 19.1923C25.6061 20.2363 24.7041 21.1383 23.66 21.8519L24.5587 22.7506C25.0378 23.2297 25.8175 23.2297 26.2966 22.7506L27.2184 21.8288C27.6975 21.3497 27.6975 20.57 27.2184 20.0909L26.3197 19.1923ZM29.1809 11.5866H27.9056C28.0179 12.1978 28.0873 12.8256 28.0873 13.4665C28.0873 14.1108 28.0212 14.7385 27.9056 15.3465H29.1809C29.8549 15.3465 30.41 14.7947 30.41 14.1174V12.8123C30.41 12.1416 29.8582 11.5866 29.1809 11.5866ZM9.5522 19.1923L8.65352 20.0909C8.17444 20.57 8.17444 21.3497 8.65352 21.8288L9.57533 22.7506C10.0544 23.2297 10.8341 23.2297 11.3132 22.7506L12.2119 21.8519C11.1711 21.1383 10.2659 20.2363 9.5522 19.1923ZM16.0544 23.4411V24.7165C16.0544 25.3905 16.6061 25.9455 17.2834 25.9455H18.5885C19.2625 25.9455 19.8176 25.3938 19.8176 24.7165V23.4411C19.2063 23.5568 18.5786 23.6229 17.9376 23.6229C17.2933 23.6195 16.6656 23.5535 16.0544 23.4411Z" fill="#FFDA24"/>
<path d="M16.0544 2.96612V3.49476C16.6656 3.37912 17.2934 3.31304 17.9343 3.31304C18.5786 3.31304 19.2063 3.37912 19.8143 3.49476V2.96612C19.203 2.85709 18.5753 2.79102 17.9343 2.79102C17.2934 2.79102 16.6656 2.85709 16.0544 2.96612ZM26.3197 7.74363L26.6931 7.37028C25.9695 6.33284 25.0708 5.43417 24.0334 4.71061L23.6568 5.08395C24.7008 5.7976 25.6061 6.69958 26.3197 7.74363ZM7.43438 11.5861C7.32535 12.1973 7.25928 12.8251 7.25928 13.4661C7.25928 14.107 7.32535 14.7348 7.43438 15.346H7.96302C7.84738 14.7348 7.78129 14.107 7.78129 13.4661C7.78129 12.8218 7.84738 12.194 7.96302 11.5861H7.43438ZM23.6568 21.8515L24.0334 22.2248C25.0675 21.5013 25.9695 20.6026 26.6931 19.5651L26.3197 19.1918C25.6061 20.2358 24.7008 21.1378 23.6568 21.8515ZM28.4376 11.5861H27.9089C28.0213 12.1973 28.0906 12.8251 28.0906 13.4661C28.0906 14.1103 28.0246 14.7381 27.9089 15.346H28.4376C28.5466 14.7348 28.6127 14.107 28.6127 13.4661C28.6127 12.8251 28.5466 12.1973 28.4376 11.5861ZM16.0544 23.4407V23.9693C16.6656 24.0783 17.2934 24.1444 17.9343 24.1444C18.5786 24.1444 19.203 24.0783 19.8143 23.9693V23.4407C19.203 23.5563 18.5753 23.6224 17.9343 23.6224C17.2934 23.6191 16.6656 23.553 16.0544 23.4407ZM9.55222 19.1918L9.17887 19.5651C9.90243 20.6026 10.8044 21.5046 11.8385 22.2248L12.2119 21.8515C11.1711 21.1378 10.2659 20.2358 9.55222 19.1918ZM9.17887 7.37028L9.55552 7.74363C10.2692 6.69958 11.1711 5.7976 12.2152 5.08395L11.8418 4.71061C10.8011 5.43417 9.90243 6.33284 9.17887 7.37028Z" fill="#FFA300"/>
<path opacity="0.15" d="M24.5586 4.18515L23.6599 5.08382C22.5234 4.30409 21.2216 3.75894 19.8174 3.49462V2.2193C19.8174 1.54199 19.2657 0.990234 18.5884 0.990234H17.2833C16.606 0.990234 16.0542 1.54199 16.0542 2.2193V3.49462C14.6501 3.75894 13.3483 4.30409 12.2118 5.08382L11.3131 4.18515C10.834 3.70608 10.0543 3.70608 9.57522 4.18515L8.6534 5.10695C8.17433 5.58602 8.17433 6.36575 8.6534 6.84482L9.55209 7.7435C8.77236 8.88005 8.22721 10.1818 7.96289 11.586H6.68755C6.01355 11.586 5.4585 12.1377 5.4585 12.8151V14.1201C5.4585 14.7941 6.01355 15.3492 6.68755 15.3492H7.96289C8.22721 16.7534 8.77566 18.0551 9.55209 19.1917L8.6534 20.0903C8.17433 20.5694 8.17433 21.3491 8.6534 21.8282L9.18533 22.3635L26.8284 4.72039L26.2965 4.18845C25.8174 3.70938 25.0344 3.70938 24.5586 4.18515Z" fill="white"/>
<path d="M16.702 7.86523C13.3518 7.86523 10.5137 10.0524 9.52586 13.0756C7.63931 13.4952 6.10298 14.8266 5.39924 16.5843C2.8519 16.6702 0.810059 18.7583 0.810059 21.3255C0.810059 23.8927 2.84528 25.9742 5.38601 26.07V26.0799H16.7912V7.87184C16.7615 7.86854 16.7318 7.86523 16.702 7.86523Z" fill="white"/>
<path d="M24.1888 14.4889C23.7362 10.7885 20.6073 7.91405 16.7913 7.87109V26.0824H23.9806V26.0692C27.0698 25.9338 29.5346 23.3963 29.5346 20.2741C29.5313 17.2213 27.1756 14.7268 24.1888 14.4889Z" fill="#F2F4F9"/>
</svg>
