<svg width="25" height="24" viewBox="0 0 25 24" fill="none" xmlns="http://www.w3.org/2000/svg">
<g clip-path="url(#clip0_37_814)">
<path d="M13.5876 2.00006C10.7669 2.00006 8.38041 3.84261 7.55209 6.39282C5.96732 6.74531 4.67552 7.86953 4.08156 9.35159C1.93746 9.42369 0.222168 11.1835 0.222168 13.3518C0.222168 15.5148 1.93212 17.2719 4.07091 17.352V17.3601H13.6622V2.0054C13.6355 2.00273 13.6116 2.00006 13.5876 2.00006Z" fill="white"/>
<path d="M19.7939 7.58308C19.4186 4.46033 16.8225 2.03746 13.6621 2.00006V17.3601H19.6206V17.3493C22.18 17.2372 24.2221 15.0948 24.2221 12.4609C24.2221 9.88841 22.2718 7.78343 19.7939 7.58308Z" fill="#F2F4F9"/>
<path d="M8.62954 14.492L5.08383 15.3888L4.78285 15.4649C4.43048 15.5732 4.10013 15.7576 3.81873 16.0204C2.86438 16.9195 2.86194 18.3787 3.81873 19.2801L8.86205 14.5289C8.81306 14.4828 8.73236 14.4667 8.62954 14.492Z" fill="#00E1FF"/>
<path d="M7.6803 18.5623L7.7716 18.2588L8.84771 14.7125C8.87809 14.6098 8.85875 14.529 8.80346 14.4801L3.10205 19.5242C4.18092 20.4787 5.932 20.4787 7.01086 19.5242C7.32898 19.2451 7.55029 18.9148 7.6803 18.5623Z" fill="#00C6F4"/>
<path d="M21.0679 14.4944L16.9306 15.5705L16.5794 15.6618C16.1683 15.7919 15.7828 16.0131 15.4573 16.3285C14.3437 17.4074 14.3437 19.1584 15.4573 20.2401L21.3421 14.5387C21.285 14.4834 21.1879 14.464 21.0679 14.4944Z" fill="#00E1FF"/>
<path d="M20.1605 19.2436L20.2518 18.8897L21.3279 14.7541C21.3584 14.6342 21.3389 14.5371 21.2836 14.4801L15.5823 20.3653C16.6611 21.4783 18.4122 21.4783 19.4939 20.3653C19.8092 20.0399 20.0305 19.6546 20.1605 19.2436Z" fill="#00C6F4"/>
<path d="M12.5462 18.3304L10.1837 19.0472L9.98212 19.1079C9.74828 19.196 9.52791 19.3418 9.33981 19.5543C8.70281 20.2741 8.70281 21.4403 9.33981 22.1601L12.7021 18.3608C12.6671 18.3213 12.6134 18.3092 12.5462 18.3304Z" fill="#00E1FF"/>
<path d="M12.1114 21.04L12.1569 20.8385L12.6945 18.476C12.7105 18.4088 12.7013 18.3523 12.6717 18.3201L9.82227 21.6823C10.362 22.3193 11.2367 22.3193 11.7765 21.6823C11.936 21.4942 12.0453 21.2739 12.1114 21.04Z" fill="#00C6F4"/>
<path opacity="0.2" d="M8.66903 14.7213L7.9021 17.3601H11.7421L8.62498 14.4801C8.68 14.5308 8.69922 14.6172 8.66903 14.7213Z" fill="#122C3D"/>
<path opacity="0.2" d="M20.9188 14.8299L20.3821 17.3601C21.0852 17.1704 21.7338 16.8023 22.3021 16.2992L20.8728 14.4801C20.9302 14.5529 20.9504 14.6733 20.9188 14.8299Z" fill="#122C3D"/>
</g>
<defs>
<clipPath id="clip0_37_814">
<rect width="24" height="24" fill="white" transform="translate(0.222168 6.10352e-05)"/>
</clipPath>
</defs>
</svg>
