<svg width="24" height="24" viewBox="0 0 24 24" fill="none" xmlns="http://www.w3.org/2000/svg">
<path d="M2.54175 1.5C1.96275 1.5 1.5 1.9875 1.5 2.58V3.75C1.5 9.9 6.2805 12.54 8.73225 14.745C12.348 18 11.3497 20.5575 10.1775 22.5H13.071C17.2222 16.125 14.8785 14.8875 16.6868 12.0075C18.1125 9.7425 21.75 9 21.75 3.75V2.58C21.75 1.98 21.2798 1.5 20.7083 1.5H2.5425H2.54175Z" fill="#F2F4F9"/>
<path d="M1.5 2.58C1.5 1.9875 1.96275 1.5 2.54175 1.5H2.5425H12.75V22.5H10.1775C11.3497 20.5575 12.348 18 8.73225 14.745C6.2805 12.54 1.5 9.9 1.5 3.75V2.58Z" fill="white"/>
<path d="M11.3333 4.5H6.6675C6.3 4.5 6 4.1625 6 3.75C6 3.3375 6.3 3 6.66675 3H11.3333C11.7 3 12 3.3375 12 3.75C12 4.1625 11.7 4.5 11.3333 4.5ZM21.75 6H15C14.5875 6 14.25 6.3375 14.25 6.75C14.25 7.1625 14.5875 7.5 15 7.5H21.75C22.1625 7.5 22.5 7.1625 22.5 6.75C22.5 6.3375 22.1625 6 21.75 6ZM12.6428 13.5C12.2895 13.5 12 13.8375 12 14.25C12 14.6625 12.2895 15 12.6428 15H15.8572C16.2105 15 16.5 14.6625 16.5 14.25C16.5 13.8375 16.2105 13.5 15.8572 13.5H12.6428ZM3.69675 9.75H12.0525C12.4357 9.75 12.7493 10.0875 12.7493 10.5C12.7493 10.9125 12.4357 11.25 12.0525 11.25H3.6975C3.3135 11.25 3 10.9125 3 10.5C3 10.0875 3.3135 9.75 3.69675 9.75ZM10.5 18.75C10.5 18.3375 10.77 18 11.1 18H12.9C13.23 18 13.5 18.3375 13.5 18.75C13.5 19.1625 13.23 19.5 12.9 19.5H11.1C10.77 19.5 10.5 19.1625 10.5 18.75ZM14.25 21C14.8125 21 15.3045 21.3135 15.5618 21.774C15.6726 21.7457 15.7884 21.7431 15.9004 21.7663C16.0124 21.7895 16.1176 21.838 16.2081 21.9079C16.2986 21.9779 16.3719 22.0677 16.4225 22.1702C16.473 22.2728 16.4996 22.3856 16.5 22.5H12.75C12.75 21.675 13.425 21 14.25 21ZM9.75 21C10.1264 21.0004 10.4889 21.1423 10.7655 21.3975C10.5922 21.7767 10.3958 22.1448 10.1775 22.5H7.5C7.50044 22.3856 7.52696 22.2728 7.57754 22.1702C7.62812 22.0677 7.70143 21.9779 7.79189 21.9079C7.88235 21.838 7.98759 21.7895 8.09959 21.7663C8.2116 21.7431 8.32742 21.7457 8.43825 21.774C8.56819 21.5399 8.75828 21.3447 8.98888 21.2086C9.21949 21.0726 9.48224 21.0005 9.75 21Z" fill="#00E1FF"/>
</svg>
