<svg width="30" height="27" viewBox="0 0 30 27" fill="none" xmlns="http://www.w3.org/2000/svg">
<path d="M16.6681 0.160156C13.2117 0.160156 10.2873 2.41549 9.27219 5.52922C7.33019 5.96005 5.74722 7.33414 5.01938 9.14559C2.39197 9.23371 0.290039 11.3846 0.290039 14.0349C0.290039 16.6786 2.38543 18.8262 5.00632 18.9241V18.9339H16.7595V0.16669C16.7301 0.163426 16.6975 0.160156 16.6681 0.160156Z" fill="white"/>
<path d="M24.3839 6.98457C23.9172 3.16911 20.6892 0.20878 16.7595 0.163086V18.9303H24.1685V18.9173C27.3508 18.7802 29.8901 16.1626 29.8901 12.9444C29.8901 9.80456 27.465 7.22936 24.3839 6.98457Z" fill="#F2F4F9"/>
<path d="M15.3983 15.272C15.3983 15.4581 15.2449 15.6082 15.0621 15.6082H4.20654C4.0205 15.6082 3.87036 15.4581 3.87036 15.272V14.5442C3.87036 14.3581 4.0205 14.208 4.20654 14.208H15.0621C15.2449 14.208 15.3983 14.3581 15.3983 14.5442V15.272Z" fill="#00E1FF"/>
<path d="M15.3983 23.3212C15.3983 23.5072 15.2449 23.6574 15.0621 23.6574H4.20654C4.0205 23.6574 3.87036 23.504 3.87036 23.3212V22.5934C3.87036 22.4073 4.0205 22.2539 4.20654 22.2539H15.0621C15.2449 22.2539 15.3983 22.4073 15.3983 22.5934V23.3212Z" fill="#00E1FF"/>
<path d="M17.419 19.2548C17.419 19.4408 17.2688 19.591 17.0828 19.591H9.95776C9.77172 19.591 9.62158 19.4408 9.62158 19.2548V18.5237C9.62158 18.3376 9.77172 18.1875 9.95776 18.1875H17.0828C17.2688 18.1875 17.419 18.3376 17.419 18.5237V19.2548Z" fill="#00E1FF"/>
<path d="M23.4244 10.2331C22.7227 10.3081 22.2755 10.6574 22.2755 10.6574C22.2755 10.6574 22.2755 10.6574 22.2265 10.5431C22.0372 10.5921 21.6227 10.752 21.6227 10.752C21.6227 10.752 21.6227 10.752 21.626 10.5856C21.3518 10.6672 20.9243 11.222 20.8002 11.222C20.4934 10.6802 20.265 10.6411 20.265 10.6411C20.265 10.6411 20.265 10.641 20.1899 11.0817C19.6024 9.95237 18.9202 9.63577 18.917 9.62598C18.7799 9.99479 18.7995 11.0719 18.7995 11.0719C18.7995 11.0719 18.7995 11.0719 18.5743 10.9348C18.4405 11.2971 18.5841 11.9401 18.5841 11.9401C18.5841 11.9401 18.3262 11.8421 18.039 11.7899C17.99 12.1326 18.101 12.2991 18.2022 12.5537C18.1402 12.5439 18.1402 12.5308 17.6996 12.5145C17.1153 12.4884 16.7759 12.867 16.7759 12.867C16.7759 12.867 16.7759 12.867 16.8836 13.1542C17.1969 14.0616 17.8399 14.1432 17.8399 14.1432C17.8399 14.1432 17.8399 14.1432 17.4287 14.1628C17.693 14.7372 18.3491 14.7046 18.3491 14.7046C18.3491 14.7046 18.3491 14.7046 18.0292 14.8057C18.4307 15.3149 19.0312 15.3018 19.0312 15.3018C19.0312 15.3018 19.0312 15.3018 18.8484 15.4259C18.9855 15.5564 19.3445 15.5434 19.5665 15.5401L23.816 10.1906C23.8193 10.1972 23.8193 10.1972 23.4244 10.2331Z" fill="#98D24D"/>
<path d="M23.0196 16.6894C22.9021 16.2651 22.889 16.2684 22.8629 16.2096C23.1338 16.2455 23.3231 16.3141 23.643 16.1835C23.5255 15.9191 23.3688 15.6907 23.3688 15.6907C23.3688 15.6907 24.0281 15.6744 24.348 15.459C24.1619 15.2729 24.1619 15.2729 24.1619 15.2729C24.1619 15.2729 25.2129 15.0346 25.5393 14.816C25.5295 14.816 25.0595 14.2285 23.8225 13.9282C24.2337 13.7487 24.2337 13.7487 24.2337 13.7487C24.2337 13.7487 24.1423 13.5365 23.5418 13.3668C23.5124 13.2493 23.9498 12.701 23.9628 12.4138C23.8029 12.4562 23.8029 12.4562 23.8029 12.4562C23.8029 12.4562 23.8584 12.0156 23.8617 11.8197C23.7409 11.8002 23.7409 11.8002 23.7409 11.8002C23.7409 11.8002 23.9759 11.2845 23.8812 10.5827C23.8225 10.1943 23.8225 10.1943 23.8225 10.1943L23.7278 10.3118L23.8192 10.1976L19.5697 15.5471C19.5174 15.596 19.2074 15.7788 18.3653 16.1607C17.5232 16.5425 17.1675 16.4773 17.0434 16.4969C16.9194 16.5197 16.9618 16.6405 16.9618 16.6405C16.9618 16.6405 16.9618 16.7775 17.1348 16.7677C17.3045 16.758 17.9377 16.6894 18.7994 16.1933C19.1225 16.0105 19.4456 15.8767 19.6709 15.7201C19.7231 15.9289 19.7949 16.1803 19.9222 16.2586C20.0005 16.053 20.0005 16.053 20.0005 16.053C20.0005 16.053 20.1311 16.6372 20.7218 16.9081C20.7447 16.5719 20.7447 16.5719 20.7447 16.5719C20.7447 16.5719 20.8654 17.2149 21.4888 17.3357C21.4105 16.931 21.4105 16.9309 21.4105 16.9309C21.4105 16.9309 21.639 17.5348 22.5985 17.6229C22.9021 17.6588 22.9021 17.6588 22.9021 17.6588C22.9021 17.6588 23.1828 17.2541 23.0196 16.6894Z" fill="#83BA36"/>
<path d="M18.0485 23.1253C18.0029 25.1391 20.219 25.5112 20.454 25.5601C21.1982 25.6744 24.3511 26.0693 24.6383 26.1477C24.6383 26.1477 22.1219 23.4093 18.3651 21.9014C18.0649 22.528 18.0551 22.9164 18.0485 23.1253Z" fill="#83BA36"/>
<path d="M15.8878 21.4053C17.0889 21.2845 18.2705 21.8688 18.3651 21.9014C22.1218 23.406 24.6383 26.1477 24.6383 26.1477C24.4653 25.805 24.4033 25.3774 24.2955 24.5876C24.0867 23.0829 23.4698 22.2637 23.2544 22.0091C20.924 19.6558 18.6947 21.5815 18.4206 21.7708C16.8507 21.105 15.8128 21.2747 15.8128 21.2747C15.8128 21.2747 15.7442 21.278 15.7573 21.34C15.7769 21.4118 15.8291 21.4085 15.8878 21.4053Z" fill="#98D24D"/>
<path opacity="0.2" d="M23.8223 10.2028C23.8256 10.2159 23.8354 10.2812 23.8811 10.588C23.9757 11.2864 23.7407 11.8054 23.7407 11.8054C23.7407 11.8054 23.7407 11.8054 23.8615 11.825C23.8582 12.0208 23.8028 12.4614 23.8028 12.4614C23.8028 12.4614 23.8028 12.4614 23.9627 12.419C23.9496 12.7062 23.509 13.2545 23.5416 13.372C24.1422 13.5418 24.2336 13.7539 24.2336 13.7539C24.2336 13.7539 24.2336 13.7539 23.8223 13.9334C25.0594 14.237 25.5293 14.8245 25.5391 14.8212C25.216 15.0431 24.1618 15.2781 24.1618 15.2781C24.1618 15.2781 24.1618 15.2781 24.3478 15.4642C24.028 15.6796 23.3687 15.6959 23.3687 15.6959C23.3687 15.6959 23.5253 15.9244 23.6428 16.1888C23.323 16.3161 23.1337 16.2508 22.8628 16.2149C22.8889 16.2736 22.9019 16.2704 23.0194 16.6947C23.1826 17.256 22.8987 17.6771 22.8987 17.6771C22.8987 17.6771 22.8987 17.6771 22.5951 17.6412C21.6356 17.553 21.4071 16.9492 21.4071 16.9492C21.4071 16.9492 21.4071 16.9492 21.4854 17.354C20.8653 17.2332 20.7413 16.5902 20.7413 16.5902C20.7413 16.5902 20.7413 16.5902 20.7184 16.9264C20.1276 16.6555 19.9971 16.0712 19.9971 16.0712C19.9971 16.0712 19.9971 16.0712 19.9188 16.2769C19.7915 16.1953 19.7164 15.944 19.6674 15.7383C19.4455 15.895 19.1191 16.0256 18.796 16.2116C17.9343 16.7045 17.3011 16.7762 17.1314 16.786C16.9584 16.7958 16.9584 16.6588 16.9584 16.6588C16.9584 16.6588 16.9193 16.538 17.04 16.5151C17.102 16.5054 17.2195 16.5151 17.4317 16.4825L15.3624 14.4132C15.3852 14.4556 15.3983 14.5046 15.3983 14.5568V15.2847C15.3983 15.4707 15.2449 15.6209 15.0621 15.6209H4.20651C4.12818 15.6209 4.0629 15.5915 4.00415 15.5458L7.40509 18.9467H9.62126V18.5387C9.62126 18.3527 9.7714 18.2026 9.95744 18.2026H17.0825C17.2685 18.2026 17.4186 18.3527 17.4186 18.5387V18.9467H24.1683V18.9337C26.3975 18.8357 28.3036 17.5237 29.2534 15.6437L23.8223 10.2028ZM23.8191 10.1963L23.7277 10.3105L23.8191 10.1963Z" fill="#122C3D"/>
</svg>
