<?xml version="1.0" ?>
<svg xmlns="http://www.w3.org/2000/svg" width="28" height="28" viewBox="0 0 28 28">
  <path d="M7.882,13.976C7.371,15.103 6.043,15.601 4.916,15.089C3.79,14.578 3.292,13.25 3.803,12.123C3.809,12.11 3.815,12.096 3.822,12.083C4.186,11.3 6.069,9.846 7.172,9.039C7.422,8.857 7.772,8.913 7.954,9.163C8.016,9.248 8.053,9.348 8.06,9.453C8.151,10.818 8.247,13.194 7.882,13.976Z" fill="#ffffff"/>
  <path d="M9.315,21.793C8.985,22.492 8.15,22.791 7.451,22.46C6.758,22.132 6.457,21.307 6.778,20.61C6.974,20.19 7.862,19.479 8.542,18.98C8.791,18.798 9.142,18.851 9.324,19.101C9.387,19.187 9.425,19.289 9.432,19.395C9.484,20.236 9.512,21.372 9.315,21.793Z" fill="#ffffff"/>
  <path d="M23.983,12.764C23.526,13.745 22.359,14.169 21.378,13.712C20.397,13.254 19.973,12.088 20.43,11.107C20.738,10.443 22.256,9.312 23.206,8.649C23.46,8.473 23.809,8.536 23.985,8.791C24.04,8.87 24.073,8.962 24.082,9.057C24.184,10.211 24.292,12.1 23.983,12.764Z" fill="#ffffff"/>
  <path d="M18.967,22.879C18.321,24.284 16.658,24.899 15.253,24.254C13.848,23.608 13.233,21.945 13.878,20.54C13.883,20.531 13.887,20.522 13.891,20.513C14.373,19.479 16.878,17.709 18.161,16.85C18.417,16.678 18.763,16.746 18.935,17.001C18.986,17.077 19.018,17.163 19.028,17.254C19.195,18.788 19.449,21.846 18.967,22.879Z" fill="#ffffff"/>
  <path d="M12.824,14.702C12.568,15.265 11.905,15.514 11.342,15.258C10.778,15.002 10.529,14.338 10.785,13.775C10.788,13.768 10.791,13.762 10.795,13.755C10.937,13.451 11.509,13.014 11.999,12.681C12.253,12.506 12.602,12.571 12.777,12.825C12.831,12.904 12.864,12.995 12.873,13.089C12.932,13.679 12.966,14.397 12.824,14.702Z" fill="#ffffff"/>
  <path d="M18.144,13.582C17.883,14.142 17.216,14.385 16.656,14.123C16.095,13.862 15.852,13.196 16.114,12.635C16.256,12.331 16.828,11.894 17.318,11.561C17.573,11.386 17.921,11.451 18.097,11.705C18.15,11.784 18.184,11.875 18.193,11.969C18.252,12.559 18.284,13.277 18.144,13.582Z" fill="#ffffff"/>
  <path d="M14.075,8.633C13.745,9.332 12.91,9.631 12.211,9.3C11.517,8.972 11.217,8.147 11.538,7.45C11.733,7.03 12.622,6.32 13.302,5.82C13.551,5.637 13.901,5.692 14.084,5.941C14.147,6.027 14.184,6.129 14.191,6.235C14.244,7.076 14.271,8.212 14.075,8.633Z" fill="#ffffff"/>
</svg>
