<?xml version="1.0" ?>
<svg xmlns="http://www.w3.org/2000/svg" width="22" height="22" viewBox="0 0 22 22">
  <g>
    <path d="M13.833,10.618C13.628,10.618 13.425,10.636 13.225,10.672C12.482,8.796 10.669,7.554 8.625,7.554C6.581,7.554 4.768,8.796 4.026,10.672C3.826,10.636 3.623,10.618 3.418,10.618C3.418,10.618 3.418,10.618 3.418,10.618C2.506,10.618 1.648,10.974 1.002,11.62C0.356,12.266 0,13.124 0,14.035C0,15.92 1.533,17.453 3.418,17.453H13.833C15.717,17.453 17.25,15.92 17.25,14.035C17.25,12.151 15.717,10.618 13.833,10.618Z" fill="#FFF4F4"/>
    <path d="M18.582,7.61C18.378,7.61 18.174,7.628 17.974,7.664C17.232,5.788 15.419,4.547 13.375,4.547C11.867,4.547 10.484,5.212 9.56,6.335C10.481,6.473 11.359,6.814 12.137,7.343C12.904,7.865 13.537,8.542 14.001,9.331C16.519,9.421 18.539,11.497 18.539,14.036C18.539,14.174 18.533,14.31 18.521,14.445H18.582C20.467,14.445 22,12.912 22,11.028C22,9.143 20.467,7.61 18.582,7.61Z" fill="#FFF4F4"/>
  </g>
</svg>
