<svg
    xmlns="http://www.w3.org/2000/svg"
    viewBox="0 0 96 96"
    id="vector">
    <g
        id="group"
        transform="translate(2.5 0)">
        <path
            id="path"
            d="M 50.37 0.37 C 39.78 0.37 30.82 7.28 27.71 16.82 C 21.76 18.14 16.91 22.35 14.68 27.9 C 6.63 28.17 0.19 34.76 0.19 42.88 C 0.19 50.98 6.61 57.56 14.64 57.86 L 14.64 57.89 L 50.65 57.89 L 50.65 0.39 C 50.56 0.38 50.47 0.37 50.37 0.37 Z"
            fill="#ffffff"/>
        <path
            id="path_1"
            d="M 74.02 21.28 C 72.59 9.59 62.7 0.52 50.66 0.38 L 50.66 57.88 L 73.36 57.88 L 73.36 57.84 C 83.11 57.42 90.89 49.4 90.89 39.54 C 90.88 29.91 83.45 22.03 74.02 21.28 Z"
            fill="#f2f4f9"/>
        <path
            id="path_2"
            d="M 31.02 46.38 L 16.53 50.27 L 15.3 50.6 C 13.86 51.07 12.51 51.87 11.36 53.01 C 7.46 56.91 7.45 63.24 11.36 67.15 L 31.97 46.54 C 31.78 46.34 31.45 46.27 31.02 46.38 Z"
            fill="#00e1ff"/>
        <path
            id="path_3"
            d="M 27.92 63.22 L 28.25 61.98 L 32.14 47.49 C 32.25 47.07 32.18 46.74 31.98 46.54 L 11.37 67.15 C 15.27 71.05 21.6 71.05 25.5 67.15 C 26.65 66.01 27.44 64.66 27.92 63.22 Z"
            fill="#00c6f4"/>
        <path
            id="path_4"
            d="M 32.14 47.49 L 29.35 57.88 L 43.32 57.88 L 31.98 46.54 C 32.18 46.74 32.25 47.08 32.14 47.49 Z"
            fill="#122c3d"
            fill-opacity="0.2"
            stroke-opacity="0.2"/>
        <path
            id="path_5"
            d="M 78.26 50.5 L 76.39 57.44 C 78.84 56.92 81.1 55.92 83.08 54.53 L 78.1 49.54 C 78.31 49.74 78.38 50.08 78.26 50.5 Z"
            fill="#122c3d"
            fill-opacity="0.2"
            stroke-opacity="0.2"/>
        <path
            id="path_6"
            d="M 77.15 49.38 L 62.66 53.27 L 61.43 53.6 C 59.99 54.07 58.64 54.87 57.5 56.01 C 53.6 59.91 53.6 66.24 57.5 70.15 L 78.11 49.54 C 77.9 49.34 77.57 49.27 77.15 49.38 Z"
            fill="#00e1ff"/>
        <path
            id="path_7"
            d="M 74.04 66.23 L 74.37 64.99 L 78.26 50.5 C 78.37 50.08 78.3 49.74 78.1 49.54 L 57.49 70.15 C 61.39 74.05 67.72 74.05 71.63 70.15 C 72.77 69.01 73.57 67.66 74.04 66.23 Z"
            fill="#00c6f4"/>
        <path
            id="path_8"
            d="M 53.47 57.88 L 37.06 57.88 L 29.83 76.01 L 41.43 76.01 L 34.34 95.25 L 57.31 69.4 L 45.79 69.4 L 53.47 57.88 Z"
            fill="#ffda24"/>
        <path
            id="path_9"
            d="M 53.47 57.88 L 37.06 57.88 L 37.04 57.92 L 46.88 67.77 L 53.47 57.88 Z"
            fill="#ffa300"/>
    </g>
</svg>
