<svg width="31" height="28" viewBox="0 0 31 28" fill="none" xmlns="http://www.w3.org/2000/svg">
<path d="M17.3362 0.950195C13.8802 0.950195 10.9561 3.20527 9.94113 6.31866C7.99935 6.74944 6.41655 8.12338 5.68879 9.93463C3.06167 10.0227 0.959961 12.1734 0.959961 14.8234C0.959961 17.4668 3.05514 19.6142 5.67573 19.7121V19.7219H17.4276V0.956719C17.3982 0.953455 17.3689 0.950195 17.3362 0.950195Z" fill="white"/>
<path d="M25.0545 7.77385C24.5878 3.95881 21.3602 0.998814 17.4309 0.953125V19.7183H24.8391V19.7052C28.021 19.5682 30.56 16.9508 30.56 13.733C30.5567 10.5903 28.1319 8.01861 25.0545 7.77385Z" fill="#F2F4F9"/>
<path d="M17.1797 26.2422L16.5988 25.906L17.1014 25.7722C17.1275 25.7657 17.1438 25.7363 17.1373 25.7102L17.0557 25.4067C17.0491 25.3806 17.0198 25.3643 16.9937 25.3708L16.0864 25.6123L15.3456 25.1848L16.0864 24.7573L16.9937 24.9988C17.0198 25.0053 17.0491 24.989 17.0557 24.9629L17.1373 24.6594C17.1438 24.6333 17.1275 24.6039 17.1014 24.5974L16.5988 24.4636L17.1797 24.1274C17.2058 24.1144 17.2123 24.0817 17.1993 24.0589L17.0426 23.788C17.0296 23.7652 16.9969 23.7554 16.9741 23.7684L16.3932 24.1013L16.5303 23.5987C16.5368 23.5726 16.5205 23.5433 16.4943 23.5367L16.1908 23.4551C16.1647 23.4486 16.1354 23.4649 16.1288 23.491L15.8841 24.3983L15.1433 24.8258V24.0099L15.8058 23.3474C15.8253 23.3279 15.8253 23.2952 15.8058 23.2756L15.5838 23.0537C15.5642 23.0341 15.5316 23.0341 15.512 23.0537L15.1433 23.4225V22.7143C15.1433 22.685 15.1204 22.6621 15.091 22.6621H14.7777C14.7484 22.6621 14.7255 22.685 14.7255 22.7143V23.4225L14.3568 23.0537C14.3372 23.0341 14.3045 23.0341 14.285 23.0537L14.063 23.2756C14.0435 23.2952 14.0435 23.3279 14.063 23.3474L14.7255 24.0099V24.8258L14.0206 24.4179L13.7759 23.5106C13.7693 23.4845 13.74 23.4682 13.7138 23.4747L13.4103 23.5563C13.3842 23.5628 13.3679 23.5922 13.3744 23.6183L13.5115 24.1242L12.898 23.7717C12.8751 23.7586 12.8425 23.7652 12.8294 23.7913L12.6728 24.0621C12.6597 24.085 12.6663 24.1176 12.6924 24.1307L13.3059 24.4864L12.8001 24.6202C12.774 24.6267 12.7576 24.6561 12.7642 24.6822L12.8458 24.9857C12.8523 25.0118 12.8817 25.0281 12.9078 25.0216L13.815 24.7769L14.5199 25.1848L13.815 25.5927L12.9078 25.348C12.8817 25.3414 12.8523 25.3578 12.8458 25.3839L12.7642 25.6874C12.7576 25.7135 12.774 25.7429 12.8001 25.7494L13.3059 25.8832L12.6924 26.2389C12.6695 26.252 12.6597 26.2846 12.6728 26.3074L12.8294 26.5783C12.8425 26.6044 12.8751 26.611 12.898 26.5979L13.5115 26.2454L13.3744 26.748C13.3679 26.7741 13.3842 26.8035 13.4103 26.81L13.7138 26.8916C13.7432 26.8981 13.7693 26.8818 13.7759 26.8557L14.0206 25.9485L14.7255 25.5405V26.3956L14.063 27.0581C14.0435 27.0776 14.0435 27.1103 14.063 27.1298L14.285 27.3518C14.3045 27.3713 14.3372 27.3713 14.3568 27.3518L14.7255 26.983V27.652C14.7255 27.6781 14.7484 27.7042 14.7777 27.7042H15.091C15.1204 27.7042 15.1433 27.6814 15.1433 27.652V26.983L15.512 27.3518C15.5316 27.3713 15.5642 27.3713 15.5838 27.3518L15.8058 27.1298C15.8253 27.1103 15.8253 27.0776 15.8058 27.0581L15.1433 26.3956V25.5405L15.8841 25.968L16.1288 26.8753C16.1354 26.9014 16.1647 26.9177 16.1908 26.9112L16.4943 26.8296C16.5205 26.8231 16.5368 26.7937 16.5303 26.7676L16.3932 26.265L16.9741 26.5979C16.9969 26.611 17.0296 26.6044 17.0426 26.5783L17.1993 26.3074C17.2123 26.2879 17.2025 26.2552 17.1797 26.2422Z" fill="#00E1FF"/>
<path d="M12.0104 22.2356L10.8714 21.5797L11.8602 21.3153C11.9124 21.3023 11.9451 21.2468 11.932 21.1913L11.7721 20.5941C11.7591 20.5419 11.7036 20.5093 11.6514 20.5223L9.87275 20.9988L8.4205 20.1601L9.87275 19.3213L11.6514 19.7978C11.7036 19.8109 11.7591 19.7815 11.7721 19.726L11.932 19.1288C11.9451 19.0766 11.9157 19.0211 11.8602 19.0048L10.8714 18.7404L12.0104 18.0845C12.0593 18.0584 12.0756 17.9963 12.0462 17.9474L11.7362 17.4122C11.7101 17.3632 11.6481 17.3469 11.5991 17.3763L10.4602 18.0323L10.7245 17.0434C10.7376 16.9912 10.7082 16.9357 10.6527 16.9194L10.0555 16.7595C10.0033 16.7432 9.94782 16.7758 9.9315 16.8313L9.45502 18.6132L8.00277 19.4519V17.8528L9.3049 16.5506C9.34407 16.5115 9.34407 16.4495 9.3049 16.4103L8.86759 15.973C8.82843 15.9338 8.76316 15.9338 8.72727 15.973L8.00277 16.6975V15.3072C8.00277 15.2517 7.95708 15.2061 7.9016 15.2061H7.28479C7.22931 15.2061 7.18362 15.2517 7.18362 15.3072V16.6975L6.45913 15.973C6.41996 15.9338 6.35796 15.9338 6.3188 15.973L5.88149 16.4103C5.84233 16.4495 5.84233 16.5115 5.88149 16.5506L7.18362 17.8528V19.4519L5.79663 18.6523L5.32017 16.8737C5.30711 16.8215 5.25163 16.7888 5.19615 16.8019L4.59892 16.9618C4.54671 16.9749 4.51408 17.0304 4.52714 17.0826L4.79148 18.0714L3.58725 17.3763C3.53829 17.3502 3.47628 17.3632 3.45017 17.4122L3.14015 17.9474C3.11404 17.9963 3.13035 18.0551 3.17604 18.0845L4.38027 18.7796L3.39143 19.0439C3.33922 19.057 3.30658 19.1125 3.31964 19.1679L3.47954 19.7652C3.4926 19.8174 3.54808 19.85 3.60029 19.837L5.38217 19.3605L6.76916 20.1601L5.38217 20.9596L3.60029 20.4831C3.54808 20.4701 3.4926 20.4995 3.47954 20.5549L3.31964 21.1522C3.30658 21.2044 3.33595 21.2599 3.39143 21.2729L4.38354 21.5373L3.17931 22.2324C3.13035 22.2585 3.11403 22.3205 3.1434 22.3694L3.45344 22.9047C3.47955 22.9536 3.54155 22.9699 3.5905 22.9406L4.79474 22.2454L4.53039 23.2343C4.51734 23.2865 4.54671 23.342 4.60219 23.3583L5.19942 23.5182C5.2549 23.5313 5.30711 23.5019 5.32342 23.4464L5.7999 21.6678L7.18689 20.8682V22.5457L5.88475 23.8478C5.84558 23.887 5.84558 23.949 5.88475 23.9881L6.32206 24.4255C6.36123 24.4646 6.42323 24.4646 6.46239 24.4255L7.18689 23.701V25.0162C7.18689 25.0716 7.23258 25.1173 7.28806 25.1173H7.90486C7.96034 25.1173 8.00602 25.0716 8.00602 25.0162V23.701L8.73052 24.4255C8.76969 24.4646 8.8317 24.4646 8.87086 24.4255L9.30817 23.9881C9.34733 23.949 9.34733 23.887 9.30817 23.8478L8.00602 22.5457V20.8682L9.45829 21.707L9.93476 23.4856C9.94781 23.5378 10.0033 23.5704 10.0588 23.5574L10.656 23.3975C10.7082 23.3844 10.7409 23.3289 10.7278 23.2734L10.4634 22.2846L11.6024 22.9406C11.6514 22.9699 11.7101 22.9504 11.7395 22.9047L12.0495 22.3694C12.0724 22.3238 12.056 22.2618 12.0104 22.2356Z" fill="#00E1FF"/>
<path opacity="0.2" d="M9.89246 17.0041L9.33114 16.4427L9.32135 16.4362C9.34093 16.4721 9.34094 16.5178 9.3083 16.5472L8.00616 17.8493V19.4484L9.45842 18.6097L9.89246 17.0041ZM4.65454 19.5626C4.98416 19.6475 5.32683 19.6997 5.67929 19.7128V19.7225H6.01868L5.39862 19.3636L4.65454 19.5626ZM5.80656 18.6554L7.19355 19.4549V18.75L5.33661 16.8931L5.80656 18.6554ZM8.00942 16.6973L8.71108 15.9956L7.99963 15.2842C8.0029 15.294 8.00942 15.3005 8.00942 15.3103V16.6973V16.6973ZM14.0404 19.7193L11.7364 17.4152L12.0464 17.9505C12.0725 17.9994 12.0562 18.0582 12.0105 18.0875L10.8715 18.7435L11.8604 19.0078C11.9126 19.0242 11.9452 19.0764 11.9322 19.1319L11.7755 19.7193H14.0404ZM11.3023 17.5523L10.7116 16.9616H10.7083C10.7279 16.9845 10.7377 17.0138 10.7312 17.0465L10.4668 18.0353L11.3023 17.5523ZM9.18429 19.7193H11.348L9.86963 19.3244L9.18429 19.7193Z" fill="#122C3D"/>
<path d="M27.1922 22.2347L26.0533 21.5787L27.0421 21.3144C27.0943 21.3013 27.127 21.2458 27.1139 21.1903L26.954 20.5931C26.9409 20.5409 26.8855 20.5083 26.8332 20.5213L25.0546 20.9978L23.6024 20.1591L25.0546 19.3204L26.8332 19.7968C26.8855 19.8099 26.9409 19.7805 26.954 19.725L27.1139 19.1278C27.127 19.0756 27.0976 19.0201 27.0421 19.0038L26.0533 18.7395L27.1922 18.0835C27.2412 18.0574 27.2575 17.9954 27.2281 17.9464L26.9181 17.4112C26.892 17.3623 26.83 17.3459 26.781 17.3753L25.6421 18.0313L25.9064 17.0424C25.9195 16.9902 25.8901 16.9347 25.8346 16.9184L25.2374 16.7585C25.1852 16.7422 25.1297 16.7748 25.1134 16.8303L24.6369 18.6122L23.1847 19.4509V17.8518L24.4868 16.5496C24.526 16.5105 24.526 16.4485 24.4868 16.4093L24.0495 15.972C24.0103 15.9328 23.945 15.9328 23.9092 15.972L23.1847 16.6965V15.3062C23.1847 15.2508 23.139 15.2051 23.0835 15.2051H22.4667C22.4112 15.2051 22.3655 15.2508 22.3655 15.3062V16.6965L21.641 15.972C21.6018 15.9328 21.5398 15.9328 21.5007 15.972L21.0634 16.4093C21.0242 16.4485 21.0242 16.5105 21.0634 16.5496L22.3655 17.8518V19.4509L20.9785 18.6513L20.5021 16.8727C20.489 16.8205 20.4335 16.7879 20.378 16.8009L19.7808 16.9608C19.7286 16.9739 19.696 17.0294 19.709 17.0816L19.9734 18.0704L18.7691 17.3753C18.7202 17.3492 18.6582 17.3623 18.6321 17.4112L18.322 17.9464C18.2959 17.9954 18.3122 18.0541 18.3579 18.0835L19.5622 18.7786L18.5733 19.043C18.5211 19.056 18.4885 19.1115 18.5015 19.167L18.6614 19.7642C18.6745 19.8164 18.73 19.849 18.7822 19.836L20.5641 19.3595L21.951 20.1591L20.5641 20.9586L18.7822 20.4822C18.73 20.4691 18.6745 20.4985 18.6614 20.554L18.5015 21.1512C18.4885 21.2034 18.5178 21.2589 18.5733 21.2719L19.5654 21.5363L18.3612 22.2314C18.3122 22.2575 18.2959 22.3195 18.3253 22.3685L18.6353 22.9037C18.6614 22.9526 18.7234 22.969 18.7724 22.9396L19.9766 22.2445L19.7123 23.2333C19.6992 23.2855 19.7286 23.341 19.7841 23.3573L20.3813 23.5172C20.4368 23.5303 20.489 23.5009 20.5053 23.4454L20.9818 21.6668L22.3688 20.8673V22.5447L21.0666 23.8468C21.0275 23.886 21.0275 23.948 21.0666 23.9872L21.5039 24.4245C21.5431 24.4636 21.6051 24.4636 21.6443 24.4245L22.3688 23.7V25.0152C22.3688 25.0707 22.4145 25.1163 22.4699 25.1163H23.0868C23.1422 25.1163 23.1879 25.0707 23.1879 25.0152V23.7L23.9124 24.4245C23.9516 24.4636 24.0136 24.4636 24.0527 24.4245L24.4901 23.9872C24.5292 23.948 24.5292 23.886 24.4901 23.8468L23.1879 22.5447V20.8673L24.6402 21.706L25.1167 23.4846C25.1297 23.5368 25.1852 23.5694 25.2407 23.5564L25.8379 23.3965C25.8901 23.3834 25.9227 23.3279 25.9097 23.2725L25.6453 22.2836L26.7843 22.9396C26.8333 22.969 26.892 22.9494 26.9214 22.9037L27.2314 22.3685C27.2575 22.3228 27.2412 22.2608 27.1922 22.2347Z" fill="#00E1FF"/>
<path opacity="0.2" d="M24.3658 19.7183H24.8357V19.7053C25.0218 19.6955 25.2078 19.6792 25.3873 19.653C25.5635 19.6269 25.7365 19.5943 25.9094 19.5584C25.9127 19.5584 25.916 19.5584 25.9192 19.5551L25.0511 19.3234L24.3658 19.7183ZM26.4838 17.5513L25.8931 16.9606H25.8899C25.9094 16.9835 25.9192 17.0129 25.9127 17.0455L25.6484 18.0343L26.4838 17.5513ZM25.0772 17.0031L24.5159 16.4418L24.5061 16.4352C24.5159 16.4548 24.5192 16.4711 24.5192 16.4907C24.5192 16.5103 24.5127 16.5299 24.4963 16.5462L23.1942 17.8483V19.4474L24.6465 18.6087L25.0772 17.0031ZM19.2454 19.7183H21.2002L20.5801 19.3593L19.2454 19.7183ZM26.9211 17.4175L27.2312 17.9527C27.2573 18.0017 27.241 18.0604 27.1953 18.0898L26.0563 18.7458L27.0451 19.0101C27.0974 19.0264 27.13 19.0787 27.1169 19.1341L27.1137 19.1472C27.2834 19.0656 27.4498 18.9808 27.613 18.8828H27.6163C27.7762 18.7882 27.9328 18.687 28.0829 18.5761L26.9211 17.4175ZM23.1909 16.6963L23.8926 15.9946L23.1811 15.2832C23.1844 15.293 23.1909 15.2995 23.1909 15.3093V16.6963V16.6963ZM20.9881 18.6544L22.3751 19.454V18.749L20.5181 16.8921L20.9881 18.6544Z" fill="#122C3D"/>
</svg>
