<?xml version="1.0" ?>
<svg xmlns="http://www.w3.org/2000/svg" width="21" height="21" viewBox="0 0 21 21">
  <g transform="translate(1,1)">
    <path d="M3.465,14.069C3.241,14.245 3.118,14.343 2.813,14.343C2.507,14.343 2.384,14.245 2.16,14.069C1.885,13.852 1.509,13.555 0.816,13.555V14.672C1.122,14.672 1.245,14.769 1.469,14.946C1.744,15.163 2.12,15.46 2.813,15.46C3.505,15.46 3.882,15.163 4.157,14.946C4.38,14.769 4.504,14.672 4.809,14.672C4.829,14.672 4.848,14.672 4.867,14.673C4.723,14.32 4.608,13.953 4.524,13.573C4.008,13.641 3.7,13.884 3.465,14.069Z" fill="#ffffff"/>
    <path d="M4.456,11.205C3.98,11.284 3.689,11.514 3.465,11.691C3.241,11.867 3.118,11.964 2.813,11.964C2.507,11.964 2.384,11.867 2.16,11.691C1.885,11.474 1.509,11.177 0.816,11.177V12.293C1.122,12.293 1.245,12.391 1.469,12.567C1.744,12.784 2.12,13.081 2.813,13.081C3.505,13.081 3.882,12.784 4.157,12.567C4.236,12.505 4.303,12.452 4.369,12.411C4.364,12.3 4.361,12.188 4.361,12.075C4.361,11.81 4.393,11.52 4.456,11.205Z" fill="#ffffff"/>
    <path d="M4.809,8.799C4.116,8.799 3.74,9.096 3.465,9.313C3.241,9.489 3.118,9.586 2.813,9.586C2.507,9.586 2.384,9.489 2.16,9.313C1.885,9.096 1.509,8.799 0.816,8.799V9.915C1.122,9.915 1.245,10.013 1.469,10.189C1.744,10.406 2.12,10.703 2.813,10.703C3.505,10.703 3.882,10.406 4.157,10.189C4.38,10.013 4.504,9.915 4.809,9.915C4.818,9.915 4.828,9.915 4.837,9.916C4.963,9.58 5.114,9.226 5.29,8.853C5.148,8.819 4.99,8.799 4.809,8.799Z" fill="#ffffff"/>
    <path d="M14.932,4.845C13.343,2.488 11.732,0.538 11.716,0.519L11.286,0L10.856,0.519C10.84,0.538 9.228,2.488 7.64,4.845C6.62,6.357 5.835,7.695 5.29,8.853C5.691,8.948 5.95,9.152 6.153,9.313C6.377,9.489 6.5,9.586 6.805,9.586C7.11,9.586 7.234,9.489 7.458,9.313C7.732,9.096 8.109,8.799 8.802,8.799C9.494,8.799 9.871,9.096 10.145,9.313C10.369,9.489 10.492,9.586 10.798,9.586C11.103,9.586 11.226,9.489 11.45,9.313C11.725,9.096 12.101,8.799 12.794,8.799V9.915C12.489,9.915 12.366,10.013 12.142,10.189C11.867,10.406 11.491,10.703 10.798,10.703C10.105,10.703 9.729,10.406 9.454,10.189C9.23,10.013 9.107,9.915 8.802,9.915C8.496,9.915 8.373,10.013 8.149,10.189C7.874,10.406 7.498,10.703 6.805,10.703C6.112,10.703 5.736,10.406 5.461,10.189C5.245,10.018 5.122,9.922 4.837,9.916C4.661,10.383 4.534,10.813 4.456,11.205C4.563,11.187 4.681,11.177 4.809,11.177C5.502,11.177 5.878,11.474 6.153,11.691C6.376,11.867 6.5,11.964 6.805,11.964C7.11,11.964 7.234,11.867 7.458,11.691C7.732,11.474 8.108,11.177 8.802,11.177C9.494,11.177 9.871,11.474 10.145,11.691C10.369,11.867 10.492,11.964 10.798,11.964C11.103,11.964 11.226,11.867 11.45,11.691C11.725,11.474 12.101,11.177 12.794,11.177V12.293C12.489,12.293 12.366,12.391 12.142,12.567C11.867,12.784 11.491,13.081 10.798,13.081C10.105,13.081 9.729,12.784 9.454,12.567C9.23,12.391 9.107,12.293 8.802,12.293C8.496,12.293 8.373,12.391 8.149,12.567C7.874,12.784 7.498,13.081 6.805,13.081C6.112,13.081 5.736,12.784 5.461,12.567C5.237,12.391 5.114,12.293 4.809,12.293C4.612,12.293 4.49,12.334 4.369,12.411C4.388,12.808 4.441,13.196 4.524,13.573C4.613,13.562 4.707,13.556 4.809,13.556C5.502,13.556 5.878,13.852 6.153,14.069C6.376,14.245 6.499,14.343 6.805,14.343C7.11,14.343 7.234,14.245 7.457,14.069C7.732,13.852 8.108,13.556 8.801,13.556C9.494,13.556 9.871,13.852 10.145,14.069C10.369,14.245 10.492,14.343 10.798,14.343C11.103,14.343 11.226,14.245 11.45,14.069C11.725,13.852 12.101,13.556 12.794,13.556V14.672C12.489,14.672 12.365,14.769 12.142,14.946C11.867,15.163 11.49,15.46 10.798,15.46C10.105,15.46 9.728,15.163 9.454,14.946C9.23,14.769 9.107,14.672 8.801,14.672C8.496,14.672 8.373,14.769 8.149,14.946C7.874,15.163 7.498,15.46 6.805,15.46C6.112,15.46 5.736,15.163 5.461,14.946C5.252,14.781 5.131,14.685 4.867,14.673C5.896,17.208 8.386,19 11.286,19C15.104,19 18.211,15.893 18.211,12.075C18.211,10.504 17.107,8.071 14.932,4.845Z" fill="#ffffff"/>
  </g>
</svg>
